ISO-10303-21;
HEADER;
/****************************************************************
 * Generated by software with PDE/Lib inside                    *
 * PDElib Version v51a, created Tue 12/06/2005                  *
 * International Technegroup Inc. (www.iti-oh.com)              *
 ****************************************************************/
FILE_DESCRIPTION((''),'2;1');
FILE_NAME('I:\\Kurz\\oerlikon_neu\\Fliehkraftkupplung\\682Modelle-Ausfuehrung_mit_Passfeder\\Modell_Deckel_Pos04.stp','2010-05-04T19:52:36',('Administrator'),(''),'Autodesk Inventor 11','Autodesk Inventor 11','');
FILE_SCHEMA(('AUTOMOTIVE_DESIGN { 1 0 10303 214 1 1 1 1 }'));
ENDSEC;
DATA;
#5=APPLICATION_CONTEXT('automotive design');
#6=APPLICATION_PROTOCOL_DEFINITION('International Standard','automotive_design',2001,#5);
#7=PRODUCT_CONTEXT('',#5,'mechanical');
#8=PRODUCT('Pos4_Deckel','Pos4_Deckel',$,(#7));
#9=PRODUCT_RELATED_PRODUCT_CATEGORY('part',$,(#8));
#10=PRODUCT_DEFINITION_FORMATION('',$,#8);
#11=PRODUCT_DEFINITION_CONTEXT('part definition',#5,'design');
#12=PRODUCT_DEFINITION('',$,#10,#11);
#18=(NAMED_UNIT(*)PLANE_ANGLE_UNIT()SI_UNIT($,.RADIAN.));
#19=DIMENSIONAL_EXPONENTS(0.0,0.0,0.0,0.0,0.0,0.0,0.0);
#20=PLANE_ANGLE_MEASURE_WITH_UNIT(PLANE_ANGLE_MEASURE(0.017453292500000),#18);
#24=(CONVERSION_BASED_UNIT('DEGREE',#20)NAMED_UNIT(#19)PLANE_ANGLE_UNIT());
#28=(NAMED_UNIT(*)SI_UNIT($,.STERADIAN.)SOLID_ANGLE_UNIT());
#32=(LENGTH_UNIT()NAMED_UNIT(*)SI_UNIT(.MILLI.,.METRE.));
#34=UNCERTAINTY_MEASURE_WITH_UNIT(LENGTH_MEASURE(0.010000000000000),#32,'DISTANCE_ACCURACY_VALUE','');
#36=(GEOMETRIC_REPRESENTATION_CONTEXT(3)GLOBAL_UNCERTAINTY_ASSIGNED_CONTEXT((#34))GLOBAL_UNIT_ASSIGNED_CONTEXT((#24,#28,#32))REPRESENTATION_CONTEXT('None','None'));
#37=AXIS2_PLACEMENT_3D('',#38,#39,#40);
#38=CARTESIAN_POINT('',(0.0,0.0,0.0));
#39=DIRECTION('',(0.0,0.0,1.0));
#40=DIRECTION('',(1.0,0.0,0.0));
#41=SHAPE_REPRESENTATION('',(#37),#36);
#42=PRODUCT_DEFINITION_SHAPE('','',#12);
#43=SHAPE_DEFINITION_REPRESENTATION(#42,#41);
#44=CARTESIAN_POINT('',(18.250000000000014,0.0,0.0));
#45=DIRECTION('',(-1.0,0.0,0.0));
#46=DIRECTION('',(0.0,0.0,-1.0));
#47=AXIS2_PLACEMENT_3D('',#44,#45,#46);
#48=CONICAL_SURFACE('',#47,67.250000000000000,45.000000000000085);
#49=CARTESIAN_POINT('',(19.000000000000014,8.143632E-015,66.500000000000000));
#50=VERTEX_POINT('',#49);
#51=CARTESIAN_POINT('',(19.000000000000014,0.0,0.0));
#52=DIRECTION('',(-1.0,0.0,0.0));
#53=DIRECTION('',(0.0,0.0,-1.0));
#54=AXIS2_PLACEMENT_3D('',#51,#52,#53);
#55=CIRCLE('',#54,66.500000000000000);
#56=EDGE_CURVE('',#50,#50,#55,.T.);
#57=ORIENTED_EDGE('',*,*,#56,.T.);
#58=EDGE_LOOP('',(#57));
#59=FACE_OUTER_BOUND('',#58,.T.);
#60=CARTESIAN_POINT('',(17.500000000000014,-8.327323E-015,68.0));
#61=VERTEX_POINT('',#60);
#62=CARTESIAN_POINT('',(17.500000000000014,0.0,0.0));
#63=DIRECTION('',(1.0,0.0,0.0));
#64=DIRECTION('',(0.0,0.0,-1.0));
#65=AXIS2_PLACEMENT_3D('',#62,#63,#64);
#66=CIRCLE('',#65,68.0);
#67=EDGE_CURVE('',#61,#61,#66,.T.);
#68=ORIENTED_EDGE('',*,*,#67,.T.);
#69=EDGE_LOOP('',(#68));
#70=FACE_BOUND('',#69,.T.);
#71=ADVANCED_FACE('',(#59,#70),#48,.T.);
#72=CARTESIAN_POINT('',(0.0,0.0,0.0));
#73=DIRECTION('',(-1.0,0.0,0.0));
#74=DIRECTION('',(0.0,0.0,1.0));
#75=AXIS2_PLACEMENT_3D('',#72,#73,#74);
#76=CYLINDRICAL_SURFACE('',#75,68.0);
#77=CARTESIAN_POINT('',(14.500000000000011,8.327323E-015,68.0));
#78=VERTEX_POINT('',#77);
#79=CARTESIAN_POINT('',(14.500000000000011,0.0,0.0));
#80=DIRECTION('',(-1.0,0.0,0.0));
#81=DIRECTION('',(0.0,0.0,1.0));
#82=AXIS2_PLACEMENT_3D('',#79,#80,#81);
#83=CIRCLE('',#82,68.0);
#84=EDGE_CURVE('',#78,#78,#83,.T.);
#85=ORIENTED_EDGE('',*,*,#84,.F.);
#86=EDGE_LOOP('',(#85));
#87=FACE_OUTER_BOUND('',#86,.T.);
#88=ORIENTED_EDGE('',*,*,#67,.F.);
#89=EDGE_LOOP('',(#88));
#90=FACE_BOUND('',#89,.T.);
#91=ADVANCED_FACE('',(#87,#90),#76,.T.);
#92=CARTESIAN_POINT('',(19.000000000000014,-68.0,0.0));
#93=DIRECTION('',(1.0,0.0,0.0));
#94=DIRECTION('',(0.0,0.0,-1.0));
#95=AXIS2_PLACEMENT_3D('',#92,#93,#94);
#96=PLANE('',#95);
#97=ORIENTED_EDGE('',*,*,#56,.F.);
#98=EDGE_LOOP('',(#97));
#99=FACE_OUTER_BOUND('',#98,.T.);
#100=CARTESIAN_POINT('',(19.000000000000014,0.0,62.500000000000000));
#101=VERTEX_POINT('',#100);
#102=CARTESIAN_POINT('',(19.000000000000014,0.0,0.0));
#103=DIRECTION('',(-1.0,0.0,0.0));
#104=DIRECTION('',(0.0,0.0,1.0));
#105=AXIS2_PLACEMENT_3D('',#102,#103,#104);
#106=CIRCLE('',#105,62.500000000000000);
#107=EDGE_CURVE('',#101,#101,#106,.T.);
#108=ORIENTED_EDGE('',*,*,#107,.T.);
#109=EDGE_LOOP('',(#108));
#110=FACE_BOUND('',#109,.T.);
#111=ADVANCED_FACE('',(#99,#110),#96,.T.);
#112=CARTESIAN_POINT('',(0.0,37.500000000000753,64.951905283832474));
#113=DIRECTION('',(-1.0,0.0,0.0));
#114=DIRECTION('',(0.0,0.0,1.0));
#115=AXIS2_PLACEMENT_3D('',#112,#113,#114);
#116=CYLINDRICAL_SURFACE('',#115,7.499999999999996);
#117=CARTESIAN_POINT('',(8.599999999999998,37.500000000000753,72.451905283832460));
#118=VERTEX_POINT('',#117);
#119=CARTESIAN_POINT('',(8.599999999999998,37.500000000000753,64.951905283832474));
#120=DIRECTION('',(-1.0,0.0,0.0));
#121=DIRECTION('',(0.0,0.0,1.0));
#122=AXIS2_PLACEMENT_3D('',#119,#120,#121);
#123=CIRCLE('',#122,7.500000000000005);
#124=EDGE_CURVE('',#118,#118,#123,.T.);
#125=ORIENTED_EDGE('',*,*,#124,.F.);
#126=EDGE_LOOP('',(#125));
#127=FACE_OUTER_BOUND('',#126,.T.);
#128=CARTESIAN_POINT('',(3.851860E-031,37.500000000000753,72.451905283832460));
#129=VERTEX_POINT('',#128);
#130=CARTESIAN_POINT('',(3.851860E-031,37.500000000000753,64.951905283832474));
#131=DIRECTION('',(-1.0,0.0,0.0));
#132=DIRECTION('',(0.0,0.0,1.0));
#133=AXIS2_PLACEMENT_3D('',#130,#131,#132);
#134=CIRCLE('',#133,7.499999999999996);
#135=EDGE_CURVE('',#129,#129,#134,.T.);
#136=ORIENTED_EDGE('',*,*,#135,.T.);
#137=EDGE_LOOP('',(#136));
#138=FACE_BOUND('',#137,.T.);
#139=ADVANCED_FACE('',(#127,#138),#116,.F.);
#140=CARTESIAN_POINT('',(0.0,37.500000000000753,64.951905283832474));
#141=DIRECTION('',(-1.0,0.0,0.0));
#142=DIRECTION('',(0.0,0.0,1.0));
#143=AXIS2_PLACEMENT_3D('',#140,#141,#142);
#144=CYLINDRICAL_SURFACE('',#143,4.500000000000004);
#145=CARTESIAN_POINT('',(12.000000000000009,37.500000000000753,69.451905283832474));
#146=VERTEX_POINT('',#145);
#147=CARTESIAN_POINT('',(12.000000000000009,37.500000000000753,64.951905283832474));
#148=DIRECTION('',(1.0,0.0,0.0));
#149=DIRECTION('',(0.0,0.0,-1.0));
#150=AXIS2_PLACEMENT_3D('',#147,#148,#149);
#151=CIRCLE('',#150,4.500000000000004);
#152=EDGE_CURVE('',#146,#146,#151,.T.);
#153=ORIENTED_EDGE('',*,*,#152,.T.);
#154=EDGE_LOOP('',(#153));
#155=FACE_OUTER_BOUND('',#154,.T.);
#156=CARTESIAN_POINT('',(8.599999999999998,37.500000000000753,69.451905283832474));
#157=VERTEX_POINT('',#156);
#158=CARTESIAN_POINT('',(8.599999999999998,37.500000000000753,64.951905283832474));
#159=DIRECTION('',(-1.0,0.0,0.0));
#160=DIRECTION('',(0.0,0.0,1.0));
#161=AXIS2_PLACEMENT_3D('',#158,#159,#160);
#162=CIRCLE('',#161,4.500000000000004);
#163=EDGE_CURVE('',#157,#157,#162,.T.);
#164=ORIENTED_EDGE('',*,*,#163,.T.);
#165=EDGE_LOOP('',(#164));
#166=FACE_BOUND('',#165,.T.);
#167=ADVANCED_FACE('',(#155,#166),#144,.F.);
#168=CARTESIAN_POINT('',(0.0,-37.499999999999396,64.951905283833241));
#169=DIRECTION('',(-1.0,0.0,0.0));
#170=DIRECTION('',(0.0,0.0,1.0));
#171=AXIS2_PLACEMENT_3D('',#168,#169,#170);
#172=CYLINDRICAL_SURFACE('',#171,7.499999999999996);
#173=CARTESIAN_POINT('',(8.599999999999998,-37.499999999999396,72.451905283833241));
#174=VERTEX_POINT('',#173);
#175=CARTESIAN_POINT('',(8.599999999999998,-37.499999999999396,64.951905283833241));
#176=DIRECTION('',(-1.0,0.0,0.0));
#177=DIRECTION('',(0.0,0.0,1.0));
#178=AXIS2_PLACEMENT_3D('',#175,#176,#177);
#179=CIRCLE('',#178,7.500000000000005);
#180=EDGE_CURVE('',#174,#174,#179,.T.);
#181=ORIENTED_EDGE('',*,*,#180,.F.);
#182=EDGE_LOOP('',(#181));
#183=FACE_OUTER_BOUND('',#182,.T.);
#184=CARTESIAN_POINT('',(3.851860E-031,-37.499999999999396,72.451905283833227));
#185=VERTEX_POINT('',#184);
#186=CARTESIAN_POINT('',(3.851860E-031,-37.499999999999396,64.951905283833241));
#187=DIRECTION('',(-1.0,0.0,0.0));
#188=DIRECTION('',(0.0,0.0,1.0));
#189=AXIS2_PLACEMENT_3D('',#186,#187,#188);
#190=CIRCLE('',#189,7.499999999999996);
#191=EDGE_CURVE('',#185,#185,#190,.T.);
#192=ORIENTED_EDGE('',*,*,#191,.T.);
#193=EDGE_LOOP('',(#192));
#194=FACE_BOUND('',#193,.T.);
#195=ADVANCED_FACE('',(#183,#194),#172,.F.);
#196=CARTESIAN_POINT('',(0.0,-37.499999999999396,64.951905283833241));
#197=DIRECTION('',(-1.0,0.0,0.0));
#198=DIRECTION('',(0.0,0.0,1.0));
#199=AXIS2_PLACEMENT_3D('',#196,#197,#198);
#200=CYLINDRICAL_SURFACE('',#199,4.500000000000004);
#201=CARTESIAN_POINT('',(12.000000000000009,-37.499999999999396,69.451905283833241));
#202=VERTEX_POINT('',#201);
#203=CARTESIAN_POINT('',(12.000000000000009,-37.499999999999396,64.951905283833241));
#204=DIRECTION('',(1.0,0.0,0.0));
#205=DIRECTION('',(0.0,0.0,-1.0));
#206=AXIS2_PLACEMENT_3D('',#203,#204,#205);
#207=CIRCLE('',#206,4.500000000000004);
#208=EDGE_CURVE('',#202,#202,#207,.T.);
#209=ORIENTED_EDGE('',*,*,#208,.T.);
#210=EDGE_LOOP('',(#209));
#211=FACE_OUTER_BOUND('',#210,.T.);
#212=CARTESIAN_POINT('',(8.599999999999998,-37.499999999999396,69.451905283833241));
#213=VERTEX_POINT('',#212);
#214=CARTESIAN_POINT('',(8.599999999999998,-37.499999999999396,64.951905283833241));
#215=DIRECTION('',(-1.0,0.0,0.0));
#216=DIRECTION('',(0.0,0.0,1.0));
#217=AXIS2_PLACEMENT_3D('',#214,#215,#216);
#218=CIRCLE('',#217,4.500000000000004);
#219=EDGE_CURVE('',#213,#213,#218,.T.);
#220=ORIENTED_EDGE('',*,*,#219,.T.);
#221=EDGE_LOOP('',(#220));
#222=FACE_BOUND('',#221,.T.);
#223=ADVANCED_FACE('',(#211,#222),#200,.F.);
#224=CARTESIAN_POINT('',(0.0,-75.0,5.237225E-013));
#225=DIRECTION('',(-1.0,0.0,0.0));
#226=DIRECTION('',(0.0,0.0,1.0));
#227=AXIS2_PLACEMENT_3D('',#224,#225,#226);
#228=CYLINDRICAL_SURFACE('',#227,7.499999999999996);
#229=CARTESIAN_POINT('',(8.599999999999998,-75.0,7.500000000000516));
#230=VERTEX_POINT('',#229);
#231=CARTESIAN_POINT('',(8.599999999999998,-75.0,5.237225E-013));
#232=DIRECTION('',(-1.0,0.0,0.0));
#233=DIRECTION('',(0.0,0.0,1.0));
#234=AXIS2_PLACEMENT_3D('',#231,#232,#233);
#235=CIRCLE('',#234,7.499999999999996);
#236=EDGE_CURVE('',#230,#230,#235,.T.);
#237=ORIENTED_EDGE('',*,*,#236,.F.);
#238=EDGE_LOOP('',(#237));
#239=FACE_OUTER_BOUND('',#238,.T.);
#240=CARTESIAN_POINT('',(3.851860E-031,-75.0,7.500000000000516));
#241=VERTEX_POINT('',#240);
#242=CARTESIAN_POINT('',(3.851860E-031,-75.0,5.237225E-013));
#243=DIRECTION('',(-1.0,0.0,0.0));
#244=DIRECTION('',(0.0,0.0,1.0));
#245=AXIS2_PLACEMENT_3D('',#242,#243,#244);
#246=CIRCLE('',#245,7.499999999999996);
#247=EDGE_CURVE('',#241,#241,#246,.T.);
#248=ORIENTED_EDGE('',*,*,#247,.T.);
#249=EDGE_LOOP('',(#248));
#250=FACE_BOUND('',#249,.T.);
#251=ADVANCED_FACE('',(#239,#250),#228,.F.);
#252=CARTESIAN_POINT('',(0.0,-75.0,5.237225E-013));
#253=DIRECTION('',(-1.0,0.0,0.0));
#254=DIRECTION('',(0.0,0.0,1.0));
#255=AXIS2_PLACEMENT_3D('',#252,#253,#254);
#256=CYLINDRICAL_SURFACE('',#255,4.500000000000004);
#257=CARTESIAN_POINT('',(12.000000000000009,-75.0,4.500000000000529));
#258=VERTEX_POINT('',#257);
#259=CARTESIAN_POINT('',(12.000000000000009,-75.0,5.237225E-013));
#260=DIRECTION('',(1.0,0.0,0.0));
#261=DIRECTION('',(0.0,0.0,-1.0));
#262=AXIS2_PLACEMENT_3D('',#259,#260,#261);
#263=CIRCLE('',#262,4.500000000000004);
#264=EDGE_CURVE('',#258,#258,#263,.T.);
#265=ORIENTED_EDGE('',*,*,#264,.T.);
#266=EDGE_LOOP('',(#265));
#267=FACE_OUTER_BOUND('',#266,.T.);
#268=CARTESIAN_POINT('',(8.599999999999998,-75.0,4.500000000000542));
#269=VERTEX_POINT('',#268);
#270=CARTESIAN_POINT('',(8.599999999999998,-75.0,5.237225E-013));
#271=DIRECTION('',(-1.0,0.0,0.0));
#272=DIRECTION('',(0.0,0.0,1.0));
#273=AXIS2_PLACEMENT_3D('',#270,#271,#272);
#274=CIRCLE('',#273,4.500000000000018);
#275=EDGE_CURVE('',#269,#269,#274,.T.);
#276=ORIENTED_EDGE('',*,*,#275,.T.);
#277=EDGE_LOOP('',(#276));
#278=FACE_BOUND('',#277,.T.);
#279=ADVANCED_FACE('',(#267,#278),#256,.F.);
#280=CARTESIAN_POINT('',(0.0,-37.500000000000313,-64.951905283832730));
#281=DIRECTION('',(-1.0,0.0,0.0));
#282=DIRECTION('',(0.0,0.0,1.0));
#283=AXIS2_PLACEMENT_3D('',#280,#281,#282);
#284=CYLINDRICAL_SURFACE('',#283,7.500000000000000);
#285=CARTESIAN_POINT('',(8.599999999999998,-37.500000000000313,-57.451905283832758));
#286=VERTEX_POINT('',#285);
#287=CARTESIAN_POINT('',(8.599999999999998,-37.500000000000313,-64.951905283832730));
#288=DIRECTION('',(-1.0,0.0,0.0));
#289=DIRECTION('',(0.0,0.0,1.0));
#290=AXIS2_PLACEMENT_3D('',#287,#288,#289);
#291=CIRCLE('',#290,7.500000000000000);
#292=EDGE_CURVE('',#286,#286,#291,.T.);
#293=ORIENTED_EDGE('',*,*,#292,.F.);
#294=EDGE_LOOP('',(#293));
#295=FACE_OUTER_BOUND('',#294,.T.);
#296=CARTESIAN_POINT('',(3.851860E-031,-37.500000000000313,-57.451905283832758));
#297=VERTEX_POINT('',#296);
#298=CARTESIAN_POINT('',(3.851860E-031,-37.500000000000313,-64.951905283832730));
#299=DIRECTION('',(-1.0,0.0,0.0));
#300=DIRECTION('',(0.0,0.0,1.0));
#301=AXIS2_PLACEMENT_3D('',#298,#299,#300);
#302=CIRCLE('',#301,7.499999999999996);
#303=EDGE_CURVE('',#297,#297,#302,.T.);
#304=ORIENTED_EDGE('',*,*,#303,.T.);
#305=EDGE_LOOP('',(#304));
#306=FACE_BOUND('',#305,.T.);
#307=ADVANCED_FACE('',(#295,#306),#284,.F.);
#308=CARTESIAN_POINT('',(0.0,-37.500000000000313,-64.951905283832730));
#309=DIRECTION('',(-1.0,0.0,0.0));
#310=DIRECTION('',(0.0,0.0,1.0));
#311=AXIS2_PLACEMENT_3D('',#308,#309,#310);
#312=CYLINDRICAL_SURFACE('',#311,4.500000000000004);
#313=CARTESIAN_POINT('',(12.000000000000009,-37.500000000000313,-60.451905283832730));
#314=VERTEX_POINT('',#313);
#315=CARTESIAN_POINT('',(12.000000000000009,-37.500000000000313,-64.951905283832730));
#316=DIRECTION('',(1.0,0.0,0.0));
#317=DIRECTION('',(0.0,0.0,-1.0));
#318=AXIS2_PLACEMENT_3D('',#315,#316,#317);
#319=CIRCLE('',#318,4.500000000000004);
#320=EDGE_CURVE('',#314,#314,#319,.T.);
#321=ORIENTED_EDGE('',*,*,#320,.T.);
#322=EDGE_LOOP('',(#321));
#323=FACE_OUTER_BOUND('',#322,.T.);
#324=CARTESIAN_POINT('',(8.599999999999998,-37.500000000000313,-60.451905283832730));
#325=VERTEX_POINT('',#324);
#326=CARTESIAN_POINT('',(8.599999999999998,-37.500000000000313,-64.951905283832730));
#327=DIRECTION('',(-1.0,0.0,0.0));
#328=DIRECTION('',(0.0,0.0,1.0));
#329=AXIS2_PLACEMENT_3D('',#326,#327,#328);
#330=CIRCLE('',#329,4.500000000000010);
#331=EDGE_CURVE('',#325,#325,#330,.T.);
#332=ORIENTED_EDGE('',*,*,#331,.T.);
#333=EDGE_LOOP('',(#332));
#334=FACE_BOUND('',#333,.T.);
#335=ADVANCED_FACE('',(#323,#334),#312,.F.);
#336=CARTESIAN_POINT('',(0.0,37.499999999999844,-64.951905283832986));
#337=DIRECTION('',(-1.0,0.0,0.0));
#338=DIRECTION('',(0.0,0.0,1.0));
#339=AXIS2_PLACEMENT_3D('',#336,#337,#338);
#340=CYLINDRICAL_SURFACE('',#339,7.500000000000000);
#341=CARTESIAN_POINT('',(8.599999999999998,37.499999999999844,-57.451905283833000));
#342=VERTEX_POINT('',#341);
#343=CARTESIAN_POINT('',(8.599999999999998,37.499999999999844,-64.951905283832986));
#344=DIRECTION('',(-1.0,0.0,0.0));
#345=DIRECTION('',(0.0,0.0,1.0));
#346=AXIS2_PLACEMENT_3D('',#343,#344,#345);
#347=CIRCLE('',#346,7.500000000000000);
#348=EDGE_CURVE('',#342,#342,#347,.T.);
#349=ORIENTED_EDGE('',*,*,#348,.F.);
#350=EDGE_LOOP('',(#349));
#351=FACE_OUTER_BOUND('',#350,.T.);
#352=CARTESIAN_POINT('',(3.851860E-031,37.499999999999844,-57.451905283833000));
#353=VERTEX_POINT('',#352);
#354=CARTESIAN_POINT('',(3.851860E-031,37.499999999999844,-64.951905283832986));
#355=DIRECTION('',(-1.0,0.0,0.0));
#356=DIRECTION('',(0.0,0.0,1.0));
#357=AXIS2_PLACEMENT_3D('',#354,#355,#356);
#358=CIRCLE('',#357,7.500000000000000);
#359=EDGE_CURVE('',#353,#353,#358,.T.);
#360=ORIENTED_EDGE('',*,*,#359,.T.);
#361=EDGE_LOOP('',(#360));
#362=FACE_BOUND('',#361,.T.);
#363=ADVANCED_FACE('',(#351,#362),#340,.F.);
#364=CARTESIAN_POINT('',(0.0,37.499999999999844,-64.951905283832986));
#365=DIRECTION('',(-1.0,0.0,0.0));
#366=DIRECTION('',(0.0,0.0,1.0));
#367=AXIS2_PLACEMENT_3D('',#364,#365,#366);
#368=CYLINDRICAL_SURFACE('',#367,4.500000000000004);
#369=CARTESIAN_POINT('',(12.000000000000009,37.499999999999844,-60.451905283833000));
#370=VERTEX_POINT('',#369);
#371=CARTESIAN_POINT('',(12.000000000000009,37.499999999999844,-64.951905283832986));
#372=DIRECTION('',(1.0,0.0,0.0));
#373=DIRECTION('',(0.0,0.0,-1.0));
#374=AXIS2_PLACEMENT_3D('',#371,#372,#373);
#375=CIRCLE('',#374,4.500000000000004);
#376=EDGE_CURVE('',#370,#370,#375,.T.);
#377=ORIENTED_EDGE('',*,*,#376,.T.);
#378=EDGE_LOOP('',(#377));
#379=FACE_OUTER_BOUND('',#378,.T.);
#380=CARTESIAN_POINT('',(8.599999999999998,37.499999999999844,-60.451905283832978));
#381=VERTEX_POINT('',#380);
#382=CARTESIAN_POINT('',(8.599999999999998,37.499999999999844,-64.951905283832986));
#383=DIRECTION('',(-1.0,0.0,0.0));
#384=DIRECTION('',(0.0,0.0,1.0));
#385=AXIS2_PLACEMENT_3D('',#382,#383,#384);
#386=CIRCLE('',#385,4.500000000000010);
#387=EDGE_CURVE('',#381,#381,#386,.T.);
#388=ORIENTED_EDGE('',*,*,#387,.T.);
#389=EDGE_LOOP('',(#388));
#390=FACE_BOUND('',#389,.T.);
#391=ADVANCED_FACE('',(#379,#390),#368,.F.);
#392=CARTESIAN_POINT('',(0.0,75.0,0.0));
#393=DIRECTION('',(-1.0,0.0,0.0));
#394=DIRECTION('',(0.0,0.0,1.0));
#395=AXIS2_PLACEMENT_3D('',#392,#393,#394);
#396=CYLINDRICAL_SURFACE('',#395,7.499999999999996);
#397=CARTESIAN_POINT('',(8.599999999999998,75.0,7.499999999999996));
#398=VERTEX_POINT('',#397);
#399=CARTESIAN_POINT('',(8.599999999999998,75.0,0.0));
#400=DIRECTION('',(-1.0,0.0,0.0));
#401=DIRECTION('',(0.0,0.0,1.0));
#402=AXIS2_PLACEMENT_3D('',#399,#400,#401);
#403=CIRCLE('',#402,7.499999999999996);
#404=EDGE_CURVE('',#398,#398,#403,.T.);
#405=ORIENTED_EDGE('',*,*,#404,.F.);
#406=EDGE_LOOP('',(#405));
#407=FACE_OUTER_BOUND('',#406,.T.);
#408=CARTESIAN_POINT('',(3.851860E-031,75.0,7.499999999999996));
#409=VERTEX_POINT('',#408);
#410=CARTESIAN_POINT('',(3.851860E-031,75.0,0.0));
#411=DIRECTION('',(-1.0,0.0,0.0));
#412=DIRECTION('',(0.0,0.0,1.0));
#413=AXIS2_PLACEMENT_3D('',#410,#411,#412);
#414=CIRCLE('',#413,7.499999999999996);
#415=EDGE_CURVE('',#409,#409,#414,.T.);
#416=ORIENTED_EDGE('',*,*,#415,.T.);
#417=EDGE_LOOP('',(#416));
#418=FACE_BOUND('',#417,.T.);
#419=ADVANCED_FACE('',(#407,#418),#396,.F.);
#420=CARTESIAN_POINT('',(0.0,75.0,0.0));
#421=DIRECTION('',(-1.0,0.0,0.0));
#422=DIRECTION('',(0.0,0.0,1.0));
#423=AXIS2_PLACEMENT_3D('',#420,#421,#422);
#424=CYLINDRICAL_SURFACE('',#423,4.500000000000004);
#425=CARTESIAN_POINT('',(12.000000000000009,75.0,4.500000000000004));
#426=VERTEX_POINT('',#425);
#427=CARTESIAN_POINT('',(12.000000000000009,75.0,0.0));
#428=DIRECTION('',(1.0,0.0,0.0));
#429=DIRECTION('',(0.0,0.0,-1.0));
#430=AXIS2_PLACEMENT_3D('',#427,#428,#429);
#431=CIRCLE('',#430,4.500000000000004);
#432=EDGE_CURVE('',#426,#426,#431,.T.);
#433=ORIENTED_EDGE('',*,*,#432,.T.);
#434=EDGE_LOOP('',(#433));
#435=FACE_OUTER_BOUND('',#434,.T.);
#436=CARTESIAN_POINT('',(8.599999999999998,75.0,4.500000000000018));
#437=VERTEX_POINT('',#436);
#438=CARTESIAN_POINT('',(8.599999999999998,75.0,0.0));
#439=DIRECTION('',(-1.0,0.0,0.0));
#440=DIRECTION('',(0.0,0.0,1.0));
#441=AXIS2_PLACEMENT_3D('',#438,#439,#440);
#442=CIRCLE('',#441,4.500000000000018);
#443=EDGE_CURVE('',#437,#437,#442,.T.);
#444=ORIENTED_EDGE('',*,*,#443,.T.);
#445=EDGE_LOOP('',(#444));
#446=FACE_BOUND('',#445,.T.);
#447=ADVANCED_FACE('',(#435,#446),#424,.F.);
#448=CARTESIAN_POINT('',(13.000000000000007,0.0,0.0));
#449=DIRECTION('',(1.0,0.0,0.0));
#450=DIRECTION('',(0.0,0.0,-1.0));
#451=AXIS2_PLACEMENT_3D('',#448,#449,#450);
#452=TOROIDAL_SURFACE('',#451,33.0,2.0);
#453=CARTESIAN_POINT('',(11.000000000000007,0.0,-33.0));
#454=VERTEX_POINT('',#453);
#455=CARTESIAN_POINT('',(11.000000000000007,0.0,0.0));
#456=DIRECTION('',(1.0,0.0,0.0));
#457=DIRECTION('',(0.0,0.0,-1.0));
#458=AXIS2_PLACEMENT_3D('',#455,#456,#457);
#459=CIRCLE('',#458,33.0);
#460=EDGE_CURVE('',#454,#454,#459,.T.);
#461=ORIENTED_EDGE('',*,*,#460,.F.);
#462=EDGE_LOOP('',(#461));
#463=FACE_OUTER_BOUND('',#462,.T.);
#464=CARTESIAN_POINT('',(13.000000000000007,0.0,-35.0));
#465=VERTEX_POINT('',#464);
#466=CARTESIAN_POINT('',(13.000000000000007,0.0,0.0));
#467=DIRECTION('',(-1.0,0.0,0.0));
#468=DIRECTION('',(0.0,0.0,1.0));
#469=AXIS2_PLACEMENT_3D('',#466,#467,#468);
#470=CIRCLE('',#469,35.0);
#471=EDGE_CURVE('',#465,#465,#470,.T.);
#472=ORIENTED_EDGE('',*,*,#471,.F.);
#473=EDGE_LOOP('',(#472));
#474=FACE_BOUND('',#473,.T.);
#475=ADVANCED_FACE('',(#463,#474),#452,.F.);
#476=CARTESIAN_POINT('',(0.0,0.0,0.0));
#477=DIRECTION('',(-1.0,0.0,0.0));
#478=DIRECTION('',(0.0,0.0,1.0));
#479=AXIS2_PLACEMENT_3D('',#476,#477,#478);
#480=CYLINDRICAL_SURFACE('',#479,23.000000000000007);
#481=CARTESIAN_POINT('',(2.763292634582592,3.183977E-015,23.000000000000007));
#482=VERTEX_POINT('',#481);
#483=CARTESIAN_POINT('',(2.763292634582592,0.0,0.0));
#484=DIRECTION('',(-1.0,0.0,0.0));
#485=DIRECTION('',(0.0,0.0,1.0));
#486=AXIS2_PLACEMENT_3D('',#483,#484,#485);
#487=CIRCLE('',#486,23.000000000000007);
#488=EDGE_CURVE('',#482,#482,#487,.T.);
#489=ORIENTED_EDGE('',*,*,#488,.F.);
#490=EDGE_LOOP('',(#489));
#491=FACE_OUTER_BOUND('',#490,.T.);
#492=CARTESIAN_POINT('',(2.602085E-015,0.0,23.000000000000007));
#493=VERTEX_POINT('',#492);
#494=CARTESIAN_POINT('',(2.602085E-015,0.0,0.0));
#495=DIRECTION('',(-1.0,0.0,0.0));
#496=DIRECTION('',(0.0,0.0,1.0));
#497=AXIS2_PLACEMENT_3D('',#494,#495,#496);
#498=CIRCLE('',#497,23.000000000000007);
#499=EDGE_CURVE('',#493,#493,#498,.T.);
#500=ORIENTED_EDGE('',*,*,#499,.T.);
#501=EDGE_LOOP('',(#500));
#502=FACE_BOUND('',#501,.T.);
#503=ADVANCED_FACE('',(#491,#502),#480,.F.);
#504=CARTESIAN_POINT('',(3.500000000000003,0.0,0.0));
#505=DIRECTION('',(1.0,0.0,0.0));
#506=DIRECTION('',(0.0,0.0,-1.0));
#507=AXIS2_PLACEMENT_3D('',#504,#505,#506);
#508=CONICAL_SURFACE('',#507,29.000000000000004,83.000000000000185);
#509=ORIENTED_EDGE('',*,*,#488,.T.);
#510=EDGE_LOOP('',(#509));
#511=FACE_OUTER_BOUND('',#510,.T.);
#512=CARTESIAN_POINT('',(3.500000000000003,3.551358E-015,-29.000000000000014));
#513=VERTEX_POINT('',#512);
#514=CARTESIAN_POINT('',(3.500000000000003,0.0,0.0));
#515=DIRECTION('',(-1.0,0.0,0.0));
#516=DIRECTION('',(0.0,0.0,1.0));
#517=AXIS2_PLACEMENT_3D('',#514,#515,#516);
#518=CIRCLE('',#517,29.000000000000004);
#519=EDGE_CURVE('',#513,#513,#518,.T.);
#520=ORIENTED_EDGE('',*,*,#519,.F.);
#521=EDGE_LOOP('',(#520));
#522=FACE_BOUND('',#521,.T.);
#523=ADVANCED_FACE('',(#511,#522),#508,.F.);
#524=CARTESIAN_POINT('',(0.0,0.0,0.0));
#525=DIRECTION('',(-1.0,0.0,0.0));
#526=DIRECTION('',(0.0,0.0,1.0));
#527=AXIS2_PLACEMENT_3D('',#524,#525,#526);
#528=CYLINDRICAL_SURFACE('',#527,29.000000000000004);
#529=CARTESIAN_POINT('',(7.500000000000004,0.0,28.999999999999989));
#530=VERTEX_POINT('',#529);
#531=CARTESIAN_POINT('',(7.500000000000004,0.0,0.0));
#532=DIRECTION('',(-1.0,0.0,0.0));
#533=DIRECTION('',(0.0,0.0,1.0));
#534=AXIS2_PLACEMENT_3D('',#531,#532,#533);
#535=CIRCLE('',#534,29.000000000000004);
#536=EDGE_CURVE('',#530,#530,#535,.T.);
#537=ORIENTED_EDGE('',*,*,#536,.F.);
#538=EDGE_LOOP('',(#537));
#539=FACE_OUTER_BOUND('',#538,.T.);
#540=ORIENTED_EDGE('',*,*,#519,.T.);
#541=EDGE_LOOP('',(#540));
#542=FACE_BOUND('',#541,.T.);
#543=ADVANCED_FACE('',(#539,#542),#528,.F.);
#544=CARTESIAN_POINT('',(8.236707365417411,0.0,0.0));
#545=DIRECTION('',(-1.0,0.0,0.0));
#546=DIRECTION('',(0.0,0.0,1.0));
#547=AXIS2_PLACEMENT_3D('',#544,#545,#546);
#548=CONICAL_SURFACE('',#547,23.000000000000007,83.000000000000185);
#549=CARTESIAN_POINT('',(8.236707365417411,0.0,23.000000000000007));
#550=VERTEX_POINT('',#549);
#551=CARTESIAN_POINT('',(8.236707365417411,0.0,0.0));
#552=DIRECTION('',(-1.0,0.0,0.0));
#553=DIRECTION('',(0.0,0.0,1.0));
#554=AXIS2_PLACEMENT_3D('',#551,#552,#553);
#555=CIRCLE('',#554,23.000000000000007);
#556=EDGE_CURVE('',#550,#550,#555,.T.);
#557=ORIENTED_EDGE('',*,*,#556,.F.);
#558=EDGE_LOOP('',(#557));
#559=FACE_OUTER_BOUND('',#558,.T.);
#560=ORIENTED_EDGE('',*,*,#536,.T.);
#561=EDGE_LOOP('',(#560));
#562=FACE_BOUND('',#561,.T.);
#563=ADVANCED_FACE('',(#559,#562),#548,.F.);
#564=CARTESIAN_POINT('',(0.0,0.0,0.0));
#565=DIRECTION('',(-1.0,0.0,0.0));
#566=DIRECTION('',(0.0,0.0,1.0));
#567=AXIS2_PLACEMENT_3D('',#564,#565,#566);
#568=CYLINDRICAL_SURFACE('',#567,23.000000000000004);
#569=CARTESIAN_POINT('',(11.000000000000007,0.0,23.000000000000004));
#570=VERTEX_POINT('',#569);
#571=CARTESIAN_POINT('',(11.000000000000007,0.0,0.0));
#572=DIRECTION('',(-1.0,0.0,0.0));
#573=DIRECTION('',(0.0,0.0,1.0));
#574=AXIS2_PLACEMENT_3D('',#571,#572,#573);
#575=CIRCLE('',#574,23.000000000000004);
#576=EDGE_CURVE('',#570,#570,#575,.T.);
#577=ORIENTED_EDGE('',*,*,#576,.F.);
#578=EDGE_LOOP('',(#577));
#579=FACE_OUTER_BOUND('',#578,.T.);
#580=ORIENTED_EDGE('',*,*,#556,.T.);
#581=EDGE_LOOP('',(#580));
#582=FACE_BOUND('',#581,.T.);
#583=ADVANCED_FACE('',(#579,#582),#568,.F.);
#584=CARTESIAN_POINT('',(0.0,0.0,0.0));
#585=DIRECTION('',(-1.0,0.0,0.0));
#586=DIRECTION('',(0.0,0.0,1.0));
#587=AXIS2_PLACEMENT_3D('',#584,#585,#586);
#588=CYLINDRICAL_SURFACE('',#587,37.500000000000000);
#589=CARTESIAN_POINT('',(29.000000000000014,0.0,37.500000000000000));
#590=VERTEX_POINT('',#589);
#591=CARTESIAN_POINT('',(29.000000000000014,0.0,0.0));
#592=DIRECTION('',(-1.0,0.0,0.0));
#593=DIRECTION('',(0.0,0.0,1.0));
#594=AXIS2_PLACEMENT_3D('',#591,#592,#593);
#595=CIRCLE('',#594,37.500000000000000);
#596=EDGE_CURVE('',#590,#590,#595,.T.);
#597=ORIENTED_EDGE('',*,*,#596,.F.);
#598=EDGE_LOOP('',(#597));
#599=FACE_OUTER_BOUND('',#598,.T.);
#600=CARTESIAN_POINT('',(13.000000000000007,0.0,37.500000000000000));
#601=VERTEX_POINT('',#600);
#602=CARTESIAN_POINT('',(13.000000000000007,0.0,0.0));
#603=DIRECTION('',(-1.0,0.0,0.0));
#604=DIRECTION('',(0.0,0.0,1.0));
#605=AXIS2_PLACEMENT_3D('',#602,#603,#604);
#606=CIRCLE('',#605,37.500000000000000);
#607=EDGE_CURVE('',#601,#601,#606,.T.);
#608=ORIENTED_EDGE('',*,*,#607,.T.);
#609=EDGE_LOOP('',(#608));
#610=FACE_BOUND('',#609,.T.);
#611=ADVANCED_FACE('',(#599,#610),#588,.F.);
#612=CARTESIAN_POINT('',(16.564221286261755,0.0,0.0));
#613=DIRECTION('',(-1.0,0.0,0.0));
#614=DIRECTION('',(0.0,0.0,1.0));
#615=AXIS2_PLACEMENT_3D('',#612,#613,#614);
#616=CONICAL_SURFACE('',#615,43.100682379628395,5.000000000000020);
#617=CARTESIAN_POINT('',(29.000000000000014,0.0,42.012692720059299));
#618=VERTEX_POINT('',#617);
#619=CARTESIAN_POINT('',(29.000000000000014,0.0,0.0));
#620=DIRECTION('',(-1.0,0.0,0.0));
#621=DIRECTION('',(0.0,0.0,1.0));
#622=AXIS2_PLACEMENT_3D('',#619,#620,#621);
#623=CIRCLE('',#622,42.012692720059299);
#624=EDGE_CURVE('',#618,#618,#623,.T.);
#625=ORIENTED_EDGE('',*,*,#624,.T.);
#626=EDGE_LOOP('',(#625));
#627=FACE_OUTER_BOUND('',#626,.T.);
#628=CARTESIAN_POINT('',(16.564221286261755,0.0,43.100682379628395));
#629=VERTEX_POINT('',#628);
#630=CARTESIAN_POINT('',(16.564221286261755,0.0,0.0));
#631=DIRECTION('',(-1.0,0.0,0.0));
#632=DIRECTION('',(0.0,0.0,1.0));
#633=AXIS2_PLACEMENT_3D('',#630,#631,#632);
#634=CIRCLE('',#633,43.100682379628395);
#635=EDGE_CURVE('',#629,#629,#634,.T.);
#636=ORIENTED_EDGE('',*,*,#635,.F.);
#637=EDGE_LOOP('',(#636));
#638=FACE_BOUND('',#637,.T.);
#639=ADVANCED_FACE('',(#627,#638),#616,.T.);
#640=CARTESIAN_POINT('',(17.000000000000011,0.0,0.0));
#641=DIRECTION('',(-1.0,0.0,0.0));
#642=DIRECTION('',(0.0,0.0,1.0));
#643=AXIS2_PLACEMENT_3D('',#640,#641,#642);
#644=TOROIDAL_SURFACE('',#643,48.081655870087104,4.999999999999998);
#645=CARTESIAN_POINT('',(12.000000000000014,0.0,48.081655870087133));
#646=VERTEX_POINT('',#645);
#647=CARTESIAN_POINT('',(12.000000000000014,0.0,0.0));
#648=DIRECTION('',(-1.0,0.0,0.0));
#649=DIRECTION('',(0.0,0.0,1.0));
#650=AXIS2_PLACEMENT_3D('',#647,#648,#649);
#651=CIRCLE('',#650,48.081655870087133);
#652=EDGE_CURVE('',#646,#646,#651,.T.);
#653=ORIENTED_EDGE('',*,*,#652,.F.);
#654=EDGE_LOOP('',(#653));
#655=FACE_OUTER_BOUND('',#654,.T.);
#656=ORIENTED_EDGE('',*,*,#635,.T.);
#657=EDGE_LOOP('',(#656));
#658=FACE_BOUND('',#657,.T.);
#659=ADVANCED_FACE('',(#655,#658),#644,.F.);
#660=CARTESIAN_POINT('',(17.000000000000007,0.0,0.0));
#661=DIRECTION('',(-1.0,0.0,0.0));
#662=DIRECTION('',(0.0,0.0,1.0));
#663=AXIS2_PLACEMENT_3D('',#660,#661,#662);
#664=TOROIDAL_SURFACE('',#663,57.500000000000000,4.999999999999998);
#665=CARTESIAN_POINT('',(17.000000000000043,0.0,62.500000000000000));
#666=VERTEX_POINT('',#665);
#667=CARTESIAN_POINT('',(17.000000000000043,0.0,0.0));
#668=DIRECTION('',(-1.0,0.0,0.0));
#669=DIRECTION('',(0.0,0.0,1.0));
#670=AXIS2_PLACEMENT_3D('',#667,#668,#669);
#671=CIRCLE('',#670,62.500000000000000);
#672=EDGE_CURVE('',#666,#666,#671,.T.);
#673=ORIENTED_EDGE('',*,*,#672,.F.);
#674=EDGE_LOOP('',(#673));
#675=FACE_OUTER_BOUND('',#674,.T.);
#676=CARTESIAN_POINT('',(12.000000000000014,0.0,57.499999999999964));
#677=VERTEX_POINT('',#676);
#678=CARTESIAN_POINT('',(12.000000000000014,0.0,0.0));
#679=DIRECTION('',(-1.0,0.0,0.0));
#680=DIRECTION('',(0.0,0.0,1.0));
#681=AXIS2_PLACEMENT_3D('',#678,#679,#680);
#682=CIRCLE('',#681,57.499999999999964);
#683=EDGE_CURVE('',#677,#677,#682,.T.);
#684=ORIENTED_EDGE('',*,*,#683,.T.);
#685=EDGE_LOOP('',(#684));
#686=FACE_BOUND('',#685,.T.);
#687=ADVANCED_FACE('',(#675,#686),#664,.F.);
#688=CARTESIAN_POINT('',(0.0,0.0,0.0));
#689=DIRECTION('',(-1.0,0.0,0.0));
#690=DIRECTION('',(0.0,0.0,1.0));
#691=AXIS2_PLACEMENT_3D('',#688,#689,#690);
#692=CYLINDRICAL_SURFACE('',#691,62.500000000000000);
#693=ORIENTED_EDGE('',*,*,#107,.F.);
#694=EDGE_LOOP('',(#693));
#695=FACE_OUTER_BOUND('',#694,.T.);
#696=ORIENTED_EDGE('',*,*,#672,.T.);
#697=EDGE_LOOP('',(#696));
#698=FACE_BOUND('',#697,.T.);
#699=ADVANCED_FACE('',(#695,#698),#692,.F.);
#700=CARTESIAN_POINT('',(13.380384757729367,0.0,0.0));
#701=DIRECTION('',(1.0,0.0,0.0));
#702=DIRECTION('',(0.0,0.0,-1.0));
#703=AXIS2_PLACEMENT_3D('',#700,#701,#702);
#704=CONICAL_SURFACE('',#703,67.700000000000017,14.999999999999979);
#705=CARTESIAN_POINT('',(13.380384757729367,8.290585E-015,-67.700000000000017));
#706=VERTEX_POINT('',#705);
#707=CARTESIAN_POINT('',(13.380384757729367,0.0,0.0));
#708=DIRECTION('',(-1.0,0.0,0.0));
#709=DIRECTION('',(0.0,0.0,1.0));
#710=AXIS2_PLACEMENT_3D('',#707,#708,#709);
#711=CIRCLE('',#710,67.700000000000017);
#712=EDGE_CURVE('',#706,#706,#711,.T.);
#713=ORIENTED_EDGE('',*,*,#712,.F.);
#714=EDGE_LOOP('',(#713));
#715=FACE_OUTER_BOUND('',#714,.T.);
#716=ORIENTED_EDGE('',*,*,#84,.T.);
#717=EDGE_LOOP('',(#716));
#718=FACE_BOUND('',#717,.T.);
#719=ADVANCED_FACE('',(#715,#718),#704,.T.);
#720=CARTESIAN_POINT('',(0.0,0.0,0.0));
#721=DIRECTION('',(-1.0,0.0,0.0));
#722=DIRECTION('',(0.0,0.0,1.0));
#723=AXIS2_PLACEMENT_3D('',#720,#721,#722);
#724=CYLINDRICAL_SURFACE('',#723,67.700000000000017);
#725=ORIENTED_EDGE('',*,*,#712,.T.);
#726=EDGE_LOOP('',(#725));
#727=FACE_OUTER_BOUND('',#726,.T.);
#728=CARTESIAN_POINT('',(12.000000000000009,0.0,67.700000000000017));
#729=VERTEX_POINT('',#728);
#730=CARTESIAN_POINT('',(12.000000000000009,0.0,0.0));
#731=DIRECTION('',(-1.0,0.0,0.0));
#732=DIRECTION('',(0.0,0.0,1.0));
#733=AXIS2_PLACEMENT_3D('',#730,#731,#732);
#734=CIRCLE('',#733,67.700000000000017);
#735=EDGE_CURVE('',#729,#729,#734,.T.);
#736=ORIENTED_EDGE('',*,*,#735,.F.);
#737=EDGE_LOOP('',(#736));
#738=FACE_BOUND('',#737,.T.);
#739=ADVANCED_FACE('',(#727,#738),#724,.T.);
#740=CARTESIAN_POINT('',(0.0,0.0,0.0));
#741=DIRECTION('',(-1.0,0.0,0.0));
#742=DIRECTION('',(0.0,0.0,1.0));
#743=AXIS2_PLACEMENT_3D('',#740,#741,#742);
#744=CYLINDRICAL_SURFACE('',#743,85.0);
#745=CARTESIAN_POINT('',(12.000000000000009,0.0,85.0));
#746=VERTEX_POINT('',#745);
#747=CARTESIAN_POINT('',(12.000000000000009,0.0,0.0));
#748=DIRECTION('',(-1.0,0.0,0.0));
#749=DIRECTION('',(0.0,0.0,1.0));
#750=AXIS2_PLACEMENT_3D('',#747,#748,#749);
#751=CIRCLE('',#750,85.0);
#752=EDGE_CURVE('',#746,#746,#751,.T.);
#753=ORIENTED_EDGE('',*,*,#752,.T.);
#754=EDGE_LOOP('',(#753));
#755=FACE_OUTER_BOUND('',#754,.T.);
#756=CARTESIAN_POINT('',(2.000000000000025,0.0,85.0));
#757=VERTEX_POINT('',#756);
#758=CARTESIAN_POINT('',(2.000000000000025,0.0,0.0));
#759=DIRECTION('',(-1.0,0.0,0.0));
#760=DIRECTION('',(0.0,0.0,1.0));
#761=AXIS2_PLACEMENT_3D('',#758,#759,#760);
#762=CIRCLE('',#761,85.0);
#763=EDGE_CURVE('',#757,#757,#762,.T.);
#764=ORIENTED_EDGE('',*,*,#763,.F.);
#765=EDGE_LOOP('',(#764));
#766=FACE_BOUND('',#765,.T.);
#767=ADVANCED_FACE('',(#755,#766),#744,.T.);
#768=CARTESIAN_POINT('',(2.000000000000010,0.0,0.0));
#769=DIRECTION('',(-1.0,0.0,0.0));
#770=DIRECTION('',(0.0,0.0,1.0));
#771=AXIS2_PLACEMENT_3D('',#768,#769,#770);
#772=TOROIDAL_SURFACE('',#771,83.0,2.000000000000001);
#773=ORIENTED_EDGE('',*,*,#763,.T.);
#774=EDGE_LOOP('',(#773));
#775=FACE_OUTER_BOUND('',#774,.T.);
#776=CARTESIAN_POINT('',(1.016457E-014,0.0,82.999999999999972));
#777=VERTEX_POINT('',#776);
#778=CARTESIAN_POINT('',(1.016457E-014,0.0,0.0));
#779=DIRECTION('',(-1.0,0.0,0.0));
#780=DIRECTION('',(0.0,0.0,1.0));
#781=AXIS2_PLACEMENT_3D('',#778,#779,#780);
#782=CIRCLE('',#781,82.999999999999972);
#783=EDGE_CURVE('',#777,#777,#782,.T.);
#784=ORIENTED_EDGE('',*,*,#783,.F.);
#785=EDGE_LOOP('',(#784));
#786=FACE_BOUND('',#785,.T.);
#787=ADVANCED_FACE('',(#775,#786),#772,.T.);
#788=CARTESIAN_POINT('',(12.000000000000009,-85.0,0.0));
#789=DIRECTION('',(1.0,0.0,0.0));
#790=DIRECTION('',(0.0,0.0,-1.0));
#791=AXIS2_PLACEMENT_3D('',#788,#789,#790);
#792=PLANE('',#791);
#793=ORIENTED_EDGE('',*,*,#752,.F.);
#794=EDGE_LOOP('',(#793));
#795=FACE_OUTER_BOUND('',#794,.T.);
#796=ORIENTED_EDGE('',*,*,#208,.F.);
#797=EDGE_LOOP('',(#796));
#798=FACE_BOUND('',#797,.T.);
#799=ORIENTED_EDGE('',*,*,#264,.F.);
#800=EDGE_LOOP('',(#799));
#801=FACE_BOUND('',#800,.T.);
#802=ORIENTED_EDGE('',*,*,#320,.F.);
#803=EDGE_LOOP('',(#802));
#804=FACE_BOUND('',#803,.T.);
#805=ORIENTED_EDGE('',*,*,#376,.F.);
#806=EDGE_LOOP('',(#805));
#807=FACE_BOUND('',#806,.T.);
#808=ORIENTED_EDGE('',*,*,#432,.F.);
#809=EDGE_LOOP('',(#808));
#810=FACE_BOUND('',#809,.T.);
#811=ORIENTED_EDGE('',*,*,#735,.T.);
#812=EDGE_LOOP('',(#811));
#813=FACE_BOUND('',#812,.T.);
#814=ORIENTED_EDGE('',*,*,#152,.F.);
#815=EDGE_LOOP('',(#814));
#816=FACE_BOUND('',#815,.T.);
#817=ADVANCED_FACE('',(#795,#798,#801,#804,#807,#810,#813,#816),#792,.T.);
#818=CARTESIAN_POINT('',(12.000000000000014,-57.499999999999964,0.0));
#819=DIRECTION('',(1.0,0.0,0.0));
#820=DIRECTION('',(0.0,0.0,-1.0));
#821=AXIS2_PLACEMENT_3D('',#818,#819,#820);
#822=PLANE('',#821);
#823=ORIENTED_EDGE('',*,*,#683,.F.);
#824=EDGE_LOOP('',(#823));
#825=FACE_OUTER_BOUND('',#824,.T.);
#826=ORIENTED_EDGE('',*,*,#652,.T.);
#827=EDGE_LOOP('',(#826));
#828=FACE_BOUND('',#827,.T.);
#829=ADVANCED_FACE('',(#825,#828),#822,.T.);
#830=CARTESIAN_POINT('',(29.000000000000014,-42.012692720059299,0.0));
#831=DIRECTION('',(1.0,0.0,0.0));
#832=DIRECTION('',(0.0,0.0,-1.0));
#833=AXIS2_PLACEMENT_3D('',#830,#831,#832);
#834=PLANE('',#833);
#835=ORIENTED_EDGE('',*,*,#624,.F.);
#836=EDGE_LOOP('',(#835));
#837=FACE_OUTER_BOUND('',#836,.T.);
#838=ORIENTED_EDGE('',*,*,#596,.T.);
#839=EDGE_LOOP('',(#838));
#840=FACE_BOUND('',#839,.T.);
#841=ADVANCED_FACE('',(#837,#840),#834,.T.);
#842=CARTESIAN_POINT('',(13.000000000000007,-37.500000000000000,0.0));
#843=DIRECTION('',(1.0,0.0,0.0));
#844=DIRECTION('',(0.0,0.0,-1.0));
#845=AXIS2_PLACEMENT_3D('',#842,#843,#844);
#846=PLANE('',#845);
#847=ORIENTED_EDGE('',*,*,#607,.F.);
#848=EDGE_LOOP('',(#847));
#849=FACE_OUTER_BOUND('',#848,.T.);
#850=ORIENTED_EDGE('',*,*,#471,.T.);
#851=EDGE_LOOP('',(#850));
#852=FACE_BOUND('',#851,.T.);
#853=ADVANCED_FACE('',(#849,#852),#846,.T.);
#854=CARTESIAN_POINT('',(11.000000000000007,-35.0,0.0));
#855=DIRECTION('',(1.0,0.0,0.0));
#856=DIRECTION('',(0.0,0.0,-1.0));
#857=AXIS2_PLACEMENT_3D('',#854,#855,#856);
#858=PLANE('',#857);
#859=ORIENTED_EDGE('',*,*,#460,.T.);
#860=EDGE_LOOP('',(#859));
#861=FACE_OUTER_BOUND('',#860,.T.);
#862=ORIENTED_EDGE('',*,*,#576,.T.);
#863=EDGE_LOOP('',(#862));
#864=FACE_BOUND('',#863,.T.);
#865=ADVANCED_FACE('',(#861,#864),#858,.T.);
#866=CARTESIAN_POINT('',(6.383327E-015,-23.000000000000007,0.0));
#867=DIRECTION('',(-1.0,0.0,0.0));
#868=DIRECTION('',(0.0,0.0,1.0));
#869=AXIS2_PLACEMENT_3D('',#866,#867,#868);
#870=PLANE('',#869);
#871=ORIENTED_EDGE('',*,*,#783,.T.);
#872=EDGE_LOOP('',(#871));
#873=FACE_OUTER_BOUND('',#872,.T.);
#874=ORIENTED_EDGE('',*,*,#191,.F.);
#875=EDGE_LOOP('',(#874));
#876=FACE_BOUND('',#875,.T.);
#877=ORIENTED_EDGE('',*,*,#247,.F.);
#878=EDGE_LOOP('',(#877));
#879=FACE_BOUND('',#878,.T.);
#880=ORIENTED_EDGE('',*,*,#303,.F.);
#881=EDGE_LOOP('',(#880));
#882=FACE_BOUND('',#881,.T.);
#883=ORIENTED_EDGE('',*,*,#359,.F.);
#884=EDGE_LOOP('',(#883));
#885=FACE_BOUND('',#884,.T.);
#886=ORIENTED_EDGE('',*,*,#415,.F.);
#887=EDGE_LOOP('',(#886));
#888=FACE_BOUND('',#887,.T.);
#889=ORIENTED_EDGE('',*,*,#135,.F.);
#890=EDGE_LOOP('',(#889));
#891=FACE_BOUND('',#890,.T.);
#892=ORIENTED_EDGE('',*,*,#499,.F.);
#893=EDGE_LOOP('',(#892));
#894=FACE_BOUND('',#893,.T.);
#895=ADVANCED_FACE('',(#873,#876,#879,#882,#885,#888,#891,#894),#870,.T.);
#896=CARTESIAN_POINT('',(8.599999999999998,79.500000000000028,0.0));
#897=DIRECTION('',(1.0,0.0,0.0));
#898=DIRECTION('',(0.0,0.0,-1.0));
#899=AXIS2_PLACEMENT_3D('',#896,#897,#898);
#900=PLANE('',#899);
#901=ORIENTED_EDGE('',*,*,#404,.T.);
#902=EDGE_LOOP('',(#901));
#903=FACE_OUTER_BOUND('',#902,.T.);
#904=ORIENTED_EDGE('',*,*,#443,.F.);
#905=EDGE_LOOP('',(#904));
#906=FACE_BOUND('',#905,.T.);
#907=ADVANCED_FACE('',(#903,#906),#900,.F.);
#908=CARTESIAN_POINT('',(8.599999999999998,41.999999999999872,-64.951905283832986));
#909=DIRECTION('',(1.0,0.0,0.0));
#910=DIRECTION('',(0.0,0.0,-1.0));
#911=AXIS2_PLACEMENT_3D('',#908,#909,#910);
#912=PLANE('',#911);
#913=ORIENTED_EDGE('',*,*,#348,.T.);
#914=EDGE_LOOP('',(#913));
#915=FACE_OUTER_BOUND('',#914,.T.);
#916=ORIENTED_EDGE('',*,*,#387,.F.);
#917=EDGE_LOOP('',(#916));
#918=FACE_BOUND('',#917,.T.);
#919=ADVANCED_FACE('',(#915,#918),#912,.F.);
#920=CARTESIAN_POINT('',(8.599999999999998,-33.000000000000291,-64.951905283832730));
#921=DIRECTION('',(1.0,0.0,0.0));
#922=DIRECTION('',(0.0,0.0,-1.0));
#923=AXIS2_PLACEMENT_3D('',#920,#921,#922);
#924=PLANE('',#923);
#925=ORIENTED_EDGE('',*,*,#292,.T.);
#926=EDGE_LOOP('',(#925));
#927=FACE_OUTER_BOUND('',#926,.T.);
#928=ORIENTED_EDGE('',*,*,#331,.F.);
#929=EDGE_LOOP('',(#928));
#930=FACE_BOUND('',#929,.T.);
#931=ADVANCED_FACE('',(#927,#930),#924,.F.);
#932=CARTESIAN_POINT('',(8.599999999999998,-70.499999999999972,5.237225E-013));
#933=DIRECTION('',(1.0,0.0,0.0));
#934=DIRECTION('',(0.0,0.0,-1.0));
#935=AXIS2_PLACEMENT_3D('',#932,#933,#934);
#936=PLANE('',#935);
#937=ORIENTED_EDGE('',*,*,#236,.T.);
#938=EDGE_LOOP('',(#937));
#939=FACE_OUTER_BOUND('',#938,.T.);
#940=ORIENTED_EDGE('',*,*,#275,.F.);
#941=EDGE_LOOP('',(#940));
#942=FACE_BOUND('',#941,.T.);
#943=ADVANCED_FACE('',(#939,#942),#936,.F.);
#944=CARTESIAN_POINT('',(8.599999999999998,-32.999999999999389,64.951905283833241));
#945=DIRECTION('',(1.0,0.0,0.0));
#946=DIRECTION('',(0.0,0.0,-1.0));
#947=AXIS2_PLACEMENT_3D('',#944,#945,#946);
#948=PLANE('',#947);
#949=ORIENTED_EDGE('',*,*,#180,.T.);
#950=EDGE_LOOP('',(#949));
#951=FACE_OUTER_BOUND('',#950,.T.);
#952=ORIENTED_EDGE('',*,*,#219,.F.);
#953=EDGE_LOOP('',(#952));
#954=FACE_BOUND('',#953,.T.);
#955=ADVANCED_FACE('',(#951,#954),#948,.F.);
#956=CARTESIAN_POINT('',(8.599999999999998,42.000000000000767,64.951905283832474));
#957=DIRECTION('',(1.0,0.0,0.0));
#958=DIRECTION('',(0.0,0.0,-1.0));
#959=AXIS2_PLACEMENT_3D('',#956,#957,#958);
#960=PLANE('',#959);
#961=ORIENTED_EDGE('',*,*,#124,.T.);
#962=EDGE_LOOP('',(#961));
#963=FACE_OUTER_BOUND('',#962,.T.);
#964=ORIENTED_EDGE('',*,*,#163,.F.);
#965=EDGE_LOOP('',(#964));
#966=FACE_BOUND('',#965,.T.);
#967=ADVANCED_FACE('',(#963,#966),#960,.F.);
#968=CLOSED_SHELL('',(#71,#91,#111,#139,#167,#195,#223,#251,#279,#307,#335,#363,#391,#419,#447,#475,#503,#523,#543,#563,#583,#611,#639,#659,#687,#699,#719,#739,#767,#787,#817,#829,#841,#853,#865,#895,#907,#919,#931,#943,#955,#967));
#969=MANIFOLD_SOLID_BREP('',#968);
#970=COLOUR_RGB('Standard',0.752941012382507,0.752941012382507,0.752941012382507);
#971=FILL_AREA_STYLE_COLOUR('Standard',#970);
#972=FILL_AREA_STYLE('Standard',(#971));
#973=SURFACE_STYLE_FILL_AREA(#972);
#974=SURFACE_SIDE_STYLE('Standard',(#973));
#975=SURFACE_STYLE_USAGE(.BOTH.,#974);
#976=PRESENTATION_STYLE_ASSIGNMENT((#975));
#977=STYLED_ITEM('',(#976),#969);
#978=MECHANICAL_DESIGN_GEOMETRIC_PRESENTATION_REPRESENTATION('',(#977),#36);
#979=ADVANCED_BREP_SHAPE_REPRESENTATION('ABSR',(#969),#36);
#980=SHAPE_REPRESENTATION_RELATIONSHIP('SRR','None',#979,#41);
ENDSEC;
END-ISO-10303-21;
