ISO-10303-21;
HEADER;
/****************************************************************
 * Generated by software with PDE/Lib inside                    *
 * PDElib Version v51a, created Tue 12/06/2005                  *
 * International Technegroup Inc. (www.iti-oh.com)              *
 ****************************************************************/
FILE_DESCRIPTION((''),'2;1');
FILE_NAME('I:\\Kurz\\oerlikon_neu\\Fliehkraftkupplung\\682Modelle-Ausfuehrung_mit_Passfeder\\Modell_Abtriebsnabe_V1_Pos02.stp','2010-05-04T19:50:36',('Administrator'),(''),'Autodesk Inventor 11','Autodesk Inventor 11','');
FILE_SCHEMA(('AUTOMOTIVE_DESIGN { 1 0 10303 214 1 1 1 1 }'));
ENDSEC;
DATA;
#5=APPLICATION_CONTEXT('automotive design');
#6=APPLICATION_PROTOCOL_DEFINITION('International Standard','automotive_design',2001,#5);
#7=PRODUCT_CONTEXT('',#5,'mechanical');
#8=PRODUCT('Pos2_Abtriebsnabe','Pos2_Abtriebsnabe',$,(#7));
#9=PRODUCT_RELATED_PRODUCT_CATEGORY('part',$,(#8));
#10=PRODUCT_DEFINITION_FORMATION('',$,#8);
#11=PRODUCT_DEFINITION_CONTEXT('part definition',#5,'design');
#12=PRODUCT_DEFINITION('',$,#10,#11);
#18=(NAMED_UNIT(*)PLANE_ANGLE_UNIT()SI_UNIT($,.RADIAN.));
#19=DIMENSIONAL_EXPONENTS(0.0,0.0,0.0,0.0,0.0,0.0,0.0);
#20=PLANE_ANGLE_MEASURE_WITH_UNIT(PLANE_ANGLE_MEASURE(0.017453292500000),#18);
#24=(CONVERSION_BASED_UNIT('DEGREE',#20)NAMED_UNIT(#19)PLANE_ANGLE_UNIT());
#28=(NAMED_UNIT(*)SI_UNIT($,.STERADIAN.)SOLID_ANGLE_UNIT());
#32=(LENGTH_UNIT()NAMED_UNIT(*)SI_UNIT(.MILLI.,.METRE.));
#34=UNCERTAINTY_MEASURE_WITH_UNIT(LENGTH_MEASURE(0.010000000000000),#32,'DISTANCE_ACCURACY_VALUE','');
#36=(GEOMETRIC_REPRESENTATION_CONTEXT(3)GLOBAL_UNCERTAINTY_ASSIGNED_CONTEXT((#34))GLOBAL_UNIT_ASSIGNED_CONTEXT((#24,#28,#32))REPRESENTATION_CONTEXT('None','None'));
#37=AXIS2_PLACEMENT_3D('',#38,#39,#40);
#38=CARTESIAN_POINT('',(0.0,0.0,0.0));
#39=DIRECTION('',(0.0,0.0,1.0));
#40=DIRECTION('',(1.0,0.0,0.0));
#41=SHAPE_REPRESENTATION('',(#37),#36);
#42=PRODUCT_DEFINITION_SHAPE('','',#12);
#43=SHAPE_DEFINITION_REPRESENTATION(#42,#41);
#44=CARTESIAN_POINT('',(33.0,-5.510729E-015,45.0));
#45=CARTESIAN_POINT('',(43.0,-5.510729E-015,45.0));
#46=CARTESIAN_POINT('',(43.0,-4.286122E-015,35.0));
#47=CARTESIAN_POINT('',(43.0,-3.061516E-015,25.0));
#48=CARTESIAN_POINT('',(33.0,-3.061516E-015,25.0));
#49=CARTESIAN_POINT('',(33.0,-45.0,44.999999999999986));
#50=CARTESIAN_POINT('',(43.0,-45.0,44.999999999999986));
#51=CARTESIAN_POINT('',(43.0,-35.0,34.999999999999986));
#52=CARTESIAN_POINT('',(43.0,-24.999999999999996,24.999999999999989));
#53=CARTESIAN_POINT('',(33.0,-24.999999999999993,24.999999999999989));
#54=CARTESIAN_POINT('',(33.0,-45.0,-5.510729E-015));
#55=CARTESIAN_POINT('',(43.0,-45.0,-5.510729E-015));
#56=CARTESIAN_POINT('',(43.0,-35.0,-4.286122E-015));
#57=CARTESIAN_POINT('',(43.0,-25.0,-3.061516E-015));
#58=CARTESIAN_POINT('',(33.0,-25.0,-3.061516E-015));
#59=CARTESIAN_POINT('',(33.0,-44.999999999999986,-45.0));
#60=CARTESIAN_POINT('',(43.0,-44.999999999999986,-45.0));
#61=CARTESIAN_POINT('',(43.0,-34.999999999999986,-35.0));
#62=CARTESIAN_POINT('',(43.0,-24.999999999999989,-24.999999999999996));
#63=CARTESIAN_POINT('',(33.0,-24.999999999999989,-24.999999999999993));
#64=CARTESIAN_POINT('',(33.0,5.510729E-015,-45.0));
#65=CARTESIAN_POINT('',(43.0,5.510729E-015,-45.0));
#66=CARTESIAN_POINT('',(43.0,4.286122E-015,-35.0));
#67=CARTESIAN_POINT('',(43.0,3.061516E-015,-25.0));
#68=CARTESIAN_POINT('',(33.0,3.061516E-015,-25.0));
#69=CARTESIAN_POINT('',(33.0,45.0,-44.999999999999986));
#70=CARTESIAN_POINT('',(43.0,45.0,-44.999999999999986));
#71=CARTESIAN_POINT('',(43.0,35.0,-34.999999999999986));
#72=CARTESIAN_POINT('',(43.0,24.999999999999996,-24.999999999999989));
#73=CARTESIAN_POINT('',(33.0,24.999999999999993,-24.999999999999989));
#74=CARTESIAN_POINT('',(33.0,45.0,5.510729E-015));
#75=CARTESIAN_POINT('',(43.0,45.0,5.510729E-015));
#76=CARTESIAN_POINT('',(43.0,35.0,4.286122E-015));
#77=CARTESIAN_POINT('',(43.0,25.0,3.061516E-015));
#78=CARTESIAN_POINT('',(33.0,25.0,3.061516E-015));
#79=CARTESIAN_POINT('',(33.0,44.999999999999986,45.0));
#80=CARTESIAN_POINT('',(43.0,44.999999999999986,45.0));
#81=CARTESIAN_POINT('',(43.0,34.999999999999986,35.0));
#82=CARTESIAN_POINT('',(43.0,24.999999999999989,24.999999999999996));
#83=CARTESIAN_POINT('',(33.0,24.999999999999989,24.999999999999993));
#84=CARTESIAN_POINT('',(33.0,-5.510729E-015,45.0));
#85=CARTESIAN_POINT('',(43.0,-5.510729E-015,45.0));
#86=CARTESIAN_POINT('',(43.0,-4.286122E-015,35.0));
#87=CARTESIAN_POINT('',(43.0,-3.061516E-015,25.0));
#88=CARTESIAN_POINT('',(33.0,-3.061516E-015,25.0));
#96=(BOUNDED_SURFACE()B_SPLINE_SURFACE(2,2,((#44,#49,#54,#59,#64,#69,#74,#79,#84),(#45,#50,#55,#60,#65,#70,#75,#80,#85),(#46,#51,#56,#61,#66,#71,#76,#81,#86),(#47,#52,#57,#62,#67,#72,#77,#82,#87),(#48,#53,#58,#63,#68,#73,#78,#83,#88)),.UNSPECIFIED.,.F.,.T.,.U.)B_SPLINE_SURFACE_WITH_KNOTS((3,2,3),(3,2,2,2,3),(0.0,1.570796326794897,3.141592653589793),(0.0,1.570796326794897,3.141592653589793,4.712388980384690,6.283185307179586),.UNSPECIFIED.)GEOMETRIC_REPRESENTATION_ITEM()RATIONAL_B_SPLINE_SURFACE(((1.0,0.707106781186548,1.0,0.707106781186548,1.0,0.707106781186548,1.0,0.707106781186548,1.0),(0.707106781186548,0.500000000000000,0.707106781186548,0.500000000000000,0.707106781186548,0.500000000000000,0.707106781186548,0.500000000000000,0.707106781186548),(1.0,0.707106781186548,1.0,0.707106781186548,1.0,0.707106781186548,1.0,0.707106781186548,1.0),(0.707106781186548,0.500000000000000,0.707106781186548,0.500000000000000,0.707106781186548,0.500000000000000,0.707106781186548,0.500000000000000,0.707106781186548),(1.0,0.707106781186548,1.0,0.707106781186548,1.0,0.707106781186548,1.0,0.707106781186548,1.0)))REPRESENTATION_ITEM('')SURFACE());
#97=CARTESIAN_POINT('',(33.0,0.0,25.0));
#98=VERTEX_POINT('',#97);
#99=CARTESIAN_POINT('',(33.0,0.0,0.0));
#100=DIRECTION('',(1.0,0.0,0.0));
#101=DIRECTION('',(0.0,0.0,-1.0));
#102=AXIS2_PLACEMENT_3D('',#99,#100,#101);
#103=CIRCLE('',#102,25.0);
#104=EDGE_CURVE('',#98,#98,#103,.T.);
#105=ORIENTED_EDGE('',*,*,#104,.T.);
#106=EDGE_LOOP('',(#105));
#107=FACE_OUTER_BOUND('',#106,.T.);
#108=CARTESIAN_POINT('',(43.0,8.572244E-015,35.0));
#109=VERTEX_POINT('',#108);
#110=CARTESIAN_POINT('',(43.0,0.0,0.0));
#111=DIRECTION('',(-1.0,0.0,0.0));
#112=DIRECTION('',(0.0,0.0,-1.0));
#113=AXIS2_PLACEMENT_3D('',#110,#111,#112);
#114=CIRCLE('',#113,35.0);
#115=EDGE_CURVE('',#109,#109,#114,.T.);
#116=ORIENTED_EDGE('',*,*,#115,.T.);
#117=EDGE_LOOP('',(#116));
#118=FACE_BOUND('',#117,.T.);
#119=ADVANCED_FACE('',(#107,#118),#96,.T.);
#120=CARTESIAN_POINT('',(0.0,0.0,0.0));
#121=DIRECTION('',(-1.0,0.0,0.0));
#122=DIRECTION('',(0.0,0.0,1.0));
#123=AXIS2_PLACEMENT_3D('',#120,#121,#122);
#124=CYLINDRICAL_SURFACE('',#123,25.0);
#125=CARTESIAN_POINT('',(2.000000000000013,0.0,25.0));
#126=VERTEX_POINT('',#125);
#127=CARTESIAN_POINT('',(2.000000000000013,0.0,0.0));
#128=DIRECTION('',(-1.0,0.0,0.0));
#129=DIRECTION('',(0.0,0.0,1.0));
#130=AXIS2_PLACEMENT_3D('',#127,#128,#129);
#131=CIRCLE('',#130,25.0);
#132=EDGE_CURVE('',#126,#126,#131,.T.);
#133=ORIENTED_EDGE('',*,*,#132,.F.);
#134=EDGE_LOOP('',(#133));
#135=FACE_OUTER_BOUND('',#134,.T.);
#136=ORIENTED_EDGE('',*,*,#104,.F.);
#137=EDGE_LOOP('',(#136));
#138=FACE_BOUND('',#137,.T.);
#139=ADVANCED_FACE('',(#135,#138),#124,.T.);
#140=CARTESIAN_POINT('',(43.0,42.141521953564826,0.0));
#141=DIRECTION('',(1.0,0.0,0.0));
#142=DIRECTION('',(0.0,0.0,-1.0));
#143=AXIS2_PLACEMENT_3D('',#140,#141,#142);
#144=PLANE('',#143);
#145=CARTESIAN_POINT('',(43.0,0.0,82.999999999999972));
#146=VERTEX_POINT('',#145);
#147=CARTESIAN_POINT('',(43.0,0.0,0.0));
#148=DIRECTION('',(-1.0,0.0,0.0));
#149=DIRECTION('',(0.0,0.0,1.0));
#150=AXIS2_PLACEMENT_3D('',#147,#148,#149);
#151=CIRCLE('',#150,82.999999999999972);
#152=EDGE_CURVE('',#146,#146,#151,.T.);
#153=ORIENTED_EDGE('',*,*,#152,.T.);
#154=EDGE_LOOP('',(#153));
#155=FACE_OUTER_BOUND('',#154,.T.);
#156=CARTESIAN_POINT('',(43.0,37.500000000000753,72.451905283832460));
#157=VERTEX_POINT('',#156);
#158=CARTESIAN_POINT('',(43.0,37.500000000000753,64.951905283832474));
#159=DIRECTION('',(-1.0,0.0,0.0));
#160=DIRECTION('',(0.0,0.0,1.0));
#161=AXIS2_PLACEMENT_3D('',#158,#159,#160);
#162=CIRCLE('',#161,7.500000000000005);
#163=EDGE_CURVE('',#157,#157,#162,.T.);
#164=ORIENTED_EDGE('',*,*,#163,.F.);
#165=EDGE_LOOP('',(#164));
#166=FACE_BOUND('',#165,.T.);
#167=CARTESIAN_POINT('',(43.0,75.0,7.499999999999996));
#168=VERTEX_POINT('',#167);
#169=CARTESIAN_POINT('',(43.0,75.0,0.0));
#170=DIRECTION('',(-1.0,0.0,0.0));
#171=DIRECTION('',(0.0,0.0,1.0));
#172=AXIS2_PLACEMENT_3D('',#169,#170,#171);
#173=CIRCLE('',#172,7.499999999999996);
#174=EDGE_CURVE('',#168,#168,#173,.T.);
#175=ORIENTED_EDGE('',*,*,#174,.F.);
#176=EDGE_LOOP('',(#175));
#177=FACE_BOUND('',#176,.T.);
#178=CARTESIAN_POINT('',(43.0,37.499999999999844,-57.451905283833000));
#179=VERTEX_POINT('',#178);
#180=CARTESIAN_POINT('',(43.0,37.499999999999844,-64.951905283832986));
#181=DIRECTION('',(-1.0,0.0,0.0));
#182=DIRECTION('',(0.0,0.0,1.0));
#183=AXIS2_PLACEMENT_3D('',#180,#181,#182);
#184=CIRCLE('',#183,7.500000000000000);
#185=EDGE_CURVE('',#179,#179,#184,.T.);
#186=ORIENTED_EDGE('',*,*,#185,.F.);
#187=EDGE_LOOP('',(#186));
#188=FACE_BOUND('',#187,.T.);
#189=CARTESIAN_POINT('',(43.0,-37.500000000000313,-57.451905283832758));
#190=VERTEX_POINT('',#189);
#191=CARTESIAN_POINT('',(43.0,-37.500000000000313,-64.951905283832730));
#192=DIRECTION('',(-1.0,0.0,0.0));
#193=DIRECTION('',(0.0,0.0,1.0));
#194=AXIS2_PLACEMENT_3D('',#191,#192,#193);
#195=CIRCLE('',#194,7.500000000000000);
#196=EDGE_CURVE('',#190,#190,#195,.T.);
#197=ORIENTED_EDGE('',*,*,#196,.F.);
#198=EDGE_LOOP('',(#197));
#199=FACE_BOUND('',#198,.T.);
#200=CARTESIAN_POINT('',(43.0,-75.0,7.500000000000516));
#201=VERTEX_POINT('',#200);
#202=CARTESIAN_POINT('',(43.0,-75.0,5.237225E-013));
#203=DIRECTION('',(-1.0,0.0,0.0));
#204=DIRECTION('',(0.0,0.0,1.0));
#205=AXIS2_PLACEMENT_3D('',#202,#203,#204);
#206=CIRCLE('',#205,7.499999999999996);
#207=EDGE_CURVE('',#201,#201,#206,.T.);
#208=ORIENTED_EDGE('',*,*,#207,.F.);
#209=EDGE_LOOP('',(#208));
#210=FACE_BOUND('',#209,.T.);
#211=CARTESIAN_POINT('',(43.0,-37.499999999999396,72.451905283833241));
#212=VERTEX_POINT('',#211);
#213=CARTESIAN_POINT('',(43.0,-37.499999999999396,64.951905283833241));
#214=DIRECTION('',(-1.0,0.0,0.0));
#215=DIRECTION('',(0.0,0.0,1.0));
#216=AXIS2_PLACEMENT_3D('',#213,#214,#215);
#217=CIRCLE('',#216,7.500000000000005);
#218=EDGE_CURVE('',#212,#212,#217,.T.);
#219=ORIENTED_EDGE('',*,*,#218,.F.);
#220=EDGE_LOOP('',(#219));
#221=FACE_BOUND('',#220,.T.);
#222=ORIENTED_EDGE('',*,*,#115,.F.);
#223=EDGE_LOOP('',(#222));
#224=FACE_BOUND('',#223,.T.);
#225=ADVANCED_FACE('',(#155,#166,#177,#188,#199,#210,#221,#224),#144,.F.);
#226=CARTESIAN_POINT('',(55.599999999999987,0.0,0.0));
#227=DIRECTION('',(-1.0,0.0,0.0));
#228=DIRECTION('',(0.0,0.0,1.0));
#229=AXIS2_PLACEMENT_3D('',#226,#227,#228);
#230=TOROIDAL_SURFACE('',#229,68.300000000000026,0.600000000000000);
#231=CARTESIAN_POINT('',(54.999999999999986,0.0,68.300000000000026));
#232=VERTEX_POINT('',#231);
#233=CARTESIAN_POINT('',(54.999999999999986,0.0,0.0));
#234=DIRECTION('',(-1.0,0.0,0.0));
#235=DIRECTION('',(0.0,0.0,1.0));
#236=AXIS2_PLACEMENT_3D('',#233,#234,#235);
#237=CIRCLE('',#236,68.300000000000026);
#238=EDGE_CURVE('',#232,#232,#237,.T.);
#239=ORIENTED_EDGE('',*,*,#238,.F.);
#240=EDGE_LOOP('',(#239));
#241=FACE_OUTER_BOUND('',#240,.T.);
#242=CARTESIAN_POINT('',(55.599999999999987,0.0,67.700000000000017));
#243=VERTEX_POINT('',#242);
#244=CARTESIAN_POINT('',(55.599999999999987,0.0,0.0));
#245=DIRECTION('',(1.0,0.0,0.0));
#246=DIRECTION('',(0.0,0.0,1.0));
#247=AXIS2_PLACEMENT_3D('',#244,#245,#246);
#248=CIRCLE('',#247,67.700000000000017);
#249=EDGE_CURVE('',#243,#243,#248,.T.);
#250=ORIENTED_EDGE('',*,*,#249,.F.);
#251=EDGE_LOOP('',(#250));
#252=FACE_BOUND('',#251,.T.);
#253=ADVANCED_FACE('',(#241,#252),#230,.F.);
#254=CARTESIAN_POINT('',(56.301393259176891,0.0,0.0));
#255=DIRECTION('',(-1.0,0.0,0.0));
#256=DIRECTION('',(0.0,0.0,1.0));
#257=AXIS2_PLACEMENT_3D('',#254,#255,#256);
#258=TOROIDAL_SURFACE('',#257,68.300000000000026,0.600000000000000);
#259=CARTESIAN_POINT('',(56.301393259176891,0.0,67.700000000000017));
#260=VERTEX_POINT('',#259);
#261=CARTESIAN_POINT('',(56.301393259176891,0.0,0.0));
#262=DIRECTION('',(-1.0,0.0,0.0));
#263=DIRECTION('',(0.0,0.0,1.0));
#264=AXIS2_PLACEMENT_3D('',#261,#262,#263);
#265=CIRCLE('',#264,67.700000000000017);
#266=EDGE_CURVE('',#260,#260,#265,.T.);
#267=ORIENTED_EDGE('',*,*,#266,.F.);
#268=EDGE_LOOP('',(#267));
#269=FACE_OUTER_BOUND('',#268,.T.);
#270=CARTESIAN_POINT('',(56.456684686238425,8.310206E-015,67.720444504226549));
#271=VERTEX_POINT('',#270);
#272=CARTESIAN_POINT('',(56.456684686238425,0.0,0.0));
#273=DIRECTION('',(1.0,0.0,0.0));
#274=DIRECTION('',(0.0,0.0,-1.0));
#275=AXIS2_PLACEMENT_3D('',#272,#273,#274);
#276=CIRCLE('',#275,67.720444504226549);
#277=EDGE_CURVE('',#271,#271,#276,.T.);
#278=ORIENTED_EDGE('',*,*,#277,.F.);
#279=EDGE_LOOP('',(#278));
#280=FACE_BOUND('',#279,.T.);
#281=ADVANCED_FACE('',(#269,#280),#258,.F.);
#282=CARTESIAN_POINT('',(56.602812747235866,0.0,0.0));
#283=DIRECTION('',(-1.0,0.0,0.0));
#284=DIRECTION('',(0.0,0.0,1.0));
#285=AXIS2_PLACEMENT_3D('',#282,#283,#284);
#286=TOROIDAL_SURFACE('',#285,37.200000000000003,0.600000000000000);
#287=CARTESIAN_POINT('',(56.602812747235866,0.0,37.799999999999997));
#288=VERTEX_POINT('',#287);
#289=CARTESIAN_POINT('',(56.602812747235866,0.0,0.0));
#290=DIRECTION('',(-1.0,0.0,0.0));
#291=DIRECTION('',(0.0,0.0,1.0));
#292=AXIS2_PLACEMENT_3D('',#289,#290,#291);
#293=CIRCLE('',#292,37.799999999999997);
#294=EDGE_CURVE('',#288,#288,#293,.T.);
#295=ORIENTED_EDGE('',*,*,#294,.F.);
#296=EDGE_LOOP('',(#295));
#297=FACE_OUTER_BOUND('',#296,.T.);
#298=CARTESIAN_POINT('',(56.002812747235843,0.0,37.200000000000003));
#299=VERTEX_POINT('',#298);
#300=CARTESIAN_POINT('',(56.002812747235843,0.0,0.0));
#301=DIRECTION('',(1.0,0.0,0.0));
#302=DIRECTION('',(0.0,0.0,1.0));
#303=AXIS2_PLACEMENT_3D('',#300,#301,#302);
#304=CIRCLE('',#303,37.200000000000003);
#305=EDGE_CURVE('',#299,#299,#304,.T.);
#306=ORIENTED_EDGE('',*,*,#305,.F.);
#307=EDGE_LOOP('',(#306));
#308=FACE_BOUND('',#307,.T.);
#309=ADVANCED_FACE('',(#297,#308),#286,.F.);
#310=CARTESIAN_POINT('',(57.304206006412741,0.0,0.0));
#311=DIRECTION('',(-1.0,0.0,0.0));
#312=DIRECTION('',(0.0,0.0,1.0));
#313=AXIS2_PLACEMENT_3D('',#310,#311,#312);
#314=TOROIDAL_SURFACE('',#313,37.200000000000003,0.600000000000000);
#315=CARTESIAN_POINT('',(57.459497433474247,0.0,37.779555495773444));
#316=VERTEX_POINT('',#315);
#317=CARTESIAN_POINT('',(57.459497433474247,0.0,0.0));
#318=DIRECTION('',(-1.0,0.0,0.0));
#319=DIRECTION('',(0.0,0.0,1.0));
#320=AXIS2_PLACEMENT_3D('',#317,#318,#319);
#321=CIRCLE('',#320,37.779555495773444);
#322=EDGE_CURVE('',#316,#316,#321,.T.);
#323=ORIENTED_EDGE('',*,*,#322,.F.);
#324=EDGE_LOOP('',(#323));
#325=FACE_OUTER_BOUND('',#324,.T.);
#326=CARTESIAN_POINT('',(57.304206006412741,0.0,37.799999999999997));
#327=VERTEX_POINT('',#326);
#328=CARTESIAN_POINT('',(57.304206006412741,0.0,0.0));
#329=DIRECTION('',(1.0,0.0,0.0));
#330=DIRECTION('',(0.0,0.0,1.0));
#331=AXIS2_PLACEMENT_3D('',#328,#329,#330);
#332=CIRCLE('',#331,37.799999999999997);
#333=EDGE_CURVE('',#327,#327,#332,.T.);
#334=ORIENTED_EDGE('',*,*,#333,.F.);
#335=EDGE_LOOP('',(#334));
#336=FACE_BOUND('',#335,.T.);
#337=ADVANCED_FACE('',(#325,#336),#314,.F.);
#338=CARTESIAN_POINT('',(43.0,37.500000000000753,64.951905283832474));
#339=DIRECTION('',(-1.0,0.0,0.0));
#340=DIRECTION('',(0.0,0.0,1.0));
#341=AXIS2_PLACEMENT_3D('',#338,#339,#340);
#342=CYLINDRICAL_SURFACE('',#341,7.500000000000005);
#343=CARTESIAN_POINT('',(51.600000000000001,37.500000000000753,72.451905283832460));
#344=VERTEX_POINT('',#343);
#345=CARTESIAN_POINT('',(51.600000000000001,37.500000000000753,64.951905283832474));
#346=DIRECTION('',(-1.0,0.0,0.0));
#347=DIRECTION('',(0.0,0.0,1.0));
#348=AXIS2_PLACEMENT_3D('',#345,#346,#347);
#349=CIRCLE('',#348,7.500000000000005);
#350=EDGE_CURVE('',#344,#344,#349,.T.);
#351=ORIENTED_EDGE('',*,*,#350,.F.);
#352=EDGE_LOOP('',(#351));
#353=FACE_OUTER_BOUND('',#352,.T.);
#354=ORIENTED_EDGE('',*,*,#163,.T.);
#355=EDGE_LOOP('',(#354));
#356=FACE_BOUND('',#355,.T.);
#357=ADVANCED_FACE('',(#353,#356),#342,.F.);
#358=CARTESIAN_POINT('',(43.0,37.500000000000753,64.951905283832474));
#359=DIRECTION('',(-1.0,0.0,0.0));
#360=DIRECTION('',(0.0,0.0,1.0));
#361=AXIS2_PLACEMENT_3D('',#358,#359,#360);
#362=CYLINDRICAL_SURFACE('',#361,4.500000000000004);
#363=CARTESIAN_POINT('',(54.999999999999986,37.500000000000753,69.451905283832474));
#364=VERTEX_POINT('',#363);
#365=CARTESIAN_POINT('',(54.999999999999986,37.500000000000753,64.951905283832474));
#366=DIRECTION('',(-1.0,0.0,0.0));
#367=DIRECTION('',(0.0,0.0,1.0));
#368=AXIS2_PLACEMENT_3D('',#365,#366,#367);
#369=CIRCLE('',#368,4.500000000000004);
#370=EDGE_CURVE('',#364,#364,#369,.T.);
#371=ORIENTED_EDGE('',*,*,#370,.F.);
#372=EDGE_LOOP('',(#371));
#373=FACE_OUTER_BOUND('',#372,.T.);
#374=CARTESIAN_POINT('',(51.600000000000001,37.500000000000753,69.451905283832474));
#375=VERTEX_POINT('',#374);
#376=CARTESIAN_POINT('',(51.600000000000001,37.500000000000753,64.951905283832474));
#377=DIRECTION('',(-1.0,0.0,0.0));
#378=DIRECTION('',(0.0,0.0,1.0));
#379=AXIS2_PLACEMENT_3D('',#376,#377,#378);
#380=CIRCLE('',#379,4.500000000000004);
#381=EDGE_CURVE('',#375,#375,#380,.T.);
#382=ORIENTED_EDGE('',*,*,#381,.T.);
#383=EDGE_LOOP('',(#382));
#384=FACE_BOUND('',#383,.T.);
#385=ADVANCED_FACE('',(#373,#384),#362,.F.);
#386=CARTESIAN_POINT('',(43.0,-37.499999999999396,64.951905283833241));
#387=DIRECTION('',(-1.0,0.0,0.0));
#388=DIRECTION('',(0.0,0.0,1.0));
#389=AXIS2_PLACEMENT_3D('',#386,#387,#388);
#390=CYLINDRICAL_SURFACE('',#389,7.500000000000005);
#391=CARTESIAN_POINT('',(51.600000000000001,-37.499999999999396,72.451905283833241));
#392=VERTEX_POINT('',#391);
#393=CARTESIAN_POINT('',(51.600000000000001,-37.499999999999396,64.951905283833241));
#394=DIRECTION('',(-1.0,0.0,0.0));
#395=DIRECTION('',(0.0,0.0,1.0));
#396=AXIS2_PLACEMENT_3D('',#393,#394,#395);
#397=CIRCLE('',#396,7.500000000000005);
#398=EDGE_CURVE('',#392,#392,#397,.T.);
#399=ORIENTED_EDGE('',*,*,#398,.F.);
#400=EDGE_LOOP('',(#399));
#401=FACE_OUTER_BOUND('',#400,.T.);
#402=ORIENTED_EDGE('',*,*,#218,.T.);
#403=EDGE_LOOP('',(#402));
#404=FACE_BOUND('',#403,.T.);
#405=ADVANCED_FACE('',(#401,#404),#390,.F.);
#406=CARTESIAN_POINT('',(43.0,-37.499999999999396,64.951905283833241));
#407=DIRECTION('',(-1.0,0.0,0.0));
#408=DIRECTION('',(0.0,0.0,1.0));
#409=AXIS2_PLACEMENT_3D('',#406,#407,#408);
#410=CYLINDRICAL_SURFACE('',#409,4.500000000000004);
#411=CARTESIAN_POINT('',(54.999999999999986,-37.499999999999396,69.451905283833241));
#412=VERTEX_POINT('',#411);
#413=CARTESIAN_POINT('',(54.999999999999986,-37.499999999999396,64.951905283833241));
#414=DIRECTION('',(-1.0,0.0,0.0));
#415=DIRECTION('',(0.0,0.0,1.0));
#416=AXIS2_PLACEMENT_3D('',#413,#414,#415);
#417=CIRCLE('',#416,4.500000000000004);
#418=EDGE_CURVE('',#412,#412,#417,.T.);
#419=ORIENTED_EDGE('',*,*,#418,.F.);
#420=EDGE_LOOP('',(#419));
#421=FACE_OUTER_BOUND('',#420,.T.);
#422=CARTESIAN_POINT('',(51.600000000000001,-37.499999999999396,69.451905283833241));
#423=VERTEX_POINT('',#422);
#424=CARTESIAN_POINT('',(51.600000000000001,-37.499999999999396,64.951905283833241));
#425=DIRECTION('',(-1.0,0.0,0.0));
#426=DIRECTION('',(0.0,0.0,1.0));
#427=AXIS2_PLACEMENT_3D('',#424,#425,#426);
#428=CIRCLE('',#427,4.500000000000004);
#429=EDGE_CURVE('',#423,#423,#428,.T.);
#430=ORIENTED_EDGE('',*,*,#429,.T.);
#431=EDGE_LOOP('',(#430));
#432=FACE_BOUND('',#431,.T.);
#433=ADVANCED_FACE('',(#421,#432),#410,.F.);
#434=CARTESIAN_POINT('',(43.0,-75.0,5.237225E-013));
#435=DIRECTION('',(-1.0,0.0,0.0));
#436=DIRECTION('',(0.0,0.0,1.0));
#437=AXIS2_PLACEMENT_3D('',#434,#435,#436);
#438=CYLINDRICAL_SURFACE('',#437,7.499999999999996);
#439=CARTESIAN_POINT('',(51.600000000000001,-75.0,7.500000000000516));
#440=VERTEX_POINT('',#439);
#441=CARTESIAN_POINT('',(51.600000000000001,-75.0,5.237225E-013));
#442=DIRECTION('',(-1.0,0.0,0.0));
#443=DIRECTION('',(0.0,0.0,1.0));
#444=AXIS2_PLACEMENT_3D('',#441,#442,#443);
#445=CIRCLE('',#444,7.499999999999996);
#446=EDGE_CURVE('',#440,#440,#445,.T.);
#447=ORIENTED_EDGE('',*,*,#446,.F.);
#448=EDGE_LOOP('',(#447));
#449=FACE_OUTER_BOUND('',#448,.T.);
#450=ORIENTED_EDGE('',*,*,#207,.T.);
#451=EDGE_LOOP('',(#450));
#452=FACE_BOUND('',#451,.T.);
#453=ADVANCED_FACE('',(#449,#452),#438,.F.);
#454=CARTESIAN_POINT('',(43.0,-75.0,5.237225E-013));
#455=DIRECTION('',(-1.0,0.0,0.0));
#456=DIRECTION('',(0.0,0.0,1.0));
#457=AXIS2_PLACEMENT_3D('',#454,#455,#456);
#458=CYLINDRICAL_SURFACE('',#457,4.499999999999997);
#459=CARTESIAN_POINT('',(54.999999999999986,-75.0,4.500000000000521));
#460=VERTEX_POINT('',#459);
#461=CARTESIAN_POINT('',(54.999999999999986,-75.0,5.237225E-013));
#462=DIRECTION('',(-1.0,0.0,0.0));
#463=DIRECTION('',(0.0,0.0,1.0));
#464=AXIS2_PLACEMENT_3D('',#461,#462,#463);
#465=CIRCLE('',#464,4.499999999999997);
#466=EDGE_CURVE('',#460,#460,#465,.T.);
#467=ORIENTED_EDGE('',*,*,#466,.F.);
#468=EDGE_LOOP('',(#467));
#469=FACE_OUTER_BOUND('',#468,.T.);
#470=CARTESIAN_POINT('',(51.600000000000001,-75.0,4.500000000000529));
#471=VERTEX_POINT('',#470);
#472=CARTESIAN_POINT('',(51.600000000000001,-75.0,5.237225E-013));
#473=DIRECTION('',(-1.0,0.0,0.0));
#474=DIRECTION('',(0.0,0.0,1.0));
#475=AXIS2_PLACEMENT_3D('',#472,#473,#474);
#476=CIRCLE('',#475,4.500000000000004);
#477=EDGE_CURVE('',#471,#471,#476,.T.);
#478=ORIENTED_EDGE('',*,*,#477,.T.);
#479=EDGE_LOOP('',(#478));
#480=FACE_BOUND('',#479,.T.);
#481=ADVANCED_FACE('',(#469,#480),#458,.F.);
#482=CARTESIAN_POINT('',(43.0,-37.500000000000313,-64.951905283832730));
#483=DIRECTION('',(-1.0,0.0,0.0));
#484=DIRECTION('',(0.0,0.0,1.0));
#485=AXIS2_PLACEMENT_3D('',#482,#483,#484);
#486=CYLINDRICAL_SURFACE('',#485,7.500000000000000);
#487=CARTESIAN_POINT('',(51.600000000000001,-37.500000000000313,-57.451905283832758));
#488=VERTEX_POINT('',#487);
#489=CARTESIAN_POINT('',(51.600000000000001,-37.500000000000313,-64.951905283832730));
#490=DIRECTION('',(-1.0,0.0,0.0));
#491=DIRECTION('',(0.0,0.0,1.0));
#492=AXIS2_PLACEMENT_3D('',#489,#490,#491);
#493=CIRCLE('',#492,7.500000000000000);
#494=EDGE_CURVE('',#488,#488,#493,.T.);
#495=ORIENTED_EDGE('',*,*,#494,.F.);
#496=EDGE_LOOP('',(#495));
#497=FACE_OUTER_BOUND('',#496,.T.);
#498=ORIENTED_EDGE('',*,*,#196,.T.);
#499=EDGE_LOOP('',(#498));
#500=FACE_BOUND('',#499,.T.);
#501=ADVANCED_FACE('',(#497,#500),#486,.F.);
#502=CARTESIAN_POINT('',(43.0,-37.500000000000313,-64.951905283832730));
#503=DIRECTION('',(-1.0,0.0,0.0));
#504=DIRECTION('',(0.0,0.0,1.0));
#505=AXIS2_PLACEMENT_3D('',#502,#503,#504);
#506=CYLINDRICAL_SURFACE('',#505,4.500000000000004);
#507=CARTESIAN_POINT('',(54.999999999999986,-37.500000000000313,-60.451905283832730));
#508=VERTEX_POINT('',#507);
#509=CARTESIAN_POINT('',(54.999999999999986,-37.500000000000313,-64.951905283832730));
#510=DIRECTION('',(-1.0,0.0,0.0));
#511=DIRECTION('',(0.0,0.0,1.0));
#512=AXIS2_PLACEMENT_3D('',#509,#510,#511);
#513=CIRCLE('',#512,4.500000000000004);
#514=EDGE_CURVE('',#508,#508,#513,.T.);
#515=ORIENTED_EDGE('',*,*,#514,.F.);
#516=EDGE_LOOP('',(#515));
#517=FACE_OUTER_BOUND('',#516,.T.);
#518=CARTESIAN_POINT('',(51.600000000000001,-37.500000000000313,-60.451905283832730));
#519=VERTEX_POINT('',#518);
#520=CARTESIAN_POINT('',(51.600000000000001,-37.500000000000313,-64.951905283832730));
#521=DIRECTION('',(-1.0,0.0,0.0));
#522=DIRECTION('',(0.0,0.0,1.0));
#523=AXIS2_PLACEMENT_3D('',#520,#521,#522);
#524=CIRCLE('',#523,4.500000000000004);
#525=EDGE_CURVE('',#519,#519,#524,.T.);
#526=ORIENTED_EDGE('',*,*,#525,.T.);
#527=EDGE_LOOP('',(#526));
#528=FACE_BOUND('',#527,.T.);
#529=ADVANCED_FACE('',(#517,#528),#506,.F.);
#530=CARTESIAN_POINT('',(43.0,37.499999999999844,-64.951905283832986));
#531=DIRECTION('',(-1.0,0.0,0.0));
#532=DIRECTION('',(0.0,0.0,1.0));
#533=AXIS2_PLACEMENT_3D('',#530,#531,#532);
#534=CYLINDRICAL_SURFACE('',#533,7.500000000000000);
#535=CARTESIAN_POINT('',(51.600000000000001,37.499999999999844,-57.451905283833000));
#536=VERTEX_POINT('',#535);
#537=CARTESIAN_POINT('',(51.600000000000001,37.499999999999844,-64.951905283832986));
#538=DIRECTION('',(-1.0,0.0,0.0));
#539=DIRECTION('',(0.0,0.0,1.0));
#540=AXIS2_PLACEMENT_3D('',#537,#538,#539);
#541=CIRCLE('',#540,7.500000000000000);
#542=EDGE_CURVE('',#536,#536,#541,.T.);
#543=ORIENTED_EDGE('',*,*,#542,.F.);
#544=EDGE_LOOP('',(#543));
#545=FACE_OUTER_BOUND('',#544,.T.);
#546=ORIENTED_EDGE('',*,*,#185,.T.);
#547=EDGE_LOOP('',(#546));
#548=FACE_BOUND('',#547,.T.);
#549=ADVANCED_FACE('',(#545,#548),#534,.F.);
#550=CARTESIAN_POINT('',(43.0,37.499999999999844,-64.951905283832986));
#551=DIRECTION('',(-1.0,0.0,0.0));
#552=DIRECTION('',(0.0,0.0,1.0));
#553=AXIS2_PLACEMENT_3D('',#550,#551,#552);
#554=CYLINDRICAL_SURFACE('',#553,4.500000000000004);
#555=CARTESIAN_POINT('',(54.999999999999986,37.499999999999844,-60.451905283833000));
#556=VERTEX_POINT('',#555);
#557=CARTESIAN_POINT('',(54.999999999999986,37.499999999999844,-64.951905283832986));
#558=DIRECTION('',(-1.0,0.0,0.0));
#559=DIRECTION('',(0.0,0.0,1.0));
#560=AXIS2_PLACEMENT_3D('',#557,#558,#559);
#561=CIRCLE('',#560,4.500000000000004);
#562=EDGE_CURVE('',#556,#556,#561,.T.);
#563=ORIENTED_EDGE('',*,*,#562,.F.);
#564=EDGE_LOOP('',(#563));
#565=FACE_OUTER_BOUND('',#564,.T.);
#566=CARTESIAN_POINT('',(51.600000000000001,37.499999999999844,-60.451905283833000));
#567=VERTEX_POINT('',#566);
#568=CARTESIAN_POINT('',(51.600000000000001,37.499999999999844,-64.951905283832986));
#569=DIRECTION('',(-1.0,0.0,0.0));
#570=DIRECTION('',(0.0,0.0,1.0));
#571=AXIS2_PLACEMENT_3D('',#568,#569,#570);
#572=CIRCLE('',#571,4.500000000000004);
#573=EDGE_CURVE('',#567,#567,#572,.T.);
#574=ORIENTED_EDGE('',*,*,#573,.T.);
#575=EDGE_LOOP('',(#574));
#576=FACE_BOUND('',#575,.T.);
#577=ADVANCED_FACE('',(#565,#576),#554,.F.);
#578=CARTESIAN_POINT('',(43.0,75.0,0.0));
#579=DIRECTION('',(-1.0,0.0,0.0));
#580=DIRECTION('',(0.0,0.0,1.0));
#581=AXIS2_PLACEMENT_3D('',#578,#579,#580);
#582=CYLINDRICAL_SURFACE('',#581,7.499999999999996);
#583=CARTESIAN_POINT('',(51.600000000000001,75.0,7.499999999999996));
#584=VERTEX_POINT('',#583);
#585=CARTESIAN_POINT('',(51.600000000000001,75.0,0.0));
#586=DIRECTION('',(-1.0,0.0,0.0));
#587=DIRECTION('',(0.0,0.0,1.0));
#588=AXIS2_PLACEMENT_3D('',#585,#586,#587);
#589=CIRCLE('',#588,7.499999999999996);
#590=EDGE_CURVE('',#584,#584,#589,.T.);
#591=ORIENTED_EDGE('',*,*,#590,.F.);
#592=EDGE_LOOP('',(#591));
#593=FACE_OUTER_BOUND('',#592,.T.);
#594=ORIENTED_EDGE('',*,*,#174,.T.);
#595=EDGE_LOOP('',(#594));
#596=FACE_BOUND('',#595,.T.);
#597=ADVANCED_FACE('',(#593,#596),#582,.F.);
#598=CARTESIAN_POINT('',(43.0,75.0,0.0));
#599=DIRECTION('',(-1.0,0.0,0.0));
#600=DIRECTION('',(0.0,0.0,1.0));
#601=AXIS2_PLACEMENT_3D('',#598,#599,#600);
#602=CYLINDRICAL_SURFACE('',#601,4.499999999999997);
#603=CARTESIAN_POINT('',(54.999999999999986,75.0,4.499999999999997));
#604=VERTEX_POINT('',#603);
#605=CARTESIAN_POINT('',(54.999999999999986,75.0,0.0));
#606=DIRECTION('',(-1.0,0.0,0.0));
#607=DIRECTION('',(0.0,0.0,1.0));
#608=AXIS2_PLACEMENT_3D('',#605,#606,#607);
#609=CIRCLE('',#608,4.499999999999997);
#610=EDGE_CURVE('',#604,#604,#609,.T.);
#611=ORIENTED_EDGE('',*,*,#610,.F.);
#612=EDGE_LOOP('',(#611));
#613=FACE_OUTER_BOUND('',#612,.T.);
#614=CARTESIAN_POINT('',(51.600000000000001,75.0,4.500000000000004));
#615=VERTEX_POINT('',#614);
#616=CARTESIAN_POINT('',(51.600000000000001,75.0,0.0));
#617=DIRECTION('',(-1.0,0.0,0.0));
#618=DIRECTION('',(0.0,0.0,1.0));
#619=AXIS2_PLACEMENT_3D('',#616,#617,#618);
#620=CIRCLE('',#619,4.500000000000004);
#621=EDGE_CURVE('',#615,#615,#620,.T.);
#622=ORIENTED_EDGE('',*,*,#621,.T.);
#623=EDGE_LOOP('',(#622));
#624=FACE_BOUND('',#623,.T.);
#625=ADVANCED_FACE('',(#613,#624),#602,.F.);
#626=CARTESIAN_POINT('',(60.500000000000028,0.0,0.0));
#627=DIRECTION('',(-1.0,0.0,0.0));
#628=DIRECTION('',(0.0,0.0,1.0));
#629=AXIS2_PLACEMENT_3D('',#626,#627,#628);
#630=CONICAL_SURFACE('',#629,68.0,45.000000000000263);
#631=CARTESIAN_POINT('',(61.999999999999986,0.0,66.500000000000028));
#632=VERTEX_POINT('',#631);
#633=CARTESIAN_POINT('',(61.999999999999986,0.0,0.0));
#634=DIRECTION('',(1.0,0.0,0.0));
#635=DIRECTION('',(0.0,0.0,1.0));
#636=AXIS2_PLACEMENT_3D('',#633,#634,#635);
#637=CIRCLE('',#636,66.500000000000028);
#638=EDGE_CURVE('',#632,#632,#637,.T.);
#639=ORIENTED_EDGE('',*,*,#638,.F.);
#640=EDGE_LOOP('',(#639));
#641=FACE_OUTER_BOUND('',#640,.T.);
#642=CARTESIAN_POINT('',(60.500000000000028,0.0,68.0));
#643=VERTEX_POINT('',#642);
#644=CARTESIAN_POINT('',(60.500000000000028,0.0,0.0));
#645=DIRECTION('',(-1.0,0.0,0.0));
#646=DIRECTION('',(0.0,0.0,1.0));
#647=AXIS2_PLACEMENT_3D('',#644,#645,#646);
#648=CIRCLE('',#647,68.0);
#649=EDGE_CURVE('',#643,#643,#648,.T.);
#650=ORIENTED_EDGE('',*,*,#649,.F.);
#651=EDGE_LOOP('',(#650));
#652=FACE_BOUND('',#651,.T.);
#653=ADVANCED_FACE('',(#641,#652),#630,.T.);
#654=CARTESIAN_POINT('',(0.0,0.0,0.0));
#655=DIRECTION('',(-1.0,0.0,0.0));
#656=DIRECTION('',(0.0,0.0,1.0));
#657=AXIS2_PLACEMENT_3D('',#654,#655,#656);
#658=CYLINDRICAL_SURFACE('',#657,37.499999999999986);
#659=CARTESIAN_POINT('',(71.999999999999972,0.0,37.499999999999986));
#660=VERTEX_POINT('',#659);
#661=CARTESIAN_POINT('',(71.999999999999972,0.0,0.0));
#662=DIRECTION('',(-1.0,0.0,0.0));
#663=DIRECTION('',(0.0,0.0,1.0));
#664=AXIS2_PLACEMENT_3D('',#661,#662,#663);
#665=CIRCLE('',#664,37.499999999999986);
#666=EDGE_CURVE('',#660,#660,#665,.T.);
#667=ORIENTED_EDGE('',*,*,#666,.F.);
#668=EDGE_LOOP('',(#667));
#669=FACE_OUTER_BOUND('',#668,.T.);
#670=CARTESIAN_POINT('',(58.502812747235843,0.0,37.500000000000000));
#671=VERTEX_POINT('',#670);
#672=CARTESIAN_POINT('',(58.502812747235843,0.0,0.0));
#673=DIRECTION('',(-1.0,0.0,0.0));
#674=DIRECTION('',(0.0,0.0,1.0));
#675=AXIS2_PLACEMENT_3D('',#672,#673,#674);
#676=CIRCLE('',#675,37.500000000000000);
#677=EDGE_CURVE('',#671,#671,#676,.T.);
#678=ORIENTED_EDGE('',*,*,#677,.T.);
#679=EDGE_LOOP('',(#678));
#680=FACE_BOUND('',#679,.T.);
#681=ADVANCED_FACE('',(#669,#680),#658,.F.);
#682=CARTESIAN_POINT('',(71.999999999999972,0.0,0.0));
#683=DIRECTION('',(-1.0,0.0,0.0));
#684=DIRECTION('',(0.0,0.0,1.0));
#685=AXIS2_PLACEMENT_3D('',#682,#683,#684);
#686=CONICAL_SURFACE('',#685,42.625113364740763,4.999999999999963);
#687=CARTESIAN_POINT('',(71.999999999999972,0.0,42.625113364740763));
#688=VERTEX_POINT('',#687);
#689=CARTESIAN_POINT('',(71.999999999999972,0.0,0.0));
#690=DIRECTION('',(-1.0,0.0,0.0));
#691=DIRECTION('',(0.0,0.0,1.0));
#692=AXIS2_PLACEMENT_3D('',#689,#690,#691);
#693=CIRCLE('',#692,42.625113364740763);
#694=EDGE_CURVE('',#688,#688,#693,.T.);
#695=ORIENTED_EDGE('',*,*,#694,.T.);
#696=EDGE_LOOP('',(#695));
#697=FACE_OUTER_BOUND('',#696,.T.);
#698=CARTESIAN_POINT('',(59.564221286261713,0.0,43.713103024309859));
#699=VERTEX_POINT('',#698);
#700=CARTESIAN_POINT('',(59.564221286261713,0.0,0.0));
#701=DIRECTION('',(-1.0,0.0,0.0));
#702=DIRECTION('',(0.0,0.0,1.0));
#703=AXIS2_PLACEMENT_3D('',#700,#701,#702);
#704=CIRCLE('',#703,43.713103024309859);
#705=EDGE_CURVE('',#699,#699,#704,.T.);
#706=ORIENTED_EDGE('',*,*,#705,.F.);
#707=EDGE_LOOP('',(#706));
#708=FACE_BOUND('',#707,.T.);
#709=ADVANCED_FACE('',(#697,#708),#686,.T.);
#710=CARTESIAN_POINT('',(59.999999999999986,0.0,0.0));
#711=DIRECTION('',(-1.0,0.0,0.0));
#712=DIRECTION('',(0.0,0.0,1.0));
#713=AXIS2_PLACEMENT_3D('',#710,#711,#712);
#714=TOROIDAL_SURFACE('',#713,48.694076514768589,4.999999999999998);
#715=CARTESIAN_POINT('',(54.999999999999986,0.0,48.694076514768589));
#716=VERTEX_POINT('',#715);
#717=CARTESIAN_POINT('',(55.0,0.0,0.0));
#718=DIRECTION('',(-1.0,0.0,0.0));
#719=DIRECTION('',(0.0,0.0,1.0));
#720=AXIS2_PLACEMENT_3D('',#717,#718,#719);
#721=CIRCLE('',#720,48.694076514768589);
#722=EDGE_CURVE('',#716,#716,#721,.T.);
#723=ORIENTED_EDGE('',*,*,#722,.F.);
#724=EDGE_LOOP('',(#723));
#725=FACE_OUTER_BOUND('',#724,.T.);
#726=ORIENTED_EDGE('',*,*,#705,.T.);
#727=EDGE_LOOP('',(#726));
#728=FACE_BOUND('',#727,.T.);
#729=ADVANCED_FACE('',(#725,#728),#714,.F.);
#730=CARTESIAN_POINT('',(59.999999999999986,0.0,0.0));
#731=DIRECTION('',(-1.0,0.0,0.0));
#732=DIRECTION('',(0.0,0.0,1.0));
#733=AXIS2_PLACEMENT_3D('',#730,#731,#732);
#734=TOROIDAL_SURFACE('',#733,57.500000000000000,4.999999999999998);
#735=CARTESIAN_POINT('',(60.000000000000028,0.0,62.500000000000000));
#736=VERTEX_POINT('',#735);
#737=CARTESIAN_POINT('',(60.000000000000028,0.0,0.0));
#738=DIRECTION('',(-1.0,0.0,0.0));
#739=DIRECTION('',(0.0,0.0,1.0));
#740=AXIS2_PLACEMENT_3D('',#737,#738,#739);
#741=CIRCLE('',#740,62.500000000000000);
#742=EDGE_CURVE('',#736,#736,#741,.T.);
#743=ORIENTED_EDGE('',*,*,#742,.F.);
#744=EDGE_LOOP('',(#743));
#745=FACE_OUTER_BOUND('',#744,.T.);
#746=CARTESIAN_POINT('',(54.999999999999986,0.0,57.499999999999964));
#747=VERTEX_POINT('',#746);
#748=CARTESIAN_POINT('',(54.999999999999986,0.0,0.0));
#749=DIRECTION('',(-1.0,0.0,0.0));
#750=DIRECTION('',(0.0,0.0,1.0));
#751=AXIS2_PLACEMENT_3D('',#748,#749,#750);
#752=CIRCLE('',#751,57.499999999999964);
#753=EDGE_CURVE('',#747,#747,#752,.T.);
#754=ORIENTED_EDGE('',*,*,#753,.T.);
#755=EDGE_LOOP('',(#754));
#756=FACE_BOUND('',#755,.T.);
#757=ADVANCED_FACE('',(#745,#756),#734,.F.);
#758=CARTESIAN_POINT('',(0.0,0.0,0.0));
#759=DIRECTION('',(-1.0,0.0,0.0));
#760=DIRECTION('',(0.0,0.0,1.0));
#761=AXIS2_PLACEMENT_3D('',#758,#759,#760);
#762=CYLINDRICAL_SURFACE('',#761,62.500000000000000);
#763=CARTESIAN_POINT('',(61.999999999999986,0.0,62.500000000000000));
#764=VERTEX_POINT('',#763);
#765=CARTESIAN_POINT('',(61.999999999999986,0.0,0.0));
#766=DIRECTION('',(-1.0,0.0,0.0));
#767=DIRECTION('',(0.0,0.0,1.0));
#768=AXIS2_PLACEMENT_3D('',#765,#766,#767);
#769=CIRCLE('',#768,62.500000000000000);
#770=EDGE_CURVE('',#764,#764,#769,.T.);
#771=ORIENTED_EDGE('',*,*,#770,.F.);
#772=EDGE_LOOP('',(#771));
#773=FACE_OUTER_BOUND('',#772,.T.);
#774=ORIENTED_EDGE('',*,*,#742,.T.);
#775=EDGE_LOOP('',(#774));
#776=FACE_BOUND('',#775,.T.);
#777=ADVANCED_FACE('',(#773,#776),#762,.F.);
#778=CARTESIAN_POINT('',(0.0,0.0,0.0));
#779=DIRECTION('',(-1.0,0.0,0.0));
#780=DIRECTION('',(0.0,0.0,1.0));
#781=AXIS2_PLACEMENT_3D('',#778,#779,#780);
#782=CYLINDRICAL_SURFACE('',#781,68.0);
#783=ORIENTED_EDGE('',*,*,#649,.T.);
#784=EDGE_LOOP('',(#783));
#785=FACE_OUTER_BOUND('',#784,.T.);
#786=CARTESIAN_POINT('',(57.499999999999986,8.327323E-015,68.0));
#787=VERTEX_POINT('',#786);
#788=CARTESIAN_POINT('',(57.499999999999986,0.0,0.0));
#789=DIRECTION('',(-1.0,0.0,0.0));
#790=DIRECTION('',(0.0,0.0,1.0));
#791=AXIS2_PLACEMENT_3D('',#788,#789,#790);
#792=CIRCLE('',#791,68.0);
#793=EDGE_CURVE('',#787,#787,#792,.T.);
#794=ORIENTED_EDGE('',*,*,#793,.F.);
#795=EDGE_LOOP('',(#794));
#796=FACE_BOUND('',#795,.T.);
#797=ADVANCED_FACE('',(#785,#796),#782,.T.);
#798=CARTESIAN_POINT('',(57.499999999999986,0.0,0.0));
#799=DIRECTION('',(1.0,0.0,0.0));
#800=DIRECTION('',(0.0,0.0,-1.0));
#801=AXIS2_PLACEMENT_3D('',#798,#799,#800);
#802=CONICAL_SURFACE('',#801,68.0,15.000000000000066);
#803=ORIENTED_EDGE('',*,*,#277,.T.);
#804=EDGE_LOOP('',(#803));
#805=FACE_OUTER_BOUND('',#804,.T.);
#806=ORIENTED_EDGE('',*,*,#793,.T.);
#807=EDGE_LOOP('',(#806));
#808=FACE_BOUND('',#807,.T.);
#809=ADVANCED_FACE('',(#805,#808),#802,.T.);
#810=CARTESIAN_POINT('',(0.0,0.0,0.0));
#811=DIRECTION('',(-1.0,0.0,0.0));
#812=DIRECTION('',(0.0,0.0,1.0));
#813=AXIS2_PLACEMENT_3D('',#810,#811,#812);
#814=CYLINDRICAL_SURFACE('',#813,67.700000000000017);
#815=ORIENTED_EDGE('',*,*,#266,.T.);
#816=EDGE_LOOP('',(#815));
#817=FACE_OUTER_BOUND('',#816,.T.);
#818=ORIENTED_EDGE('',*,*,#249,.T.);
#819=EDGE_LOOP('',(#818));
#820=FACE_BOUND('',#819,.T.);
#821=ADVANCED_FACE('',(#817,#820),#814,.T.);
#822=CARTESIAN_POINT('',(0.0,0.0,0.0));
#823=DIRECTION('',(-1.0,0.0,0.0));
#824=DIRECTION('',(0.0,0.0,1.0));
#825=AXIS2_PLACEMENT_3D('',#822,#823,#824);
#826=CYLINDRICAL_SURFACE('',#825,85.0);
#827=CARTESIAN_POINT('',(54.999999999999986,0.0,85.0));
#828=VERTEX_POINT('',#827);
#829=CARTESIAN_POINT('',(54.999999999999986,0.0,0.0));
#830=DIRECTION('',(-1.0,0.0,0.0));
#831=DIRECTION('',(0.0,0.0,1.0));
#832=AXIS2_PLACEMENT_3D('',#829,#830,#831);
#833=CIRCLE('',#832,85.0);
#834=EDGE_CURVE('',#828,#828,#833,.T.);
#835=ORIENTED_EDGE('',*,*,#834,.T.);
#836=EDGE_LOOP('',(#835));
#837=FACE_OUTER_BOUND('',#836,.T.);
#838=CARTESIAN_POINT('',(45.000000000000014,0.0,85.0));
#839=VERTEX_POINT('',#838);
#840=CARTESIAN_POINT('',(45.000000000000014,0.0,0.0));
#841=DIRECTION('',(-1.0,0.0,0.0));
#842=DIRECTION('',(0.0,0.0,1.0));
#843=AXIS2_PLACEMENT_3D('',#840,#841,#842);
#844=CIRCLE('',#843,85.0);
#845=EDGE_CURVE('',#839,#839,#844,.T.);
#846=ORIENTED_EDGE('',*,*,#845,.F.);
#847=EDGE_LOOP('',(#846));
#848=FACE_BOUND('',#847,.T.);
#849=ADVANCED_FACE('',(#837,#848),#826,.T.);
#850=CARTESIAN_POINT('',(45.0,0.0,0.0));
#851=DIRECTION('',(-1.0,0.0,0.0));
#852=DIRECTION('',(0.0,0.0,1.0));
#853=AXIS2_PLACEMENT_3D('',#850,#851,#852);
#854=TOROIDAL_SURFACE('',#853,83.0,2.000000000000001);
#855=ORIENTED_EDGE('',*,*,#845,.T.);
#856=EDGE_LOOP('',(#855));
#857=FACE_OUTER_BOUND('',#856,.T.);
#858=ORIENTED_EDGE('',*,*,#152,.F.);
#859=EDGE_LOOP('',(#858));
#860=FACE_BOUND('',#859,.T.);
#861=ADVANCED_FACE('',(#857,#860),#854,.T.);
#862=CARTESIAN_POINT('',(2.0,0.0,0.0));
#863=DIRECTION('',(-1.0,0.0,0.0));
#864=DIRECTION('',(0.0,0.0,1.0));
#865=AXIS2_PLACEMENT_3D('',#862,#863,#864);
#866=TOROIDAL_SURFACE('',#865,23.000000000000007,2.000000000000000);
#867=ORIENTED_EDGE('',*,*,#132,.T.);
#868=EDGE_LOOP('',(#867));
#869=FACE_OUTER_BOUND('',#868,.T.);
#870=CARTESIAN_POINT('',(3.390969E-018,0.0,22.999999999999986));
#871=VERTEX_POINT('',#870);
#872=CARTESIAN_POINT('',(3.390969E-018,0.0,0.0));
#873=DIRECTION('',(-1.0,0.0,0.0));
#874=DIRECTION('',(0.0,0.0,1.0));
#875=AXIS2_PLACEMENT_3D('',#872,#873,#874);
#876=CIRCLE('',#875,22.999999999999986);
#877=EDGE_CURVE('',#871,#871,#876,.T.);
#878=ORIENTED_EDGE('',*,*,#877,.F.);
#879=EDGE_LOOP('',(#878));
#880=FACE_BOUND('',#879,.T.);
#881=ADVANCED_FACE('',(#869,#880),#866,.T.);
#882=CARTESIAN_POINT('',(56.002812747235843,0.0,0.0));
#883=DIRECTION('',(-1.0,0.0,0.0));
#884=DIRECTION('',(0.0,0.0,1.0));
#885=AXIS2_PLACEMENT_3D('',#882,#883,#884);
#886=TOROIDAL_SURFACE('',#885,33.0,2.000000000000001);
#887=CARTESIAN_POINT('',(56.002812747235843,0.0,35.0));
#888=VERTEX_POINT('',#887);
#889=CARTESIAN_POINT('',(56.002812747235843,0.0,0.0));
#890=DIRECTION('',(-1.0,0.0,0.0));
#891=DIRECTION('',(0.0,0.0,1.0));
#892=AXIS2_PLACEMENT_3D('',#889,#890,#891);
#893=CIRCLE('',#892,35.0);
#894=EDGE_CURVE('',#888,#888,#893,.T.);
#895=ORIENTED_EDGE('',*,*,#894,.F.);
#896=EDGE_LOOP('',(#895));
#897=FACE_OUTER_BOUND('',#896,.T.);
#898=CARTESIAN_POINT('',(54.002812747235836,0.0,33.0));
#899=VERTEX_POINT('',#898);
#900=CARTESIAN_POINT('',(54.002812747235836,0.0,0.0));
#901=DIRECTION('',(-1.0,0.0,0.0));
#902=DIRECTION('',(0.0,0.0,1.0));
#903=AXIS2_PLACEMENT_3D('',#900,#901,#902);
#904=CIRCLE('',#903,33.0);
#905=EDGE_CURVE('',#899,#899,#904,.T.);
#906=ORIENTED_EDGE('',*,*,#905,.T.);
#907=EDGE_LOOP('',(#906));
#908=FACE_BOUND('',#907,.T.);
#909=ADVANCED_FACE('',(#897,#908),#886,.F.);
#910=CARTESIAN_POINT('',(0.0,0.0,0.0));
#911=DIRECTION('',(-1.0,0.0,0.0));
#912=DIRECTION('',(0.0,0.0,1.0));
#913=AXIS2_PLACEMENT_3D('',#910,#911,#912);
#914=CYLINDRICAL_SURFACE('',#913,37.799999999999997);
#915=ORIENTED_EDGE('',*,*,#333,.T.);
#916=EDGE_LOOP('',(#915));
#917=FACE_OUTER_BOUND('',#916,.T.);
#918=ORIENTED_EDGE('',*,*,#294,.T.);
#919=EDGE_LOOP('',(#918));
#920=FACE_BOUND('',#919,.T.);
#921=ADVANCED_FACE('',(#917,#920),#914,.F.);
#922=CARTESIAN_POINT('',(57.383197504965146,0.0,0.0));
#923=DIRECTION('',(-1.0,0.0,0.0));
#924=DIRECTION('',(0.0,0.0,1.0));
#925=AXIS2_PLACEMENT_3D('',#922,#923,#924);
#926=CONICAL_SURFACE('',#925,37.799999999999997,14.999999999999595);
#927=ORIENTED_EDGE('',*,*,#677,.F.);
#928=EDGE_LOOP('',(#927));
#929=FACE_OUTER_BOUND('',#928,.T.);
#930=ORIENTED_EDGE('',*,*,#322,.T.);
#931=EDGE_LOOP('',(#930));
#932=FACE_BOUND('',#931,.T.);
#933=ADVANCED_FACE('',(#929,#932),#926,.F.);
#934=CARTESIAN_POINT('',(56.002812747235843,37.799999999999997,0.0));
#935=DIRECTION('',(-1.0,0.0,0.0));
#936=DIRECTION('',(0.0,0.0,1.0));
#937=AXIS2_PLACEMENT_3D('',#934,#935,#936);
#938=PLANE('',#937);
#939=ORIENTED_EDGE('',*,*,#305,.T.);
#940=EDGE_LOOP('',(#939));
#941=FACE_OUTER_BOUND('',#940,.T.);
#942=ORIENTED_EDGE('',*,*,#894,.T.);
#943=EDGE_LOOP('',(#942));
#944=FACE_BOUND('',#943,.T.);
#945=ADVANCED_FACE('',(#941,#944),#938,.F.);
#946=CARTESIAN_POINT('',(54.002812747235836,33.0,0.0));
#947=DIRECTION('',(-1.0,0.0,0.0));
#948=DIRECTION('',(0.0,0.0,1.0));
#949=AXIS2_PLACEMENT_3D('',#946,#947,#948);
#950=PLANE('',#949);
#951=ORIENTED_EDGE('',*,*,#905,.F.);
#952=EDGE_LOOP('',(#951));
#953=FACE_OUTER_BOUND('',#952,.T.);
#954=CARTESIAN_POINT('',(54.002812747235836,-4.0,18.300000000000004));
#955=VERTEX_POINT('',#954);
#956=CARTESIAN_POINT('',(54.002812747235836,4.0,18.300000000000004));
#957=VERTEX_POINT('',#956);
#958=CARTESIAN_POINT('',(54.002812747235836,-4.0,18.300000000000004));
#959=DIRECTION('',(0.0,1.0,0.0));
#960=VECTOR('',#959,8.0);
#961=LINE('',#958,#960);
#962=EDGE_CURVE('',#955,#957,#961,.T.);
#963=ORIENTED_EDGE('',*,*,#962,.T.);
#964=CARTESIAN_POINT('',(54.002812747235836,4.0,14.456832294800957));
#965=VERTEX_POINT('',#964);
#966=CARTESIAN_POINT('',(54.002812747235836,4.0,18.300000000000004));
#967=DIRECTION('',(0.0,0.0,-1.0));
#968=VECTOR('',#967,3.843167705199047);
#969=LINE('',#966,#968);
#970=EDGE_CURVE('',#957,#965,#969,.T.);
#971=ORIENTED_EDGE('',*,*,#970,.T.);
#972=CARTESIAN_POINT('',(54.002812747235836,-4.0,14.456832294800957));
#973=VERTEX_POINT('',#972);
#974=CARTESIAN_POINT('',(54.002812747235836,0.0,0.0));
#975=DIRECTION('',(-1.0,0.0,0.0));
#976=DIRECTION('',(0.0,0.0,1.0));
#977=AXIS2_PLACEMENT_3D('',#974,#975,#976);
#978=CIRCLE('',#977,15.0);
#979=EDGE_CURVE('',#965,#973,#978,.T.);
#980=ORIENTED_EDGE('',*,*,#979,.T.);
#981=CARTESIAN_POINT('',(54.002812747235836,-4.0,14.456832294800957));
#982=DIRECTION('',(0.0,0.0,1.0));
#983=VECTOR('',#982,3.843167705199047);
#984=LINE('',#981,#983);
#985=EDGE_CURVE('',#973,#955,#984,.T.);
#986=ORIENTED_EDGE('',*,*,#985,.T.);
#987=EDGE_LOOP('',(#963,#971,#980,#986));
#988=FACE_BOUND('',#987,.T.);
#989=ADVANCED_FACE('',(#953,#988),#950,.F.);
#990=CARTESIAN_POINT('',(0.0,0.0,0.0));
#991=DIRECTION('',(-1.0,0.0,0.0));
#992=DIRECTION('',(0.0,0.0,1.0));
#993=AXIS2_PLACEMENT_3D('',#990,#991,#992);
#994=CYLINDRICAL_SURFACE('',#993,14.999999999999996);
#995=ORIENTED_EDGE('',*,*,#979,.F.);
#996=CARTESIAN_POINT('',(0.0,4.0,14.456832294800957));
#997=VERTEX_POINT('',#996);
#998=CARTESIAN_POINT('',(54.002812747235836,4.0,14.456832294800957));
#999=DIRECTION('',(-1.0,0.0,0.0));
#1000=VECTOR('',#999,54.002812747235836);
#1001=LINE('',#998,#1000);
#1002=EDGE_CURVE('',#965,#997,#1001,.T.);
#1003=ORIENTED_EDGE('',*,*,#1002,.T.);
#1004=CARTESIAN_POINT('',(1.962826E-015,-3.999999999999999,14.456832294800957));
#1005=VERTEX_POINT('',#1004);
#1006=CARTESIAN_POINT('',(1.962826E-015,0.0,0.0));
#1007=DIRECTION('',(-1.0,0.0,0.0));
#1008=DIRECTION('',(0.0,0.0,1.0));
#1009=AXIS2_PLACEMENT_3D('',#1006,#1007,#1008);
#1010=CIRCLE('',#1009,14.999999999999996);
#1011=EDGE_CURVE('',#997,#1005,#1010,.T.);
#1012=ORIENTED_EDGE('',*,*,#1011,.T.);
#1013=CARTESIAN_POINT('',(1.962826E-015,-3.999999999999999,14.456832294800957));
#1014=DIRECTION('',(1.0,0.0,0.0));
#1015=VECTOR('',#1014,54.002812747235836);
#1016=LINE('',#1013,#1015);
#1017=EDGE_CURVE('',#1005,#973,#1016,.T.);
#1018=ORIENTED_EDGE('',*,*,#1017,.T.);
#1019=EDGE_LOOP('',(#995,#1003,#1012,#1018));
#1020=FACE_OUTER_BOUND('',#1019,.T.);
#1021=ADVANCED_FACE('',(#1020),#994,.F.);
#1022=CARTESIAN_POINT('',(9.831084E-016,14.999999999999996,0.0));
#1023=DIRECTION('',(1.0,0.0,0.0));
#1024=DIRECTION('',(0.0,0.0,-1.0));
#1025=AXIS2_PLACEMENT_3D('',#1022,#1023,#1024);
#1026=PLANE('',#1025);
#1027=ORIENTED_EDGE('',*,*,#877,.T.);
#1028=EDGE_LOOP('',(#1027));
#1029=FACE_OUTER_BOUND('',#1028,.T.);
#1030=ORIENTED_EDGE('',*,*,#1011,.F.);
#1031=CARTESIAN_POINT('',(0.0,4.0,18.300000000000004));
#1032=VERTEX_POINT('',#1031);
#1033=CARTESIAN_POINT('',(0.0,4.0,18.300000000000004));
#1034=DIRECTION('',(0.0,0.0,-1.0));
#1035=VECTOR('',#1034,3.843167705199047);
#1036=LINE('',#1033,#1035);
#1037=EDGE_CURVE('',#1032,#997,#1036,.T.);
#1038=ORIENTED_EDGE('',*,*,#1037,.F.);
#1039=CARTESIAN_POINT('',(0.0,-4.0,18.300000000000004));
#1040=VERTEX_POINT('',#1039);
#1041=CARTESIAN_POINT('',(0.0,-4.0,18.300000000000004));
#1042=DIRECTION('',(0.0,1.0,0.0));
#1043=VECTOR('',#1042,8.0);
#1044=LINE('',#1041,#1043);
#1045=EDGE_CURVE('',#1040,#1032,#1044,.T.);
#1046=ORIENTED_EDGE('',*,*,#1045,.F.);
#1047=CARTESIAN_POINT('',(0.0,-4.0,18.300000000000004));
#1048=DIRECTION('',(0.0,0.0,-1.0));
#1049=VECTOR('',#1048,3.843167705199047);
#1050=LINE('',#1047,#1049);
#1051=EDGE_CURVE('',#1040,#1005,#1050,.T.);
#1052=ORIENTED_EDGE('',*,*,#1051,.T.);
#1053=EDGE_LOOP('',(#1030,#1038,#1046,#1052));
#1054=FACE_BOUND('',#1053,.T.);
#1055=ADVANCED_FACE('',(#1029,#1054),#1026,.F.);
#1056=CARTESIAN_POINT('',(54.999999999999986,85.0,0.0));
#1057=DIRECTION('',(-1.0,0.0,0.0));
#1058=DIRECTION('',(0.0,0.0,1.0));
#1059=AXIS2_PLACEMENT_3D('',#1056,#1057,#1058);
#1060=PLANE('',#1059);
#1061=ORIENTED_EDGE('',*,*,#834,.F.);
#1062=EDGE_LOOP('',(#1061));
#1063=FACE_OUTER_BOUND('',#1062,.T.);
#1064=ORIENTED_EDGE('',*,*,#370,.T.);
#1065=EDGE_LOOP('',(#1064));
#1066=FACE_BOUND('',#1065,.T.);
#1067=ORIENTED_EDGE('',*,*,#418,.T.);
#1068=EDGE_LOOP('',(#1067));
#1069=FACE_BOUND('',#1068,.T.);
#1070=ORIENTED_EDGE('',*,*,#466,.T.);
#1071=EDGE_LOOP('',(#1070));
#1072=FACE_BOUND('',#1071,.T.);
#1073=ORIENTED_EDGE('',*,*,#514,.T.);
#1074=EDGE_LOOP('',(#1073));
#1075=FACE_BOUND('',#1074,.T.);
#1076=ORIENTED_EDGE('',*,*,#562,.T.);
#1077=EDGE_LOOP('',(#1076));
#1078=FACE_BOUND('',#1077,.T.);
#1079=ORIENTED_EDGE('',*,*,#610,.T.);
#1080=EDGE_LOOP('',(#1079));
#1081=FACE_BOUND('',#1080,.T.);
#1082=ORIENTED_EDGE('',*,*,#238,.T.);
#1083=EDGE_LOOP('',(#1082));
#1084=FACE_BOUND('',#1083,.T.);
#1085=ADVANCED_FACE('',(#1063,#1066,#1069,#1072,#1075,#1078,#1081,#1084),#1060,.F.);
#1086=CARTESIAN_POINT('',(61.999999999999986,68.0,0.0));
#1087=DIRECTION('',(-1.0,0.0,0.0));
#1088=DIRECTION('',(0.0,0.0,1.0));
#1089=AXIS2_PLACEMENT_3D('',#1086,#1087,#1088);
#1090=PLANE('',#1089);
#1091=ORIENTED_EDGE('',*,*,#638,.T.);
#1092=EDGE_LOOP('',(#1091));
#1093=FACE_OUTER_BOUND('',#1092,.T.);
#1094=ORIENTED_EDGE('',*,*,#770,.T.);
#1095=EDGE_LOOP('',(#1094));
#1096=FACE_BOUND('',#1095,.T.);
#1097=ADVANCED_FACE('',(#1093,#1096),#1090,.F.);
#1098=CARTESIAN_POINT('',(54.999999999999986,57.499999999999964,0.0));
#1099=DIRECTION('',(-1.0,0.0,0.0));
#1100=DIRECTION('',(0.0,0.0,1.0));
#1101=AXIS2_PLACEMENT_3D('',#1098,#1099,#1100);
#1102=PLANE('',#1101);
#1103=ORIENTED_EDGE('',*,*,#753,.F.);
#1104=EDGE_LOOP('',(#1103));
#1105=FACE_OUTER_BOUND('',#1104,.T.);
#1106=ORIENTED_EDGE('',*,*,#722,.T.);
#1107=EDGE_LOOP('',(#1106));
#1108=FACE_BOUND('',#1107,.T.);
#1109=ADVANCED_FACE('',(#1105,#1108),#1102,.F.);
#1110=CARTESIAN_POINT('',(71.999999999999972,42.625113364740763,0.0));
#1111=DIRECTION('',(-1.0,0.0,0.0));
#1112=DIRECTION('',(0.0,0.0,1.0));
#1113=AXIS2_PLACEMENT_3D('',#1110,#1111,#1112);
#1114=PLANE('',#1113);
#1115=ORIENTED_EDGE('',*,*,#694,.F.);
#1116=EDGE_LOOP('',(#1115));
#1117=FACE_OUTER_BOUND('',#1116,.T.);
#1118=ORIENTED_EDGE('',*,*,#666,.T.);
#1119=EDGE_LOOP('',(#1118));
#1120=FACE_BOUND('',#1119,.T.);
#1121=ADVANCED_FACE('',(#1117,#1120),#1114,.F.);
#1122=CARTESIAN_POINT('',(71.999999999999972,4.000000000000002,1.176837E-014));
#1123=DIRECTION('',(0.0,1.0,0.0));
#1124=DIRECTION('',(0.0,0.0,1.0));
#1125=AXIS2_PLACEMENT_3D('',#1122,#1123,#1124);
#1126=PLANE('',#1125);
#1127=CARTESIAN_POINT('',(54.002812747235836,4.0,18.300000000000004));
#1128=DIRECTION('',(-1.0,0.0,0.0));
#1129=VECTOR('',#1128,54.002812747235836);
#1130=LINE('',#1127,#1129);
#1131=EDGE_CURVE('',#957,#1032,#1130,.T.);
#1132=ORIENTED_EDGE('',*,*,#1131,.T.);
#1133=ORIENTED_EDGE('',*,*,#1037,.T.);
#1134=ORIENTED_EDGE('',*,*,#1002,.F.);
#1135=ORIENTED_EDGE('',*,*,#970,.F.);
#1136=EDGE_LOOP('',(#1132,#1133,#1134,#1135));
#1137=FACE_OUTER_BOUND('',#1136,.T.);
#1138=ADVANCED_FACE('',(#1137),#1126,.F.);
#1139=CARTESIAN_POINT('',(71.999999999999972,4.0,18.300000000000004));
#1140=DIRECTION('',(0.0,0.0,1.0));
#1141=DIRECTION('',(1.0,0.0,0.0));
#1142=AXIS2_PLACEMENT_3D('',#1139,#1140,#1141);
#1143=PLANE('',#1142);
#1144=CARTESIAN_POINT('',(54.002812747235836,-4.0,18.300000000000004));
#1145=DIRECTION('',(-1.0,0.0,0.0));
#1146=VECTOR('',#1145,54.002812747235836);
#1147=LINE('',#1144,#1146);
#1148=EDGE_CURVE('',#955,#1040,#1147,.T.);
#1149=ORIENTED_EDGE('',*,*,#1148,.T.);
#1150=ORIENTED_EDGE('',*,*,#1045,.T.);
#1151=ORIENTED_EDGE('',*,*,#1131,.F.);
#1152=ORIENTED_EDGE('',*,*,#962,.F.);
#1153=EDGE_LOOP('',(#1149,#1150,#1151,#1152));
#1154=FACE_OUTER_BOUND('',#1153,.T.);
#1155=ADVANCED_FACE('',(#1154),#1143,.F.);
#1156=CARTESIAN_POINT('',(71.999999999999972,-4.000000000000002,1.176837E-014));
#1157=DIRECTION('',(0.0,-1.0,0.0));
#1158=DIRECTION('',(0.0,0.0,-1.0));
#1159=AXIS2_PLACEMENT_3D('',#1156,#1157,#1158);
#1160=PLANE('',#1159);
#1161=ORIENTED_EDGE('',*,*,#1017,.F.);
#1162=ORIENTED_EDGE('',*,*,#1051,.F.);
#1163=ORIENTED_EDGE('',*,*,#1148,.F.);
#1164=ORIENTED_EDGE('',*,*,#985,.F.);
#1165=EDGE_LOOP('',(#1161,#1162,#1163,#1164));
#1166=FACE_OUTER_BOUND('',#1165,.T.);
#1167=ADVANCED_FACE('',(#1166),#1160,.F.);
#1168=CARTESIAN_POINT('',(51.600000000000001,79.500000000000000,0.0));
#1169=DIRECTION('',(1.0,0.0,0.0));
#1170=DIRECTION('',(0.0,0.0,-1.0));
#1171=AXIS2_PLACEMENT_3D('',#1168,#1169,#1170);
#1172=PLANE('',#1171);
#1173=ORIENTED_EDGE('',*,*,#590,.T.);
#1174=EDGE_LOOP('',(#1173));
#1175=FACE_OUTER_BOUND('',#1174,.T.);
#1176=ORIENTED_EDGE('',*,*,#621,.F.);
#1177=EDGE_LOOP('',(#1176));
#1178=FACE_BOUND('',#1177,.T.);
#1179=ADVANCED_FACE('',(#1175,#1178),#1172,.F.);
#1180=CARTESIAN_POINT('',(51.600000000000001,41.999999999999844,-64.951905283832986));
#1181=DIRECTION('',(1.0,0.0,0.0));
#1182=DIRECTION('',(0.0,0.0,-1.0));
#1183=AXIS2_PLACEMENT_3D('',#1180,#1181,#1182);
#1184=PLANE('',#1183);
#1185=ORIENTED_EDGE('',*,*,#542,.T.);
#1186=EDGE_LOOP('',(#1185));
#1187=FACE_OUTER_BOUND('',#1186,.T.);
#1188=ORIENTED_EDGE('',*,*,#573,.F.);
#1189=EDGE_LOOP('',(#1188));
#1190=FACE_BOUND('',#1189,.T.);
#1191=ADVANCED_FACE('',(#1187,#1190),#1184,.F.);
#1192=CARTESIAN_POINT('',(51.600000000000001,-33.000000000000298,-64.951905283832730));
#1193=DIRECTION('',(1.0,0.0,0.0));
#1194=DIRECTION('',(0.0,0.0,-1.0));
#1195=AXIS2_PLACEMENT_3D('',#1192,#1193,#1194);
#1196=PLANE('',#1195);
#1197=ORIENTED_EDGE('',*,*,#494,.T.);
#1198=EDGE_LOOP('',(#1197));
#1199=FACE_OUTER_BOUND('',#1198,.T.);
#1200=ORIENTED_EDGE('',*,*,#525,.F.);
#1201=EDGE_LOOP('',(#1200));
#1202=FACE_BOUND('',#1201,.T.);
#1203=ADVANCED_FACE('',(#1199,#1202),#1196,.F.);
#1204=CARTESIAN_POINT('',(51.600000000000001,-70.500000000000000,5.237225E-013));
#1205=DIRECTION('',(1.0,0.0,0.0));
#1206=DIRECTION('',(0.0,0.0,-1.0));
#1207=AXIS2_PLACEMENT_3D('',#1204,#1205,#1206);
#1208=PLANE('',#1207);
#1209=ORIENTED_EDGE('',*,*,#446,.T.);
#1210=EDGE_LOOP('',(#1209));
#1211=FACE_OUTER_BOUND('',#1210,.T.);
#1212=ORIENTED_EDGE('',*,*,#477,.F.);
#1213=EDGE_LOOP('',(#1212));
#1214=FACE_BOUND('',#1213,.T.);
#1215=ADVANCED_FACE('',(#1211,#1214),#1208,.F.);
#1216=CARTESIAN_POINT('',(51.600000000000001,-32.999999999999389,64.951905283833241));
#1217=DIRECTION('',(1.0,0.0,0.0));
#1218=DIRECTION('',(0.0,0.0,-1.0));
#1219=AXIS2_PLACEMENT_3D('',#1216,#1217,#1218);
#1220=PLANE('',#1219);
#1221=ORIENTED_EDGE('',*,*,#398,.T.);
#1222=EDGE_LOOP('',(#1221));
#1223=FACE_OUTER_BOUND('',#1222,.T.);
#1224=ORIENTED_EDGE('',*,*,#429,.F.);
#1225=EDGE_LOOP('',(#1224));
#1226=FACE_BOUND('',#1225,.T.);
#1227=ADVANCED_FACE('',(#1223,#1226),#1220,.F.);
#1228=CARTESIAN_POINT('',(51.600000000000001,42.000000000000767,64.951905283832474));
#1229=DIRECTION('',(1.0,0.0,0.0));
#1230=DIRECTION('',(0.0,0.0,-1.0));
#1231=AXIS2_PLACEMENT_3D('',#1228,#1229,#1230);
#1232=PLANE('',#1231);
#1233=ORIENTED_EDGE('',*,*,#350,.T.);
#1234=EDGE_LOOP('',(#1233));
#1235=FACE_OUTER_BOUND('',#1234,.T.);
#1236=ORIENTED_EDGE('',*,*,#381,.F.);
#1237=EDGE_LOOP('',(#1236));
#1238=FACE_BOUND('',#1237,.T.);
#1239=ADVANCED_FACE('',(#1235,#1238),#1232,.F.);
#1240=CLOSED_SHELL('',(#119,#139,#225,#253,#281,#309,#337,#357,#385,#405,#433,#453,#481,#501,#529,#549,#577,#597,#625,#653,#681,#709,#729,#757,#777,#797,#809,#821,#849,#861,#881,#909,#921,#933,#945,#989,#1021,#1055,#1085,#1097,#1109,#1121,#1138,#1155,#1167,#1179,#1191,#1203,#1215,#1227,#1239));
#1241=MANIFOLD_SOLID_BREP('',#1240);
#1242=COLOUR_RGB('Standard',0.752941012382507,0.752941012382507,0.752941012382507);
#1243=FILL_AREA_STYLE_COLOUR('Standard',#1242);
#1244=FILL_AREA_STYLE('Standard',(#1243));
#1245=SURFACE_STYLE_FILL_AREA(#1244);
#1246=SURFACE_SIDE_STYLE('Standard',(#1245));
#1247=SURFACE_STYLE_USAGE(.BOTH.,#1246);
#1248=PRESENTATION_STYLE_ASSIGNMENT((#1247));
#1249=STYLED_ITEM('',(#1248),#1241);
#1250=MECHANICAL_DESIGN_GEOMETRIC_PRESENTATION_REPRESENTATION('',(#1249),#36);
#1251=ADVANCED_BREP_SHAPE_REPRESENTATION('ABSR',(#1241),#36);
#1252=SHAPE_REPRESENTATION_RELATIONSHIP('SRR','None',#1251,#41);
ENDSEC;
END-ISO-10303-21;
