  0
SECTION
  2
HEADER
  9
$ACADVER
  1
AC1024
  9
$ACADMAINTVER
 70
6
  9
$DWGCODEPAGE
  3
ANSI_1252
  9
$LASTSAVEDBY
  1
ezdxf
  9
$INSBASE
 10
0.0
 20
0.0
 30
0.0
  9
$EXTMIN
 10
1e+20
 20
1e+20
 30
1e+20
  9
$EXTMAX
 10
-1e+20
 20
-1e+20
 30
-1e+20
  9
$LIMMIN
 10
0.0
 20
0.0
  9
$LIMMAX
 10
420.0
 20
297.0
  9
$ORTHOMODE
 70
0
  9
$REGENMODE
 70
1
  9
$FILLMODE
 70
1
  9
$QTEXTMODE
 70
0
  9
$MIRRTEXT
 70
1
  9
$LTSCALE
 40
1.0
  9
$ATTMODE
 70
1
  9
$TEXTSIZE
 40
2.5
  9
$TRACEWID
 40
1.0
  9
$TEXTSTYLE
  7
OpenSans
  9
$CLAYER
  8
0
  9
$CELTYPE
  6
ByLayer
  9
$CECOLOR
 62
256
  9
$CELTSCALE
 40
1.0
  9
$DISPSILH
 70
0
  9
$DIMSCALE
 40
1.0
  9
$DIMASZ
 40
0.175
  9
$DIMEXO
 40
0.125
  9
$DIMDLI
 40
3.75
  9
$DIMRND
 40
0.0
  9
$DIMDLE
 40
0.0
  9
$DIMEXE
 40
0.375
  9
$DIMTP
 40
0.0
  9
$DIMTM
 40
0.0
  9
$DIMTXT
 40
0.25
  9
$DIMCEN
 40
2.5
  9
$DIMTSZ
 40
0.0
  9
$DIMTOL
 70
0
  9
$DIMLIM
 70
0
  9
$DIMTIH
 70
0
  9
$DIMTOH
 70
0
  9
$DIMSE1
 70
0
  9
$DIMSE2
 70
0
  9
$DIMTAD
 70
1
  9
$DIMZIN
 70
12
  9
$DIMBLK
  1
ARCHTICK
  9
$DIMASO
 70
1
  9
$DIMSHO
 70
1
  9
$DIMPOST
  1

  9
$DIMAPOST
  1

  9
$DIMALT
 70
0
  9
$DIMALTD
 70
3
  9
$DIMALTF
 40
0.03937007874
  9
$DIMLFAC
 40
100.0
  9
$DIMTOFL
 70
1
  9
$DIMTVP
 40
0.0
  9
$DIMTIX
 70
0
  9
$DIMSOXD
 70
0
  9
$DIMSAH
 70
0
  9
$DIMBLK1
  1

  9
$DIMBLK2
  1

  9
$DIMSTYLE
  2
EZDXF
  9
$DIMCLRD
 70
0
  9
$DIMCLRE
 70
0
  9
$DIMCLRT
 70
0
  9
$DIMTFAC
 40
0.5
  9
$DIMGAP
 40
0.1
  9
$DIMJUST
 70
0
  9
$DIMSD1
 70
0
  9
$DIMSD2
 70
0
  9
$DIMTOLJ
 70
0
  9
$DIMTZIN
 70
8
  9
$DIMALTZ
 70
0
  9
$DIMALTTZ
 70
0
  9
$DIMUPT
 70
1
  9
$DIMDEC
 70
2
  9
$DIMTDEC
 70
2
  9
$DIMALTU
 70
2
  9
$DIMALTTD
 70
3
  9
$DIMTXSTY
  7
OpenSansCondensed-Light
  9
$DIMAUNIT
 70
0
  9
$DIMADEC
 70
2
  9
$DIMALTRND
 40
0.0
  9
$DIMAZIN
 70
3
  9
$DIMDSEP
 70
46
  9
$DIMATFIT
 70
3
  9
$DIMFRAC
 70
0
  9
$DIMLDRBLK
  1

  9
$DIMLUNIT
 70
2
  9
$DIMLWD
 70
-2
  9
$DIMLWE
 70
-2
  9
$DIMTMOVE
 70
2
  9
$DIMFXL
 40
1.0
  9
$DIMFXLON
 70
0
  9
$DIMJOGANG
 40
0.785398163397
  9
$DIMTFILL
 70
0
  9
$DIMTFILLCLR
 70
0
  9
$DIMARCSYM
 70
0
  9
$DIMLTYPE
  6

  9
$DIMLTEX1
  6

  9
$DIMLTEX2
  6

  9
$DIMTXTDIRECTION
 70
0
  9
$LUNITS
 70
2
  9
$LUPREC
 70
4
  9
$SKETCHINC
 40
1.0
  9
$FILLETRAD
 40
10.0
  9
$AUNITS
 70
0
  9
$AUPREC
 70
2
  9
$MENU
  1
.
  9
$ELEVATION
 40
0.0
  9
$PELEVATION
 40
0.0
  9
$THICKNESS
 40
0.0
  9
$LIMCHECK
 70
0
  9
$CHAMFERA
 40
0.0
  9
$CHAMFERB
 40
0.0
  9
$CHAMFERC
 40
0.0
  9
$CHAMFERD
 40
0.0
  9
$SKPOLY
 70
0
  9
$TDCREATE
 40
2461323.4338078704
  9
$TDUCREATE
 40
2458532.153996898
  9
$TDUPDATE
 40
2461323.4338078704
  9
$TDUUPDATE
 40
2458532.1544311
  9
$TDINDWG
 40
0.0
  9
$TDUSRTIMER
 40
0.0
  9
$USRTIMER
 70
1
  9
$ANGBASE
 50
0.0
  9
$ANGDIR
 70
0
  9
$PDMODE
 70
0
  9
$PDSIZE
 40
0.0
  9
$PLINEWID
 40
0.0
  9
$SPLFRAME
 70
0
  9
$SPLINETYPE
 70
6
  9
$SPLINESEGS
 70
8
  9
$HANDSEED
  5
144
  9
$SURFTAB1
 70
6
  9
$SURFTAB2
 70
6
  9
$SURFTYPE
 70
6
  9
$SURFU
 70
6
  9
$SURFV
 70
6
  9
$UCSBASE
  2

  9
$UCSNAME
  2

  9
$UCSORG
 10
0.0
 20
0.0
 30
0.0
  9
$UCSXDIR
 10
1.0
 20
0.0
 30
0.0
  9
$UCSYDIR
 10
0.0
 20
1.0
 30
0.0
  9
$UCSORTHOREF
  2

  9
$UCSORTHOVIEW
 70
0
  9
$UCSORGTOP
 10
0.0
 20
0.0
 30
0.0
  9
$UCSORGBOTTOM
 10
0.0
 20
0.0
 30
0.0
  9
$UCSORGLEFT
 10
0.0
 20
0.0
 30
0.0
  9
$UCSORGRIGHT
 10
0.0
 20
0.0
 30
0.0
  9
$UCSORGFRONT
 10
0.0
 20
0.0
 30
0.0
  9
$UCSORGBACK
 10
0.0
 20
0.0
 30
0.0
  9
$PUCSBASE
  2

  9
$PUCSNAME
  2

  9
$PUCSORG
 10
0.0
 20
0.0
 30
0.0
  9
$PUCSXDIR
 10
1.0
 20
0.0
 30
0.0
  9
$PUCSYDIR
 10
0.0
 20
1.0
 30
0.0
  9
$PUCSORTHOREF
  2

  9
$PUCSORTHOVIEW
 70
0
  9
$PUCSORGTOP
 10
0.0
 20
0.0
 30
0.0
  9
$PUCSORGBOTTOM
 10
0.0
 20
0.0
 30
0.0
  9
$PUCSORGLEFT
 10
0.0
 20
0.0
 30
0.0
  9
$PUCSORGRIGHT
 10
0.0
 20
0.0
 30
0.0
  9
$PUCSORGFRONT
 10
0.0
 20
0.0
 30
0.0
  9
$PUCSORGBACK
 10
0.0
 20
0.0
 30
0.0
  9
$USERI1
 70
0
  9
$USERI2
 70
0
  9
$USERI3
 70
0
  9
$USERI4
 70
0
  9
$USERI5
 70
0
  9
$USERR1
 40
0.0
  9
$USERR2
 40
0.0
  9
$USERR3
 40
0.0
  9
$USERR4
 40
0.0
  9
$USERR5
 40
0.0
  9
$WORLDVIEW
 70
1
  9
$SHADEDGE
 70
3
  9
$SHADEDIF
 70
70
  9
$TILEMODE
 70
1
  9
$MAXACTVP
 70
64
  9
$PINSBASE
 10
0.0
 20
0.0
 30
0.0
  9
$PLIMCHECK
 70
0
  9
$PEXTMIN
 10
1e+20
 20
1e+20
 30
1e+20
  9
$PEXTMAX
 10
-1e+20
 20
-1e+20
 30
-1e+20
  9
$PLIMMIN
 10
0.0
 20
0.0
  9
$PLIMMAX
 10
420.0
 20
297.0
  9
$UNITMODE
 70
0
  9
$VISRETAIN
 70
1
  9
$PLINEGEN
 70
0
  9
$PSLTSCALE
 70
1
  9
$TREEDEPTH
 70
3020
  9
$CMLSTYLE
  2
Standard
  9
$CMLJUST
 70
0
  9
$CMLSCALE
 40
20.0
  9
$PROXYGRAPHICS
 70
1
  9
$MEASUREMENT
 70
1
  9
$CELWEIGHT
370
-1
  9
$ENDCAPS
280
0
  9
$JOINSTYLE
280
0
  9
$LWDISPLAY
290
0
  9
$INSUNITS
 70
4
  9
$HYPERLINKBASE
  1

  9
$STYLESHEET
  1

  9
$XEDIT
290
1
  9
$CEPSNTYPE
380
0
  9
$PSTYLEMODE
290
1
  9
$FINGERPRINTGUID
  2
{1B5676C4-C72C-45E0-87E6-CF7C1396C8B3}
  9
$VERSIONGUID
  2
{67058A79-6C65-4FEF-A3F8-001BBF6A2DC4}
  9
$EXTNAMES
290
1
  9
$PSVPSCALE
 40
0.0
  9
$OLESTARTUP
290
0
  9
$SORTENTS
280
127
  9
$INDEXCTL
280
0
  9
$HIDETEXT
280
1
  9
$XCLIPFRAME
280
1
  9
$HALOGAP
280
0
  9
$OBSCOLOR
 70
257
  9
$OBSLTYPE
280
0
  9
$INTERSECTIONDISPLAY
280
0
  9
$INTERSECTIONCOLOR
 70
257
  9
$DIMASSOC
280
2
  9
$PROJECTNAME
  1

  9
$CAMERADISPLAY
290
0
  9
$LENSLENGTH
 40
50.0
  9
$CAMERAHEIGHT
 40
0.0
  9
$STEPSPERSEC
 40
24.0
  9
$STEPSIZE
 40
100.0
  9
$3DDWFPREC
 40
2.0
  9
$PSOLWIDTH
 40
0.005
  9
$PSOLHEIGHT
 40
0.08
  9
$LOFTANG1
 40
1.570796326795
  9
$LOFTANG2
 40
1.570796326795
  9
$LOFTMAG1
 40
0.0
  9
$LOFTMAG2
 40
0.0
  9
$LOFTPARAM
 70
7
  9
$LOFTNORMALS
280
1
  9
$LATITUDE
 40
37.795
  9
$LONGITUDE
 40
-122.394
  9
$NORTHDIRECTION
 40
0.0
  9
$TIMEZONE
 70
-8000
  9
$LIGHTGLYPHDISPLAY
280
1
  9
$TILEMODELIGHTSYNCH
280
1
  9
$CMATERIAL
347
20
  9
$SOLIDHIST
280
0
  9
$SHOWHIST
280
1
  9
$DWFFRAME
280
2
  9
$DGNFRAME
280
2
  9
$REALWORLDSCALE
290
1
  9
$INTERFERECOLOR
 62
256
  9
$CSHADOW
280
0
  9
$SHADOWPLANELOCATION
 40
0.0
  0
ENDSEC
  0
SECTION
  2
CLASSES
  0
CLASS
  1
ACDBDICTIONARYWDFLT
  2
AcDbDictionaryWithDefault
  3
ObjectDBX Classes
 90
0
 91
0
280
0
281
0
  0
CLASS
  1
SUN
  2
AcDbSun
  3
SCENEOE
 90
1153
 91
0
280
0
281
0
  0
CLASS
  1
VISUALSTYLE
  2
AcDbVisualStyle
  3
ObjectDBX Classes
 90
4095
 91
0
280
0
281
0
  0
CLASS
  1
MATERIAL
  2
AcDbMaterial
  3
ObjectDBX Classes
 90
1153
 91
0
280
0
281
0
  0
CLASS
  1
SCALE
  2
AcDbScale
  3
ObjectDBX Classes
 90
1153
 91
0
280
0
281
0
  0
CLASS
  1
TABLESTYLE
  2
AcDbTableStyle
  3
ObjectDBX Classes
 90
4095
 91
0
280
0
281
0
  0
CLASS
  1
MLEADERSTYLE
  2
AcDbMLeaderStyle
  3
ACDB_MLEADERSTYLE_CLASS
 90
4095
 91
0
280
0
281
0
  0
CLASS
  1
DICTIONARYVAR
  2
AcDbDictionaryVar
  3
ObjectDBX Classes
 90
0
 91
0
280
0
281
0
  0
CLASS
  1
CELLSTYLEMAP
  2
AcDbCellStyleMap
  3
ObjectDBX Classes
 90
1152
 91
0
280
0
281
0
  0
CLASS
  1
MENTALRAYRENDERSETTINGS
  2
AcDbMentalRayRenderSettings
  3
SCENEOE
 90
1024
 91
0
280
0
281
0
  0
CLASS
  1
ACDBDETAILVIEWSTYLE
  2
AcDbDetailViewStyle
  3
ObjectDBX Classes
 90
1025
 91
0
280
0
281
0
  0
CLASS
  1
ACDBSECTIONVIEWSTYLE
  2
AcDbSectionViewStyle
  3
ObjectDBX Classes
 90
1025
 91
0
280
0
281
0
  0
CLASS
  1
RASTERVARIABLES
  2
AcDbRasterVariables
  3
ISM
 90
0
 91
0
280
0
281
0
  0
CLASS
  1
ACDBPLACEHOLDER
  2
AcDbPlaceHolder
  3
ObjectDBX Classes
 90
0
 91
0
280
0
281
0
  0
CLASS
  1
LAYOUT
  2
AcDbLayout
  3
ObjectDBX Classes
 90
0
 91
0
280
0
281
0
  0
ENDSEC
  0
SECTION
  2
TABLES
  0
TABLE
  2
VPORT
  5
8
330
0
100
AcDbSymbolTable
 70
1
  0
VPORT
  5
23
330
8
100
AcDbSymbolTableRecord
100
AcDbViewportTableRecord
  2
*Active
 70
0
 10
0.0
 20
0.0
 11
1.0
 21
1.0
 12
0.0
 22
0.0
 13
0.0
 23
0.0
 14
0.5
 24
0.5
 15
0.5
 25
0.5
 16
0.0
 26
0.0
 36
1.0
 17
0.0
 27
0.0
 37
0.0
 40
1000.0
 41
1.34
 42
50.0
 43
0.0
 44
0.0
 50
0.0
 51
0.0
 71
0
 72
1000
 73
1
 74
3
 75
0
 76
0
 77
0
 78
0
281
0
 65
0
146
0.0
  0
ENDTAB
  0
TABLE
  2
LTYPE
  5
2
330
0
100
AcDbSymbolTable
 70
21
  0
LTYPE
  5
24
330
2
100
AcDbSymbolTableRecord
100
AcDbLinetypeTableRecord
  2
ByBlock
 70
0
  3

 72
65
 73
0
 40
0.0
  0
LTYPE
  5
25
330
2
100
AcDbSymbolTableRecord
100
AcDbLinetypeTableRecord
  2
ByLayer
 70
0
  3

 72
65
 73
0
 40
0.0
  0
LTYPE
  5
26
330
2
100
AcDbSymbolTableRecord
100
AcDbLinetypeTableRecord
  2
Continuous
 70
0
  3

 72
65
 73
0
 40
0.0
  0
LTYPE
  5
2F
330
2
100
AcDbSymbolTableRecord
100
AcDbLinetypeTableRecord
  2
CENTER
 70
0
  3
Center ____ _ ____ _ ____ _ ____ _ ____ _ ____
 72
65
 73
4
 40
5.08
 49
3.175
 74
0
 49
-0.635
 74
0
 49
0.635
 74
0
 49
-0.635
 74
0
  0
LTYPE
  5
30
330
2
100
AcDbSymbolTableRecord
100
AcDbLinetypeTableRecord
  2
CENTERX2
 70
0
  3
Center (2x) ________  __  ________  __  ________
 72
65
 73
4
 40
8.89
 49
6.35
 74
0
 49
-0.635
 74
0
 49
1.27
 74
0
 49
-0.635
 74
0
  0
LTYPE
  5
31
330
2
100
AcDbSymbolTableRecord
100
AcDbLinetypeTableRecord
  2
CENTER2
 70
0
  3
Center (.5x) ____ _ ____ _ ____ _ ____ _ ____
 72
65
 73
4
 40
2.54
 49
1.587
 74
0
 49
-0.318
 74
0
 49
0.318
 74
0
 49
-0.318
 74
0
  0
LTYPE
  5
32
330
2
100
AcDbSymbolTableRecord
100
AcDbLinetypeTableRecord
  2
DASHED
 70
0
  3
Dashed __ __ __ __ __ __ __ __ __ __ __ __ __ _
 72
65
 73
2
 40
1.524
 49
1.27
 74
0
 49
-0.254
 74
0
  0
LTYPE
  5
33
330
2
100
AcDbSymbolTableRecord
100
AcDbLinetypeTableRecord
  2
DASHEDX2
 70
0
  3
Dashed (2x) ____  ____  ____  ____  ____  ____
 72
65
 73
2
 40
3.048
 49
2.54
 74
0
 49
-0.508
 74
0
  0
LTYPE
  5
34
330
2
100
AcDbSymbolTableRecord
100
AcDbLinetypeTableRecord
  2
DASHED2
 70
0
  3
Dashed (.5x) _ _ _ _ _ _ _ _ _ _ _ _ _ _
 72
65
 73
2
 40
0.762
 49
0.635
 74
0
 49
-0.127
 74
0
  0
LTYPE
  5
35
330
2
100
AcDbSymbolTableRecord
100
AcDbLinetypeTableRecord
  2
PHANTOM
 70
0
  3
Phantom ______  __  __  ______  __  __  ______
 72
65
 73
6
 40
6.35
 49
3.175
 74
0
 49
-0.635
 74
0
 49
0.635
 74
0
 49
-0.635
 74
0
 49
0.635
 74
0
 49
-0.635
 74
0
  0
LTYPE
  5
36
330
2
100
AcDbSymbolTableRecord
100
AcDbLinetypeTableRecord
  2
PHANTOMX2
 70
0
  3
Phantom (2x)____________    ____    ____    ____________
 72
65
 73
6
 40
10.795
 49
6.35
 74
0
 49
-0.635
 74
0
 49
1.27
 74
0
 49
-0.635
 74
0
 49
1.27
 74
0
 49
-0.635
 74
0
  0
LTYPE
  5
37
330
2
100
AcDbSymbolTableRecord
100
AcDbLinetypeTableRecord
  2
PHANTOM2
 70
0
  3
Phantom (.5x) ___ _ _ ___ _ _ ___ _ _ ___ _ _ ___
 72
65
 73
6
 40
3.175
 49
1.587
 74
0
 49
-0.318
 74
0
 49
0.318
 74
0
 49
-0.318
 74
0
 49
0.318
 74
0
 49
-0.318
 74
0
  0
LTYPE
  5
38
330
2
100
AcDbSymbolTableRecord
100
AcDbLinetypeTableRecord
  2
DASHDOT
 70
0
  3
Dash dot __ . __ . __ . __ . __ . __ . __ . __
 72
65
 73
4
 40
3.556
 49
2.54
 74
0
 49
-0.508
 74
0
 49
0.0
 74
0
 49
-0.508
 74
0
  0
LTYPE
  5
39
330
2
100
AcDbSymbolTableRecord
100
AcDbLinetypeTableRecord
  2
DASHDOTX2
 70
0
  3
Dash dot (2x) ____  .  ____  .  ____  .  ____
 72
65
 73
4
 40
6.096
 49
5.08
 74
0
 49
-0.508
 74
0
 49
0.0
 74
0
 49
-0.508
 74
0
  0
LTYPE
  5
3A
330
2
100
AcDbSymbolTableRecord
100
AcDbLinetypeTableRecord
  2
DASHDOT2
 70
0
  3
Dash dot (.5x) _ . _ . _ . _ . _ . _ . _ . _
 72
65
 73
4
 40
1.778
 49
1.27
 74
0
 49
-0.254
 74
0
 49
0.0
 74
0
 49
-0.254
 74
0
  0
LTYPE
  5
3B
330
2
100
AcDbSymbolTableRecord
100
AcDbLinetypeTableRecord
  2
DOT
 70
0
  3
Dot .  .  .  .  .  .  .  .  .  .  .  .  .  .  .  .
 72
65
 73
2
 40
0.508
 49
0.0
 74
0
 49
-0.508
 74
0
  0
LTYPE
  5
3C
330
2
100
AcDbSymbolTableRecord
100
AcDbLinetypeTableRecord
  2
DOTX2
 70
0
  3
Dot (2x) .    .    .    .    .    .    .    . 
 72
65
 73
2
 40
1.016
 49
0.0
 74
0
 49
-1.016
 74
0
  0
LTYPE
  5
3D
330
2
100
AcDbSymbolTableRecord
100
AcDbLinetypeTableRecord
  2
DOT2
 70
0
  3
Dot (.5) . . . . . . . . . . . . . . . . . . . 
 72
65
 73
2
 40
0.254
 49
0.0
 74
0
 49
-0.254
 74
0
  0
LTYPE
  5
3E
330
2
100
AcDbSymbolTableRecord
100
AcDbLinetypeTableRecord
  2
DIVIDE
 70
0
  3
Divide __ . . __ . . __ . . __ . . __ . . __
 72
65
 73
6
 40
4.064
 49
2.54
 74
0
 49
-0.508
 74
0
 49
0.0
 74
0
 49
-0.508
 74
0
 49
0.0
 74
0
 49
-0.508
 74
0
  0
LTYPE
  5
3F
330
2
100
AcDbSymbolTableRecord
100
AcDbLinetypeTableRecord
  2
DIVIDEX2
 70
0
  3
Divide (2x) ____  . .  ____  . .  ____  . .  ____
 72
65
 73
6
 40
6.604
 49
5.08
 74
0
 49
-0.508
 74
0
 49
0.0
 74
0
 49
-0.508
 74
0
 49
0.0
 74
0
 49
-0.508
 74
0
  0
LTYPE
  5
40
330
2
100
AcDbSymbolTableRecord
100
AcDbLinetypeTableRecord
  2
DIVIDE2
 70
0
  3
Divide(.5x) _ . _ . _ . _ . _ . _ . _ . _
 72
65
 73
6
 40
2.032
 49
1.27
 74
0
 49
-0.254
 74
0
 49
0.0
 74
0
 49
-0.254
 74
0
 49
0.0
 74
0
 49
-0.254
 74
0
  0
ENDTAB
  0
TABLE
  2
LAYER
  5
1
330
0
100
AcDbSymbolTable
 70
5
  0
LAYER
  5
27
330
1
100
AcDbSymbolTableRecord
100
AcDbLayerTableRecord
  2
0
 70
0
 62
7
  6
Continuous
370
-3
390
13
347
21
  0
LAYER
  5
28
330
1
100
AcDbSymbolTableRecord
100
AcDbLayerTableRecord
  2
Defpoints
 70
0
 62
7
  6
Continuous
290
0
370
-3
390
13
347
21
  0
LAYER
  5
8A
330
1
100
AcDbSymbolTableRecord
100
AcDbLayerTableRecord
  2
KONTUR
 70
0
 62
7
  6
Continuous
370
50
390
13
347
21
  0
LAYER
  5
8B
330
1
100
AcDbSymbolTableRecord
100
AcDbLayerTableRecord
  2
DETAIL
 70
0
 62
7
  6
Continuous
370
25
390
13
347
21
  0
LAYER
  5
8C
330
1
100
AcDbSymbolTableRecord
100
AcDbLayerTableRecord
  2
RAHMEN
 70
0
 62
1
  6
Continuous
370
-3
390
13
347
21
  0
ENDTAB
  0
TABLE
  2
STYLE
  5
5
330
0
100
AcDbSymbolTable
 70
26
  0
STYLE
  5
29
330
5
100
AcDbSymbolTableRecord
100
AcDbTextStyleTableRecord
  2
Standard
 70
0
 40
0.0
 41
1.0
 50
0.0
 71
0
 42
2.5
  3
txt
  4

  0
STYLE
  5
41
330
5
100
AcDbSymbolTableRecord
100
AcDbTextStyleTableRecord
  2
OpenSans-Light
 70
0
 40
0.0
 41
1.0
 50
0.0
 71
0
 42
2.5
  3
OpenSans-Light.ttf
  4

  0
STYLE
  5
42
330
5
100
AcDbSymbolTableRecord
100
AcDbTextStyleTableRecord
  2
OpenSans-Light-Italic
 70
0
 40
0.0
 41
1.0
 50
0.0
 71
0
 42
2.5
  3
OpenSans-LightItalic.ttf
  4

  0
STYLE
  5
43
330
5
100
AcDbSymbolTableRecord
100
AcDbTextStyleTableRecord
  2
OpenSans
 70
0
 40
0.0
 41
1.0
 50
0.0
 71
0
 42
2.5
  3
OpenSans-Regular.ttf
  4

  0
STYLE
  5
44
330
5
100
AcDbSymbolTableRecord
100
AcDbTextStyleTableRecord
  2
OpenSans-Italic
 70
0
 40
0.0
 41
1.0
 50
0.0
 71
0
 42
2.5
  3
OpenSans-Italic.ttf
  4

  0
STYLE
  5
45
330
5
100
AcDbSymbolTableRecord
100
AcDbTextStyleTableRecord
  2
OpenSans-SemiBold
 70
0
 40
0.0
 41
1.0
 50
0.0
 71
0
 42
2.5
  3
OpenSans-SemiBold.ttf
  4

  0
STYLE
  5
46
330
5
100
AcDbSymbolTableRecord
100
AcDbTextStyleTableRecord
  2
OpenSans-SemiBoldItalic
 70
0
 40
0.0
 41
1.0
 50
0.0
 71
0
 42
2.5
  3
OpenSans-SemiBoldItalic.ttf
  4

  0
STYLE
  5
47
330
5
100
AcDbSymbolTableRecord
100
AcDbTextStyleTableRecord
  2
OpenSans-Bold
 70
0
 40
0.0
 41
1.0
 50
0.0
 71
0
 42
2.5
  3
OpenSans-Bold.ttf
  4

  0
STYLE
  5
48
330
5
100
AcDbSymbolTableRecord
100
AcDbTextStyleTableRecord
  2
OpenSans-BoldItalic
 70
0
 40
0.0
 41
1.0
 50
0.0
 71
0
 42
2.5
  3
OpenSans-BoldItalic.ttf
  4

  0
STYLE
  5
49
330
5
100
AcDbSymbolTableRecord
100
AcDbTextStyleTableRecord
  2
OpenSans-ExtraBold
 70
0
 40
0.0
 41
1.0
 50
0.0
 71
0
 42
2.5
  3
OpenSans-ExtraBold.ttf
  4

  0
STYLE
  5
4A
330
5
100
AcDbSymbolTableRecord
100
AcDbTextStyleTableRecord
  2
OpenSans-ExtraBoldItalic
 70
0
 40
0.0
 41
1.0
 50
0.0
 71
0
 42
2.5
  3
OpenSans-ExtraBoldItalic.ttf
  4

  0
STYLE
  5
4B
330
5
100
AcDbSymbolTableRecord
100
AcDbTextStyleTableRecord
  2
OpenSansCondensed-Bold
 70
0
 40
0.0
 41
1.0
 50
0.0
 71
0
 42
2.5
  3
OpenSansCondensed-Bold.ttf
  4

  0
STYLE
  5
4C
330
5
100
AcDbSymbolTableRecord
100
AcDbTextStyleTableRecord
  2
OpenSansCondensed-Light
 70
0
 40
0.0
 41
1.0
 50
0.0
 71
0
 42
2.5
  3
OpenSansCondensed-Light.ttf
  4

  0
STYLE
  5
4D
330
5
100
AcDbSymbolTableRecord
100
AcDbTextStyleTableRecord
  2
OpenSansCondensed-Italic
 70
0
 40
0.0
 41
1.0
 50
0.0
 71
0
 42
2.5
  3
OpenSansCondensed-LightItalic.ttf
  4

  0
STYLE
  5
4E
330
5
100
AcDbSymbolTableRecord
100
AcDbTextStyleTableRecord
  2
LiberationSans
 70
0
 40
0.0
 41
1.0
 50
0.0
 71
0
 42
2.5
  3
LiberationSans-Regular.ttf
  4

  0
STYLE
  5
4F
330
5
100
AcDbSymbolTableRecord
100
AcDbTextStyleTableRecord
  2
LiberationSans-Bold
 70
0
 40
0.0
 41
1.0
 50
0.0
 71
0
 42
2.5
  3
LiberationSans-Bold.ttf
  4

  0
STYLE
  5
50
330
5
100
AcDbSymbolTableRecord
100
AcDbTextStyleTableRecord
  2
LiberationSans-BoldItalic
 70
0
 40
0.0
 41
1.0
 50
0.0
 71
0
 42
2.5
  3
LiberationSans-BoldItalic.ttf
  4

  0
STYLE
  5
51
330
5
100
AcDbSymbolTableRecord
100
AcDbTextStyleTableRecord
  2
LiberationSans-Italic
 70
0
 40
0.0
 41
1.0
 50
0.0
 71
0
 42
2.5
  3
LiberationSans-Italic.ttf
  4

  0
STYLE
  5
52
330
5
100
AcDbSymbolTableRecord
100
AcDbTextStyleTableRecord
  2
LiberationSerif
 70
0
 40
0.0
 41
1.0
 50
0.0
 71
0
 42
2.5
  3
LiberationSerif-Regular.ttf
  4

  0
STYLE
  5
53
330
5
100
AcDbSymbolTableRecord
100
AcDbTextStyleTableRecord
  2
LiberationSerif-Bold
 70
0
 40
0.0
 41
1.0
 50
0.0
 71
0
 42
2.5
  3
LiberationSerif-Bold.ttf
  4

  0
STYLE
  5
54
330
5
100
AcDbSymbolTableRecord
100
AcDbTextStyleTableRecord
  2
LiberationSerif-BoldItalic
 70
0
 40
0.0
 41
1.0
 50
0.0
 71
0
 42
2.5
  3
LiberationSerif-BoldItalic.ttf
  4

  0
STYLE
  5
55
330
5
100
AcDbSymbolTableRecord
100
AcDbTextStyleTableRecord
  2
LiberationSerif-Italic
 70
0
 40
0.0
 41
1.0
 50
0.0
 71
0
 42
2.5
  3
LiberationSerif-Italic.ttf
  4

  0
STYLE
  5
56
330
5
100
AcDbSymbolTableRecord
100
AcDbTextStyleTableRecord
  2
LiberationMono
 70
0
 40
0.0
 41
1.0
 50
0.0
 71
0
 42
2.5
  3
LiberationMono-Regular.ttf
  4

  0
STYLE
  5
57
330
5
100
AcDbSymbolTableRecord
100
AcDbTextStyleTableRecord
  2
LiberationMono-Bold
 70
0
 40
0.0
 41
1.0
 50
0.0
 71
0
 42
2.5
  3
LiberationMono-Bold.ttf
  4

  0
STYLE
  5
58
330
5
100
AcDbSymbolTableRecord
100
AcDbTextStyleTableRecord
  2
LiberationMono-BoldItalic
 70
0
 40
0.0
 41
1.0
 50
0.0
 71
0
 42
2.5
  3
LiberationMono-BoldItalic.ttf
  4

  0
STYLE
  5
59
330
5
100
AcDbSymbolTableRecord
100
AcDbTextStyleTableRecord
  2
LiberationMono-Italic
 70
0
 40
0.0
 41
1.0
 50
0.0
 71
0
 42
2.5
  3
LiberationMono-Italic.ttf
  4

  0
ENDTAB
  0
TABLE
  2
VIEW
  5
7
330
0
100
AcDbSymbolTable
 70
0
  0
ENDTAB
  0
TABLE
  2
UCS
  5
6
330
0
100
AcDbSymbolTable
 70
0
  0
ENDTAB
  0
TABLE
  2
APPID
  5
3
330
0
100
AcDbSymbolTable
 70
3
  0
APPID
  5
2A
330
3
100
AcDbSymbolTableRecord
100
AcDbRegAppTableRecord
  2
ACAD
 70
0
  0
APPID
  5
141
330
3
100
AcDbSymbolTableRecord
100
AcDbRegAppTableRecord
  2
HATCHBACKGROUNDCOLOR
 70
0
  0
APPID
  5
142
330
3
100
AcDbSymbolTableRecord
100
AcDbRegAppTableRecord
  2
EZDXF
 70
0
  0
ENDTAB
  0
TABLE
  2
DIMSTYLE
  5
4
330
0
100
AcDbSymbolTable
 70
12
100
AcDbDimStyleTable
  0
DIMSTYLE
105
2B
330
4
100
AcDbSymbolTableRecord
100
AcDbDimStyleTableRecord
  2
Standard
 70
0
 40
1.0
 41
2.5
 42
0.625
 43
3.75
 44
1.25
 45
0.0
 46
0.0
 47
0.0
 48
0.0
 49
2.5
140
2.5
141
2.5
142
0.0
143
0.03937007874
144
1.0
145
0.0
146
1.0
147
0.625
148
0.0
 69
0
 70
0
 71
0
 72
0
 73
0
 74
0
 75
0
 76
0
 77
1
 78
8
 79
3
170
0
171
3
172
1
173
0
174
0
175
0
176
0
177
0
178
0
179
2
271
2
272
2
273
2
274
3
275
0
276
0
277
2
278
44
279
0
280
0
281
0
282
0
283
0
284
8
285
0
286
0
288
0
289
3
290
0
371
-2
372
-2
  0
DIMSTYLE
105
73
330
4
100
AcDbSymbolTableRecord
100
AcDbDimStyleTableRecord
  2
EZDXF
 70
0
 40
1.0
 41
0.175
 42
0.125
 43
3.75
 44
0.375
 45
0.0
 46
0.0
 47
0.0
 48
0.0
 49
2.5
140
0.25
141
2.5
142
0.0
143
0.03937007874
144
100.0
145
0.0
146
0.5
147
0.1
148
0.0
 69
0
 70
0
 71
0
 72
0
 73
0
 74
0
 75
0
 76
0
 77
1
 78
12
 79
3
170
0
171
3
172
1
173
0
174
0
175
0
176
0
177
0
178
0
179
2
271
2
272
2
273
2
274
3
275
0
276
0
277
2
278
46
279
2
280
0
281
0
282
0
283
0
284
8
285
0
286
0
288
1
289
3
290
0
340
4C
342
74
371
-2
372
-2
  0
DIMSTYLE
105
7C
330
4
100
AcDbSymbolTableRecord
100
AcDbDimStyleTableRecord
  2
EZ_M_100_H25_CM
 70
0
 40
1.0
 41
0.25
 42
0.125
 43
3.75
 44
0.375
 45
0.0
 46
0.0
 47
0.0
 48
0.0
 49
2.5
140
0.25
141
2.5
142
0.125
143
0.03937007874
144
100.0
145
0.0
146
0.5
147
0.1
148
0.0
 69
0
 70
0
 71
0
 72
0
 73
0
 74
0
 75
0
 76
0
 77
1
 78
12
 79
3
170
0
171
3
172
1
173
0
174
0
175
0
176
0
177
0
178
0
179
2
271
2
272
2
273
2
274
3
275
0
276
0
277
2
278
46
279
2
280
0
281
0
282
0
283
0
284
8
285
0
286
0
288
1
289
3
290
0
340
4C
371
-2
372
-2
  0
DIMSTYLE
105
7D
330
4
100
AcDbSymbolTableRecord
100
AcDbDimStyleTableRecord
  2
EZ_M_50_H25_CM
 70
0
 40
1.0
 41
0.125
 42
0.0625
 43
3.75
 44
0.1875
 45
0.0
 46
0.0
 47
0.0
 48
0.0
 49
2.5
140
0.125
141
2.5
142
0.0625
143
0.03937007874
144
100.0
145
0.0
146
0.5
147
0.05
148
0.0
 69
0
 70
0
 71
0
 72
0
 73
0
 74
0
 75
0
 76
0
 77
1
 78
12
 79
3
170
0
171
3
172
1
173
0
174
0
175
0
176
0
177
0
178
0
179
2
271
2
272
2
273
2
274
3
275
0
276
0
277
2
278
46
279
2
280
0
281
0
282
0
283
0
284
8
285
0
286
0
288
1
289
3
290
0
340
4C
371
-2
372
-2
  0
DIMSTYLE
105
7E
330
4
100
AcDbSymbolTableRecord
100
AcDbDimStyleTableRecord
  2
EZ_M_25_H25_CM
 70
0
 40
1.0
 41
0.0625
 42
0.03125
 43
3.75
 44
0.09375
 45
0.0
 46
0.0
 47
0.0
 48
0.0
 49
2.5
140
0.0625
141
2.5
142
0.03125
143
0.03937007874
144
100.0
145
0.0
146
0.5
147
0.025
148
0.0
 69
0
 70
0
 71
0
 72
0
 73
0
 74
0
 75
0
 76
0
 77
1
 78
12
 79
3
170
0
171
3
172
1
173
0
174
0
175
0
176
0
177
0
178
0
179
2
271
2
272
2
273
2
274
3
275
0
276
0
277
2
278
46
279
2
280
0
281
0
282
0
283
0
284
8
285
0
286
0
288
1
289
3
290
0
340
4C
371
-2
372
-2
  0
DIMSTYLE
105
7F
330
4
100
AcDbSymbolTableRecord
100
AcDbDimStyleTableRecord
  2
EZ_M_20_H25_CM
 70
0
 40
1.0
 41
0.05
 42
0.025
 43
3.75
 44
0.07500000000000001
 45
0.0
 46
0.0
 47
0.0
 48
0.0
 49
2.5
140
0.05
141
2.5
142
0.025
143
0.03937007874
144
100.0
145
0.0
146
0.5
147
0.020000000000000004
148
0.0
 69
0
 70
0
 71
0
 72
0
 73
0
 74
0
 75
0
 76
0
 77
1
 78
12
 79
3
170
0
171
3
172
1
173
0
174
0
175
0
176
0
177
0
178
0
179
2
271
2
272
2
273
2
274
3
275
0
276
0
277
2
278
46
279
2
280
0
281
0
282
0
283
0
284
8
285
0
286
0
288
1
289
3
290
0
340
4C
371
-2
372
-2
  0
DIMSTYLE
105
80
330
4
100
AcDbSymbolTableRecord
100
AcDbDimStyleTableRecord
  2
EZ_M_10_H25_CM
 70
0
 40
1.0
 41
0.025
 42
0.0125
 43
3.75
 44
0.037500000000000006
 45
0.0
 46
0.0
 47
0.0
 48
0.0
 49
2.5
140
0.025
141
2.5
142
0.0125
143
0.03937007874
144
100.0
145
0.0
146
0.5
147
0.010000000000000002
148
0.0
 69
0
 70
0
 71
0
 72
0
 73
0
 74
0
 75
0
 76
0
 77
1
 78
12
 79
3
170
0
171
3
172
1
173
0
174
0
175
0
176
0
177
0
178
0
179
2
271
2
272
2
273
2
274
3
275
0
276
0
277
2
278
46
279
2
280
0
281
0
282
0
283
0
284
8
285
0
286
0
288
1
289
3
290
0
340
4C
371
-2
372
-2
  0
DIMSTYLE
105
81
330
4
100
AcDbSymbolTableRecord
100
AcDbDimStyleTableRecord
  2
EZ_M_5_H25_CM
 70
0
 40
1.0
 41
0.0125
 42
0.00625
 43
3.75
 44
0.018750000000000003
 45
0.0
 46
0.0
 47
0.0
 48
0.0
 49
2.5
140
0.0125
141
2.5
142
0.00625
143
0.03937007874
144
100.0
145
0.0
146
0.5
147
0.005000000000000001
148
0.0
 69
0
 70
0
 71
0
 72
0
 73
0
 74
0
 75
0
 76
0
 77
1
 78
12
 79
3
170
0
171
3
172
1
173
0
174
0
175
0
176
0
177
0
178
0
179
2
271
2
272
2
273
2
274
3
275
0
276
0
277
2
278
46
279
2
280
0
281
0
282
0
283
0
284
8
285
0
286
0
288
1
289
3
290
0
340
4C
371
-2
372
-2
  0
DIMSTYLE
105
82
330
4
100
AcDbSymbolTableRecord
100
AcDbDimStyleTableRecord
  2
EZ_M_1_H25_CM
 70
0
 40
1.0
 41
0.0025
 42
0.00125
 43
3.75
 44
0.00375
 45
0.0
 46
0.0
 47
0.0
 48
0.0
 49
2.5
140
0.0025
141
2.5
142
0.00125
143
0.03937007874
144
100.0
145
0.0
146
0.5
147
0.001
148
0.0
 69
0
 70
0
 71
0
 72
0
 73
0
 74
0
 75
0
 76
0
 77
1
 78
12
 79
3
170
0
171
3
172
1
173
0
174
0
175
0
176
0
177
0
178
0
179
2
271
2
272
2
273
2
274
3
275
0
276
0
277
2
278
46
279
2
280
0
281
0
282
0
283
0
284
8
285
0
286
0
288
1
289
3
290
0
340
4C
371
-2
372
-2
  0
DIMSTYLE
105
83
330
4
100
AcDbSymbolTableRecord
100
AcDbDimStyleTableRecord
  2
EZ_RADIUS
 70
0
 40
1.0
 41
0.25
 42
0.125
 43
3.75
 44
0.375
 45
0.0
 46
0.0
 47
0.0
 48
0.0
 49
2.5
140
0.25
141
0.0
142
0.0
143
0.03937007874
144
100.0
145
0.0
146
0.5
147
0.1
148
0.0
 69
0
 70
0
 71
0
 72
0
 73
0
 74
0
 75
0
 76
0
 77
1
 78
12
 79
3
170
0
171
3
172
0
173
0
174
0
175
0
176
0
177
0
178
0
179
2
271
2
272
2
273
2
274
3
275
0
276
0
277
2
278
46
279
1
280
0
281
0
282
0
283
0
284
8
285
0
286
0
288
1
289
3
290
0
340
4C
342
84
371
-2
372
-2
  0
DIMSTYLE
105
88
330
4
100
AcDbSymbolTableRecord
100
AcDbDimStyleTableRecord
  2
EZ_RADIUS_INSIDE
 70
0
 40
1.0
 41
0.25
 42
0.125
 43
3.75
 44
0.375
 45
0.0
 46
0.0
 47
0.0
 48
0.0
 49
2.5
140
0.25
141
0.0
142
0.0
143
0.03937007874
144
100.0
145
0.0
146
0.5
147
0.1
148
0.0
 69
0
 70
0
 71
0
 72
0
 73
0
 74
0
 75
0
 76
0
 77
0
 78
12
 79
3
170
0
171
3
172
0
173
0
174
1
175
0
176
0
177
0
178
0
179
2
271
2
272
2
273
2
274
3
275
0
276
0
277
2
278
46
279
0
280
0
281
0
282
0
283
0
284
8
285
0
286
0
288
1
289
0
290
0
340
4C
342
84
371
-2
372
-2
  0
DIMSTYLE
105
89
330
4
100
AcDbSymbolTableRecord
100
AcDbDimStyleTableRecord
  2
EZ_CURVED
 70
0
 40
1.0
 41
0.25
 42
0.125
 43
3.75
 44
0.375
 45
0.0
 46
0.0
 47
0.0
 48
0.0
 49
2.5
140
0.25
141
2.5
142
0.0
143
0.03937007874
144
100.0
145
0.0
146
0.5
147
0.1
148
0.0
 69
0
 70
0
 71
0
 72
0
 73
0
 74
0
 75
0
 76
0
 77
1
 78
12
 79
2
 90
2
170
0
171
3
172
1
173
0
174
0
175
0
176
0
177
0
178
0
179
2
271
2
272
2
273
2
274
3
275
0
276
0
277
2
278
46
279
2
280
0
281
0
282
0
283
0
284
8
285
0
286
0
288
1
289
3
290
0
340
4C
371
-2
372
-2
  0
ENDTAB
  0
TABLE
  2
BLOCK_RECORD
  5
9
330
0
100
AcDbSymbolTable
 70
5
  0
BLOCK_RECORD
  5
17
330
9
100
AcDbSymbolTableRecord
100
AcDbBlockTableRecord
  2
*Model_Space
340
1A
 70
0
280
1
281
0
  0
BLOCK_RECORD
  5
1B
330
9
100
AcDbSymbolTableRecord
100
AcDbBlockTableRecord
  2
*Paper_Space
340
1E
 70
0
280
1
281
0
  0
BLOCK_RECORD
  5
74
330
9
100
AcDbSymbolTableRecord
100
AcDbBlockTableRecord
  2
_ARCHTICK
340
0
 70
0
280
1
281
0
  0
BLOCK_RECORD
  5
78
330
9
100
AcDbSymbolTableRecord
100
AcDbBlockTableRecord
  2
_CLOSEDFILLED
340
0
 70
0
280
1
281
0
  0
BLOCK_RECORD
  5
84
330
9
100
AcDbSymbolTableRecord
100
AcDbBlockTableRecord
  2
_CLOSEDBLANK
340
0
 70
0
280
1
281
0
  0
ENDTAB
  0
ENDSEC
  0
SECTION
  2
BLOCKS
  0
BLOCK
  5
18
330
17
100
AcDbEntity
  8
0
100
AcDbBlockBegin
  2
*Model_Space
 70
0
 10
0.0
 20
0.0
 30
0.0
  3
*Model_Space
  1

  0
ENDBLK
  5
19
330
17
100
AcDbEntity
  8
0
100
AcDbBlockEnd
  0
BLOCK
  5
1C
330
1B
100
AcDbEntity
  8
0
100
AcDbBlockBegin
  2
*Paper_Space
 70
0
 10
0.0
 20
0.0
 30
0.0
  3
*Paper_Space
  1

  0
ENDBLK
  5
1D
330
1B
100
AcDbEntity
  8
0
100
AcDbBlockEnd
  0
BLOCK
  5
75
330
74
100
AcDbEntity
  8
0
100
AcDbBlockBegin
  2
_ARCHTICK
 70
0
 10
0.0
 20
0.0
 30
0.0
  3
_ARCHTICK
  1

  0
LWPOLYLINE
  5
77
330
74
100
AcDbEntity
  8
0
  6
BYBLOCK
 62
0
100
AcDbPolyline
 90
2
 70
0
 43
0.15
 10
-0.5
 20
-0.5
 10
0.5
 20
0.5
  0
ENDBLK
  5
76
330
74
100
AcDbEntity
  8
0
100
AcDbBlockEnd
  0
BLOCK
  5
79
330
78
100
AcDbEntity
  8
0
100
AcDbBlockBegin
  2
_CLOSEDFILLED
 70
0
 10
0.0
 20
0.0
 30
0.0
  3
_CLOSEDFILLED
  1

  0
SOLID
  5
7B
330
78
100
AcDbEntity
  8
0
  6
BYBLOCK
 62
0
100
AcDbTrace
 10
-1.0
 20
0.16439898372402537
 30
0.0
 11
0.0
 21
0.0
 31
0.0
 12
-1.0
 22
-0.16439898372402537
 32
0.0
 13
-1.0
 23
-0.16439898372402537
 33
0.0
  0
ENDBLK
  5
7A
330
78
100
AcDbEntity
  8
0
100
AcDbBlockEnd
  0
BLOCK
  5
85
330
84
100
AcDbEntity
  8
0
100
AcDbBlockBegin
  2
_CLOSEDBLANK
 70
0
 10
0.0
 20
0.0
 30
0.0
  3
_CLOSEDBLANK
  1

  0
LWPOLYLINE
  5
87
330
84
100
AcDbEntity
  8
0
  6
BYBLOCK
 62
0
100
AcDbPolyline
 90
3
 70
1
 10
-1.0
 20
0.16439898372402537
 10
0.0
 20
0.0
 10
-1.0
 20
-0.16439898372402537
  0
ENDBLK
  5
86
330
84
100
AcDbEntity
  8
0
100
AcDbBlockEnd
  0
ENDSEC
  0
SECTION
  2
ENTITIES
  0
LWPOLYLINE
  5
8D
330
17
100
AcDbEntity
  8
KONTUR
100
AcDbPolyline
 90
202
 70
1
 10
88.37209302325581
 20
194.74216380182
 10
87.1587462082912
 20
194.74216380182
 10
86.5520728008089
 20
193.93326592517693
 10
85.33872598584428
 20
193.93326592517693
 10
83.72093023255813
 20
192.92214357937308
 10
79.474216380182
 20
192.51769464105155
 10
78.8675429726997
 20
193.32659251769462
 10
73.81193124368048
 20
193.12436804853385
 10
70.77856420626895
 20
191.30434782608694
 10
68.95854398382204
 20
191.91102123356924
 10
66.32962588473205
 20
194.53993933265923
 10
64.1051567239636
 20
194.1354903943377
 10
61.67846309403438
 20
194.53993933265923
 10
61.27401415571284
 20
193.32659251769462
 10
60.46511627906977
 20
192.92214357937308
 10
58.847320525783616
 20
193.32659251769462
 10
56.01617795753286
 20
191.30434782608694
 10
55.81395348837209
 20
190.69767441860463
 10
55.611729019211324
 20
191.10212335692617
 10
53.99393326592517
 20
191.10212335692617
 10
51.97168857431749
 20
189.48432760364003
 10
49.74721941354904
 20
189.28210313447926
 10
49.74721941354904
 20
186.4509605662285
 10
48.93832153690597
 20
186.65318503538927
 10
48.93832153690597
 20
187.46208291203234
 10
46.91607684529828
 20
187.46208291203234
 10
45.5005055611729
 20
185.2376137512639
 10
43.882709807886755
 20
184.83316481294236
 10
42.2649140546006
 20
183.61981799797775
 10
39.43377148634985
 20
183.41759352881698
 10
39.02932254802831
 20
182.81092012133468
 10
38.22042467138524
 20
182.81092012133468
 10
38.22042467138524
 20
181.59757330637007
 10
39.02932254802831
 20
181.3953488372093
 10
37.00707785642062
 20
180.58645096056622
 10
37.00707785642062
 20
179.57532861476238
 10
36.19817997977755
 20
178.159757330637
 10
34.580384226491404
 20
180.1820020222447
 10
34.378159757330636
 20
181.59757330637007
 10
31.547017189079877
 20
181.19312436804853
 10
31.547017189079877
 20
176.54196157735086
 10
30.131445904954496
 20
176.13751263902932
 10
30.131445904954496
 20
172.49747219413547
 10
30.738119312436805
 20
171.0819009100101
 10
29.322548028311424
 20
170.87967644084932
 10
28.109201213346815
 20
169.26188068756318
 10
26.289180990899897
 20
169.26188068756318
 10
25.278058645096056
 20
168.4529828109201
 10
24.469160768452983
 20
168.4529828109201
 10
24.26693629929221
 20
166.83518705763396
 10
24.87360970677452
 20
166.6329625884732
 10
25.075834175935288
 20
165.41961577350858
 10
23.45803842264914
 20
164.20626895854397
 10
23.25581395348837
 20
162.99292214357936
 10
22.24469160768453
 20
162.38624873609706
 10
22.24469160768453
 20
161.37512639029322
 10
21.233569261880685
 20
159.95955510616784
 10
21.031344792719917
 20
158.74620829120323
 10
18.806875631951467
 20
156.319514661274
 10
18.806875631951467
 20
155.51061678463094
 10
17.391304347826086
 20
153.8928210313448
 10
16.98685540950455
 20
151.06167846309404
 10
17.593528816986854
 20
150.6572295247725
 10
17.795753286147622
 20
148.6349848331648
 10
15.975733063700707
 20
146.41051567239634
 10
14.560161779575328
 20
142.77047522750252
 10
14.964610717896864
 20
135.8948432760364
 10
17.795753286147622
 20
131.4459049544995
 10
17.795753286147622
 20
130.03033367037412
 10
19.61577350859454
 20
125.98584428715874
 10
20.020222446916076
 20
123.55915065722952
 10
20.82912032355915
 20
122.75025278058645
 10
21.840242669362993
 20
120.12133468149645
 10
22.446916076845298
 20
116.68351870576339
 10
23.053589484327603
 20
116.27906976744185
 10
23.862487360970675
 20
110.41456016177958
 10
23.862487360970675
 20
107.98786653185034
 10
23.053589484327603
 20
107.17896865520727
 10
20.424671385237612
 20
107.17896865520727
 10
19.211324570273003
 20
106.57229524772497
 10
17.795753286147622
 20
103.94337714863498
 10
17.593528816986854
 20
100.50556117290192
 10
16.380182002022245
 20
95.85439838220424
 10
16.98685540950455
 20
91.20323559150657
 10
18.402426693629927
 20
85.13650151668351
 10
21.840242669362993
 20
79.06976744186046
 10
21.840242669362993
 20
77.24974721941355
 10
22.446916076845298
 20
75.6319514661274
 10
26.895854398382202
 20
71.58746208291203
 10
28.109201213346815
 20
65.31850353892821
 10
31.14256825075834
 20
58.03842264914054
 10
31.14256825075834
 20
55.81395348837209
 10
33.56926188068756
 20
53.1850353892821
 10
34.580384226491404
 20
51.365015166835185
 10
34.580384226491404
 20
50.151668351870576
 10
35.79373104145601
 20
48.93832153690597
 10
35.79373104145601
 20
48.331648129423655
 10
32.76036400404449
 20
45.29828109201213
 10
31.547017189079877
 20
42.66936299292214
 10
30.738119312436805
 20
34.378159757330636
 10
31.14256825075834
 20
27.906976744186046
 10
32.76036400404449
 20
23.660262891809907
 10
34.98483316481294
 20
19.817997977755308
 10
40.24266936299292
 20
14.560161779575328
 10
45.90495449949444
 20
11.122345803842265
 10
50.353892821031344
 20
9.10010111223458
 10
57.836198179979775
 20
7.280080889787664
 10
72.19413549039433
 20
5.864509605662285
 10
81.90091001011122
 20
6.47118301314459
 10
88.97876643073812
 20
8.088978766430738
 10
90.3943377148635
 20
9.10010111223458
 10
93.22548028311425
 20
9.706774519716886
 10
95.65217391304347
 20
11.526794742163801
 10
98.28109201213347
 20
12.740141557128412
 10
101.51668351870576
 20
15.166835187057634
 10
105.56117290192113
 20
19.61577350859454
 10
109.40343781597574
 20
26.08695652173913
 10
110.01011122345804
 20
29.524772497472192
 10
104.95449949443882
 20
35.79373104145601
 10
105.35894843276036
 20
47.72497472194135
 10
109.80788675429727
 20
54.600606673407476
 10
112.03235591506572
 20
60.060667340748225
 10
114.45904954499494
 20
68.35187057633973
 10
118.90798786653184
 20
70.17189079878665
 10
118.90798786653184
 20
71.38523761375126
 10
117.69464105156723
 20
71.38523761375126
 10
116.68351870576339
 20
72.59858442871587
 10
116.68351870576339
 20
74.21638018200201
 10
118.5035389282103
 20
79.474216380182
 10
118.09908998988877
 20
82.30535894843275
 10
118.70576339737107
 20
88.16986855409505
 10
123.96359959555106
 20
88.16986855409505
 10
124.9747219413549
 20
87.1587462082912
 10
124.57027300303336
 20
83.51870576339736
 10
123.15470171890799
 20
79.67644084934277
 10
123.15470171890799
 20
78.46309403437816
 10
124.3680485338726
 20
78.46309403437816
 10
127.40141557128412
 20
83.51870576339736
 10
128.00808897876644
 20
89.58543983822042
 10
128.8169868554095
 20
90.79878665318503
 10
129.82810920121335
 20
95.4499494438827
 10
129.62588473205258
 20
101.71890798786653
 10
133.67037411526795
 20
101.9211324570273
 10
136.29929221435793
 20
104.55005055611728
 10
136.29929221435793
 20
117.2901921132457
 10
135.2881698685541
 20
117.896865520728
 10
132.25480283114257
 20
117.896865520728
 10
127.40141557128412
 20
113.04347826086956
 10
127.40141557128412
 20
112.23458038422649
 10
125.5813953488372
 20
109.20121334681495
 10
125.37917087967644
 20
107.78564206268958
 10
120.93023255813954
 20
105.56117290192113
 10
119.31243680485338
 20
106.16784630940343
 10
119.31243680485338
 20
112.23458038422649
 10
119.91911021233568
 20
117.69464105156723
 10
120.32355915065722
 20
117.896865520728
 10
120.93023255813954
 20
124.3680485338726
 10
121.33468149646107
 20
125.17694641051567
 10
121.94135490394338
 20
125.17694641051567
 10
122.34580384226491
 20
126.59251769464105
 10
122.34580384226491
 20
134.47927199191102
 10
123.76137512639029
 20
142.1638018200202
 10
123.15470171890799
 20
144.7927199191102
 10
120.52578361981799
 20
148.43276036400403
 10
120.93023255813954
 20
152.47724974721942
 10
120.12133468149645
 20
152.88169868554095
 10
118.5035389282103
 20
157.1284125379171
 10
117.69464105156723
 20
157.53286147623862
 10
117.69464105156723
 20
159.15065722952477
 10
117.08796764408493
 20
159.95955510616784
 10
117.896865520728
 20
160.7684529828109
 10
117.896865520728
 20
161.98179979777552
 10
116.48129423660262
 20
162.38624873609706
 10
114.45904954499494
 20
165.01516683518705
 10
112.63902932254803
 20
166.0262891809909
 10
112.43680485338726
 20
169.6663296258847
 10
110.41456016177958
 20
169.6663296258847
 10
109.80788675429727
 20
171.89079878665316
 10
109.20121334681495
 20
171.89079878665316
 10
108.39231547017188
 20
173.91304347826087
 10
107.58341759352881
 20
174.11526794742164
 10
107.38119312436804
 20
175.93528816986856
 10
106.77451971688573
 20
176.3397371081901
 10
106.77451971688573
 20
177.14863498483317
 10
105.96562184024266
 20
177.75530839231547
 10
105.7633973710819
 20
178.7664307381193
 10
106.3700707785642
 20
184.02426693629928
 10
105.96562184024266
 20
185.2376137512639
 10
104.55005055611728
 20
186.04651162790697
 10
104.14560161779575
 20
187.25985844287158
 10
102.12335692618807
 20
187.25985844287158
 10
101.71890798786653
 20
188.06875631951465
 10
100.70778564206269
 20
188.27098078867542
 10
100.70778564206269
 20
188.87765419615772
 10
98.28109201213347
 20
189.0798786653185
 10
98.0788675429727
 20
189.6865520728008
 10
96.86552072800808
 20
189.88877654196156
 10
94.64105156723963
 20
192.11324570273
 10
91.80990899898887
 20
192.11324570273
 10
91.0010111223458
 20
193.32659251769462
 10
88.97876643073812
 20
193.32659251769462
 10
88.37209302325581
 20
193.93326592517693
  0
LWPOLYLINE
  5
8E
330
17
100
AcDbEntity
  8
DETAIL
100
AcDbPolyline
 90
3
 70
0
 10
101.71890798786653
 20
186.24873609706773
 10
100.91001011122346
 20
185.03538928210313
 10
100.91001011122346
 20
184.42871587462082
  0
LWPOLYLINE
  5
8F
330
17
100
AcDbEntity
  8
DETAIL
100
AcDbPolyline
 90
2
 70
0
 10
104.75227502527805
 20
183.82204246713852
 10
104.75227502527805
 20
181.59757330637007
  0
LWPOLYLINE
  5
90
330
17
100
AcDbEntity
  8
DETAIL
100
AcDbPolyline
 90
2
 70
0
 10
44.08493427704752
 20
182.81092012133468
 10
42.46713852376137
 20
182.40647118301314
  0
LWPOLYLINE
  5
91
330
17
100
AcDbEntity
  8
DETAIL
100
AcDbPolyline
 90
3
 70
0
 10
32.76036400404449
 20
178.56420626895854
 10
33.16481294236603
 20
177.35085945399393
 10
32.96258847320526
 20
176.74418604651163
  0
LWPOLYLINE
  5
92
330
17
100
AcDbEntity
  8
DETAIL
100
AcDbPolyline
 90
4
 70
0
 10
34.17593528816987
 20
178.36198179979777
 10
34.98483316481294
 20
176.54196157735086
 10
34.78260869565217
 20
175.93528816986856
 10
34.17593528816987
 20
175.93528816986856
  0
LWPOLYLINE
  5
93
330
17
100
AcDbEntity
  8
DETAIL
100
AcDbPolyline
 90
2
 70
0
 10
32.96258847320526
 20
176.54196157735086
 10
32.55813953488372
 20
175.12639029322548
  0
LWPOLYLINE
  5
94
330
17
100
AcDbEntity
  8
DETAIL
100
AcDbPolyline
 90
2
 70
0
 10
97.26996966632962
 20
176.13751263902932
 10
97.26996966632962
 20
174.72194135490395
  0
LWPOLYLINE
  5
95
330
17
100
AcDbEntity
  8
DETAIL
100
AcDbPolyline
 90
4
 70
0
 10
31.749241658240646
 20
172.69969666329627
 10
32.153690596562186
 20
170.4752275025278
 10
31.951466127401414
 20
169.86855409504548
 10
32.153690596562186
 20
168.4529828109201
  0
LWPOLYLINE
  5
96
330
17
100
AcDbEntity
  8
DETAIL
100
AcDbPolyline
 90
3
 70
0
 10
106.3700707785642
 20
171.0819009100101
 10
106.3700707785642
 20
168.85743174924164
 10
106.77451971688573
 20
167.8463094034378
  0
LWPOLYLINE
  5
97
330
17
100
AcDbEntity
  8
DETAIL
100
AcDbPolyline
 90
2
 70
0
 10
29.120323559150656
 20
168.25075834175934
 10
27.704752275025278
 20
168.04853387259857
  0
LWPOLYLINE
  5
98
330
17
100
AcDbEntity
  8
DETAIL
100
AcDbPolyline
 90
2
 70
0
 10
26.895854398382202
 20
166.43073811931242
 10
26.289180990899897
 20
164.20626895854397
  0
LWPOLYLINE
  5
99
330
17
100
AcDbEntity
  8
DETAIL
100
AcDbPolyline
 90
3
 70
0
 10
34.78260869565217
 20
165.62184024266935
 10
33.56926188068756
 20
164.6107178968655
 10
33.56926188068756
 20
164.20626895854397
  0
LWPOLYLINE
  5
9A
330
17
100
AcDbEntity
  8
DETAIL
100
AcDbPolyline
 90
2
 70
0
 10
25.88473205257836
 20
163.80182002022244
 10
24.469160768452983
 20
162.7906976744186
  0
LWPOLYLINE
  5
9B
330
17
100
AcDbEntity
  8
DETAIL
100
AcDbPolyline
 90
3
 70
0
 10
31.547017189079877
 20
160.1617795753286
 10
32.355915065722954
 20
160.1617795753286
 10
32.55813953488372
 20
159.5551061678463
  0
LWPOLYLINE
  5
9C
330
17
100
AcDbEntity
  8
DETAIL
100
AcDbPolyline
 90
3
 70
0
 10
31.34479271991911
 20
159.95955510616784
 10
31.14256825075834
 20
158.54398382204246
 10
30.738119312436805
 20
157.93731041456016
  0
LWPOLYLINE
  5
9D
330
17
100
AcDbEntity
  8
DETAIL
100
AcDbPolyline
 90
3
 70
0
 10
22.649140546006066
 20
159.15065722952477
 10
22.24469160768453
 20
157.33063700707785
 10
21.840242669362993
 20
156.92618806875632
  0
LWPOLYLINE
  5
9E
330
17
100
AcDbEntity
  8
DETAIL
100
AcDbPolyline
 90
2
 70
0
 10
30.33367037411527
 20
157.33063700707785
 10
29.322548028311424
 20
155.51061678463094
  0
LWPOLYLINE
  5
9F
330
17
100
AcDbEntity
  8
DETAIL
100
AcDbPolyline
 90
2
 70
0
 10
114.25682507583417
 20
155.91506572295248
 10
115.06572295247724
 20
154.4994944388271
  0
LWPOLYLINE
  5
A0
330
17
100
AcDbEntity
  8
DETAIL
100
AcDbPolyline
 90
2
 70
0
 10
28.51365015166835
 20
153.8928210313448
 10
28.109201213346815
 20
152.07280080889788
  0
LWPOLYLINE
  5
A1
330
17
100
AcDbEntity
  8
DETAIL
100
AcDbPolyline
 90
2
 70
0
 10
115.87462082912032
 20
152.88169868554095
 10
116.88574317492416
 20
150.45500505561174
  0
LWPOLYLINE
  5
A2
330
17
100
AcDbEntity
  8
DETAIL
100
AcDbPolyline
 90
3
 70
0
 10
113.65015166835187
 20
149.84833164812943
 10
114.45904954499494
 20
148.6349848331648
 10
114.66127401415571
 20
147.62386248736095
  0
LWPOLYLINE
  5
A3
330
17
100
AcDbEntity
  8
DETAIL
100
AcDbPolyline
 90
3
 70
0
 10
117.49241658240646
 20
149.44388270980787
 10
118.09908998988877
 20
148.83720930232556
 10
118.30131445904954
 20
146.81496461071788
  0
LWPOLYLINE
  5
A4
330
17
100
AcDbEntity
  8
DETAIL
100
AcDbPolyline
 90
3
 70
0
 10
116.88574317492416
 20
148.83720930232556
 10
117.08796764408493
 20
147.21941354903942
 10
118.09908998988877
 20
146.6127401415571
  0
LWPOLYLINE
  5
A5
330
17
100
AcDbEntity
  8
DETAIL
100
AcDbPolyline
 90
3
 70
0
 10
119.51466127401414
 20
145.19716885743173
 10
120.32355915065722
 20
144.99494438827097
 10
120.72800808897875
 20
144.1860465116279
  0
LWPOLYLINE
  5
A6
330
17
100
AcDbEntity
  8
DETAIL
100
AcDbPolyline
 90
3
 70
0
 10
117.69464105156723
 20
144.59049544994943
 10
117.69464105156723
 20
143.78159757330636
 10
118.09908998988877
 20
143.17492416582405
  0
LWPOLYLINE
  5
A7
330
17
100
AcDbEntity
  8
DETAIL
100
AcDbPolyline
 90
4
 70
0
 10
118.70576339737107
 20
142.36602628918098
 10
118.70576339737107
 20
140.74823053589483
 10
119.31243680485338
 20
139.93933265925176
 10
119.71688574317491
 20
139.93933265925176
  0
LWPOLYLINE
  5
A8
330
17
100
AcDbEntity
  8
DETAIL
100
AcDbPolyline
 90
2
 70
0
 10
122.14357937310415
 20
142.1638018200202
 10
122.34580384226491
 20
140.14155712841253
  0
LWPOLYLINE
  5
A9
330
17
100
AcDbEntity
  8
DETAIL
100
AcDbPolyline
 90
2
 70
0
 10
16.177957532861477
 20
138.72598584428715
 10
16.582406471183013
 20
136.5015166835187
  0
LWPOLYLINE
  5
AA
330
17
100
AcDbEntity
  8
DETAIL
100
AcDbPolyline
 90
2
 70
0
 10
22.649140546006066
 20
136.90596562184024
 10
22.649140546006066
 20
135.2881698685541
  0
LWPOLYLINE
  5
AB
330
17
100
AcDbEntity
  8
DETAIL
100
AcDbPolyline
 90
2
 70
0
 10
17.593528816986854
 20
134.88372093023256
 10
18.20020222446916
 20
133.2659251769464
  0
LWPOLYLINE
  5
AC
330
17
100
AcDbEntity
  8
DETAIL
100
AcDbPolyline
 90
2
 70
0
 10
22.649140546006066
 20
134.88372093023256
 10
22.24469160768453
 20
133.2659251769464
  0
LWPOLYLINE
  5
AD
330
17
100
AcDbEntity
  8
DETAIL
100
AcDbPolyline
 90
2
 70
0
 10
22.04246713852376
 20
132.86147623862487
 10
21.840242669362993
 20
127.40141557128412
  0
LWPOLYLINE
  5
AE
330
17
100
AcDbEntity
  8
DETAIL
100
AcDbPolyline
 90
3
 70
0
 10
120.72800808897875
 20
132.0525783619818
 10
120.93023255813954
 20
131.04145601617796
 10
120.72800808897875
 20
130.63700707785642
  0
LWPOLYLINE
  5
AF
330
17
100
AcDbEntity
  8
DETAIL
100
AcDbPolyline
 90
4
 70
0
 10
120.52578361981799
 20
130.43478260869566
 10
120.32355915065722
 20
129.82810920121335
 10
120.52578361981799
 20
127.80586450960566
 10
121.33468149646107
 20
127.60364004044489
  0
LWPOLYLINE
  5
B0
330
17
100
AcDbEntity
  8
DETAIL
100
AcDbPolyline
 90
2
 70
0
 10
20.222446916076844
 20
128.00808897876644
 10
21.638018200202225
 20
127.19919110212335
  0
LWPOLYLINE
  5
B1
330
17
100
AcDbEntity
  8
DETAIL
100
AcDbPolyline
 90
6
 70
0
 10
21.840242669362993
 20
126.99696663296258
 10
21.840242669362993
 20
126.18806875631951
 10
22.446916076845298
 20
124.57027300303336
 10
22.446916076845298
 20
123.15470171890799
 10
23.053589484327603
 20
121.53690596562184
 10
23.45803842264914
 20
117.69464105156723
  0
LWPOLYLINE
  5
B2
330
17
100
AcDbEntity
  8
DETAIL
100
AcDbPolyline
 90
5
 70
0
 10
36.602628918099086
 20
121.73913043478261
 10
34.98483316481294
 20
121.94135490394338
 10
33.367037411526795
 20
120.93023255813954
 10
32.355915065722954
 20
121.1324570273003
 10
32.153690596562186
 20
120.93023255813954
  0
LWPOLYLINE
  5
B3
330
17
100
AcDbEntity
  8
DETAIL
100
AcDbPolyline
 90
3
 70
0
 10
37.00707785642062
 20
121.53690596562184
 10
37.411526794742166
 20
121.33468149646107
 10
39.43377148634985
 20
121.53690596562184
  0
LWPOLYLINE
  5
B4
330
17
100
AcDbEntity
  8
DETAIL
100
AcDbPolyline
 90
2
 70
0
 10
41.860465116279066
 20
120.32355915065722
 10
44.08493427704752
 20
119.91911021233568
  0
LWPOLYLINE
  5
B5
330
17
100
AcDbEntity
  8
DETAIL
100
AcDbPolyline
 90
6
 70
0
 10
44.893832153690596
 20
119.31243680485338
 10
45.5005055611729
 20
119.31243680485338
 10
47.52275025278058
 20
118.30131445904954
 10
49.74721941354904
 20
117.896865520728
 10
50.151668351870576
 20
117.49241658240646
 10
52.17391304347826
 20
117.2901921132457
  0
LWPOLYLINE
  5
B6
330
17
100
AcDbEntity
  8
DETAIL
100
AcDbPolyline
 90
2
 70
0
 10
95.04550050556117
 20
118.09908998988877
 10
96.46107178968654
 20
118.09908998988877
  0
LWPOLYLINE
  5
B7
330
17
100
AcDbEntity
  8
DETAIL
100
AcDbPolyline
 90
3
 70
0
 10
97.87664307381193
 20
118.09908998988877
 10
98.685540950455
 20
118.09908998988877
 10
99.29221435793731
 20
117.69464105156723
  0
LWPOLYLINE
  5
B8
330
17
100
AcDbEntity
  8
DETAIL
100
AcDbPolyline
 90
4
 70
0
 10
92.21435793731041
 20
117.2901921132457
 10
92.82103134479271
 20
118.09908998988877
 10
93.62992922143579
 20
118.09908998988877
 10
93.83215369059656
 20
117.2901921132457
  0
LWPOLYLINE
  5
B9
330
17
100
AcDbEntity
  8
DETAIL
100
AcDbPolyline
 90
2
 70
0
 10
92.01213346814964
 20
117.08796764408493
 10
90.59656218402426
 20
116.68351870576339
  0
LWPOLYLINE
  5
BA
330
17
100
AcDbEntity
  8
DETAIL
100
AcDbPolyline
 90
4
 70
0
 10
99.69666329625885
 20
116.68351870576339
 10
100.70778564206269
 20
116.48129423660262
 10
102.5278058645096
 20
116.68351870576339
 10
103.53892821031344
 20
116.27906976744185
  0
LWPOLYLINE
  5
BB
330
17
100
AcDbEntity
  8
DETAIL
100
AcDbPolyline
 90
2
 70
0
 10
41.6582406471183
 20
116.48129423660262
 10
44.28715874620829
 20
116.27906976744185
  0
LWPOLYLINE
  5
BC
330
17
100
AcDbEntity
  8
DETAIL
100
AcDbPolyline
 90
3
 70
0
 10
33.16481294236603
 20
116.27906976744185
 10
30.940343781597573
 20
116.48129423660262
 10
30.131445904954496
 20
116.07684529828109
  0
LWPOLYLINE
  5
BD
330
17
100
AcDbEntity
  8
DETAIL
100
AcDbPolyline
 90
2
 70
0
 10
33.56926188068756
 20
116.27906976744185
 10
36.804853387259854
 20
116.07684529828109
  0
LWPOLYLINE
  5
BE
330
17
100
AcDbEntity
  8
DETAIL
100
AcDbPolyline
 90
3
 70
0
 10
37.20930232558139
 20
116.27906976744185
 10
37.411526794742166
 20
116.48129423660262
 10
39.43377148634985
 20
116.27906976744185
  0
LWPOLYLINE
  5
BF
330
17
100
AcDbEntity
  8
DETAIL
100
AcDbPolyline
 90
2
 70
0
 10
39.635995955510616
 20
116.27906976744185
 10
41.25379170879676
 20
116.27906976744185
  0
LWPOLYLINE
  5
C0
330
17
100
AcDbEntity
  8
DETAIL
100
AcDbPolyline
 90
3
 70
0
 10
41.45601617795753
 20
116.27906976744185
 10
42.46713852376137
 20
115.06572295247724
 10
44.48938321536906
 20
114.66127401415571
  0
LWPOLYLINE
  5
C1
330
17
100
AcDbEntity
  8
DETAIL
100
AcDbPolyline
 90
3
 70
0
 10
107.58341759352881
 20
116.27906976744185
 10
108.19009100101111
 20
116.27906976744185
 10
108.59453993933265
 20
115.47017189079878
  0
LWPOLYLINE
  5
C2
330
17
100
AcDbEntity
  8
DETAIL
100
AcDbPolyline
 90
2
 70
0
 10
44.69160768452983
 20
116.07684529828109
 10
47.320525783619814
 20
114.86349848331648
  0
LWPOLYLINE
  5
C3
330
17
100
AcDbEntity
  8
DETAIL
100
AcDbPolyline
 90
3
 70
0
 10
103.94337714863498
 20
116.07684529828109
 10
105.96562184024266
 20
116.07684529828109
 10
106.77451971688573
 20
115.67239635995955
  0
LWPOLYLINE
  5
C4
330
17
100
AcDbEntity
  8
DETAIL
100
AcDbPolyline
 90
3
 70
0
 10
102.32558139534883
 20
115.87462082912032
 10
101.51668351870576
 20
115.67239635995955
 10
101.51668351870576
 20
114.86349848331648
  0
LWPOLYLINE
  5
C5
330
17
100
AcDbEntity
  8
DETAIL
100
AcDbPolyline
 90
3
 70
0
 10
82.30535894843275
 20
114.66127401415571
 10
82.10313447927199
 20
113.4479271991911
 10
82.30535894843275
 20
111.62790697674419
  0
LWPOLYLINE
  5
C6
330
17
100
AcDbEntity
  8
DETAIL
100
AcDbPolyline
 90
2
 70
0
 10
111.83013144590495
 20
114.45904954499494
 10
113.4479271991911
 20
114.25682507583417
  0
LWPOLYLINE
  5
C7
330
17
100
AcDbEntity
  8
DETAIL
100
AcDbPolyline
 90
5
 70
0
 10
101.51668351870576
 20
114.0546006066734
 10
104.34782608695652
 20
114.0546006066734
 10
104.55005055611728
 20
114.25682507583417
 10
106.16784630940343
 20
113.85237613751264
 10
106.57229524772497
 20
114.0546006066734
  0
LWPOLYLINE
  5
C8
330
17
100
AcDbEntity
  8
DETAIL
100
AcDbPolyline
 90
2
 70
0
 10
96.86552072800808
 20
113.85237613751264
 10
98.88776541961577
 20
113.65015166835187
  0
LWPOLYLINE
  5
C9
330
17
100
AcDbEntity
  8
DETAIL
100
AcDbPolyline
 90
3
 70
0
 10
96.25884732052577
 20
113.65015166835187
 10
95.24772497472193
 20
113.24570273003033
 10
93.02325581395348
 20
113.04347826086956
  0
LWPOLYLINE
  5
CA
330
17
100
AcDbEntity
  8
DETAIL
100
AcDbPolyline
 90
3
 70
0
 10
27.50252780586451
 20
112.8412537917088
 10
26.693629929221434
 20
112.03235591506572
 10
26.693629929221434
 20
111.22345803842265
  0
LWPOLYLINE
  5
CB
330
17
100
AcDbEntity
  8
DETAIL
100
AcDbPolyline
 90
2
 70
0
 10
113.65015166835187
 20
112.23458038422649
 10
110.81900910010111
 20
112.03235591506572
  0
LWPOLYLINE
  5
CC
330
17
100
AcDbEntity
  8
DETAIL
100
AcDbPolyline
 90
3
 70
0
 10
42.66936299292214
 20
111.62790697674419
 10
45.5005055611729
 20
111.62790697674419
 10
45.70273003033367
 20
111.22345803842265
  0
LWPOLYLINE
  5
CD
330
17
100
AcDbEntity
  8
DETAIL
100
AcDbPolyline
 90
2
 70
0
 10
40.04044489383215
 20
111.42568250758342
 10
41.860465116279066
 20
111.22345803842265
  0
LWPOLYLINE
  5
CE
330
17
100
AcDbEntity
  8
DETAIL
100
AcDbPolyline
 90
2
 70
0
 10
38.01820020222447
 20
111.22345803842265
 10
39.635995955510616
 20
111.22345803842265
  0
LWPOLYLINE
  5
CF
330
17
100
AcDbEntity
  8
DETAIL
100
AcDbPolyline
 90
3
 70
0
 10
42.062689585439834
 20
111.02123356926188
 10
42.2649140546006
 20
110.21233569261881
 10
43.073811931243675
 20
109.80788675429727
  0
LWPOLYLINE
  5
D0
330
17
100
AcDbEntity
  8
DETAIL
100
AcDbPolyline
 90
3
 70
0
 10
45.90495449949444
 20
111.02123356926188
 10
47.72497472194135
 20
110.81900910010111
 10
48.12942366026289
 20
110.41456016177958
  0
LWPOLYLINE
  5
D1
330
17
100
AcDbEntity
  8
DETAIL
100
AcDbPolyline
 90
2
 70
0
 10
35.38928210313448
 20
110.61678463094034
 10
37.20930232558139
 20
110.61678463094034
  0
LWPOLYLINE
  5
D2
330
17
100
AcDbEntity
  8
DETAIL
100
AcDbPolyline
 90
3
 70
0
 10
37.411526794742166
 20
110.41456016177958
 10
37.613751263902934
 20
109.20121334681495
 10
38.22042467138524
 20
108.59453993933265
  0
LWPOLYLINE
  5
D3
330
17
100
AcDbEntity
  8
DETAIL
100
AcDbPolyline
 90
3
 70
0
 10
128.00808897876644
 20
110.41456016177958
 10
127.60364004044489
 20
109.40343781597574
 10
127.60364004044489
 20
107.58341759352881
  0
LWPOLYLINE
  5
D4
330
17
100
AcDbEntity
  8
DETAIL
100
AcDbPolyline
 90
3
 70
0
 10
49.3427704752275
 20
110.21233569261881
 10
50.353892821031344
 20
110.01011122345804
 10
51.76946410515672
 20
109.20121334681495
  0
LWPOLYLINE
  5
D5
330
17
100
AcDbEntity
  8
DETAIL
100
AcDbPolyline
 90
3
 70
0
 10
91.80990899898887
 20
109.6056622851365
 10
98.48331648129424
 20
110.01011122345804
 10
100.10111223458038
 20
109.40343781597574
  0
LWPOLYLINE
  5
D6
330
17
100
AcDbEntity
  8
DETAIL
100
AcDbPolyline
 90
3
 70
0
 10
91.40546006066734
 20
109.40343781597574
 10
89.38321536905966
 20
108.99898887765418
 10
87.36097067745197
 20
107.98786653185034
  0
LWPOLYLINE
  5
D7
330
17
100
AcDbEntity
  8
DETAIL
100
AcDbPolyline
 90
2
 70
0
 10
52.376137512639026
 20
108.79676440849342
 10
53.791708796764404
 20
107.78564206268958
  0
LWPOLYLINE
  5
D8
330
17
100
AcDbEntity
  8
DETAIL
100
AcDbPolyline
 90
2
 70
0
 10
101.71890798786653
 20
108.79676440849342
 10
103.74115267947421
 20
108.39231547017188
  0
LWPOLYLINE
  5
D9
330
17
100
AcDbEntity
  8
DETAIL
100
AcDbPolyline
 90
5
 70
0
 10
38.42264914054601
 20
108.59453993933265
 10
39.23154701718908
 20
108.39231547017188
 10
39.838220424671384
 20
107.78564206268958
 10
40.44489383215369
 20
107.78564206268958
 10
41.05156723963599
 20
107.17896865520727
  0
LWPOLYLINE
  5
DA
330
17
100
AcDbEntity
  8
DETAIL
100
AcDbPolyline
 90
2
 70
0
 10
101.51668351870576
 20
108.59453993933265
 10
101.51668351870576
 20
106.57229524772497
  0
LWPOLYLINE
  5
DB
330
17
100
AcDbEntity
  8
DETAIL
100
AcDbPolyline
 90
3
 70
0
 10
44.69160768452983
 20
108.19009100101111
 10
42.46713852376137
 20
108.19009100101111
 10
41.860465116279066
 20
107.78564206268958
  0
LWPOLYLINE
  5
DC
330
17
100
AcDbEntity
  8
DETAIL
100
AcDbPolyline
 90
2
 70
0
 10
37.8159757330637
 20
107.98786653185034
 10
36.40040444893832
 20
107.58341759352881
  0
LWPOLYLINE
  5
DD
330
17
100
AcDbEntity
  8
DETAIL
100
AcDbPolyline
 90
2
 70
0
 10
86.95652173913044
 20
107.78564206268958
 10
85.54095045500505
 20
107.17896865520727
  0
LWPOLYLINE
  5
DE
330
17
100
AcDbEntity
  8
DETAIL
100
AcDbPolyline
 90
2
 70
0
 10
45.90495449949444
 20
107.58341759352881
 10
47.52275025278058
 20
107.38119312436804
  0
LWPOLYLINE
  5
DF
330
17
100
AcDbEntity
  8
DETAIL
100
AcDbPolyline
 90
4
 70
0
 10
41.05156723963599
 20
107.17896865520727
 10
40.849342770475225
 20
105.96562184024266
 10
41.05156723963599
 20
103.53892821031344
 10
41.860465116279066
 20
102.5278058645096
  0
LWPOLYLINE
  5
E0
330
17
100
AcDbEntity
  8
DETAIL
100
AcDbPolyline
 90
3
 70
0
 10
49.54499494438827
 20
106.9767441860465
 10
50.75834175935288
 20
106.9767441860465
 10
51.365015166835185
 20
105.96562184024266
  0
LWPOLYLINE
  5
E1
330
17
100
AcDbEntity
  8
DETAIL
100
AcDbPolyline
 90
3
 70
0
 10
94.43882709807886
 20
106.3700707785642
 10
96.25884732052577
 20
106.57229524772497
 10
99.08998988877654
 20
106.3700707785642
  0
LWPOLYLINE
  5
E2
330
17
100
AcDbEntity
  8
DETAIL
100
AcDbPolyline
 90
2
 70
0
 10
49.140546006066735
 20
105.7633973710819
 10
51.16279069767442
 20
105.7633973710819
  0
LWPOLYLINE
  5
E3
330
17
100
AcDbEntity
  8
DETAIL
100
AcDbPolyline
 90
3
 70
0
 10
48.93832153690597
 20
105.56117290192113
 10
48.73609706774519
 20
104.14560161779575
 10
48.12942366026289
 20
102.93225480283114
  0
LWPOLYLINE
  5
E4
330
17
100
AcDbEntity
  8
DETAIL
100
AcDbPolyline
 90
2
 70
0
 10
51.76946410515672
 20
105.56117290192113
 10
53.1850353892821
 20
104.34782608695652
  0
LWPOLYLINE
  5
E5
330
17
100
AcDbEntity
  8
DETAIL
100
AcDbPolyline
 90
2
 70
0
 10
99.89888776541962
 20
105.56117290192113
 10
99.69666329625885
 20
104.14560161779575
  0
LWPOLYLINE
  5
E6
330
17
100
AcDbEntity
  8
DETAIL
100
AcDbPolyline
 90
3
 70
0
 10
102.73003033367037
 20
105.35894843276036
 10
103.1344792719919
 20
105.35894843276036
 10
104.14560161779575
 20
104.55005055611728
  0
LWPOLYLINE
  5
E7
330
17
100
AcDbEntity
  8
DETAIL
100
AcDbPolyline
 90
3
 70
0
 10
88.16986855409505
 20
104.75227502527805
 10
89.98988877654196
 20
105.35894843276036
 10
91.0010111223458
 20
104.75227502527805
  0
LWPOLYLINE
  5
E8
330
17
100
AcDbEntity
  8
DETAIL
100
AcDbPolyline
 90
2
 70
0
 10
91.0010111223458
 20
104.55005055611728
 10
91.20323559150657
 20
101.9211324570273
  0
LWPOLYLINE
  5
E9
330
17
100
AcDbEntity
  8
DETAIL
100
AcDbPolyline
 90
3
 70
0
 10
121.33468149646107
 20
104.14560161779575
 10
120.12133468149645
 20
103.74115267947421
 10
119.71688574317491
 20
100.91001011122346
  0
LWPOLYLINE
  5
EA
330
17
100
AcDbEntity
  8
DETAIL
100
AcDbPolyline
 90
3
 70
0
 10
129.82810920121335
 20
103.94337714863498
 10
130.03033367037412
 20
103.33670374115268
 10
131.04145601617796
 20
102.93225480283114
  0
LWPOLYLINE
  5
EB
330
17
100
AcDbEntity
  8
DETAIL
100
AcDbPolyline
 90
2
 70
0
 10
105.35894843276036
 20
103.1344792719919
 10
106.77451971688573
 20
102.73003033367037
  0
LWPOLYLINE
  5
EC
330
17
100
AcDbEntity
  8
DETAIL
100
AcDbPolyline
 90
2
 70
0
 10
99.08998988877654
 20
102.93225480283114
 10
98.685540950455
 20
101.51668351870576
  0
LWPOLYLINE
  5
ED
330
17
100
AcDbEntity
  8
DETAIL
100
AcDbPolyline
 90
3
 70
0
 10
104.75227502527805
 20
102.73003033367037
 10
104.75227502527805
 20
101.51668351870576
 10
103.94337714863498
 20
100.70778564206269
  0
LWPOLYLINE
  5
EE
330
17
100
AcDbEntity
  8
DETAIL
100
AcDbPolyline
 90
4
 70
0
 10
47.52275025278058
 20
102.12335692618807
 10
45.5005055611729
 20
101.314459049545
 10
43.882709807886755
 20
101.314459049545
 10
42.66936299292214
 20
101.71890798786653
  0
LWPOLYLINE
  5
EF
330
17
100
AcDbEntity
  8
DETAIL
100
AcDbPolyline
 90
3
 70
0
 10
126.79474216380181
 20
102.12335692618807
 10
126.18806875631951
 20
102.5278058645096
 10
124.57027300303336
 20
101.9211324570273
  0
LWPOLYLINE
  5
F0
330
17
100
AcDbEntity
  8
DETAIL
100
AcDbPolyline
 90
2
 70
0
 10
124.16582406471183
 20
101.51668351870576
 10
124.57027300303336
 20
97.87664307381193
  0
LWPOLYLINE
  5
F1
330
17
100
AcDbEntity
  8
DETAIL
100
AcDbPolyline
 90
5
 70
0
 10
48.93832153690597
 20
101.11223458038423
 10
50.353892821031344
 20
101.314459049545
 10
51.16279069767442
 20
100.91001011122346
 10
52.98281092012133
 20
100.70778564206269
 10
53.38725985844287
 20
100.91001011122346
  0
LWPOLYLINE
  5
F2
330
17
100
AcDbEntity
  8
DETAIL
100
AcDbPolyline
 90
2
 70
0
 10
108.59453993933265
 20
101.11223458038423
 10
108.99898887765418
 20
98.88776541961577
  0
LWPOLYLINE
  5
F3
330
17
100
AcDbEntity
  8
DETAIL
100
AcDbPolyline
 90
3
 70
0
 10
127.40141557128412
 20
101.11223458038423
 10
127.60364004044489
 20
100.70778564206269
 10
127.60364004044489
 20
96.46107178968654
  0
LWPOLYLINE
  5
F4
330
17
100
AcDbEntity
  8
DETAIL
100
AcDbPolyline
 90
2
 70
0
 10
53.791708796764404
 20
100.91001011122346
 10
55.81395348837209
 20
100.91001011122346
  0
LWPOLYLINE
  5
F5
330
17
100
AcDbEntity
  8
DETAIL
100
AcDbPolyline
 90
9
 70
0
 10
19.211324570273003
 20
100.70778564206269
 10
19.61577350859454
 20
102.5278058645096
 10
20.222446916076844
 20
103.33670374115268
 10
21.840242669362993
 20
103.1344792719919
 10
22.446916076845298
 20
102.73003033367037
 10
22.851365015166834
 20
101.9211324570273
 10
22.851365015166834
 20
100.10111223458038
 10
21.840242669362993
 20
96.86552072800808
 10
21.233569261880685
 20
96.46107178968654
  0
LWPOLYLINE
  5
F6
330
17
100
AcDbEntity
  8
DETAIL
100
AcDbPolyline
 90
2
 70
0
 10
119.91911021233568
 20
100.70778564206269
 10
120.52578361981799
 20
98.88776541961577
  0
LWPOLYLINE
  5
F7
330
17
100
AcDbEntity
  8
DETAIL
100
AcDbPolyline
 90
3
 70
0
 10
19.009100101112235
 20
100.30333670374115
 10
18.806875631951467
 20
98.685540950455
 10
19.009100101112235
 20
96.66329625884731
  0
LWPOLYLINE
  5
F8
330
17
100
AcDbEntity
  8
DETAIL
100
AcDbPolyline
 90
3
 70
0
 10
119.31243680485338
 20
100.30333670374115
 10
119.31243680485338
 20
99.49443882709808
 10
120.32355915065722
 20
98.685540950455
  0
LWPOLYLINE
  5
F9
330
17
100
AcDbEntity
  8
DETAIL
100
AcDbPolyline
 90
3
 70
0
 10
103.33670374115268
 20
100.10111223458038
 10
100.70778564206269
 20
100.10111223458038
 10
100.30333670374115
 20
99.69666329625885
  0
LWPOLYLINE
  5
FA
330
17
100
AcDbEntity
  8
DETAIL
100
AcDbPolyline
 90
3
 70
0
 10
92.82103134479271
 20
99.89888776541962
 10
94.23660262891809
 20
99.49443882709808
 10
97.06774519716885
 20
99.89888776541962
  0
LWPOLYLINE
  5
FB
330
17
100
AcDbEntity
  8
DETAIL
100
AcDbPolyline
 90
4
 70
0
 10
83.51870576339736
 20
99.69666329625885
 10
85.54095045500505
 20
99.69666329625885
 10
85.74317492416581
 20
99.89888776541962
 10
88.37209302325581
 20
99.69666329625885
  0
LWPOLYLINE
  5
FC
330
17
100
AcDbEntity
  8
DETAIL
100
AcDbPolyline
 90
4
 70
0
 10
120.72800808897875
 20
97.87664307381193
 10
121.53690596562184
 20
97.67441860465115
 10
122.14357937310415
 20
97.06774519716885
 10
123.15470171890799
 20
92.21435793731041
  0
LWPOLYLINE
  5
FD
330
17
100
AcDbEntity
  8
DETAIL
100
AcDbPolyline
 90
2
 70
0
 10
120.52578361981799
 20
97.67441860465115
 10
120.12133468149645
 20
95.85439838220424
  0
LWPOLYLINE
  5
FE
330
17
100
AcDbEntity
  8
DETAIL
100
AcDbPolyline
 90
3
 70
0
 10
100.50556117290192
 20
97.47219413549038
 10
99.49443882709808
 20
97.47219413549038
 10
99.29221435793731
 20
97.06774519716885
  0
LWPOLYLINE
  5
FF
330
17
100
AcDbEntity
  8
DETAIL
100
AcDbPolyline
 90
2
 70
0
 10
19.211324570273003
 20
96.46107178968654
 10
21.031344792719917
 20
96.46107178968654
  0
LWPOLYLINE
  5
100
330
17
100
AcDbEntity
  8
DETAIL
100
AcDbPolyline
 90
4
 70
0
 10
19.009100101112235
 20
96.25884732052577
 10
19.211324570273003
 20
93.83215369059656
 10
20.020222446916076
 20
91.6076845298281
 10
20.222446916076844
 20
88.77654196157735
  0
LWPOLYLINE
  5
101
330
17
100
AcDbEntity
  8
DETAIL
100
AcDbPolyline
 90
3
 70
0
 10
124.9747219413549
 20
96.25884732052577
 10
124.9747219413549
 20
95.24772497472193
 10
125.5813953488372
 20
94.64105156723963
  0
LWPOLYLINE
  5
102
330
17
100
AcDbEntity
  8
DETAIL
100
AcDbPolyline
 90
3
 70
0
 10
119.31243680485338
 20
94.64105156723963
 10
119.51466127401414
 20
92.82103134479271
 10
120.32355915065722
 20
92.01213346814964
  0
LWPOLYLINE
  5
103
330
17
100
AcDbEntity
  8
DETAIL
100
AcDbPolyline
 90
2
 70
0
 10
125.78361981799797
 20
94.43882709807886
 10
125.98584428715874
 20
89.18099089989889
  0
LWPOLYLINE
  5
104
330
17
100
AcDbEntity
  8
DETAIL
100
AcDbPolyline
 90
3
 70
0
 10
120.52578361981799
 20
92.01213346814964
 10
120.93023255813954
 20
92.01213346814964
 10
121.94135490394338
 20
91.20323559150657
  0
LWPOLYLINE
  5
105
330
17
100
AcDbEntity
  8
DETAIL
100
AcDbPolyline
 90
2
 70
0
 10
120.32355915065722
 20
91.80990899898887
 10
119.91911021233568
 20
90.3943377148635
  0
LWPOLYLINE
  5
106
330
17
100
AcDbEntity
  8
DETAIL
100
AcDbPolyline
 90
2
 70
0
 10
123.35692618806875
 20
91.80990899898887
 10
123.55915065722952
 20
89.18099089989889
  0
LWPOLYLINE
  5
107
330
17
100
AcDbEntity
  8
DETAIL
100
AcDbPolyline
 90
4
 70
0
 10
125.98584428715874
 20
88.77654196157735
 10
126.18806875631951
 20
88.57431749241658
 10
126.18806875631951
 20
86.34984833164813
 10
125.5813953488372
 20
83.72093023255813
  0
LWPOLYLINE
  5
108
330
17
100
AcDbEntity
  8
DETAIL
100
AcDbPolyline
 90
2
 70
0
 10
22.851365015166834
 20
86.95652173913044
 10
23.45803842264914
 20
82.10313447927199
  0
LWPOLYLINE
  5
109
330
17
100
AcDbEntity
  8
DETAIL
100
AcDbPolyline
 90
3
 70
0
 10
82.10313447927199
 20
78.46309403437816
 10
81.49646107178968
 20
78.05864509605662
 10
81.90091001011122
 20
76.84529828109201
  0
LWPOLYLINE
  5
10A
330
17
100
AcDbEntity
  8
DETAIL
100
AcDbPolyline
 90
3
 70
0
 10
82.10313447927199
 20
76.44084934277048
 10
83.11425682507583
 20
73.0030333670374
 10
82.91203235591506
 20
70.77856420626895
  0
LWPOLYLINE
  5
10B
330
17
100
AcDbEntity
  8
DETAIL
100
AcDbPolyline
 90
4
 70
0
 10
115.67239635995955
 20
73.20525783619817
 10
115.47017189079878
 20
71.38523761375126
 10
114.86349848331648
 20
70.57633973710819
 10
114.86349848331648
 20
69.76744186046511
  0
LWPOLYLINE
  5
10C
330
17
100
AcDbEntity
  8
DETAIL
100
AcDbPolyline
 90
2
 70
0
 10
76.64307381193125
 20
67.3407482305359
 10
74.82305358948433
 20
66.93629929221436
  0
LWPOLYLINE
  5
10D
330
17
100
AcDbEntity
  8
DETAIL
100
AcDbPolyline
 90
3
 70
0
 10
70.37411526794742
 20
65.92517694641052
 10
69.36299292214358
 20
65.52072800808898
 10
66.53185035389282
 20
65.52072800808898
  0
LWPOLYLINE
  5
10E
330
17
100
AcDbEntity
  8
DETAIL
100
AcDbPolyline
 90
5
 70
0
 10
69.16076845298281
 20
61.67846309403438
 10
69.16076845298281
 20
60.46511627906977
 10
68.75631951466127
 20
59.65621840242669
 10
68.75631951466127
 20
57.836198179979775
 10
69.16076845298281
 20
56.4206268958544
  0
LWPOLYLINE
  5
10F
330
17
100
AcDbEntity
  8
DETAIL
100
AcDbPolyline
 90
2
 70
0
 10
72.80080889787664
 20
60.26289180990899
 10
70.98078867542972
 20
59.65621840242669
  0
LWPOLYLINE
  5
110
330
17
100
AcDbEntity
  8
DETAIL
100
AcDbPolyline
 90
3
 70
0
 10
32.153690596562186
 20
59.049544994944384
 10
32.153690596562186
 20
56.825075834175934
 10
32.355915065722954
 20
56.622851365015165
  0
LWPOLYLINE
  5
111
330
17
100
AcDbEntity
  8
DETAIL
100
AcDbPolyline
 90
2
 70
0
 10
79.474216380182
 20
56.01617795753286
 10
79.474216380182
 20
53.791708796764404
  0
LWPOLYLINE
  5
112
330
17
100
AcDbEntity
  8
DETAIL
100
AcDbPolyline
 90
3
 70
0
 10
72.3963599595551
 20
52.78058645096056
 10
73.40748230535894
 20
52.78058645096056
 10
74.01415571284124
 20
51.76946410515672
  0
LWPOLYLINE
  5
113
330
17
100
AcDbEntity
  8
DETAIL
100
AcDbPolyline
 90
2
 70
0
 10
58.44287158746208
 20
52.578361981799794
 10
57.0273003033367
 20
52.17391304347826
  0
LWPOLYLINE
  5
114
330
17
100
AcDbEntity
  8
DETAIL
100
AcDbPolyline
 90
4
 70
0
 10
66.32962588473205
 20
51.97168857431749
 10
68.35187057633973
 20
51.76946410515672
 10
70.17189079878665
 20
52.376137512639026
 10
71.58746208291203
 20
51.97168857431749
  0
LWPOLYLINE
  5
115
330
17
100
AcDbEntity
  8
DETAIL
100
AcDbPolyline
 90
3
 70
0
 10
71.7896865520728
 20
51.97168857431749
 10
72.19413549039433
 20
51.56723963599595
 10
73.81193124368048
 20
51.56723963599595
  0
LWPOLYLINE
  5
116
330
17
100
AcDbEntity
  8
DETAIL
100
AcDbPolyline
 90
2
 70
0
 10
88.37209302325581
 20
51.365015166835185
 10
89.78766430738119
 20
51.16279069767442
  0
LWPOLYLINE
  5
117
330
17
100
AcDbEntity
  8
DETAIL
100
AcDbPolyline
 90
3
 70
0
 10
77.65419615773509
 20
50.353892821031344
 10
78.26086956521739
 20
49.3427704752275
 10
78.26086956521739
 20
48.53387259858442
  0
LWPOLYLINE
  5
118
330
17
100
AcDbEntity
  8
DETAIL
100
AcDbPolyline
 90
6
 70
0
 10
65.31850353892821
 20
49.54499494438827
 10
62.48736097067745
 20
49.94944388270981
 10
60.060667340748225
 20
49.94944388270981
 10
53.99393326592517
 20
49.3427704752275
 10
52.78058645096056
 20
49.54499494438827
 10
51.16279069767442
 20
49.3427704752275
  0
LWPOLYLINE
  5
119
330
17
100
AcDbEntity
  8
DETAIL
100
AcDbPolyline
 90
3
 70
0
 10
83.51870576339736
 20
49.54499494438827
 10
83.11425682507583
 20
49.140546006066735
 10
83.11425682507583
 20
47.92719919110212
  0
LWPOLYLINE
  5
11A
330
17
100
AcDbEntity
  8
DETAIL
100
AcDbPolyline
 90
3
 70
0
 10
66.32962588473205
 20
49.140546006066735
 10
69.56521739130434
 20
49.140546006066735
 10
72.3963599595551
 20
48.73609706774519
  0
LWPOLYLINE
  5
11B
330
17
100
AcDbEntity
  8
DETAIL
100
AcDbPolyline
 90
2
 70
0
 10
72.80080889787664
 20
48.53387259858442
 10
74.41860465116278
 20
48.331648129423655
  0
LWPOLYLINE
  5
11C
330
17
100
AcDbEntity
  8
DETAIL
100
AcDbPolyline
 90
3
 70
0
 10
78.26086956521739
 20
48.53387259858442
 10
78.05864509605662
 20
48.331648129423655
 10
74.82305358948433
 20
48.331648129423655
  0
LWPOLYLINE
  5
11D
330
17
100
AcDbEntity
  8
DETAIL
100
AcDbPolyline
 90
3
 70
0
 10
78.26086956521739
 20
48.53387259858442
 10
80.28311425682507
 20
47.92719919110212
 10
82.91203235591506
 20
47.72497472194135
  0
LWPOLYLINE
  5
11E
330
17
100
AcDbEntity
  8
DETAIL
100
AcDbPolyline
 90
3
 70
0
 10
74.62082912032355
 20
48.12942366026289
 10
74.62082912032355
 20
47.52275025278058
 10
74.01415571284124
 20
46.30940343781597
  0
LWPOLYLINE
  5
11F
330
17
100
AcDbEntity
  8
DETAIL
100
AcDbPolyline
 90
5
 70
0
 10
83.11425682507583
 20
47.72497472194135
 10
85.13650151668351
 20
47.52275025278058
 10
86.5520728008089
 20
46.91607684529828
 10
87.76541961577351
 20
46.91607684529828
 10
88.16986855409505
 20
46.51162790697674
  0
LWPOLYLINE
  5
120
330
17
100
AcDbEntity
  8
DETAIL
100
AcDbPolyline
 90
2
 70
0
 10
71.99191102123356
 20
46.107178968655205
 10
72.19413549039433
 20
44.69160768452983
  0
LWPOLYLINE
  5
121
330
17
100
AcDbEntity
  8
DETAIL
100
AcDbPolyline
 90
2
 70
0
 10
60.060667340748225
 20
42.87158746208291
 10
62.89180990899899
 20
42.66936299292214
  0
LWPOLYLINE
  5
122
330
17
100
AcDbEntity
  8
DETAIL
100
AcDbPolyline
 90
3
 70
0
 10
69.56521739130434
 20
42.062689585439834
 10
72.19413549039433
 20
41.6582406471183
 10
74.82305358948433
 20
41.6582406471183
  0
LWPOLYLINE
  5
123
330
17
100
AcDbEntity
  8
DETAIL
100
AcDbPolyline
 90
4
 70
0
 10
42.66936299292214
 20
41.45601617795753
 10
42.062689585439834
 20
39.43377148634985
 10
42.2649140546006
 20
38.82709807886754
 10
42.062689585439834
 20
36.804853387259854
  0
LWPOLYLINE
  5
124
330
17
100
AcDbEntity
  8
DETAIL
100
AcDbPolyline
 90
3
 70
0
 10
42.2649140546006
 20
36.40040444893832
 10
42.2649140546006
 20
35.18705763397371
 10
41.860465116279066
 20
34.580384226491404
  0
LWPOLYLINE
  5
125
330
17
100
AcDbEntity
  8
DETAIL
100
AcDbPolyline
 90
2
 70
0
 10
92.21435793731041
 20
36.40040444893832
 10
90.79878665318503
 20
35.18705763397371
  0
LWPOLYLINE
  5
126
330
17
100
AcDbEntity
  8
DETAIL
100
AcDbPolyline
 90
2
 70
0
 10
87.76541961577351
 20
35.79373104145601
 10
87.76541961577351
 20
34.17593528816987
  0
LWPOLYLINE
  5
127
330
17
100
AcDbEntity
  8
DETAIL
100
AcDbPolyline
 90
2
 70
0
 10
94.03437815975732
 20
35.79373104145601
 10
93.83215369059656
 20
34.17593528816987
  0
LWPOLYLINE
  5
128
330
17
100
AcDbEntity
  8
DETAIL
100
AcDbPolyline
 90
2
 70
0
 10
41.860465116279066
 20
34.17593528816987
 10
41.860465116279066
 20
32.153690596562186
  0
LWPOLYLINE
  5
129
330
17
100
AcDbEntity
  8
DETAIL
100
AcDbPolyline
 90
2
 70
0
 10
40.04044489383215
 20
33.56926188068756
 10
40.24266936299292
 20
32.153690596562186
  0
LWPOLYLINE
  5
12A
330
17
100
AcDbEntity
  8
DETAIL
100
AcDbPolyline
 90
3
 70
0
 10
91.40546006066734
 20
30.33367037411527
 10
92.82103134479271
 20
30.33367037411527
 10
93.22548028311425
 20
29.72699696663296
  0
LWPOLYLINE
  5
12B
330
17
100
AcDbEntity
  8
DETAIL
100
AcDbPolyline
 90
3
 70
0
 10
91.20323559150657
 20
30.131445904954496
 10
91.0010111223458
 20
29.120323559150656
 10
91.20323559150657
 20
28.311425682507583
  0
LWPOLYLINE
  5
12C
330
17
100
AcDbEntity
  8
DETAIL
100
AcDbPolyline
 90
3
 70
0
 10
43.073811931243675
 20
29.92922143579373
 10
43.073811931243675
 20
29.120323559150656
 10
43.882709807886755
 20
27.906976744186046
  0
LWPOLYLINE
  5
12D
330
17
100
AcDbEntity
  8
DETAIL
100
AcDbPolyline
 90
2
 70
0
 10
93.22548028311425
 20
29.72699696663296
 10
92.61880687563195
 20
28.109201213346815
  0
LWPOLYLINE
  5
12E
330
17
100
AcDbEntity
  8
DETAIL
100
AcDbPolyline
 90
3
 70
0
 10
92.41658240647118
 20
27.704752275025278
 10
92.41658240647118
 20
27.09807886754297
 10
91.80990899898887
 20
25.88473205257836
  0
LWPOLYLINE
  5
12F
330
17
100
AcDbEntity
  8
DETAIL
100
AcDbPolyline
 90
3
 70
0
 10
84.12537917087967
 20
27.09807886754297
 10
84.12537917087967
 20
26.491405460060665
 10
84.73205257836197
 20
25.682507583417593
  0
LWPOLYLINE
  5
130
330
17
100
AcDbEntity
  8
DETAIL
100
AcDbPolyline
 90
3
 70
0
 10
48.12942366026289
 20
26.491405460060665
 10
47.320525783619814
 20
26.08695652173913
 10
45.70273003033367
 20
26.08695652173913
  0
LWPOLYLINE
  5
131
330
17
100
AcDbEntity
  8
DETAIL
100
AcDbPolyline
 90
2
 70
0
 10
51.365015166835185
 20
25.682507583417593
 10
51.16279069767442
 20
24.064711830131444
  0
LWPOLYLINE
  5
132
330
17
100
AcDbEntity
  8
DETAIL
100
AcDbPolyline
 90
3
 70
0
 10
85.33872598584428
 20
25.480283114256824
 10
85.94539939332658
 20
24.26693629929221
 10
85.74317492416581
 20
23.45803842264914
  0
LWPOLYLINE
  5
133
330
17
100
AcDbEntity
  8
DETAIL
100
AcDbPolyline
 90
2
 70
0
 10
83.51870576339736
 20
24.87360970677452
 10
83.72093023255813
 20
22.649140546006066
  0
LWPOLYLINE
  5
134
330
17
100
AcDbEntity
  8
DETAIL
100
AcDbPolyline
 90
5
 70
0
 10
50.96056622851365
 20
24.064711830131444
 10
49.74721941354904
 20
23.660262891809907
 10
47.92719919110212
 20
23.862487360970675
 10
46.30940343781597
 20
23.660262891809907
 10
46.107178968655205
 20
23.862487360970675
  0
LWPOLYLINE
  5
135
330
17
100
AcDbEntity
  8
DETAIL
100
AcDbPolyline
 90
3
 70
0
 10
88.77654196157735
 20
23.053589484327603
 10
88.16986855409505
 20
23.053589484327603
 10
87.1587462082912
 20
22.446916076845298
  0
LWPOLYLINE
  5
136
330
17
100
AcDbEntity
  8
DETAIL
100
AcDbPolyline
 90
2
 70
0
 10
77.45197168857432
 20
21.233569261880685
 10
77.45197168857432
 20
19.61577350859454
  0
LWPOLYLINE
  5
137
330
17
100
AcDbEntity
  8
DETAIL
100
AcDbPolyline
 90
3
 70
0
 10
64.50960566228514
 20
20.62689585439838
 10
64.30738119312437
 20
20.020222446916076
 10
64.50960566228514
 20
17.593528816986854
  0
LWPOLYLINE
  5
138
330
17
100
AcDbEntity
  8
DETAIL
100
AcDbPolyline
 90
3
 70
0
 10
56.01617795753286
 20
20.424671385237612
 10
56.21840242669363
 20
20.222446916076844
 10
57.43174924165824
 20
20.424671385237612
  0
LWPOLYLINE
  5
139
330
17
100
AcDbEntity
  8
DETAIL
100
AcDbPolyline
 90
2
 70
0
 10
80.48533872598584
 20
19.009100101112235
 10
79.87866531850354
 20
17.593528816986854
  0
LWPOLYLINE
  5
13A
330
17
100
AcDbEntity
  8
DETAIL
100
AcDbPolyline
 90
3
 70
0
 10
61.47623862487361
 20
18.20020222446916
 10
62.48736097067745
 20
17.99797775530839
 10
62.89180990899899
 20
17.593528816986854
  0
LWPOLYLINE
  5
13B
330
17
100
AcDbEntity
  8
DETAIL
100
AcDbPolyline
 90
3
 70
0
 10
64.71183013144591
 20
17.391304347826086
 10
65.11627906976744
 20
17.189079878665318
 10
66.53185035389282
 20
17.391304347826086
  0
LWPOLYLINE
  5
13C
330
17
100
AcDbEntity
  8
DETAIL
100
AcDbPolyline
 90
5
 70
0
 10
66.53185035389282
 20
17.391304347826086
 10
67.13852376137513
 20
16.78463094034378
 10
68.75631951466127
 20
16.78463094034378
 10
69.56521739130434
 20
16.177957532861477
 10
71.7896865520728
 20
16.177957532861477
  0
LWPOLYLINE
  5
13D
330
17
100
AcDbEntity
  8
DETAIL
100
AcDbPolyline
 90
2
 70
0
 10
77.24974721941355
 20
17.189079878665318
 10
79.27199191102123
 20
17.189079878665318
  0
LWPOLYLINE
  5
13E
330
17
100
AcDbEntity
  8
DETAIL
100
AcDbPolyline
 90
2
 70
0
 10
77.04752275025278
 20
16.98685540950455
 10
76.84529828109201
 20
15.369059656218402
  0
LWPOLYLINE
  5
13F
330
17
100
AcDbEntity
  8
DETAIL
100
AcDbPolyline
 90
5
 70
0
 10
72.59858442871587
 20
16.582406471183013
 10
72.80080889787664
 20
16.380182002022245
 10
74.01415571284124
 20
16.582406471183013
 10
75.42972699696664
 20
16.380182002022245
 10
75.6319514661274
 20
16.582406471183013
  0
LWPOLYLINE
  5
140
330
17
100
AcDbEntity
  8
RAHMEN
100
AcDbPolyline
 90
4
 70
1
 10
-10.0
 20
-10.0
 10
155.3993933265925
 20
-10.0
 10
155.3993933265925
 20
210.0
 10
-10.0
 20
210.0
  0
ENDSEC
  0
SECTION
  2
OBJECTS
  0
DICTIONARY
  5
A
330
0
100
AcDbDictionary
281
1
  3
ACAD_COLOR
350
B
  3
ACAD_GROUP
350
C
  3
ACAD_LAYOUT
350
D
  3
ACAD_MATERIAL
350
E
  3
ACAD_MLEADERSTYLE
350
F
  3
ACAD_MLINESTYLE
350
10
  3
ACAD_PLOTSETTINGS
350
11
  3
ACAD_PLOTSTYLENAME
350
12
  3
ACAD_SCALELIST
350
14
  3
ACAD_TABLESTYLE
350
15
  3
ACAD_VISUALSTYLE
350
16
  3
EZDXF_META
350
2D
  0
DICTIONARY
  5
B
330
A
100
AcDbDictionary
281
1
  0
DICTIONARY
  5
C
330
A
100
AcDbDictionary
281
1
  0
DICTIONARY
  5
D
330
A
100
AcDbDictionary
281
1
  3
Model
350
1A
  3
Layout1
350
1E
  0
DICTIONARY
  5
E
330
A
100
AcDbDictionary
281
1
  3
ByBlock
350
1F
  3
ByLayer
350
20
  3
Global
350
21
  0
DICTIONARY
  5
F
330
A
100
AcDbDictionary
281
1
  3
Standard
350
2C
  0
DICTIONARY
  5
10
330
A
100
AcDbDictionary
281
1
  3
Standard
350
22
  0
DICTIONARY
  5
11
330
A
100
AcDbDictionary
281
1
  0
ACDBDICTIONARYWDFLT
  5
12
330
A
100
AcDbDictionary
281
1
  3
Normal
350
13
100
AcDbDictionaryWithDefault
340
13
  0
ACDBPLACEHOLDER
  5
13
330
12
  0
DICTIONARY
  5
14
330
A
100
AcDbDictionary
281
1
  0
DICTIONARY
  5
15
330
A
100
AcDbDictionary
281
1
  0
DICTIONARY
  5
16
330
A
100
AcDbDictionary
281
1
  3
2dWireframe
350
5A
  3
Basic
350
5B
  3
Brighten
350
5C
  3
ColorChange
350
5D
  3
Conceptual
350
5E
  3
Dim
350
5F
  3
EdgeColorOff
350
60
  3
Facepattern
350
61
  3
Flat
350
62
  3
FlatWithEdges
350
63
  3
Gouraud
350
64
  3
GouraudWithEdges
350
65
  3
Hidden
350
66
  3
JitterOff
350
67
  3
Linepattern
350
68
  3
Modeling
350
69
  3
OverhangOff
350
6A
  3
Realistic
350
6B
  3
Shaded
350
6C
  3
Shaded with edges
350
6D
  3
Shades of Gray
350
6E
  3
Sketchy
350
6F
  3
Thicken
350
70
  3
Wireframe
350
71
  3
X-Ray
350
72
  0
LAYOUT
  5
1A
330
D
100
AcDbPlotSettings
  1

  4
A3
  6

 40
7.5
 41
20.0
 42
7.5
 43
20.0
 44
420.0
 45
297.0
 46
0.0
 47
0.0
 48
0.0
 49
0.0
140
0.0
141
0.0
142
1.0
143
1.0
 70
1024
 72
1
 73
0
 74
5
  7

 75
16
 76
0
 77
2
 78
300
147
1.0
148
0.0
149
0.0
100
AcDbLayout
  1
Model
 70
1
 71
0
 10
0.0
 20
0.0
 11
420.0
 21
297.0
 12
0.0
 22
0.0
 32
0.0
 14
1e+20
 24
1e+20
 34
1e+20
 15
-1e+20
 25
-1e+20
 35
-1e+20
146
0.0
 13
0.0
 23
0.0
 33
0.0
 16
1.0
 26
0.0
 36
0.0
 17
0.0
 27
1.0
 37
0.0
 76
1
330
17
  0
LAYOUT
  5
1E
330
D
100
AcDbPlotSettings
  1

  4
A3
  6

 40
7.5
 41
20.0
 42
7.5
 43
20.0
 44
420.0
 45
297.0
 46
0.0
 47
0.0
 48
0.0
 49
0.0
140
0.0
141
0.0
142
1.0
143
1.0
 70
0
 72
1
 73
0
 74
5
  7

 75
16
 76
0
 77
2
 78
300
147
1.0
148
0.0
149
0.0
100
AcDbLayout
  1
Layout1
 70
1
 71
1
 10
0.0
 20
0.0
 11
420.0
 21
297.0
 12
0.0
 22
0.0
 32
0.0
 14
1e+20
 24
1e+20
 34
1e+20
 15
-1e+20
 25
-1e+20
 35
-1e+20
146
0.0
 13
0.0
 23
0.0
 33
0.0
 16
1.0
 26
0.0
 36
0.0
 17
0.0
 27
1.0
 37
0.0
 76
1
330
1B
  0
MATERIAL
  5
1F
102
{ACAD_REACTORS
330
E
102
}
330
E
100
AcDbMaterial
  1
ByBlock
  2

 70
0
 40
1.0
 71
1
 41
1.0
 91
-1023410177
 42
1.0
 72
1
  3

 73
1
 74
1
 75
1
 44
0.5
 73
0
 45
1.0
 46
1.0
 77
1
  4

 78
1
 79
1
170
1
 48
1.0
171
1
  6

172
1
173
1
174
1
140
1.0
141
1.0
175
1
  7

176
1
177
1
178
1
143
1.0
179
1
  8

270
1
271
1
272
1
145
1.0
146
1.0
273
1
  9

274
1
275
1
276
1
 42
1.0
 72
1
  3

 73
1
 74
1
 75
1
 94
63
  0
MATERIAL
  5
20
102
{ACAD_REACTORS
330
E
102
}
330
E
100
AcDbMaterial
  1
ByLayer
  2

 70
0
 40
1.0
 71
1
 41
1.0
 91
-1023410177
 42
1.0
 72
1
  3

 73
1
 74
1
 75
1
 44
0.5
 73
0
 45
1.0
 46
1.0
 77
1
  4

 78
1
 79
1
170
1
 48
1.0
171
1
  6

172
1
173
1
174
1
140
1.0
141
1.0
175
1
  7

176
1
177
1
178
1
143
1.0
179
1
  8

270
1
271
1
272
1
145
1.0
146
1.0
273
1
  9

274
1
275
1
276
1
 42
1.0
 72
1
  3

 73
1
 74
1
 75
1
 94
63
  0
MATERIAL
  5
21
102
{ACAD_REACTORS
330
E
102
}
330
E
100
AcDbMaterial
  1
Global
  2

 70
0
 40
1.0
 71
1
 41
1.0
 91
-1023410177
 42
1.0
 72
1
  3

 73
1
 74
1
 75
1
 44
0.5
 73
0
 45
1.0
 46
1.0
 77
1
  4

 78
1
 79
1
170
1
 48
1.0
171
1
  6

172
1
173
1
174
1
140
1.0
141
1.0
175
1
  7

176
1
177
1
178
1
143
1.0
179
1
  8

270
1
271
1
272
1
145
1.0
146
1.0
273
1
  9

274
1
275
1
276
1
 42
1.0
 72
1
  3

 73
1
 74
1
 75
1
 94
63
  0
MLINESTYLE
  5
22
102
{ACAD_REACTORS
330
10
102
}
330
10
100
AcDbMlineStyle
  2
Standard
 70
0
  3

 62
256
 51
90.0
 52
90.0
 71
2
 49
0.5
 62
256
  6
BYLAYER
 49
-0.5
 62
256
  6
BYLAYER
  0
MLEADERSTYLE
  5
2C
102
{ACAD_REACTORS
330
F
102
}
330
F
100
AcDbMLeaderStyle
179
2
170
2
171
1
172
0
 90
2
 40
0.0
 41
0.0
173
1
 91
-1056964608
 92
-2
290
1
 42
2.0
291
1
 43
8.0
  3
Standard
 44
4.0
300

342
29
174
1
175
1
176
0
178
1
 93
-1056964608
 45
4.0
292
0
297
0
 46
4.0
 94
-1056964608
 47
1.0
 49
1.0
140
1.0
294
1
141
0.0
177
0
142
1.0
295
0
296
0
143
3.75
271
0
272
9
273
9
  0
DICTIONARY
  5
2D
330
A
100
AcDbDictionary
280
1
281
1
  3
CREATED_BY_EZDXF
350
2E
  3
WRITTEN_BY_EZDXF
350
143
  0
DICTIONARYVAR
  5
2E
330
2D
100
DictionaryVariables
280
0
  1
1.4.4 @ 2026-10-09T10:24:41.704585+00:00
  0
VISUALSTYLE
  5
5A
102
{ACAD_REACTORS
330
16
102
}
330
16
100
AcDbVisualStyle
  2
2dWireframe
 70
4
 90
0
 40
0.6
 62
7
290
0
291
0
  0
VISUALSTYLE
  5
5B
102
{ACAD_REACTORS
330
16
102
}
330
16
100
AcDbVisualStyle
  2
Basic
 70
7
 90
1
 40
0.6
 62
7
290
0
291
1
  0
VISUALSTYLE
  5
5C
102
{ACAD_REACTORS
330
16
102
}
330
16
100
AcDbVisualStyle
  2
Brighten
 70
12
 90
2
 40
0.6
 62
7
290
0
291
1
  0
VISUALSTYLE
  5
5D
102
{ACAD_REACTORS
330
16
102
}
330
16
100
AcDbVisualStyle
  2
ColorChange
 70
16
 90
2
 40
0.6
 62
8
290
0
291
1
  0
VISUALSTYLE
  5
5E
102
{ACAD_REACTORS
330
16
102
}
330
16
100
AcDbVisualStyle
  2
Conceptual
 70
9
 90
3
 40
0.6
 62
7
290
0
291
0
  0
VISUALSTYLE
  5
5F
102
{ACAD_REACTORS
330
16
102
}
330
16
100
AcDbVisualStyle
  2
Dim
 70
11
 90
2
 40
0.6
 62
7
290
0
291
1
  0
VISUALSTYLE
  5
60
102
{ACAD_REACTORS
330
16
102
}
330
16
100
AcDbVisualStyle
  2
EdgeColorOff
 70
22
 90
2
 40
0.6
 62
7
290
0
291
1
  0
VISUALSTYLE
  5
61
102
{ACAD_REACTORS
330
16
102
}
330
16
100
AcDbVisualStyle
  2
Facepattern
 70
15
 90
2
 40
0.6
 62
7
290
0
291
1
  0
VISUALSTYLE
  5
62
102
{ACAD_REACTORS
330
16
102
}
330
16
100
AcDbVisualStyle
  2
Flat
 70
0
 90
2
 40
0.6
 62
7
290
0
291
1
  0
VISUALSTYLE
  5
63
102
{ACAD_REACTORS
330
16
102
}
330
16
100
AcDbVisualStyle
  2
FlatWithEdges
 70
1
 90
2
 40
0.6
 62
7
290
0
291
1
  0
VISUALSTYLE
  5
64
102
{ACAD_REACTORS
330
16
102
}
330
16
100
AcDbVisualStyle
  2
Gouraud
 70
2
 90
2
 40
0.6
 62
7
290
0
291
1
  0
VISUALSTYLE
  5
65
102
{ACAD_REACTORS
330
16
102
}
330
16
100
AcDbVisualStyle
  2
GouraudWithEdges
 70
3
 90
2
 40
0.6
 62
7
290
0
291
1
  0
VISUALSTYLE
  5
66
102
{ACAD_REACTORS
330
16
102
}
330
16
100
AcDbVisualStyle
  2
Hidden
 70
6
 90
1
 40
0.6
 62
7
290
0
291
0
  0
VISUALSTYLE
  5
67
102
{ACAD_REACTORS
330
16
102
}
330
16
100
AcDbVisualStyle
  2
JitterOff
 70
20
 90
2
 40
0.6
 62
7
290
0
291
1
  0
VISUALSTYLE
  5
68
102
{ACAD_REACTORS
330
16
102
}
330
16
100
AcDbVisualStyle
  2
Linepattern
 70
14
 90
2
 40
0.6
 62
7
290
0
291
1
  0
VISUALSTYLE
  5
69
102
{ACAD_REACTORS
330
16
102
}
330
16
100
AcDbVisualStyle
  2
Modeling
 70
10
 90
2
 40
0.6
 62
7
290
0
291
0
  0
VISUALSTYLE
  5
6A
102
{ACAD_REACTORS
330
16
102
}
330
16
100
AcDbVisualStyle
  2
OverhangOff
 70
21
 90
2
 40
0.6
 62
7
290
0
291
1
  0
VISUALSTYLE
  5
6B
102
{ACAD_REACTORS
330
16
102
}
330
16
100
AcDbVisualStyle
  2
Realistic
 70
8
 90
2
 40
0.6
 62
7
290
0
291
0
  0
VISUALSTYLE
  5
6C
102
{ACAD_REACTORS
330
16
102
}
330
16
100
AcDbVisualStyle
  2
Shaded
 70
27
 90
2
 40
0.6
 62
7
290
0
291
0
  0
VISUALSTYLE
  5
6D
102
{ACAD_REACTORS
330
16
102
}
330
16
100
AcDbVisualStyle
  2
Shaded with edges
 70
26
 90
2
 40
0.6
 62
7
290
0
291
0
  0
VISUALSTYLE
  5
6E
102
{ACAD_REACTORS
330
16
102
}
330
16
100
AcDbVisualStyle
  2
Shades of Gray
 70
23
 90
2
 40
0.6
 62
7
290
0
291
0
  0
VISUALSTYLE
  5
6F
102
{ACAD_REACTORS
330
16
102
}
330
16
100
AcDbVisualStyle
  2
Sketchy
 70
24
 90
1
 40
0.6
 62
7
290
0
291
0
  0
VISUALSTYLE
  5
70
102
{ACAD_REACTORS
330
16
102
}
330
16
100
AcDbVisualStyle
  2
Thicken
 70
13
 90
2
 40
0.6
 62
7
290
0
291
1
  0
VISUALSTYLE
  5
71
102
{ACAD_REACTORS
330
16
102
}
330
16
100
AcDbVisualStyle
  2
Wireframe
 70
5
 90
0
 40
0.6
 62
7
290
0
291
0
  0
VISUALSTYLE
  5
72
102
{ACAD_REACTORS
330
16
102
}
330
16
100
AcDbVisualStyle
  2
X-Ray
 70
25
 90
2
 40
0.5
 62
7
290
0
291
0
  0
DICTIONARYVAR
  5
143
330
2D
100
DictionaryVariables
280
0
  1
1.4.4 @ 2026-10-09T10:24:41.723831+00:00
  0
ENDSEC
  0
EOF
