  0
SECTION
  2
HEADER
  9
$ACADVER
  1
AC1024
  9
$ACADMAINTVER
 70
6
  9
$DWGCODEPAGE
  3
ANSI_1252
  9
$LASTSAVEDBY
  1
ezdxf
  9
$INSBASE
 10
0.0
 20
0.0
 30
0.0
  9
$EXTMIN
 10
1e+20
 20
1e+20
 30
1e+20
  9
$EXTMAX
 10
-1e+20
 20
-1e+20
 30
-1e+20
  9
$LIMMIN
 10
0.0
 20
0.0
  9
$LIMMAX
 10
420.0
 20
297.0
  9
$ORTHOMODE
 70
0
  9
$REGENMODE
 70
1
  9
$FILLMODE
 70
1
  9
$QTEXTMODE
 70
0
  9
$MIRRTEXT
 70
1
  9
$LTSCALE
 40
1.0
  9
$ATTMODE
 70
1
  9
$TEXTSIZE
 40
2.5
  9
$TRACEWID
 40
1.0
  9
$TEXTSTYLE
  7
OpenSans
  9
$CLAYER
  8
0
  9
$CELTYPE
  6
ByLayer
  9
$CECOLOR
 62
256
  9
$CELTSCALE
 40
1.0
  9
$DISPSILH
 70
0
  9
$DIMSCALE
 40
1.0
  9
$DIMASZ
 40
0.175
  9
$DIMEXO
 40
0.125
  9
$DIMDLI
 40
3.75
  9
$DIMRND
 40
0.0
  9
$DIMDLE
 40
0.0
  9
$DIMEXE
 40
0.375
  9
$DIMTP
 40
0.0
  9
$DIMTM
 40
0.0
  9
$DIMTXT
 40
0.25
  9
$DIMCEN
 40
2.5
  9
$DIMTSZ
 40
0.0
  9
$DIMTOL
 70
0
  9
$DIMLIM
 70
0
  9
$DIMTIH
 70
0
  9
$DIMTOH
 70
0
  9
$DIMSE1
 70
0
  9
$DIMSE2
 70
0
  9
$DIMTAD
 70
1
  9
$DIMZIN
 70
12
  9
$DIMBLK
  1
ARCHTICK
  9
$DIMASO
 70
1
  9
$DIMSHO
 70
1
  9
$DIMPOST
  1

  9
$DIMAPOST
  1

  9
$DIMALT
 70
0
  9
$DIMALTD
 70
3
  9
$DIMALTF
 40
0.03937007874
  9
$DIMLFAC
 40
100.0
  9
$DIMTOFL
 70
1
  9
$DIMTVP
 40
0.0
  9
$DIMTIX
 70
0
  9
$DIMSOXD
 70
0
  9
$DIMSAH
 70
0
  9
$DIMBLK1
  1

  9
$DIMBLK2
  1

  9
$DIMSTYLE
  2
EZDXF
  9
$DIMCLRD
 70
0
  9
$DIMCLRE
 70
0
  9
$DIMCLRT
 70
0
  9
$DIMTFAC
 40
0.5
  9
$DIMGAP
 40
0.1
  9
$DIMJUST
 70
0
  9
$DIMSD1
 70
0
  9
$DIMSD2
 70
0
  9
$DIMTOLJ
 70
0
  9
$DIMTZIN
 70
8
  9
$DIMALTZ
 70
0
  9
$DIMALTTZ
 70
0
  9
$DIMUPT
 70
1
  9
$DIMDEC
 70
2
  9
$DIMTDEC
 70
2
  9
$DIMALTU
 70
2
  9
$DIMALTTD
 70
3
  9
$DIMTXSTY
  7
OpenSansCondensed-Light
  9
$DIMAUNIT
 70
0
  9
$DIMADEC
 70
2
  9
$DIMALTRND
 40
0.0
  9
$DIMAZIN
 70
3
  9
$DIMDSEP
 70
46
  9
$DIMATFIT
 70
3
  9
$DIMFRAC
 70
0
  9
$DIMLDRBLK
  1

  9
$DIMLUNIT
 70
2
  9
$DIMLWD
 70
-2
  9
$DIMLWE
 70
-2
  9
$DIMTMOVE
 70
2
  9
$DIMFXL
 40
1.0
  9
$DIMFXLON
 70
0
  9
$DIMJOGANG
 40
0.785398163397
  9
$DIMTFILL
 70
0
  9
$DIMTFILLCLR
 70
0
  9
$DIMARCSYM
 70
0
  9
$DIMLTYPE
  6

  9
$DIMLTEX1
  6

  9
$DIMLTEX2
  6

  9
$DIMTXTDIRECTION
 70
0
  9
$LUNITS
 70
2
  9
$LUPREC
 70
4
  9
$SKETCHINC
 40
1.0
  9
$FILLETRAD
 40
10.0
  9
$AUNITS
 70
0
  9
$AUPREC
 70
2
  9
$MENU
  1
.
  9
$ELEVATION
 40
0.0
  9
$PELEVATION
 40
0.0
  9
$THICKNESS
 40
0.0
  9
$LIMCHECK
 70
0
  9
$CHAMFERA
 40
0.0
  9
$CHAMFERB
 40
0.0
  9
$CHAMFERC
 40
0.0
  9
$CHAMFERD
 40
0.0
  9
$SKPOLY
 70
0
  9
$TDCREATE
 40
2461323.3234722223
  9
$TDUCREATE
 40
2458532.153996898
  9
$TDUPDATE
 40
2461323.3234722223
  9
$TDUUPDATE
 40
2458532.1544311
  9
$TDINDWG
 40
0.0
  9
$TDUSRTIMER
 40
0.0
  9
$USRTIMER
 70
1
  9
$ANGBASE
 50
0.0
  9
$ANGDIR
 70
0
  9
$PDMODE
 70
0
  9
$PDSIZE
 40
0.0
  9
$PLINEWID
 40
0.0
  9
$SPLFRAME
 70
0
  9
$SPLINETYPE
 70
6
  9
$SPLINESEGS
 70
8
  9
$HANDSEED
  5
26D
  9
$SURFTAB1
 70
6
  9
$SURFTAB2
 70
6
  9
$SURFTYPE
 70
6
  9
$SURFU
 70
6
  9
$SURFV
 70
6
  9
$UCSBASE
  2

  9
$UCSNAME
  2

  9
$UCSORG
 10
0.0
 20
0.0
 30
0.0
  9
$UCSXDIR
 10
1.0
 20
0.0
 30
0.0
  9
$UCSYDIR
 10
0.0
 20
1.0
 30
0.0
  9
$UCSORTHOREF
  2

  9
$UCSORTHOVIEW
 70
0
  9
$UCSORGTOP
 10
0.0
 20
0.0
 30
0.0
  9
$UCSORGBOTTOM
 10
0.0
 20
0.0
 30
0.0
  9
$UCSORGLEFT
 10
0.0
 20
0.0
 30
0.0
  9
$UCSORGRIGHT
 10
0.0
 20
0.0
 30
0.0
  9
$UCSORGFRONT
 10
0.0
 20
0.0
 30
0.0
  9
$UCSORGBACK
 10
0.0
 20
0.0
 30
0.0
  9
$PUCSBASE
  2

  9
$PUCSNAME
  2

  9
$PUCSORG
 10
0.0
 20
0.0
 30
0.0
  9
$PUCSXDIR
 10
1.0
 20
0.0
 30
0.0
  9
$PUCSYDIR
 10
0.0
 20
1.0
 30
0.0
  9
$PUCSORTHOREF
  2

  9
$PUCSORTHOVIEW
 70
0
  9
$PUCSORGTOP
 10
0.0
 20
0.0
 30
0.0
  9
$PUCSORGBOTTOM
 10
0.0
 20
0.0
 30
0.0
  9
$PUCSORGLEFT
 10
0.0
 20
0.0
 30
0.0
  9
$PUCSORGRIGHT
 10
0.0
 20
0.0
 30
0.0
  9
$PUCSORGFRONT
 10
0.0
 20
0.0
 30
0.0
  9
$PUCSORGBACK
 10
0.0
 20
0.0
 30
0.0
  9
$USERI1
 70
0
  9
$USERI2
 70
0
  9
$USERI3
 70
0
  9
$USERI4
 70
0
  9
$USERI5
 70
0
  9
$USERR1
 40
0.0
  9
$USERR2
 40
0.0
  9
$USERR3
 40
0.0
  9
$USERR4
 40
0.0
  9
$USERR5
 40
0.0
  9
$WORLDVIEW
 70
1
  9
$SHADEDGE
 70
3
  9
$SHADEDIF
 70
70
  9
$TILEMODE
 70
1
  9
$MAXACTVP
 70
64
  9
$PINSBASE
 10
0.0
 20
0.0
 30
0.0
  9
$PLIMCHECK
 70
0
  9
$PEXTMIN
 10
1e+20
 20
1e+20
 30
1e+20
  9
$PEXTMAX
 10
-1e+20
 20
-1e+20
 30
-1e+20
  9
$PLIMMIN
 10
0.0
 20
0.0
  9
$PLIMMAX
 10
420.0
 20
297.0
  9
$UNITMODE
 70
0
  9
$VISRETAIN
 70
1
  9
$PLINEGEN
 70
0
  9
$PSLTSCALE
 70
1
  9
$TREEDEPTH
 70
3020
  9
$CMLSTYLE
  2
Standard
  9
$CMLJUST
 70
0
  9
$CMLSCALE
 40
20.0
  9
$PROXYGRAPHICS
 70
1
  9
$MEASUREMENT
 70
1
  9
$CELWEIGHT
370
-1
  9
$ENDCAPS
280
0
  9
$JOINSTYLE
280
0
  9
$LWDISPLAY
290
0
  9
$INSUNITS
 70
4
  9
$HYPERLINKBASE
  1

  9
$STYLESHEET
  1

  9
$XEDIT
290
1
  9
$CEPSNTYPE
380
0
  9
$PSTYLEMODE
290
1
  9
$FINGERPRINTGUID
  2
{7749E476-D6B9-432A-9C29-70A92E89AC1C}
  9
$VERSIONGUID
  2
{1C1D9006-FB47-4F5D-AE7C-CEBA3C76EE15}
  9
$EXTNAMES
290
1
  9
$PSVPSCALE
 40
0.0
  9
$OLESTARTUP
290
0
  9
$SORTENTS
280
127
  9
$INDEXCTL
280
0
  9
$HIDETEXT
280
1
  9
$XCLIPFRAME
280
1
  9
$HALOGAP
280
0
  9
$OBSCOLOR
 70
257
  9
$OBSLTYPE
280
0
  9
$INTERSECTIONDISPLAY
280
0
  9
$INTERSECTIONCOLOR
 70
257
  9
$DIMASSOC
280
2
  9
$PROJECTNAME
  1

  9
$CAMERADISPLAY
290
0
  9
$LENSLENGTH
 40
50.0
  9
$CAMERAHEIGHT
 40
0.0
  9
$STEPSPERSEC
 40
24.0
  9
$STEPSIZE
 40
100.0
  9
$3DDWFPREC
 40
2.0
  9
$PSOLWIDTH
 40
0.005
  9
$PSOLHEIGHT
 40
0.08
  9
$LOFTANG1
 40
1.570796326795
  9
$LOFTANG2
 40
1.570796326795
  9
$LOFTMAG1
 40
0.0
  9
$LOFTMAG2
 40
0.0
  9
$LOFTPARAM
 70
7
  9
$LOFTNORMALS
280
1
  9
$LATITUDE
 40
37.795
  9
$LONGITUDE
 40
-122.394
  9
$NORTHDIRECTION
 40
0.0
  9
$TIMEZONE
 70
-8000
  9
$LIGHTGLYPHDISPLAY
280
1
  9
$TILEMODELIGHTSYNCH
280
1
  9
$CMATERIAL
347
20
  9
$SOLIDHIST
280
0
  9
$SHOWHIST
280
1
  9
$DWFFRAME
280
2
  9
$DGNFRAME
280
2
  9
$REALWORLDSCALE
290
1
  9
$INTERFERECOLOR
 62
256
  9
$CSHADOW
280
0
  9
$SHADOWPLANELOCATION
 40
0.0
  0
ENDSEC
  0
SECTION
  2
CLASSES
  0
CLASS
  1
ACDBDICTIONARYWDFLT
  2
AcDbDictionaryWithDefault
  3
ObjectDBX Classes
 90
0
 91
0
280
0
281
0
  0
CLASS
  1
SUN
  2
AcDbSun
  3
SCENEOE
 90
1153
 91
0
280
0
281
0
  0
CLASS
  1
VISUALSTYLE
  2
AcDbVisualStyle
  3
ObjectDBX Classes
 90
4095
 91
0
280
0
281
0
  0
CLASS
  1
MATERIAL
  2
AcDbMaterial
  3
ObjectDBX Classes
 90
1153
 91
0
280
0
281
0
  0
CLASS
  1
SCALE
  2
AcDbScale
  3
ObjectDBX Classes
 90
1153
 91
0
280
0
281
0
  0
CLASS
  1
TABLESTYLE
  2
AcDbTableStyle
  3
ObjectDBX Classes
 90
4095
 91
0
280
0
281
0
  0
CLASS
  1
MLEADERSTYLE
  2
AcDbMLeaderStyle
  3
ACDB_MLEADERSTYLE_CLASS
 90
4095
 91
0
280
0
281
0
  0
CLASS
  1
DICTIONARYVAR
  2
AcDbDictionaryVar
  3
ObjectDBX Classes
 90
0
 91
0
280
0
281
0
  0
CLASS
  1
CELLSTYLEMAP
  2
AcDbCellStyleMap
  3
ObjectDBX Classes
 90
1152
 91
0
280
0
281
0
  0
CLASS
  1
MENTALRAYRENDERSETTINGS
  2
AcDbMentalRayRenderSettings
  3
SCENEOE
 90
1024
 91
0
280
0
281
0
  0
CLASS
  1
ACDBDETAILVIEWSTYLE
  2
AcDbDetailViewStyle
  3
ObjectDBX Classes
 90
1025
 91
0
280
0
281
0
  0
CLASS
  1
ACDBSECTIONVIEWSTYLE
  2
AcDbSectionViewStyle
  3
ObjectDBX Classes
 90
1025
 91
0
280
0
281
0
  0
CLASS
  1
RASTERVARIABLES
  2
AcDbRasterVariables
  3
ISM
 90
0
 91
0
280
0
281
0
  0
CLASS
  1
LAYOUT
  2
AcDbLayout
  3
ObjectDBX Classes
 90
0
 91
0
280
0
281
0
  0
CLASS
  1
ACDBPLACEHOLDER
  2
AcDbPlaceHolder
  3
ObjectDBX Classes
 90
0
 91
0
280
0
281
0
  0
ENDSEC
  0
SECTION
  2
TABLES
  0
TABLE
  2
VPORT
  5
8
330
0
100
AcDbSymbolTable
 70
1
  0
VPORT
  5
23
330
8
100
AcDbSymbolTableRecord
100
AcDbViewportTableRecord
  2
*Active
 70
0
 10
0.0
 20
0.0
 11
1.0
 21
1.0
 12
0.0
 22
0.0
 13
0.0
 23
0.0
 14
0.5
 24
0.5
 15
0.5
 25
0.5
 16
0.0
 26
0.0
 36
1.0
 17
0.0
 27
0.0
 37
0.0
 40
1000.0
 41
1.34
 42
50.0
 43
0.0
 44
0.0
 50
0.0
 51
0.0
 71
0
 72
1000
 73
1
 74
3
 75
0
 76
0
 77
0
 78
0
281
0
 65
0
146
0.0
  0
ENDTAB
  0
TABLE
  2
LTYPE
  5
2
330
0
100
AcDbSymbolTable
 70
21
  0
LTYPE
  5
24
330
2
100
AcDbSymbolTableRecord
100
AcDbLinetypeTableRecord
  2
ByBlock
 70
0
  3

 72
65
 73
0
 40
0.0
  0
LTYPE
  5
25
330
2
100
AcDbSymbolTableRecord
100
AcDbLinetypeTableRecord
  2
ByLayer
 70
0
  3

 72
65
 73
0
 40
0.0
  0
LTYPE
  5
26
330
2
100
AcDbSymbolTableRecord
100
AcDbLinetypeTableRecord
  2
Continuous
 70
0
  3

 72
65
 73
0
 40
0.0
  0
LTYPE
  5
2F
330
2
100
AcDbSymbolTableRecord
100
AcDbLinetypeTableRecord
  2
CENTER
 70
0
  3
Center ____ _ ____ _ ____ _ ____ _ ____ _ ____
 72
65
 73
4
 40
5.08
 49
3.175
 74
0
 49
-0.635
 74
0
 49
0.635
 74
0
 49
-0.635
 74
0
  0
LTYPE
  5
30
330
2
100
AcDbSymbolTableRecord
100
AcDbLinetypeTableRecord
  2
CENTERX2
 70
0
  3
Center (2x) ________  __  ________  __  ________
 72
65
 73
4
 40
8.89
 49
6.35
 74
0
 49
-0.635
 74
0
 49
1.27
 74
0
 49
-0.635
 74
0
  0
LTYPE
  5
31
330
2
100
AcDbSymbolTableRecord
100
AcDbLinetypeTableRecord
  2
CENTER2
 70
0
  3
Center (.5x) ____ _ ____ _ ____ _ ____ _ ____
 72
65
 73
4
 40
2.54
 49
1.587
 74
0
 49
-0.318
 74
0
 49
0.318
 74
0
 49
-0.318
 74
0
  0
LTYPE
  5
32
330
2
100
AcDbSymbolTableRecord
100
AcDbLinetypeTableRecord
  2
DASHED
 70
0
  3
Dashed __ __ __ __ __ __ __ __ __ __ __ __ __ _
 72
65
 73
2
 40
1.524
 49
1.27
 74
0
 49
-0.254
 74
0
  0
LTYPE
  5
33
330
2
100
AcDbSymbolTableRecord
100
AcDbLinetypeTableRecord
  2
DASHEDX2
 70
0
  3
Dashed (2x) ____  ____  ____  ____  ____  ____
 72
65
 73
2
 40
3.048
 49
2.54
 74
0
 49
-0.508
 74
0
  0
LTYPE
  5
34
330
2
100
AcDbSymbolTableRecord
100
AcDbLinetypeTableRecord
  2
DASHED2
 70
0
  3
Dashed (.5x) _ _ _ _ _ _ _ _ _ _ _ _ _ _
 72
65
 73
2
 40
0.762
 49
0.635
 74
0
 49
-0.127
 74
0
  0
LTYPE
  5
35
330
2
100
AcDbSymbolTableRecord
100
AcDbLinetypeTableRecord
  2
PHANTOM
 70
0
  3
Phantom ______  __  __  ______  __  __  ______
 72
65
 73
6
 40
6.35
 49
3.175
 74
0
 49
-0.635
 74
0
 49
0.635
 74
0
 49
-0.635
 74
0
 49
0.635
 74
0
 49
-0.635
 74
0
  0
LTYPE
  5
36
330
2
100
AcDbSymbolTableRecord
100
AcDbLinetypeTableRecord
  2
PHANTOMX2
 70
0
  3
Phantom (2x)____________    ____    ____    ____________
 72
65
 73
6
 40
10.795
 49
6.35
 74
0
 49
-0.635
 74
0
 49
1.27
 74
0
 49
-0.635
 74
0
 49
1.27
 74
0
 49
-0.635
 74
0
  0
LTYPE
  5
37
330
2
100
AcDbSymbolTableRecord
100
AcDbLinetypeTableRecord
  2
PHANTOM2
 70
0
  3
Phantom (.5x) ___ _ _ ___ _ _ ___ _ _ ___ _ _ ___
 72
65
 73
6
 40
3.175
 49
1.587
 74
0
 49
-0.318
 74
0
 49
0.318
 74
0
 49
-0.318
 74
0
 49
0.318
 74
0
 49
-0.318
 74
0
  0
LTYPE
  5
38
330
2
100
AcDbSymbolTableRecord
100
AcDbLinetypeTableRecord
  2
DASHDOT
 70
0
  3
Dash dot __ . __ . __ . __ . __ . __ . __ . __
 72
65
 73
4
 40
3.556
 49
2.54
 74
0
 49
-0.508
 74
0
 49
0.0
 74
0
 49
-0.508
 74
0
  0
LTYPE
  5
39
330
2
100
AcDbSymbolTableRecord
100
AcDbLinetypeTableRecord
  2
DASHDOTX2
 70
0
  3
Dash dot (2x) ____  .  ____  .  ____  .  ____
 72
65
 73
4
 40
6.096
 49
5.08
 74
0
 49
-0.508
 74
0
 49
0.0
 74
0
 49
-0.508
 74
0
  0
LTYPE
  5
3A
330
2
100
AcDbSymbolTableRecord
100
AcDbLinetypeTableRecord
  2
DASHDOT2
 70
0
  3
Dash dot (.5x) _ . _ . _ . _ . _ . _ . _ . _
 72
65
 73
4
 40
1.778
 49
1.27
 74
0
 49
-0.254
 74
0
 49
0.0
 74
0
 49
-0.254
 74
0
  0
LTYPE
  5
3B
330
2
100
AcDbSymbolTableRecord
100
AcDbLinetypeTableRecord
  2
DOT
 70
0
  3
Dot .  .  .  .  .  .  .  .  .  .  .  .  .  .  .  .
 72
65
 73
2
 40
0.508
 49
0.0
 74
0
 49
-0.508
 74
0
  0
LTYPE
  5
3C
330
2
100
AcDbSymbolTableRecord
100
AcDbLinetypeTableRecord
  2
DOTX2
 70
0
  3
Dot (2x) .    .    .    .    .    .    .    . 
 72
65
 73
2
 40
1.016
 49
0.0
 74
0
 49
-1.016
 74
0
  0
LTYPE
  5
3D
330
2
100
AcDbSymbolTableRecord
100
AcDbLinetypeTableRecord
  2
DOT2
 70
0
  3
Dot (.5) . . . . . . . . . . . . . . . . . . . 
 72
65
 73
2
 40
0.254
 49
0.0
 74
0
 49
-0.254
 74
0
  0
LTYPE
  5
3E
330
2
100
AcDbSymbolTableRecord
100
AcDbLinetypeTableRecord
  2
DIVIDE
 70
0
  3
Divide __ . . __ . . __ . . __ . . __ . . __
 72
65
 73
6
 40
4.064
 49
2.54
 74
0
 49
-0.508
 74
0
 49
0.0
 74
0
 49
-0.508
 74
0
 49
0.0
 74
0
 49
-0.508
 74
0
  0
LTYPE
  5
3F
330
2
100
AcDbSymbolTableRecord
100
AcDbLinetypeTableRecord
  2
DIVIDEX2
 70
0
  3
Divide (2x) ____  . .  ____  . .  ____  . .  ____
 72
65
 73
6
 40
6.604
 49
5.08
 74
0
 49
-0.508
 74
0
 49
0.0
 74
0
 49
-0.508
 74
0
 49
0.0
 74
0
 49
-0.508
 74
0
  0
LTYPE
  5
40
330
2
100
AcDbSymbolTableRecord
100
AcDbLinetypeTableRecord
  2
DIVIDE2
 70
0
  3
Divide(.5x) _ . _ . _ . _ . _ . _ . _ . _
 72
65
 73
6
 40
2.032
 49
1.27
 74
0
 49
-0.254
 74
0
 49
0.0
 74
0
 49
-0.254
 74
0
 49
0.0
 74
0
 49
-0.254
 74
0
  0
ENDTAB
  0
TABLE
  2
LAYER
  5
1
330
0
100
AcDbSymbolTable
 70
8
  0
LAYER
  5
27
330
1
100
AcDbSymbolTableRecord
100
AcDbLayerTableRecord
  2
0
 70
0
 62
7
  6
Continuous
370
-3
390
13
347
21
  0
LAYER
  5
28
330
1
100
AcDbSymbolTableRecord
100
AcDbLayerTableRecord
  2
Defpoints
 70
0
 62
7
  6
Continuous
290
0
370
-3
390
13
347
21
  0
LAYER
  5
8A
330
1
100
AcDbSymbolTableRecord
100
AcDbLayerTableRecord
  2
KANTEN
 70
0
 62
7
  6
CONTINUOUS
370
50
390
13
347
21
  0
LAYER
  5
8B
330
1
100
AcDbSymbolTableRecord
100
AcDbLayerTableRecord
  2
DUENN
 70
0
 62
7
  6
CONTINUOUS
370
25
390
13
347
21
  0
LAYER
  5
8C
330
1
100
AcDbSymbolTableRecord
100
AcDbLayerTableRecord
  2
MITTELLINIEN
 70
0
 62
1
  6
CENTER
370
25
390
13
347
21
  0
LAYER
  5
8D
330
1
100
AcDbSymbolTableRecord
100
AcDbLayerTableRecord
  2
SCHRAFFUR
 70
0
 62
8
  6
CONTINUOUS
370
25
390
13
347
21
  0
LAYER
  5
8E
330
1
100
AcDbSymbolTableRecord
100
AcDbLayerTableRecord
  2
TEXT
 70
0
 62
7
  6
CONTINUOUS
370
25
390
13
347
21
  0
LAYER
  5
8F
330
1
100
AcDbSymbolTableRecord
100
AcDbLayerTableRecord
  2
RAHMEN
 70
0
 62
7
  6
CONTINUOUS
370
70
390
13
347
21
  0
ENDTAB
  0
TABLE
  2
STYLE
  5
5
330
0
100
AcDbSymbolTable
 70
26
  0
STYLE
  5
29
330
5
100
AcDbSymbolTableRecord
100
AcDbTextStyleTableRecord
  2
Standard
 70
0
 40
0.0
 41
1.0
 50
0.0
 71
0
 42
2.5
  3
isocp.shx
  4

  0
STYLE
  5
41
330
5
100
AcDbSymbolTableRecord
100
AcDbTextStyleTableRecord
  2
OpenSans-Light
 70
0
 40
0.0
 41
1.0
 50
0.0
 71
0
 42
2.5
  3
OpenSans-Light.ttf
  4

  0
STYLE
  5
42
330
5
100
AcDbSymbolTableRecord
100
AcDbTextStyleTableRecord
  2
OpenSans-Light-Italic
 70
0
 40
0.0
 41
1.0
 50
0.0
 71
0
 42
2.5
  3
OpenSans-LightItalic.ttf
  4

  0
STYLE
  5
43
330
5
100
AcDbSymbolTableRecord
100
AcDbTextStyleTableRecord
  2
OpenSans
 70
0
 40
0.0
 41
1.0
 50
0.0
 71
0
 42
2.5
  3
OpenSans-Regular.ttf
  4

  0
STYLE
  5
44
330
5
100
AcDbSymbolTableRecord
100
AcDbTextStyleTableRecord
  2
OpenSans-Italic
 70
0
 40
0.0
 41
1.0
 50
0.0
 71
0
 42
2.5
  3
OpenSans-Italic.ttf
  4

  0
STYLE
  5
45
330
5
100
AcDbSymbolTableRecord
100
AcDbTextStyleTableRecord
  2
OpenSans-SemiBold
 70
0
 40
0.0
 41
1.0
 50
0.0
 71
0
 42
2.5
  3
OpenSans-SemiBold.ttf
  4

  0
STYLE
  5
46
330
5
100
AcDbSymbolTableRecord
100
AcDbTextStyleTableRecord
  2
OpenSans-SemiBoldItalic
 70
0
 40
0.0
 41
1.0
 50
0.0
 71
0
 42
2.5
  3
OpenSans-SemiBoldItalic.ttf
  4

  0
STYLE
  5
47
330
5
100
AcDbSymbolTableRecord
100
AcDbTextStyleTableRecord
  2
OpenSans-Bold
 70
0
 40
0.0
 41
1.0
 50
0.0
 71
0
 42
2.5
  3
OpenSans-Bold.ttf
  4

  0
STYLE
  5
48
330
5
100
AcDbSymbolTableRecord
100
AcDbTextStyleTableRecord
  2
OpenSans-BoldItalic
 70
0
 40
0.0
 41
1.0
 50
0.0
 71
0
 42
2.5
  3
OpenSans-BoldItalic.ttf
  4

  0
STYLE
  5
49
330
5
100
AcDbSymbolTableRecord
100
AcDbTextStyleTableRecord
  2
OpenSans-ExtraBold
 70
0
 40
0.0
 41
1.0
 50
0.0
 71
0
 42
2.5
  3
OpenSans-ExtraBold.ttf
  4

  0
STYLE
  5
4A
330
5
100
AcDbSymbolTableRecord
100
AcDbTextStyleTableRecord
  2
OpenSans-ExtraBoldItalic
 70
0
 40
0.0
 41
1.0
 50
0.0
 71
0
 42
2.5
  3
OpenSans-ExtraBoldItalic.ttf
  4

  0
STYLE
  5
4B
330
5
100
AcDbSymbolTableRecord
100
AcDbTextStyleTableRecord
  2
OpenSansCondensed-Bold
 70
0
 40
0.0
 41
1.0
 50
0.0
 71
0
 42
2.5
  3
OpenSansCondensed-Bold.ttf
  4

  0
STYLE
  5
4C
330
5
100
AcDbSymbolTableRecord
100
AcDbTextStyleTableRecord
  2
OpenSansCondensed-Light
 70
0
 40
0.0
 41
1.0
 50
0.0
 71
0
 42
2.5
  3
OpenSansCondensed-Light.ttf
  4

  0
STYLE
  5
4D
330
5
100
AcDbSymbolTableRecord
100
AcDbTextStyleTableRecord
  2
OpenSansCondensed-Italic
 70
0
 40
0.0
 41
1.0
 50
0.0
 71
0
 42
2.5
  3
OpenSansCondensed-LightItalic.ttf
  4

  0
STYLE
  5
4E
330
5
100
AcDbSymbolTableRecord
100
AcDbTextStyleTableRecord
  2
LiberationSans
 70
0
 40
0.0
 41
1.0
 50
0.0
 71
0
 42
2.5
  3
LiberationSans-Regular.ttf
  4

  0
STYLE
  5
4F
330
5
100
AcDbSymbolTableRecord
100
AcDbTextStyleTableRecord
  2
LiberationSans-Bold
 70
0
 40
0.0
 41
1.0
 50
0.0
 71
0
 42
2.5
  3
LiberationSans-Bold.ttf
  4

  0
STYLE
  5
50
330
5
100
AcDbSymbolTableRecord
100
AcDbTextStyleTableRecord
  2
LiberationSans-BoldItalic
 70
0
 40
0.0
 41
1.0
 50
0.0
 71
0
 42
2.5
  3
LiberationSans-BoldItalic.ttf
  4

  0
STYLE
  5
51
330
5
100
AcDbSymbolTableRecord
100
AcDbTextStyleTableRecord
  2
LiberationSans-Italic
 70
0
 40
0.0
 41
1.0
 50
0.0
 71
0
 42
2.5
  3
LiberationSans-Italic.ttf
  4

  0
STYLE
  5
52
330
5
100
AcDbSymbolTableRecord
100
AcDbTextStyleTableRecord
  2
LiberationSerif
 70
0
 40
0.0
 41
1.0
 50
0.0
 71
0
 42
2.5
  3
LiberationSerif-Regular.ttf
  4

  0
STYLE
  5
53
330
5
100
AcDbSymbolTableRecord
100
AcDbTextStyleTableRecord
  2
LiberationSerif-Bold
 70
0
 40
0.0
 41
1.0
 50
0.0
 71
0
 42
2.5
  3
LiberationSerif-Bold.ttf
  4

  0
STYLE
  5
54
330
5
100
AcDbSymbolTableRecord
100
AcDbTextStyleTableRecord
  2
LiberationSerif-BoldItalic
 70
0
 40
0.0
 41
1.0
 50
0.0
 71
0
 42
2.5
  3
LiberationSerif-BoldItalic.ttf
  4

  0
STYLE
  5
55
330
5
100
AcDbSymbolTableRecord
100
AcDbTextStyleTableRecord
  2
LiberationSerif-Italic
 70
0
 40
0.0
 41
1.0
 50
0.0
 71
0
 42
2.5
  3
LiberationSerif-Italic.ttf
  4

  0
STYLE
  5
56
330
5
100
AcDbSymbolTableRecord
100
AcDbTextStyleTableRecord
  2
LiberationMono
 70
0
 40
0.0
 41
1.0
 50
0.0
 71
0
 42
2.5
  3
LiberationMono-Regular.ttf
  4

  0
STYLE
  5
57
330
5
100
AcDbSymbolTableRecord
100
AcDbTextStyleTableRecord
  2
LiberationMono-Bold
 70
0
 40
0.0
 41
1.0
 50
0.0
 71
0
 42
2.5
  3
LiberationMono-Bold.ttf
  4

  0
STYLE
  5
58
330
5
100
AcDbSymbolTableRecord
100
AcDbTextStyleTableRecord
  2
LiberationMono-BoldItalic
 70
0
 40
0.0
 41
1.0
 50
0.0
 71
0
 42
2.5
  3
LiberationMono-BoldItalic.ttf
  4

  0
STYLE
  5
59
330
5
100
AcDbSymbolTableRecord
100
AcDbTextStyleTableRecord
  2
LiberationMono-Italic
 70
0
 40
0.0
 41
1.0
 50
0.0
 71
0
 42
2.5
  3
LiberationMono-Italic.ttf
  4

  0
ENDTAB
  0
TABLE
  2
VIEW
  5
7
330
0
100
AcDbSymbolTable
 70
0
  0
ENDTAB
  0
TABLE
  2
UCS
  5
6
330
0
100
AcDbSymbolTable
 70
0
  0
ENDTAB
  0
TABLE
  2
APPID
  5
3
330
0
100
AcDbSymbolTable
 70
3
  0
APPID
  5
2A
330
3
100
AcDbSymbolTableRecord
100
AcDbRegAppTableRecord
  2
ACAD
 70
0
  0
APPID
  5
26A
330
3
100
AcDbSymbolTableRecord
100
AcDbRegAppTableRecord
  2
HATCHBACKGROUNDCOLOR
 70
0
  0
APPID
  5
26B
330
3
100
AcDbSymbolTableRecord
100
AcDbRegAppTableRecord
  2
EZDXF
 70
0
  0
ENDTAB
  0
TABLE
  2
DIMSTYLE
  5
4
330
0
100
AcDbSymbolTable
 70
12
100
AcDbDimStyleTable
  0
DIMSTYLE
105
2B
330
4
100
AcDbSymbolTableRecord
100
AcDbDimStyleTableRecord
  2
Standard
 70
0
 40
1.0
 41
2.5
 42
0.625
 43
3.75
 44
1.25
 45
0.0
 46
0.0
 47
0.0
 48
0.0
 49
2.5
140
2.5
141
2.5
142
0.0
143
0.03937007874
144
1.0
145
0.0
146
1.0
147
0.625
148
0.0
 69
0
 70
0
 71
0
 72
0
 73
0
 74
0
 75
0
 76
0
 77
1
 78
8
 79
3
170
0
171
3
172
1
173
0
174
0
175
0
176
0
177
0
178
0
179
2
271
2
272
2
273
2
274
3
275
0
276
0
277
2
278
44
279
0
280
0
281
0
282
0
283
0
284
8
285
0
286
0
288
0
289
3
290
0
371
-2
372
-2
  0
DIMSTYLE
105
73
330
4
100
AcDbSymbolTableRecord
100
AcDbDimStyleTableRecord
  2
EZDXF
 70
0
 40
1.0
 41
0.175
 42
0.125
 43
3.75
 44
0.375
 45
0.0
 46
0.0
 47
0.0
 48
0.0
 49
2.5
140
0.25
141
2.5
142
0.0
143
0.03937007874
144
100.0
145
0.0
146
0.5
147
0.1
148
0.0
 69
0
 70
0
 71
0
 72
0
 73
0
 74
0
 75
0
 76
0
 77
1
 78
12
 79
3
170
0
171
3
172
1
173
0
174
0
175
0
176
0
177
0
178
0
179
2
271
2
272
2
273
2
274
3
275
0
276
0
277
2
278
46
279
2
280
0
281
0
282
0
283
0
284
8
285
0
286
0
288
1
289
3
290
0
340
4C
342
74
371
-2
372
-2
  0
DIMSTYLE
105
7C
330
4
100
AcDbSymbolTableRecord
100
AcDbDimStyleTableRecord
  2
EZ_M_100_H25_CM
 70
0
 40
1.0
 41
0.25
 42
0.125
 43
3.75
 44
0.375
 45
0.0
 46
0.0
 47
0.0
 48
0.0
 49
2.5
140
0.25
141
2.5
142
0.125
143
0.03937007874
144
100.0
145
0.0
146
0.5
147
0.1
148
0.0
 69
0
 70
0
 71
0
 72
0
 73
0
 74
0
 75
0
 76
0
 77
1
 78
12
 79
3
170
0
171
3
172
1
173
0
174
0
175
0
176
0
177
0
178
0
179
2
271
2
272
2
273
2
274
3
275
0
276
0
277
2
278
46
279
2
280
0
281
0
282
0
283
0
284
8
285
0
286
0
288
1
289
3
290
0
340
4C
371
-2
372
-2
  0
DIMSTYLE
105
7D
330
4
100
AcDbSymbolTableRecord
100
AcDbDimStyleTableRecord
  2
EZ_M_50_H25_CM
 70
0
 40
1.0
 41
0.125
 42
0.0625
 43
3.75
 44
0.1875
 45
0.0
 46
0.0
 47
0.0
 48
0.0
 49
2.5
140
0.125
141
2.5
142
0.0625
143
0.03937007874
144
100.0
145
0.0
146
0.5
147
0.05
148
0.0
 69
0
 70
0
 71
0
 72
0
 73
0
 74
0
 75
0
 76
0
 77
1
 78
12
 79
3
170
0
171
3
172
1
173
0
174
0
175
0
176
0
177
0
178
0
179
2
271
2
272
2
273
2
274
3
275
0
276
0
277
2
278
46
279
2
280
0
281
0
282
0
283
0
284
8
285
0
286
0
288
1
289
3
290
0
340
4C
371
-2
372
-2
  0
DIMSTYLE
105
7E
330
4
100
AcDbSymbolTableRecord
100
AcDbDimStyleTableRecord
  2
EZ_M_25_H25_CM
 70
0
 40
1.0
 41
0.0625
 42
0.03125
 43
3.75
 44
0.09375
 45
0.0
 46
0.0
 47
0.0
 48
0.0
 49
2.5
140
0.0625
141
2.5
142
0.03125
143
0.03937007874
144
100.0
145
0.0
146
0.5
147
0.025
148
0.0
 69
0
 70
0
 71
0
 72
0
 73
0
 74
0
 75
0
 76
0
 77
1
 78
12
 79
3
170
0
171
3
172
1
173
0
174
0
175
0
176
0
177
0
178
0
179
2
271
2
272
2
273
2
274
3
275
0
276
0
277
2
278
46
279
2
280
0
281
0
282
0
283
0
284
8
285
0
286
0
288
1
289
3
290
0
340
4C
371
-2
372
-2
  0
DIMSTYLE
105
7F
330
4
100
AcDbSymbolTableRecord
100
AcDbDimStyleTableRecord
  2
EZ_M_20_H25_CM
 70
0
 40
1.0
 41
0.05
 42
0.025
 43
3.75
 44
0.07500000000000001
 45
0.0
 46
0.0
 47
0.0
 48
0.0
 49
2.5
140
0.05
141
2.5
142
0.025
143
0.03937007874
144
100.0
145
0.0
146
0.5
147
0.020000000000000004
148
0.0
 69
0
 70
0
 71
0
 72
0
 73
0
 74
0
 75
0
 76
0
 77
1
 78
12
 79
3
170
0
171
3
172
1
173
0
174
0
175
0
176
0
177
0
178
0
179
2
271
2
272
2
273
2
274
3
275
0
276
0
277
2
278
46
279
2
280
0
281
0
282
0
283
0
284
8
285
0
286
0
288
1
289
3
290
0
340
4C
371
-2
372
-2
  0
DIMSTYLE
105
80
330
4
100
AcDbSymbolTableRecord
100
AcDbDimStyleTableRecord
  2
EZ_M_10_H25_CM
 70
0
 40
1.0
 41
0.025
 42
0.0125
 43
3.75
 44
0.037500000000000006
 45
0.0
 46
0.0
 47
0.0
 48
0.0
 49
2.5
140
0.025
141
2.5
142
0.0125
143
0.03937007874
144
100.0
145
0.0
146
0.5
147
0.010000000000000002
148
0.0
 69
0
 70
0
 71
0
 72
0
 73
0
 74
0
 75
0
 76
0
 77
1
 78
12
 79
3
170
0
171
3
172
1
173
0
174
0
175
0
176
0
177
0
178
0
179
2
271
2
272
2
273
2
274
3
275
0
276
0
277
2
278
46
279
2
280
0
281
0
282
0
283
0
284
8
285
0
286
0
288
1
289
3
290
0
340
4C
371
-2
372
-2
  0
DIMSTYLE
105
81
330
4
100
AcDbSymbolTableRecord
100
AcDbDimStyleTableRecord
  2
EZ_M_5_H25_CM
 70
0
 40
1.0
 41
0.0125
 42
0.00625
 43
3.75
 44
0.018750000000000003
 45
0.0
 46
0.0
 47
0.0
 48
0.0
 49
2.5
140
0.0125
141
2.5
142
0.00625
143
0.03937007874
144
100.0
145
0.0
146
0.5
147
0.005000000000000001
148
0.0
 69
0
 70
0
 71
0
 72
0
 73
0
 74
0
 75
0
 76
0
 77
1
 78
12
 79
3
170
0
171
3
172
1
173
0
174
0
175
0
176
0
177
0
178
0
179
2
271
2
272
2
273
2
274
3
275
0
276
0
277
2
278
46
279
2
280
0
281
0
282
0
283
0
284
8
285
0
286
0
288
1
289
3
290
0
340
4C
371
-2
372
-2
  0
DIMSTYLE
105
82
330
4
100
AcDbSymbolTableRecord
100
AcDbDimStyleTableRecord
  2
EZ_M_1_H25_CM
 70
0
 40
1.0
 41
0.0025
 42
0.00125
 43
3.75
 44
0.00375
 45
0.0
 46
0.0
 47
0.0
 48
0.0
 49
2.5
140
0.0025
141
2.5
142
0.00125
143
0.03937007874
144
100.0
145
0.0
146
0.5
147
0.001
148
0.0
 69
0
 70
0
 71
0
 72
0
 73
0
 74
0
 75
0
 76
0
 77
1
 78
12
 79
3
170
0
171
3
172
1
173
0
174
0
175
0
176
0
177
0
178
0
179
2
271
2
272
2
273
2
274
3
275
0
276
0
277
2
278
46
279
2
280
0
281
0
282
0
283
0
284
8
285
0
286
0
288
1
289
3
290
0
340
4C
371
-2
372
-2
  0
DIMSTYLE
105
83
330
4
100
AcDbSymbolTableRecord
100
AcDbDimStyleTableRecord
  2
EZ_RADIUS
 70
0
 40
1.0
 41
0.25
 42
0.125
 43
3.75
 44
0.375
 45
0.0
 46
0.0
 47
0.0
 48
0.0
 49
2.5
140
0.25
141
0.0
142
0.0
143
0.03937007874
144
100.0
145
0.0
146
0.5
147
0.1
148
0.0
 69
0
 70
0
 71
0
 72
0
 73
0
 74
0
 75
0
 76
0
 77
1
 78
12
 79
3
170
0
171
3
172
0
173
0
174
0
175
0
176
0
177
0
178
0
179
2
271
2
272
2
273
2
274
3
275
0
276
0
277
2
278
46
279
1
280
0
281
0
282
0
283
0
284
8
285
0
286
0
288
1
289
3
290
0
340
4C
342
84
371
-2
372
-2
  0
DIMSTYLE
105
88
330
4
100
AcDbSymbolTableRecord
100
AcDbDimStyleTableRecord
  2
EZ_RADIUS_INSIDE
 70
0
 40
1.0
 41
0.25
 42
0.125
 43
3.75
 44
0.375
 45
0.0
 46
0.0
 47
0.0
 48
0.0
 49
2.5
140
0.25
141
0.0
142
0.0
143
0.03937007874
144
100.0
145
0.0
146
0.5
147
0.1
148
0.0
 69
0
 70
0
 71
0
 72
0
 73
0
 74
0
 75
0
 76
0
 77
0
 78
12
 79
3
170
0
171
3
172
0
173
0
174
1
175
0
176
0
177
0
178
0
179
2
271
2
272
2
273
2
274
3
275
0
276
0
277
2
278
46
279
0
280
0
281
0
282
0
283
0
284
8
285
0
286
0
288
1
289
0
290
0
340
4C
342
84
371
-2
372
-2
  0
DIMSTYLE
105
89
330
4
100
AcDbSymbolTableRecord
100
AcDbDimStyleTableRecord
  2
EZ_CURVED
 70
0
 40
1.0
 41
0.25
 42
0.125
 43
3.75
 44
0.375
 45
0.0
 46
0.0
 47
0.0
 48
0.0
 49
2.5
140
0.25
141
2.5
142
0.0
143
0.03937007874
144
100.0
145
0.0
146
0.5
147
0.1
148
0.0
 69
0
 70
0
 71
0
 72
0
 73
0
 74
0
 75
0
 76
0
 77
1
 78
12
 79
2
 90
2
170
0
171
3
172
1
173
0
174
0
175
0
176
0
177
0
178
0
179
2
271
2
272
2
273
2
274
3
275
0
276
0
277
2
278
46
279
2
280
0
281
0
282
0
283
0
284
8
285
0
286
0
288
1
289
3
290
0
340
4C
371
-2
372
-2
  0
ENDTAB
  0
TABLE
  2
BLOCK_RECORD
  5
9
330
0
100
AcDbSymbolTable
 70
5
  0
BLOCK_RECORD
  5
17
330
9
100
AcDbSymbolTableRecord
100
AcDbBlockTableRecord
  2
*Model_Space
340
1A
 70
0
280
1
281
0
  0
BLOCK_RECORD
  5
1B
330
9
100
AcDbSymbolTableRecord
100
AcDbBlockTableRecord
  2
*Paper_Space
340
1E
 70
0
280
1
281
0
  0
BLOCK_RECORD
  5
74
330
9
100
AcDbSymbolTableRecord
100
AcDbBlockTableRecord
  2
_ARCHTICK
340
0
 70
0
280
1
281
0
  0
BLOCK_RECORD
  5
78
330
9
100
AcDbSymbolTableRecord
100
AcDbBlockTableRecord
  2
_CLOSEDFILLED
340
0
 70
0
280
1
281
0
  0
BLOCK_RECORD
  5
84
330
9
100
AcDbSymbolTableRecord
100
AcDbBlockTableRecord
  2
_CLOSEDBLANK
340
0
 70
0
280
1
281
0
  0
ENDTAB
  0
ENDSEC
  0
SECTION
  2
BLOCKS
  0
BLOCK
  5
18
330
17
100
AcDbEntity
  8
0
100
AcDbBlockBegin
  2
*Model_Space
 70
0
 10
0.0
 20
0.0
 30
0.0
  3
*Model_Space
  1

  0
ENDBLK
  5
19
330
17
100
AcDbEntity
  8
0
100
AcDbBlockEnd
  0
BLOCK
  5
1C
330
1B
100
AcDbEntity
  8
0
100
AcDbBlockBegin
  2
*Paper_Space
 70
0
 10
0.0
 20
0.0
 30
0.0
  3
*Paper_Space
  1

  0
ENDBLK
  5
1D
330
1B
100
AcDbEntity
  8
0
100
AcDbBlockEnd
  0
BLOCK
  5
75
330
74
100
AcDbEntity
  8
0
100
AcDbBlockBegin
  2
_ARCHTICK
 70
0
 10
0.0
 20
0.0
 30
0.0
  3
_ARCHTICK
  1

  0
LWPOLYLINE
  5
77
330
74
100
AcDbEntity
  8
0
  6
BYBLOCK
 62
0
100
AcDbPolyline
 90
2
 70
0
 43
0.15
 10
-0.5
 20
-0.5
 10
0.5
 20
0.5
  0
ENDBLK
  5
76
330
74
100
AcDbEntity
  8
0
100
AcDbBlockEnd
  0
BLOCK
  5
79
330
78
100
AcDbEntity
  8
0
100
AcDbBlockBegin
  2
_CLOSEDFILLED
 70
0
 10
0.0
 20
0.0
 30
0.0
  3
_CLOSEDFILLED
  1

  0
SOLID
  5
7B
330
78
100
AcDbEntity
  8
0
  6
BYBLOCK
 62
0
100
AcDbTrace
 10
-1.0
 20
0.16439898372402537
 30
0.0
 11
0.0
 21
0.0
 31
0.0
 12
-1.0
 22
-0.16439898372402537
 32
0.0
 13
-1.0
 23
-0.16439898372402537
 33
0.0
  0
ENDBLK
  5
7A
330
78
100
AcDbEntity
  8
0
100
AcDbBlockEnd
  0
BLOCK
  5
85
330
84
100
AcDbEntity
  8
0
100
AcDbBlockBegin
  2
_CLOSEDBLANK
 70
0
 10
0.0
 20
0.0
 30
0.0
  3
_CLOSEDBLANK
  1

  0
LWPOLYLINE
  5
87
330
84
100
AcDbEntity
  8
0
  6
BYBLOCK
 62
0
100
AcDbPolyline
 90
3
 70
1
 10
-1.0
 20
0.16439898372402537
 10
0.0
 20
0.0
 10
-1.0
 20
-0.16439898372402537
  0
ENDBLK
  5
86
330
84
100
AcDbEntity
  8
0
100
AcDbBlockEnd
  0
ENDSEC
  0
SECTION
  2
ENTITIES
  0
LWPOLYLINE
  5
90
330
17
100
AcDbEntity
  8
RAHMEN
370
70
100
AcDbPolyline
 90
4
 70
1
 10
20.0
 20
10.0
 10
410.0
 20
10.0
 10
410.0
 20
287.0
 10
20.0
 20
287.0
  0
LINE
  5
91
330
17
100
AcDbEntity
  8
KANTEN
370
50
100
AcDbLine
 10
10.0
 20
148.5
 30
0.0
 11
20.0
 21
148.5
 31
0.0
  0
LINE
  5
92
330
17
100
AcDbEntity
  8
KANTEN
370
50
100
AcDbLine
 10
215.0
 20
287.0
 30
0.0
 11
215.0
 21
292.0
 31
0.0
  0
LWPOLYLINE
  5
93
330
17
100
AcDbEntity
  8
KANTEN
370
50
100
AcDbPolyline
 90
3
 70
0
 10
261.0
 20
206.5
 10
263.0
 20
206.5
 10
265.0
 20
206.5
  0
LWPOLYLINE
  5
94
330
17
100
AcDbEntity
  8
KANTEN
370
50
100
AcDbPolyline
 90
3
 70
0
 10
261.0
 20
129.5
 10
263.0
 20
129.5
 10
265.0
 20
129.5
  0
LWPOLYLINE
  5
95
330
17
100
AcDbEntity
  8
KANTEN
370
50
100
AcDbPolyline
 90
3
 70
0
 10
285.0
 20
129.5
 10
287.0
 20
129.5
 10
289.0
 20
129.5
  0
LWPOLYLINE
  5
96
330
17
100
AcDbEntity
  8
KANTEN
370
50
100
AcDbPolyline
 90
3
 70
0
 10
285.0
 20
206.5
 10
287.0
 20
206.5
 10
289.0
 20
206.5
  0
LWPOLYLINE
  5
97
330
17
100
AcDbEntity
  8
KANTEN
370
50
100
AcDbPolyline
 90
11
 70
0
 10
289.0
 20
206.5
 10
289.31286893008047
 20
206.47537668119028
 10
289.6180339887499
 20
206.4021130325903
 10
289.9079809994791
 20
206.28201304837674
 10
290.1755705045849
 20
206.1180339887499
 10
290.4142135623731
 20
205.9142135623731
 10
290.6180339887499
 20
205.67557050458495
 10
290.7820130483767
 20
205.4079809994791
 10
290.9021130325903
 20
205.1180339887499
 10
290.97537668119026
 20
204.81286893008047
 10
291.0
 20
204.5
  0
LWPOLYLINE
  5
98
330
17
100
AcDbEntity
  8
KANTEN
370
50
100
AcDbPolyline
 90
3
 70
0
 10
291.0
 20
204.5
 10
291.0
 20
200.0
 10
291.0
 20
195.5
  0
LWPOLYLINE
  5
99
330
17
100
AcDbEntity
  8
KANTEN
370
50
100
AcDbPolyline
 90
11
 70
0
 10
291.0
 20
195.5
 10
291.02462331880974
 20
195.18713106991953
 10
291.0978869674097
 20
194.8819660112501
 10
291.2179869516233
 20
194.5920190005209
 10
291.3819660112501
 20
194.32442949541505
 10
291.5857864376269
 20
194.0857864376269
 10
291.8244294954151
 20
193.8819660112501
 10
292.0920190005209
 20
193.71798695162326
 10
292.3819660112501
 20
193.5978869674097
 10
292.68713106991953
 20
193.52462331880972
 10
293.0
 20
193.5
  0
LWPOLYLINE
  5
9A
330
17
100
AcDbEntity
  8
KANTEN
370
50
100
AcDbPolyline
 90
3
 70
0
 10
293.0
 20
193.5
 10
293.0
 20
192.15
 10
293.0
 20
190.8
  0
LWPOLYLINE
  5
9B
330
17
100
AcDbEntity
  8
KANTEN
370
50
100
AcDbPolyline
 90
9
 70
0
 10
293.0
 20
190.8
 10
293.011528831758
 20
190.68294580679031
 10
293.04567228049325
 20
190.57038994058095
 10
293.1011182326185
 20
190.46665786018823
 10
293.17573593128805
 20
190.37573593128806
 10
293.2666578601882
 20
190.30111823261848
 10
293.37038994058094
 20
190.24567228049324
 10
293.4829458067903
 20
190.21152883175807
 10
293.6
 20
190.2
  0
LWPOLYLINE
  5
9C
330
17
100
AcDbEntity
  8
KANTEN
370
50
100
AcDbPolyline
 90
3
 70
0
 10
293.6
 20
190.2
 10
293.99019237886466
 20
190.2
 10
294.3803847577293
 20
190.2
  0
LWPOLYLINE
  5
9D
330
17
100
AcDbEntity
  8
KANTEN
370
50
100
AcDbPolyline
 90
3
 70
0
 10
294.3803847577293
 20
190.2
 10
294.94019237886465
 20
190.35
 10
295.5
 20
190.5
  0
LWPOLYLINE
  5
9E
330
17
100
AcDbEntity
  8
KANTEN
370
50
100
AcDbPolyline
 90
3
 70
0
 10
295.5
 20
190.5
 10
302.25
 20
190.5
 10
309.0
 20
190.5
  0
LWPOLYLINE
  5
9F
330
17
100
AcDbEntity
  8
KANTEN
370
50
100
AcDbPolyline
 90
3
 70
0
 10
309.0
 20
190.5
 10
309.0
 20
186.75
 10
309.0
 20
183.0
  0
LWPOLYLINE
  5
A0
330
17
100
AcDbEntity
  8
KANTEN
370
50
100
AcDbPolyline
 90
3
 70
0
 10
309.0
 20
183.0
 10
268.5
 20
183.0
 10
228.0
 20
183.0
  0
LWPOLYLINE
  5
A1
330
17
100
AcDbEntity
  8
KANTEN
370
50
100
AcDbPolyline
 90
3
 70
0
 10
228.0
 20
183.0
 10
228.0
 20
186.75
 10
228.0
 20
190.5
  0
LWPOLYLINE
  5
A2
330
17
100
AcDbEntity
  8
KANTEN
370
50
100
AcDbPolyline
 90
3
 70
0
 10
228.0
 20
190.5
 10
241.25
 20
190.5
 10
254.5
 20
190.5
  0
LWPOLYLINE
  5
A3
330
17
100
AcDbEntity
  8
KANTEN
370
50
100
AcDbPolyline
 90
3
 70
0
 10
254.5
 20
190.5
 10
255.05980762113532
 20
190.35
 10
255.61961524227067
 20
190.2
  0
LWPOLYLINE
  5
A4
330
17
100
AcDbEntity
  8
KANTEN
370
50
100
AcDbPolyline
 90
3
 70
0
 10
255.61961524227067
 20
190.2
 10
256.00980762113534
 20
190.2
 10
256.4
 20
190.2
  0
LWPOLYLINE
  5
A5
330
17
100
AcDbEntity
  8
KANTEN
370
50
100
AcDbPolyline
 90
9
 70
0
 10
256.4
 20
190.2
 10
256.5170541932097
 20
190.21152883175807
 10
256.62961005941906
 20
190.24567228049324
 10
256.7333421398118
 20
190.30111823261848
 10
256.82426406871195
 20
190.37573593128806
 10
256.8988817673815
 20
190.46665786018823
 10
256.95432771950675
 20
190.57038994058095
 10
256.9884711682419
 20
190.68294580679031
 10
257.0
 20
190.8
  0
LWPOLYLINE
  5
A6
330
17
100
AcDbEntity
  8
KANTEN
370
50
100
AcDbPolyline
 90
3
 70
0
 10
257.0
 20
190.8
 10
257.0
 20
192.15
 10
257.0
 20
193.5
  0
LWPOLYLINE
  5
A7
330
17
100
AcDbEntity
  8
KANTEN
370
50
100
AcDbPolyline
 90
11
 70
0
 10
257.0
 20
193.5
 10
257.31286893008047
 20
193.52462331880972
 10
257.6180339887499
 20
193.5978869674097
 10
257.9079809994791
 20
193.71798695162326
 10
258.1755705045849
 20
193.8819660112501
 10
258.4142135623731
 20
194.0857864376269
 10
258.6180339887499
 20
194.32442949541505
 10
258.7820130483767
 20
194.5920190005209
 10
258.9021130325903
 20
194.8819660112501
 10
258.97537668119026
 20
195.18713106991953
 10
259.0
 20
195.5
  0
LWPOLYLINE
  5
A8
330
17
100
AcDbEntity
  8
KANTEN
370
50
100
AcDbPolyline
 90
3
 70
0
 10
259.0
 20
195.5
 10
259.0
 20
200.0
 10
259.0
 20
204.5
  0
LWPOLYLINE
  5
A9
330
17
100
AcDbEntity
  8
KANTEN
370
50
100
AcDbPolyline
 90
11
 70
0
 10
259.0
 20
204.5
 10
259.02462331880974
 20
204.81286893008047
 10
259.0978869674097
 20
205.1180339887499
 10
259.2179869516233
 20
205.4079809994791
 10
259.3819660112501
 20
205.67557050458495
 10
259.5857864376269
 20
205.9142135623731
 10
259.8244294954151
 20
206.1180339887499
 10
260.0920190005209
 20
206.28201304837674
 10
260.3819660112501
 20
206.4021130325903
 10
260.68713106991953
 20
206.47537668119028
 10
261.0
 20
206.5
  0
LWPOLYLINE
  5
AA
330
17
100
AcDbEntity
  8
KANTEN
370
50
100
AcDbPolyline
 90
3
 70
0
 10
265.0
 20
207.5
 10
265.0
 20
207.0
 10
265.0
 20
206.5
  0
LWPOLYLINE
  5
AB
330
17
100
AcDbEntity
  8
KANTEN
370
50
100
AcDbPolyline
 90
3
 70
0
 10
266.5
 20
207.5
 10
265.75
 20
207.5
 10
265.0
 20
207.5
  0
LWPOLYLINE
  5
AC
330
17
100
AcDbEntity
  8
KANTEN
370
50
100
AcDbPolyline
 90
3
 70
0
 10
266.5
 20
216.0
 10
266.5
 20
211.75
 10
266.5
 20
207.5
  0
LWPOLYLINE
  5
AD
330
17
100
AcDbEntity
  8
KANTEN
370
50
100
AcDbPolyline
 90
3
 70
0
 10
266.5
 20
216.0
 10
275.0
 20
216.0
 10
283.5
 20
216.0
  0
LWPOLYLINE
  5
AE
330
17
100
AcDbEntity
  8
KANTEN
370
50
100
AcDbPolyline
 90
3
 70
0
 10
283.5
 20
216.0
 10
283.5
 20
211.75
 10
283.5
 20
207.5
  0
LWPOLYLINE
  5
AF
330
17
100
AcDbEntity
  8
KANTEN
370
50
100
AcDbPolyline
 90
3
 70
0
 10
285.0
 20
207.5
 10
284.25
 20
207.5
 10
283.5
 20
207.5
  0
LWPOLYLINE
  5
B0
330
17
100
AcDbEntity
  8
KANTEN
370
50
100
AcDbPolyline
 90
3
 70
0
 10
285.0
 20
207.5
 10
285.0
 20
207.0
 10
285.0
 20
206.5
  0
LINE
  5
B1
330
17
100
AcDbEntity
  8
KANTEN
370
50
100
AcDbLine
 10
259.0
 20
195.49999996026983
 30
0.0
 11
259.0
 21
204.5
 31
0.0
  0
LWPOLYLINE
  5
B2
330
17
100
AcDbEntity
  8
KANTEN
370
50
100
AcDbPolyline
 90
11
 70
0
 10
259.0
 20
131.5
 10
259.02462331880974
 20
131.18713106991953
 10
259.0978869674097
 20
130.8819660112501
 10
259.2179869516233
 20
130.5920190005209
 10
259.3819660112501
 20
130.32442949541505
 10
259.5857864376269
 20
130.0857864376269
 10
259.8244294954151
 20
129.8819660112501
 10
260.0920190005209
 20
129.71798695162326
 10
260.3819660112501
 20
129.5978869674097
 10
260.68713106991953
 20
129.52462331880972
 10
261.0
 20
129.5
  0
LWPOLYLINE
  5
B3
330
17
100
AcDbEntity
  8
KANTEN
370
50
100
AcDbPolyline
 90
3
 70
0
 10
259.0
 20
131.5
 10
259.0
 20
136.0
 10
259.0
 20
140.5
  0
LWPOLYLINE
  5
B4
330
17
100
AcDbEntity
  8
KANTEN
370
50
100
AcDbPolyline
 90
11
 70
0
 10
259.0
 20
140.5
 10
258.97537668119026
 20
140.81286893008047
 10
258.9021130325903
 20
141.1180339887499
 10
258.7820130483767
 20
141.4079809994791
 10
258.6180339887499
 20
141.67557050458495
 10
258.4142135623731
 20
141.9142135623731
 10
258.1755705045849
 20
142.1180339887499
 10
257.9079809994791
 20
142.28201304837674
 10
257.6180339887499
 20
142.4021130325903
 10
257.31286893008047
 20
142.47537668119028
 10
257.0
 20
142.5
  0
LWPOLYLINE
  5
B5
330
17
100
AcDbEntity
  8
KANTEN
370
50
100
AcDbPolyline
 90
3
 70
0
 10
257.0
 20
142.5
 10
257.0
 20
143.85
 10
257.0
 20
145.2
  0
LWPOLYLINE
  5
B6
330
17
100
AcDbEntity
  8
KANTEN
370
50
100
AcDbPolyline
 90
9
 70
0
 10
257.0
 20
145.2
 10
256.9884711682419
 20
145.31705419320969
 10
256.95432771950675
 20
145.42961005941905
 10
256.8988817673815
 20
145.53334213981177
 10
256.8242640687119
 20
145.62426406871194
 10
256.7333421398117
 20
145.69888176738152
 10
256.62961005941906
 20
145.75432771950676
 10
256.5170541932097
 20
145.78847116824193
 10
256.4
 20
145.8
  0
LWPOLYLINE
  5
B7
330
17
100
AcDbEntity
  8
KANTEN
370
50
100
AcDbPolyline
 90
3
 70
0
 10
255.61961524227067
 20
145.8
 10
256.00980762113534
 20
145.8
 10
256.4
 20
145.8
  0
LWPOLYLINE
  5
B8
330
17
100
AcDbEntity
  8
KANTEN
370
50
100
AcDbPolyline
 90
3
 70
0
 10
255.61961524227064
 20
145.8
 10
255.0598076211353
 20
145.65
 10
254.5
 20
145.5
  0
LWPOLYLINE
  5
B9
330
17
100
AcDbEntity
  8
KANTEN
370
50
100
AcDbPolyline
 90
3
 70
0
 10
228.0
 20
145.5
 10
241.25
 20
145.5
 10
254.5
 20
145.5
  0
LWPOLYLINE
  5
BA
330
17
100
AcDbEntity
  8
KANTEN
370
50
100
AcDbPolyline
 90
3
 70
0
 10
228.0
 20
145.5
 10
228.0
 20
149.25
 10
228.0
 20
153.0
  0
LWPOLYLINE
  5
BB
330
17
100
AcDbEntity
  8
KANTEN
370
50
100
AcDbPolyline
 90
3
 70
0
 10
309.0
 20
153.0
 10
268.5
 20
153.0
 10
228.0
 20
153.0
  0
LWPOLYLINE
  5
BC
330
17
100
AcDbEntity
  8
KANTEN
370
50
100
AcDbPolyline
 90
3
 70
0
 10
309.0
 20
153.0
 10
309.0
 20
149.25
 10
309.0
 20
145.5
  0
LWPOLYLINE
  5
BD
330
17
100
AcDbEntity
  8
KANTEN
370
50
100
AcDbPolyline
 90
3
 70
0
 10
295.5
 20
145.5
 10
302.25
 20
145.5
 10
309.0
 20
145.5
  0
LWPOLYLINE
  5
BE
330
17
100
AcDbEntity
  8
KANTEN
370
50
100
AcDbPolyline
 90
3
 70
0
 10
294.3803847577293
 20
145.8
 10
294.94019237886465
 20
145.65
 10
295.5
 20
145.5
  0
LWPOLYLINE
  5
BF
330
17
100
AcDbEntity
  8
KANTEN
370
50
100
AcDbPolyline
 90
3
 70
0
 10
293.6
 20
145.8
 10
293.99019237886466
 20
145.8
 10
294.3803847577293
 20
145.8
  0
LWPOLYLINE
  5
C0
330
17
100
AcDbEntity
  8
KANTEN
370
50
100
AcDbPolyline
 90
9
 70
0
 10
293.6
 20
145.8
 10
293.4829458067903
 20
145.78847116824193
 10
293.37038994058094
 20
145.75432771950676
 10
293.2666578601882
 20
145.69888176738152
 10
293.17573593128805
 20
145.62426406871194
 10
293.1011182326185
 20
145.53334213981177
 10
293.04567228049325
 20
145.42961005941905
 10
293.011528831758
 20
145.31705419320969
 10
293.0
 20
145.2
  0
LWPOLYLINE
  5
C1
330
17
100
AcDbEntity
  8
KANTEN
370
50
100
AcDbPolyline
 90
3
 70
0
 10
293.0
 20
145.2
 10
293.0
 20
143.85
 10
293.0
 20
142.5
  0
LWPOLYLINE
  5
C2
330
17
100
AcDbEntity
  8
KANTEN
370
50
100
AcDbPolyline
 90
11
 70
0
 10
293.0
 20
142.5
 10
292.68713106991953
 20
142.47537668119028
 10
292.3819660112501
 20
142.4021130325903
 10
292.0920190005209
 20
142.28201304837674
 10
291.8244294954151
 20
142.1180339887499
 10
291.5857864376269
 20
141.9142135623731
 10
291.3819660112501
 20
141.67557050458495
 10
291.2179869516233
 20
141.4079809994791
 10
291.0978869674097
 20
141.1180339887499
 10
291.02462331880974
 20
140.81286893008047
 10
291.0
 20
140.5
  0
LWPOLYLINE
  5
C3
330
17
100
AcDbEntity
  8
KANTEN
370
50
100
AcDbPolyline
 90
3
 70
0
 10
291.0
 20
140.5
 10
291.0
 20
136.0
 10
291.0
 20
131.5
  0
LWPOLYLINE
  5
C4
330
17
100
AcDbEntity
  8
KANTEN
370
50
100
AcDbPolyline
 90
11
 70
0
 10
289.0
 20
129.5
 10
289.31286893008047
 20
129.52462331880972
 10
289.6180339887499
 20
129.5978869674097
 10
289.9079809994791
 20
129.71798695162326
 10
290.1755705045849
 20
129.8819660112501
 10
290.4142135623731
 20
130.0857864376269
 10
290.6180339887499
 20
130.32442949541505
 10
290.7820130483767
 20
130.5920190005209
 10
290.9021130325903
 20
130.8819660112501
 10
290.97537668119026
 20
131.18713106991953
 10
291.0
 20
131.5
  0
LWPOLYLINE
  5
C5
330
17
100
AcDbEntity
  8
KANTEN
370
50
100
AcDbPolyline
 90
3
 70
0
 10
285.0
 20
128.5
 10
285.0
 20
129.0
 10
285.0
 20
129.5
  0
LWPOLYLINE
  5
C6
330
17
100
AcDbEntity
  8
KANTEN
370
50
100
AcDbPolyline
 90
3
 70
0
 10
285.0
 20
128.5
 10
284.25
 20
128.5
 10
283.5
 20
128.5
  0
LWPOLYLINE
  5
C7
330
17
100
AcDbEntity
  8
KANTEN
370
50
100
AcDbPolyline
 90
3
 70
0
 10
283.5
 20
120.0
 10
283.5
 20
124.25
 10
283.5
 20
128.5
  0
LWPOLYLINE
  5
C8
330
17
100
AcDbEntity
  8
KANTEN
370
50
100
AcDbPolyline
 90
3
 70
0
 10
266.5
 20
120.0
 10
275.0
 20
120.0
 10
283.5
 20
120.0
  0
LWPOLYLINE
  5
C9
330
17
100
AcDbEntity
  8
KANTEN
370
50
100
AcDbPolyline
 90
3
 70
0
 10
266.5
 20
120.0
 10
266.5
 20
124.25
 10
266.5
 20
128.5
  0
LWPOLYLINE
  5
CA
330
17
100
AcDbEntity
  8
KANTEN
370
50
100
AcDbPolyline
 90
3
 70
0
 10
266.5
 20
128.5
 10
265.75
 20
128.5
 10
265.0
 20
128.5
  0
LWPOLYLINE
  5
CB
330
17
100
AcDbEntity
  8
KANTEN
370
50
100
AcDbPolyline
 90
3
 70
0
 10
265.0
 20
128.5
 10
265.0
 20
129.0
 10
265.0
 20
129.5
  0
LINE
  5
CC
330
17
100
AcDbEntity
  8
KANTEN
370
50
100
AcDbLine
 10
266.5
 20
112.0
 30
0.0
 11
266.5
 21
120.0
 31
0.0
  0
LWPOLYLINE
  5
CD
330
17
100
AcDbEntity
  8
KANTEN
370
50
100
AcDbPolyline
 90
3
 70
0
 10
266.5
 20
107.0
 10
266.5
 20
109.5
 10
266.5
 20
112.0
  0
LINE
  5
CE
330
17
100
AcDbEntity
  8
KANTEN
370
50
100
AcDbLine
 10
283.5
 20
112.0
 30
0.0
 11
283.5
 21
120.0
 31
0.0
  0
LWPOLYLINE
  5
CF
330
17
100
AcDbEntity
  8
KANTEN
370
50
100
AcDbPolyline
 90
3
 70
0
 10
283.5
 20
107.0
 10
283.5
 20
109.5
 10
283.5
 20
112.0
  0
LINE
  5
D0
330
17
100
AcDbEntity
  8
KANTEN
370
50
100
AcDbLine
 10
283.5
 20
216.0
 30
0.0
 11
283.5
 21
224.0
 31
0.0
  0
LWPOLYLINE
  5
D1
330
17
100
AcDbEntity
  8
KANTEN
370
50
100
AcDbPolyline
 90
3
 70
0
 10
283.5
 20
229.0
 10
283.5
 20
226.5
 10
283.5
 20
224.0
  0
LINE
  5
D2
330
17
100
AcDbEntity
  8
KANTEN
370
50
100
AcDbLine
 10
266.5
 20
216.0
 30
0.0
 11
266.5
 21
224.0
 31
0.0
  0
LWPOLYLINE
  5
D3
330
17
100
AcDbEntity
  8
KANTEN
370
50
100
AcDbPolyline
 90
3
 70
0
 10
266.5
 20
229.0
 10
266.5
 20
226.5
 10
266.5
 20
224.0
  0
LINE
  5
D4
330
17
100
AcDbEntity
  8
KANTEN
370
50
100
AcDbLine
 10
309.0
 20
153.0
 30
0.0
 11
309.0
 21
164.0
 31
0.0
  0
LWPOLYLINE
  5
D5
330
17
100
AcDbEntity
  8
KANTEN
370
50
100
AcDbPolyline
 90
3
 70
0
 10
309.0
 20
164.0
 10
309.0
 20
168.0
 10
309.0
 20
172.0
  0
LINE
  5
D6
330
17
100
AcDbEntity
  8
KANTEN
370
50
100
AcDbLine
 10
309.0
 20
171.99999999999977
 30
0.0
 11
309.0
 21
183.0
 31
0.0
  0
LWPOLYLINE
  5
D7
330
17
100
AcDbEntity
  8
KANTEN
370
50
100
AcDbPolyline
 90
3
 70
0
 10
309.0
 20
172.0
 10
268.5
 20
172.0
 10
228.0
 20
172.0
  0
LINE
  5
D8
330
17
100
AcDbEntity
  8
KANTEN
370
50
100
AcDbLine
 10
228.0
 20
171.99999999999977
 30
0.0
 11
228.0
 21
183.0
 31
0.0
  0
LWPOLYLINE
  5
D9
330
17
100
AcDbEntity
  8
KANTEN
370
50
100
AcDbPolyline
 90
3
 70
0
 10
228.0
 20
164.0
 10
228.0
 20
168.0
 10
228.0
 20
172.0
  0
LINE
  5
DA
330
17
100
AcDbEntity
  8
KANTEN
370
50
100
AcDbLine
 10
228.0
 20
153.0
 30
0.0
 11
228.0
 21
164.0
 31
0.0
  0
LWPOLYLINE
  5
DB
330
17
100
AcDbEntity
  8
KANTEN
370
50
100
AcDbPolyline
 90
3
 70
0
 10
266.5
 20
224.0
 10
275.0
 20
224.0
 10
283.5
 20
224.0
  0
LWPOLYLINE
  5
DC
330
17
100
AcDbEntity
  8
KANTEN
370
50
100
AcDbPolyline
 90
3
 70
0
 10
309.0
 20
164.0
 10
268.5
 20
164.0
 10
228.0
 20
164.0
  0
LWPOLYLINE
  5
DD
330
17
100
AcDbEntity
  8
KANTEN
370
50
100
AcDbPolyline
 90
3
 70
0
 10
266.5
 20
112.0
 10
275.0
 20
112.0
 10
283.5
 20
112.0
  0
LWPOLYLINE
  5
DE
330
17
100
AcDbEntity
  8
KANTEN
370
50
100
AcDbPolyline
 90
3
 70
0
 10
283.5
 20
107.0
 10
275.0
 20
107.0
 10
266.5
 20
107.0
  0
LWPOLYLINE
  5
DF
330
17
100
AcDbEntity
  8
KANTEN
370
50
100
AcDbPolyline
 90
3
 70
0
 10
283.5
 20
229.0
 10
275.0
 20
229.0
 10
266.5
 20
229.0
  0
LINE
  5
E0
330
17
100
AcDbEntity
  8
DUENN
370
25
100
AcDbLine
 10
308.5180245558078
 20
183.0
 30
0.0
 11
309.0
 21
183.4819754441922
 31
0.0
  0
LINE
  5
E1
330
17
100
AcDbEntity
  8
DUENN
370
25
100
AcDbLine
 10
304.9824906498751
 20
183.0
 30
0.0
 11
309.0
 21
187.01750935012493
 31
0.0
  0
LINE
  5
E2
330
17
100
AcDbEntity
  8
DUENN
370
25
100
AcDbLine
 10
301.44695674394234
 20
183.0
 30
0.0
 11
308.92168851867734
 21
190.47473177473498
 31
0.0
  0
LINE
  5
E3
330
17
100
AcDbEntity
  8
DUENN
370
25
100
AcDbLine
 10
297.91142283800957
 20
183.0
 30
0.0
 11
305.41142283800957
 21
190.5
 31
0.0
  0
LINE
  5
E4
330
17
100
AcDbEntity
  8
DUENN
370
25
100
AcDbLine
 10
294.37588893207686
 20
183.0
 30
0.0
 11
301.87588893207686
 21
190.5
 31
0.0
  0
LINE
  5
E5
330
17
100
AcDbEntity
  8
DUENN
370
25
100
AcDbLine
 10
290.84035502614415
 20
183.0
 30
0.0
 11
298.34035502614415
 21
190.5
 31
0.0
  0
LINE
  5
E6
330
17
100
AcDbEntity
  8
DUENN
370
25
100
AcDbLine
 10
287.3048211202114
 20
183.0
 30
0.0
 11
294.5503679900344
 21
190.24554686982296
 31
0.0
  0
LINE
  5
E7
330
17
100
AcDbEntity
  8
DUENN
370
25
100
AcDbLine
 10
283.7692872142786
 20
183.0
 30
0.0
 11
293.0
 21
192.23071278572135
 31
0.0
  0
LINE
  5
E8
330
17
100
AcDbEntity
  8
DUENN
370
25
100
AcDbLine
 10
280.2337533083459
 20
183.0
 30
0.0
 11
291.4606758294308
 21
194.22692252108487
 31
0.0
  0
LINE
  5
E9
330
17
100
AcDbEntity
  8
DUENN
370
25
100
AcDbLine
 10
276.69821940241314
 20
183.0
 30
0.0
 11
291.0
 21
197.30178059758683
 31
0.0
  0
LINE
  5
EA
330
17
100
AcDbEntity
  8
DUENN
370
25
100
AcDbLine
 10
273.16268549648044
 20
183.0
 30
0.0
 11
291.0
 21
200.83731450351956
 31
0.0
  0
LINE
  5
EB
330
17
100
AcDbEntity
  8
DUENN
370
25
100
AcDbLine
 10
269.62715159054767
 20
183.0
 30
0.0
 11
291.0
 21
204.3728484094523
 31
0.0
  0
LINE
  5
EC
330
17
100
AcDbEntity
  8
DUENN
370
25
100
AcDbLine
 10
266.09161768461496
 20
183.0
 30
0.0
 11
289.5203371559241
 21
206.4287194713091
 31
0.0
  0
LINE
  5
ED
330
17
100
AcDbEntity
  8
DUENN
370
25
100
AcDbLine
 10
262.5560837786822
 20
183.0
 30
0.0
 11
286.05608377868225
 21
206.5
 31
0.0
  0
LINE
  5
EE
330
17
100
AcDbEntity
  8
DUENN
370
25
100
AcDbLine
 10
259.0205498727495
 20
183.0
 30
0.0
 11
283.55984558174805
 21
207.53929570899857
 31
0.0
  0
LINE
  5
EF
330
17
100
AcDbEntity
  8
DUENN
370
25
100
AcDbLine
 10
255.48501596681675
 20
183.0
 30
0.0
 11
283.5
 21
211.01498403318325
 31
0.0
  0
LINE
  5
F0
330
17
100
AcDbEntity
  8
DUENN
370
25
100
AcDbLine
 10
251.949482060884
 20
183.0
 30
0.0
 11
283.5
 21
214.550517939116
 31
0.0
  0
LINE
  5
F1
330
17
100
AcDbEntity
  8
DUENN
370
25
100
AcDbLine
 10
248.41394815495127
 20
183.0
 30
0.0
 11
255.6248634771835
 21
190.21091532223227
 31
0.0
  0
LINE
  5
F2
330
17
100
AcDbEntity
  8
DUENN
370
25
100
AcDbLine
 10
257.0
 20
191.58605184504873
 30
0.0
 11
281.4139481549513
 21
216.0
 31
0.0
  0
LINE
  5
F3
330
17
100
AcDbEntity
  8
DUENN
370
25
100
AcDbLine
 10
244.87841424901853
 20
183.0
 30
0.0
 11
252.37841424901853
 21
190.5
 31
0.0
  0
LINE
  5
F4
330
17
100
AcDbEntity
  8
DUENN
370
25
100
AcDbLine
 10
259.0
 20
197.12158575098147
 30
0.0
 11
277.87841424901853
 21
216.0
 31
0.0
  0
LINE
  5
F5
330
17
100
AcDbEntity
  8
DUENN
370
25
100
AcDbLine
 10
241.3428803430858
 20
183.0
 30
0.0
 11
248.8428803430858
 21
190.5
 31
0.0
  0
LINE
  5
F6
330
17
100
AcDbEntity
  8
DUENN
370
25
100
AcDbLine
 10
259.0
 20
200.6571196569142
 30
0.0
 11
264.84288034308577
 21
206.5
 31
0.0
  0
LINE
  5
F7
330
17
100
AcDbEntity
  8
DUENN
370
25
100
AcDbLine
 10
264.9970025984505
 20
206.65412225536465
 30
0.0
 11
265.84288034308577
 21
207.5
 31
0.0
  0
LINE
  5
F8
330
17
100
AcDbEntity
  8
DUENN
370
25
100
AcDbLine
 10
266.5
 20
208.1571196569142
 30
0.0
 11
274.34288034308577
 21
216.0
 31
0.0
  0
LINE
  5
F9
330
17
100
AcDbEntity
  8
DUENN
370
25
100
AcDbLine
 10
237.80734643715306
 20
183.0
 30
0.0
 11
245.30734643715306
 21
190.5
 31
0.0
  0
LINE
  5
FA
330
17
100
AcDbEntity
  8
DUENN
370
25
100
AcDbLine
 10
259.0
 20
204.19265356284694
 30
0.0
 11
261.30734643715306
 21
206.5
 31
0.0
  0
LINE
  5
FB
330
17
100
AcDbEntity
  8
DUENN
370
25
100
AcDbLine
 10
266.5
 20
211.69265356284694
 30
0.0
 11
270.80734643715306
 21
216.0
 31
0.0
  0
LINE
  5
FC
330
17
100
AcDbEntity
  8
DUENN
370
25
100
AcDbLine
 10
234.27181253122032
 20
183.0
 30
0.0
 11
241.77181253122032
 21
190.5
 31
0.0
  0
LINE
  5
FD
330
17
100
AcDbEntity
  8
DUENN
370
25
100
AcDbLine
 10
266.5
 20
215.22818746877968
 30
0.0
 11
267.27181253122035
 21
216.0
 31
0.0
  0
LINE
  5
FE
330
17
100
AcDbEntity
  8
DUENN
370
25
100
AcDbLine
 10
230.73627862528758
 20
183.0
 30
0.0
 11
238.23627862528758
 21
190.5
 31
0.0
  0
LINE
  5
FF
330
17
100
AcDbEntity
  8
DUENN
370
25
100
AcDbLine
 10
228.0
 20
183.79925528064516
 30
0.0
 11
234.70074471935484
 21
190.5
 31
0.0
  0
LINE
  5
100
330
17
100
AcDbEntity
  8
DUENN
370
25
100
AcDbLine
 10
228.0
 20
187.3347891865779
 30
0.0
 11
231.1652108134221
 21
190.5
 31
0.0
  0
LINE
  5
101
330
17
100
AcDbEntity
  8
DUENN
370
25
100
AcDbLine
 10
280.2337533083459
 20
120.0
 30
0.0
 11
283.5
 21
123.26624669165409
 31
0.0
  0
LINE
  5
102
330
17
100
AcDbEntity
  8
DUENN
370
25
100
AcDbLine
 10
290.00769707812253
 20
129.7739437697766
 30
0.0
 11
290.72959125295125
 21
130.49583794460534
 31
0.0
  0
LINE
  5
103
330
17
100
AcDbEntity
  8
DUENN
370
25
100
AcDbLine
 10
305.7337533083459
 20
145.5
 30
0.0
 11
309.0
 21
148.7662466916541
 31
0.0
  0
LINE
  5
104
330
17
100
AcDbEntity
  8
DUENN
370
25
100
AcDbLine
 10
276.6982194024132
 20
120.0
 30
0.0
 11
283.5
 21
126.80178059758683
 31
0.0
  0
LINE
  5
105
330
17
100
AcDbEntity
  8
DUENN
370
25
100
AcDbLine
 10
286.1982194024132
 20
129.5
 30
0.0
 11
291.0
 21
134.30178059758683
 31
0.0
  0
LINE
  5
106
330
17
100
AcDbEntity
  8
DUENN
370
25
100
AcDbLine
 10
302.1982194024132
 20
145.5
 30
0.0
 11
309.0
 21
152.30178059758683
 31
0.0
  0
LINE
  5
107
330
17
100
AcDbEntity
  8
DUENN
370
25
100
AcDbLine
 10
273.16268549648044
 20
120.0
 30
0.0
 11
291.0
 21
137.83731450351956
 31
0.0
  0
LINE
  5
108
330
17
100
AcDbEntity
  8
DUENN
370
25
100
AcDbLine
 10
298.66268549648044
 20
145.5
 30
0.0
 11
306.16268549648044
 21
153.0
 31
0.0
  0
LINE
  5
109
330
17
100
AcDbEntity
  8
DUENN
370
25
100
AcDbLine
 10
269.62715159054767
 20
120.0
 30
0.0
 11
293.0
 21
143.3728484094523
 31
0.0
  0
LINE
  5
10A
330
17
100
AcDbEntity
  8
DUENN
370
25
100
AcDbLine
 10
295.20594373049175
 20
145.57879213994406
 30
0.0
 11
302.62715159054767
 21
153.0
 31
0.0
  0
LINE
  5
10B
330
17
100
AcDbEntity
  8
DUENN
370
25
100
AcDbLine
 10
266.5
 20
120.40838231538504
 30
0.0
 11
299.09161768461496
 21
153.0
 31
0.0
  0
LINE
  5
10C
330
17
100
AcDbEntity
  8
DUENN
370
25
100
AcDbLine
 10
266.5
 20
123.94391622131778
 30
0.0
 11
295.55608377868225
 21
153.0
 31
0.0
  0
LINE
  5
10D
330
17
100
AcDbEntity
  8
DUENN
370
25
100
AcDbLine
 10
266.5
 20
127.47945012725052
 30
0.0
 11
292.0205498727495
 21
153.0
 31
0.0
  0
LINE
  5
10E
330
17
100
AcDbEntity
  8
DUENN
370
25
100
AcDbLine
 10
264.9466901988494
 20
129.4616742320327
 30
0.0
 11
288.4850159668168
 21
153.0
 31
0.0
  0
LINE
  5
10F
330
17
100
AcDbEntity
  8
DUENN
370
25
100
AcDbLine
 10
261.449482060884
 20
129.5
 30
0.0
 11
284.949482060884
 21
153.0
 31
0.0
  0
LINE
  5
110
330
17
100
AcDbEntity
  8
DUENN
370
25
100
AcDbLine
 10
259.1518051547302
 20
130.73785699977893
 30
0.0
 11
281.4139481549513
 21
153.0
 31
0.0
  0
LINE
  5
111
330
17
100
AcDbEntity
  8
DUENN
370
25
100
AcDbLine
 10
259.0
 20
134.12158575098147
 30
0.0
 11
277.87841424901853
 21
153.0
 31
0.0
  0
LINE
  5
112
330
17
100
AcDbEntity
  8
DUENN
370
25
100
AcDbLine
 10
259.0
 20
137.6571196569142
 30
0.0
 11
274.3428803430858
 21
153.0
 31
0.0
  0
LINE
  5
113
330
17
100
AcDbEntity
  8
DUENN
370
25
100
AcDbLine
 10
258.90758947188215
 20
141.1002430347291
 30
0.0
 11
270.80734643715306
 21
153.0
 31
0.0
  0
LINE
  5
114
330
17
100
AcDbEntity
  8
DUENN
370
25
100
AcDbLine
 10
257.0
 20
142.72818746877968
 30
0.0
 11
267.27181253122035
 21
153.0
 31
0.0
  0
LINE
  5
115
330
17
100
AcDbEntity
  8
DUENN
370
25
100
AcDbLine
 10
256.5179360936464
 20
145.78165746835887
 30
0.0
 11
263.7362786252876
 21
153.0
 31
0.0
  0
LINE
  5
116
330
17
100
AcDbEntity
  8
DUENN
370
25
100
AcDbLine
 10
252.70074471935484
 20
145.5
 30
0.0
 11
260.2007447193549
 21
153.0
 31
0.0
  0
LINE
  5
117
330
17
100
AcDbEntity
  8
DUENN
370
25
100
AcDbLine
 10
249.1652108134221
 20
145.5
 30
0.0
 11
256.6652108134221
 21
153.0
 31
0.0
  0
LINE
  5
118
330
17
100
AcDbEntity
  8
DUENN
370
25
100
AcDbLine
 10
245.62967690748937
 20
145.5
 30
0.0
 11
253.12967690748937
 21
153.0
 31
0.0
  0
LINE
  5
119
330
17
100
AcDbEntity
  8
DUENN
370
25
100
AcDbLine
 10
242.09414300155663
 20
145.5
 30
0.0
 11
249.59414300155663
 21
153.0
 31
0.0
  0
LINE
  5
11A
330
17
100
AcDbEntity
  8
DUENN
370
25
100
AcDbLine
 10
238.5586090956239
 20
145.5
 30
0.0
 11
246.0586090956239
 21
153.0
 31
0.0
  0
LINE
  5
11B
330
17
100
AcDbEntity
  8
DUENN
370
25
100
AcDbLine
 10
235.02307518969116
 20
145.5
 30
0.0
 11
242.52307518969116
 21
153.0
 31
0.0
  0
LINE
  5
11C
330
17
100
AcDbEntity
  8
DUENN
370
25
100
AcDbLine
 10
231.48754128375842
 20
145.5
 30
0.0
 11
238.98754128375842
 21
153.0
 31
0.0
  0
LINE
  5
11D
330
17
100
AcDbEntity
  8
DUENN
370
25
100
AcDbLine
 10
228.0
 20
145.54799262217432
 30
0.0
 11
235.45200737782568
 21
153.0
 31
0.0
  0
LINE
  5
11E
330
17
100
AcDbEntity
  8
DUENN
370
25
100
AcDbLine
 10
228.0
 20
149.08352652810706
 30
0.0
 11
231.91647347189294
 21
153.0
 31
0.0
  0
LINE
  5
11F
330
17
100
AcDbEntity
  8
DUENN
370
25
100
AcDbLine
 10
228.0
 20
152.6190604340398
 30
0.0
 11
228.3809395659602
 21
153.0
 31
0.0
  0
LINE
  5
120
330
17
100
AcDbEntity
  8
DUENN
370
25
100
AcDbLine
 10
283.41779254855237
 20
107.0
 30
0.0
 11
283.5
 21
107.08220745144762
 31
0.0
  0
LINE
  5
121
330
17
100
AcDbEntity
  8
DUENN
370
25
100
AcDbLine
 10
279.88225864261966
 20
107.0
 30
0.0
 11
283.5
 21
110.61774135738035
 31
0.0
  0
LINE
  5
122
330
17
100
AcDbEntity
  8
DUENN
370
25
100
AcDbLine
 10
276.3467247366869
 20
107.0
 30
0.0
 11
281.3467247366869
 21
112.0
 31
0.0
  0
LINE
  5
123
330
17
100
AcDbEntity
  8
DUENN
370
25
100
AcDbLine
 10
272.8111908307542
 20
107.0
 30
0.0
 11
277.8111908307542
 21
112.0
 31
0.0
  0
LINE
  5
124
330
17
100
AcDbEntity
  8
DUENN
370
25
100
AcDbLine
 10
269.2756569248214
 20
107.0
 30
0.0
 11
274.2756569248214
 21
112.0
 31
0.0
  0
LINE
  5
125
330
17
100
AcDbEntity
  8
DUENN
370
25
100
AcDbLine
 10
266.5
 20
107.7598769811113
 30
0.0
 11
270.7401230188887
 21
112.0
 31
0.0
  0
LINE
  5
126
330
17
100
AcDbEntity
  8
DUENN
370
25
100
AcDbLine
 10
266.5
 20
111.29541088704404
 30
0.0
 11
267.20458911295594
 21
112.0
 31
0.0
  0
LINE
  5
127
330
17
100
AcDbEntity
  8
DUENN
370
25
100
AcDbLine
 10
283.41779254855237
 20
224.0
 30
0.0
 11
283.5
 21
224.08220745144763
 31
0.0
  0
LINE
  5
128
330
17
100
AcDbEntity
  8
DUENN
370
25
100
AcDbLine
 10
279.88225864261966
 20
224.0
 30
0.0
 11
283.5
 21
227.61774135738034
 31
0.0
  0
LINE
  5
129
330
17
100
AcDbEntity
  8
DUENN
370
25
100
AcDbLine
 10
276.3467247366869
 20
224.0
 30
0.0
 11
281.3467247366869
 21
229.0
 31
0.0
  0
LINE
  5
12A
330
17
100
AcDbEntity
  8
DUENN
370
25
100
AcDbLine
 10
272.8111908307542
 20
224.0
 30
0.0
 11
277.8111908307542
 21
229.0
 31
0.0
  0
LINE
  5
12B
330
17
100
AcDbEntity
  8
DUENN
370
25
100
AcDbLine
 10
269.2756569248214
 20
224.0
 30
0.0
 11
274.2756569248214
 21
229.0
 31
0.0
  0
LINE
  5
12C
330
17
100
AcDbEntity
  8
DUENN
370
25
100
AcDbLine
 10
266.5
 20
224.7598769811113
 30
0.0
 11
270.7401230188887
 21
229.0
 31
0.0
  0
LINE
  5
12D
330
17
100
AcDbEntity
  8
DUENN
370
25
100
AcDbLine
 10
266.5
 20
228.29541088704406
 30
0.0
 11
267.20458911295594
 21
229.0
 31
0.0
  0
LWPOLYLINE
  5
12E
330
17
100
AcDbEntity
  8
KANTEN
370
50
100
AcDbPolyline
 90
36
 70
0
 10
93.41052631578947
 20
203.62860167923697
 10
93.68983473890242
 20
203.74852172135155
 10
93.96493428998917
 20
203.87780531936178
 10
94.23551117212199
 20
204.01630500375808
 10
94.50125674723151
 20
204.16386279254715
 10
94.76186788815991
 20
204.3203103714565
 10
95.01704732442806
 20
204.48546928592515
 10
95.26650398132207
 20
204.6591511446608
 10
95.50995331191253
 20
204.84115783453143
 10
95.74711762162777
 20
205.03128174654643
 10
95.97772638501087
 20
205.22930601266933
 10
96.20151655429902
 20
205.43500475319195
 10
96.41823285947339
 20
205.64814333438775
 10
96.62762809943719
 20
205.86847863615102
 10
96.82946342398972
 20
206.0957593293156
 10
97.0235086062749
 20
206.32972616233795
 10
97.2095423053934
 20
206.5701122570167
 10
97.38735231887883
 20
206.81664341291167
 10
97.55673582475005
 20
207.0690384201154
 10
97.71749961286355
 20
207.3270093800198
 10
97.86946030530173
 20
207.5902620337126
 10
98.0124445655461
 20
207.85849609762874
 10
98.14628929619646
 20
208.13140560607383
 10
98.27084182501065
 20
208.40867926022906
 10
98.38596007905281
 20
208.69000078323944
 10
98.49151274675114
 20
208.9750492809804
 10
98.58737942768076
 20
209.26349960809085
 10
98.6734507699004
 20
209.555022738856
 10
98.7496285946866
 20
209.84928614251578
 10
98.81582600852285
 20
210.14595416257185
 10
98.8719675022162
 20
210.44468839965975
 10
98.91798903702801
 20
210.74514809754976
 10
98.95383811772096
 20
211.0469905318364
 10
98.97947385243846
 20
211.34987140087253
 10
98.99486699934874
 20
211.65344521850312
 10
99.0
 20
211.95736570814952
  0
LWPOLYLINE
  5
12F
330
17
100
AcDbEntity
  8
KANTEN
370
50
100
AcDbPolyline
 90
3
 70
0
 10
99.0
 20
220.0
 10
99.0
 20
215.97868285407475
 10
99.0
 20
211.95736570814952
  0
LWPOLYLINE
  5
130
330
17
100
AcDbEntity
  8
KANTEN
370
50
100
AcDbPolyline
 90
95
 70
0
 10
99.0
 20
220.0
 10
99.0050259264277
 20
220.30073479306907
 10
99.02009809239162
 20
220.6011337037061
 10
99.04519966420347
 20
220.90086122461688
 10
99.08030260660698
 20
221.199582598364
 10
99.12536771408975
 20
221.49696419124817
 10
99.18034465467072
 20
221.79267386593452
 10
99.24517202611466
 20
222.08638135240776
 10
99.31977742451062
 20
222.37775861684156
 10
99.4040775251378
 20
222.6664802279707
 10
99.49797817552873
 20
222.9522237205561
 10
99.60137450062558
 20
223.2346699555376
 10
99.71415101991214
 20
223.51350347647144
 10
99.83618177639093
 20
223.78841286185502
 10
99.96733047726107
 20
224.0590910729449
 10
100.10745064613995
 20
224.32523579668015
 10
100.25638578665874
 20
224.58654978332726
 10
100.41396955724883
 20
224.84274117847036
 10
100.58002595692416
 20
225.09352384897537
 10
100.75436952185194
 20
225.3386177025642
 10
100.93680553249204
 20
225.5777490006422
 10
101.127130231074
 20
225.81065066402923
 10
101.32513104916838
 20
226.03706257125302
 10
101.53058684509864
 20
226.2567318490718
 10
101.74326815092822
 20
226.46941315490136
 10
101.96293742874698
 20
226.6748689508316
 10
102.18934933597077
 20
226.872869768926
 10
102.4222509993578
 20
227.06319446750794
 10
102.66138229743581
 20
227.24563047814806
 10
102.90647615102465
 20
227.41997404307585
 10
103.15725882152965
 20
227.58603044275117
 10
103.41345021667274
 20
227.74361421334126
 10
103.67476420331984
 20
227.89254935386003
 10
103.94090892705509
 20
228.03266952273893
 10
104.21158713814498
 20
228.16381822360907
 10
104.48649652352854
 20
228.28584898008785
 10
104.76533004446239
 20
228.39862549937442
 10
105.04777627944388
 20
228.50202182447129
 10
105.33351977202929
 20
228.59592247486222
 10
105.62224138315842
 20
228.68022257548938
 10
105.91361864759224
 20
228.75482797388534
 10
106.20732613406548
 20
228.8196553453293
 10
106.50303580875183
 20
228.87463228591025
 10
106.80041740163598
 20
228.91969739339302
 10
107.09913877538311
 20
228.95480033579653
 10
107.3988662962939
 20
228.9799019076084
 10
107.69926520693093
 20
228.99497407357228
 10
108.0
 20
229.0
 10
108.30073479306907
 20
228.99497407357228
 10
108.6011337037061
 20
228.9799019076084
 10
108.90086122461689
 20
228.95480033579653
 10
109.199582598364
 20
228.91969739339302
 10
109.49696419124817
 20
228.87463228591025
 10
109.79267386593452
 20
228.8196553453293
 10
110.08638135240776
 20
228.75482797388534
 10
110.37775861684158
 20
228.68022257548938
 10
110.66648022797071
 20
228.59592247486222
 10
110.95222372055612
 20
228.50202182447129
 10
111.23466995553761
 20
228.39862549937442
 10
111.51350347647146
 20
228.28584898008785
 10
111.78841286185501
 20
228.16381822360907
 10
112.05909107294491
 20
228.03266952273893
 10
112.32523579668015
 20
227.89254935386003
 10
112.58654978332726
 20
227.74361421334126
 10
112.84274117847035
 20
227.58603044275117
 10
113.09352384897535
 20
227.41997404307585
 10
113.33861770256419
 20
227.24563047814806
 10
113.5777490006422
 20
227.06319446750794
 10
113.81065066402923
 20
226.872869768926
 10
114.03706257125302
 20
226.6748689508316
 10
114.25673184907178
 20
226.46941315490136
 10
114.46941315490136
 20
226.2567318490718
 10
114.67486895083162
 20
226.03706257125302
 10
114.872869768926
 20
225.81065066402923
 10
115.06319446750796
 20
225.5777490006422
 10
115.24563047814806
 20
225.3386177025642
 10
115.41997404307584
 20
225.09352384897537
 10
115.58603044275117
 20
224.84274117847036
 10
115.74361421334125
 20
224.58654978332726
 10
115.89254935386005
 20
224.32523579668015
 10
116.03266952273893
 20
224.0590910729449
 10
116.16381822360907
 20
223.78841286185502
 10
116.28584898008786
 20
223.51350347647144
 10
116.39862549937442
 20
223.2346699555376
 10
116.50202182447127
 20
222.95222372055613
 10
116.5959224748622
 20
222.6664802279707
 10
116.68022257548938
 20
222.37775861684156
 10
116.75482797388534
 20
222.08638135240776
 10
116.81965534532928
 20
221.79267386593452
 10
116.87463228591025
 20
221.49696419124817
 10
116.91969739339302
 20
221.199582598364
 10
116.95480033579653
 20
220.90086122461688
 10
116.97990190760838
 20
220.6011337037061
 10
116.9949740735723
 20
220.30073479306907
 10
117.0
 20
220.0
  0
LWPOLYLINE
  5
131
330
17
100
AcDbEntity
  8
KANTEN
370
50
100
AcDbPolyline
 90
3
 70
0
 10
117.0
 20
211.95736570814952
 10
117.0
 20
215.97868285407475
 10
117.0
 20
220.0
  0
LWPOLYLINE
  5
132
330
17
100
AcDbEntity
  8
KANTEN
370
50
100
AcDbPolyline
 90
36
 70
0
 10
122.58947368421053
 20
203.62860167923697
 10
122.3101652610976
 20
203.74852172135155
 10
122.03506571001084
 20
203.87780531936176
 10
121.76448882787801
 20
204.01630500375808
 10
121.4987432527685
 20
204.16386279254715
 10
121.2381321118401
 20
204.3203103714565
 10
120.98295267557194
 20
204.48546928592515
 10
120.73349601867794
 20
204.6591511446608
 10
120.49004668808749
 20
204.84115783453143
 10
120.25288237837225
 20
205.03128174654643
 10
120.02227361498913
 20
205.22930601266933
 10
119.79848344570098
 20
205.43500475319195
 10
119.58176714052662
 20
205.64814333438775
 10
119.37237190056281
 20
205.868478636151
 10
119.17053657601028
 20
206.0957593293156
 10
118.9764913937251
 20
206.32972616233795
 10
118.7904576946066
 20
206.57011225701666
 10
118.61264768112119
 20
206.81664341291165
 10
118.44326417524995
 20
207.0690384201154
 10
118.28250038713647
 20
207.32700938001977
 10
118.13053969469827
 20
207.5902620337126
 10
117.9875554344539
 20
207.85849609762874
 10
117.85371070380354
 20
208.13140560607383
 10
117.72915817498935
 20
208.40867926022904
 10
117.61403992094719
 20
208.69000078323944
 10
117.50848725324886
 20
208.9750492809804
 10
117.41262057231924
 20
209.26349960809085
 10
117.3265492300996
 20
209.555022738856
 10
117.2503714053134
 20
209.84928614251578
 10
117.18417399147715
 20
210.14595416257185
 10
117.1280324977838
 20
210.44468839965975
 10
117.08201096297199
 20
210.74514809754976
 10
117.04616188227904
 20
211.04699053183637
 10
117.02052614756154
 20
211.34987140087253
 10
117.00513300065126
 20
211.6534452185031
 10
117.0
 20
211.95736570814952
  0
LWPOLYLINE
  5
133
330
17
100
AcDbEntity
  8
KANTEN
370
50
100
AcDbPolyline
 90
83
 70
1
 10
104.0
 20
220.0
 10
104.01145581888139
 20
219.69748501646217
 10
104.04575765763245
 20
219.3967028113545
 10
104.10270903842715
 20
219.0993762379092
 10
104.18198374891378
 20
218.80720835581334
 10
104.28312771072974
 20
218.52187267623697
 10
104.40556158042128
 20
218.24500357611294
 10
104.54858406787031
 20
217.97818693657368
 10
104.71137595322077
 20
217.72295105916774
 10
104.89300477929565
 20
217.4807579118869
 10
105.09243019262742
 20
217.252994755146
 10
105.30850990250832
 20
217.0409661956807
 10
105.54000622392819
 20
216.84588671387854
 10
105.78559316692206
 20
216.66887370734497
 10
106.04386403172067
 20
216.51094109055123
 10
106.31333946619927
 20
216.37299348722408
 10
106.59247593947266
 20
216.25582104874292
 10
106.87967458310037
 20
216.1600949282243
 10
107.17329034926018
 20
216.0863634362177
 10
107.47164143343319
 20
216.03504890003225
 10
107.7730189076277
 20
216.0064452446842
 10
108.07569650896407
 20
216.00071630932104
 10
108.37794052755213
 20
216.01789490876575
 10
108.67801973702439
 20
216.0578826455564
 10
108.97421531084397
 20
216.1204504735579
 10
109.26483066758729
 20
216.20524000991753
 10
109.54820118880887
 20
216.31176558784955
 10
109.82270375382497
 20
216.4394170384904
 10
110.08676603680193
 20
216.5874631858909
 10
110.3388755128962
 20
216.75505603512562
 10
110.5775881218595
 20
216.9412356295313
 10
110.8015365394854
 20
217.14493554925144
 10
111.00943800951832
 20
217.36498901959283
 10
111.20010169116534
 20
217.60013559420523
 10
111.37243548012434
 20
217.84902837480394
 10
111.5254522640586
 20
218.1102417260813
 10
111.65827557668683
 20
218.3822794416165
 10
111.77014461810269
 20
218.66358331401045
 10
111.86041861256773
 20
218.95254206015676
 10
111.92858047881681
 20
219.24750055052547
 10
111.97423979185274
 20
219.54676928959492
 10
111.99713501926533
 20
219.8486340931293
 10
111.99713501926533
 20
220.1513659068707
 10
111.97423979185274
 20
220.45323071040508
 10
111.92858047881681
 20
220.75249944947453
 10
111.86041861256773
 20
221.04745793984324
 10
111.77014461810269
 20
221.33641668598955
 10
111.65827557668683
 20
221.6177205583835
 10
111.5254522640586
 20
221.8897582739187
 10
111.37243548012434
 20
222.15097162519606
 10
111.20010169116534
 20
222.39986440579477
 10
111.00943800951832
 20
222.63501098040717
 10
110.8015365394854
 20
222.85506445074856
 10
110.5775881218595
 20
223.0587643704687
 10
110.3388755128962
 20
223.24494396487438
 10
110.08676603680193
 20
223.4125368141091
 10
109.82270375382497
 20
223.5605829615096
 10
109.54820118880887
 20
223.68823441215045
 10
109.26483066758729
 20
223.79475999008247
 10
108.97421531084397
 20
223.8795495264421
 10
108.67801973702439
 20
223.9421173544436
 10
108.37794052755213
 20
223.98210509123425
 10
108.07569650896409
 20
223.99928369067896
 10
107.7730189076277
 20
223.9935547553158
 10
107.47164143343319
 20
223.96495109996775
 10
107.17329034926018
 20
223.9136365637823
 10
106.87967458310037
 20
223.8399050717757
 10
106.59247593947266
 20
223.74417895125708
 10
106.31333946619927
 20
223.62700651277595
 10
106.04386403172066
 20
223.48905890944877
 10
105.78559316692206
 20
223.33112629265503
 10
105.54000622392819
 20
223.15411328612146
 10
105.30850990250832
 20
222.9590338043193
 10
105.09243019262743
 20
222.747005244854
 10
104.89300477929567
 20
222.5192420881131
 10
104.71137595322077
 20
222.27704894083226
 10
104.54858406787031
 20
222.02181306342632
 10
104.40556158042128
 20
221.75499642388706
 10
104.28312771072974
 20
221.47812732376303
 10
104.18198374891378
 20
221.19279164418666
 10
104.10270903842715
 20
220.9006237620908
 10
104.04575765763245
 20
220.6032971886455
 10
104.01145581888139
 20
220.30251498353783
  0
LWPOLYLINE
  5
134
330
17
100
AcDbEntity
  8
KANTEN
370
50
100
AcDbPolyline
 90
3
 70
0
 10
99.0
 20
207.5
 10
99.0
 20
206.4666369842448
 10
99.0
 20
205.43327396848957
  0
LWPOLYLINE
  5
135
330
17
100
AcDbEntity
  8
KANTEN
370
50
100
AcDbPolyline
 90
3
 70
0
 10
117.0
 20
207.5
 10
108.0
 20
207.5
 10
99.0
 20
207.5
  0
LWPOLYLINE
  5
136
330
17
100
AcDbEntity
  8
KANTEN
370
50
100
AcDbPolyline
 90
3
 70
0
 10
117.0
 20
205.43327396848957
 10
117.0
 20
206.4666369842448
 10
117.0
 20
207.5
  0
LWPOLYLINE
  5
137
330
17
100
AcDbEntity
  8
KANTEN
370
50
100
AcDbPolyline
 90
294
 70
1
 10
108.0
 20
206.5
 10
107.0997000585349
 20
206.48947206724714
 10
106.19989249614727
 20
206.45789402677391
 10
105.30106942262968
 20
206.40528314878742
 10
104.70264376011282
 20
206.358538056439
 10
104.10501960348387
 20
206.30246895058798
 10
103.21040390315932
 20
206.20091319889002
 10
102.31840765975015
 20
206.078465153932
 10
101.42951871099487
 20
205.93519178323518
 10
100.54422319523515
 20
205.77117144380793
 10
99.66300528554405
 20
205.58649383929196
 10
98.78634692492902
 20
205.381259970903
 10
97.91472756275466
 20
205.15558208219244
 10
97.04862389252905
 20
204.90958359766086
 10
96.18850959119752
 20
204.64339905525642
 10
95.33485506008597
 20
204.35717403279537
 10
94.48812716763585
 20
204.05106506834466
 10
93.92771888373545
 20
203.8360280190875
 10
93.37073122392002
 20
203.61228011623535
 10
92.54195933440866
 20
203.26044496005295
 10
91.72164153386449
 20
202.8893256691498
 10
90.91022645868438
 20
202.4991252107434
 10
90.37444838589566
 20
202.22849588133465
 10
89.8429546495172
 20
201.94954644970255
 10
89.05402949291997
 20
201.51567098455368
 10
88.2754659936441
 20
201.06346561133768
 10
87.50768995242541
 20
200.59317764370442
 10
86.75112127027846
 20
200.1050642847758
 10
86.0061737188505
 20
199.59939248648013
 10
85.27325471412726
 20
199.0764388035544
 10
84.55276509361498
 20
198.53648924229503
 10
83.8450988971201
 20
197.9798391041395
 10
83.15064315124668
 20
197.40679282416423
 10
82.46977765772938
 20
196.8176638045874
 10
82.02360166695681
 20
196.4161350229596
 10
81.58373989724365
 20
196.0076989805218
 10
80.93601986756074
 20
195.3823114325824
 10
80.30310128010427
 20
194.7419483452466
 10
79.68533028159253
 20
194.0869599366714
 10
79.08304473444258
 20
193.41770442368372
 10
78.69028708224313
 20
192.96378834789857
 10
78.30465389757683
 20
192.50380419153933
 10
77.7397670697203
 20
191.80269528866882
 10
77.19142973263655
 20
191.08856855850811
 10
76.65994177508458
 20
190.36181456096332
 10
76.14559387080338
 20
189.62283076186375
 10
75.8123568236606
 20
189.12357987540588
 10
75.4869437978387
 20
188.61919436823615
 10
75.01366680528042
 20
187.8532572231093
 10
74.558430222989
 20
187.07646222047748
 10
74.12148302239953
 20
186.28923419387584
 10
73.70306417238184
 20
185.49200368271863
 10
73.30340250854712
 20
184.68520669683497
 10
72.92271660809647
 20
183.8692844780125
 10
72.67957134356011
 20
183.3204869219402
 10
72.44501160314421
 20
182.7679653337706
 10
72.10939399798366
 20
181.93249442160405
 10
71.79340516614509
 20
181.08940375025048
 10
71.59373660491678
 20
180.52333763849813
 10
71.40291750742387
 20
179.95422741257576
 10
71.13338247842725
 20
179.0951571650908
 10
70.88401000891596
 20
178.23001891404652
 10
70.65493648208944
 20
177.3592858083951
 10
70.44628717954177
 20
176.48343405694598
 10
70.25817621274443
 20
175.60294266792468
 10
70.09070646063813
 20
174.71829318700043
 10
69.9439695133677
 20
173.8299694339262
 10
69.81804562219101
 20
172.938457237935
 10
69.74569364907941
 20
172.34258512984113
 10
69.68264035331633
 20
171.7456574465236
 10
69.60552833788188
 20
170.84860418219324
 10
69.54941447391447
 20
169.94999300029045
 10
69.51432945040038
 20
169.0503153563006
 10
69.50029245553539
 20
168.1500632889632
 10
69.50731116623054
 20
167.24972915117309
 10
69.53538174391366
 20
166.34980534070985
 10
69.58448883662871
 20
165.45078403094283
 10
69.62890106160111
 20
164.8521807136363
 10
69.68264035331633
 20
164.25434255347642
 10
69.78070834722493
 20
163.35933781017008
 10
69.89967868567285
 20
162.4668710709917
 10
70.03948630311609
 20
161.57743043099654
 10
70.20005473798606
 20
160.69150233024936
 10
70.38129617450696
 20
159.80957128778746
 10
70.58311149072264
 20
158.9321196366346
 10
70.80539031270698
 20
158.05962726001042
 10
70.96488523457873
 20
157.48095658759428
 10
71.13338247842725
 20
156.9048428349092
 10
71.40291750742387
 20
156.04577258742424
 10
71.6924676856897
 20
155.1932401738256
 10
71.8965429123374
 20
154.62874776547443
 10
72.10939399798366
 20
154.06750557839595
 10
72.44501160314421
 20
153.2320346662294
 10
72.80007443047987
 20
152.40464043696835
 10
73.17438829414289
 20
151.58577539714813
 10
73.43452522652643
 20
151.04482516503109
 10
73.70306417238184
 20
150.50799631728137
 10
74.12148302239953
 20
149.71076580612416
 10
74.558430222989
 20
148.92353777952252
 10
75.01366680528042
 20
148.1467427768907
 10
75.4869437978387
 20
147.38080563176385
 10
75.97800236282745
 20
146.62614523945396
 10
76.48657393756874
 20
145.8831743279539
 10
77.01238038142156
 20
145.1522992322139
 10
77.55513412789861
 20
144.43391967191496
 10
78.11453834193777
 20
143.72842853285982
 10
78.69028708224313
 20
143.03621165210143
 10
79.28206546860582
 20
142.35764760692658
 10
79.88954985411385
 20
141.69310750780986
 10
80.30310128010429
 20
141.25805165475336
 10
80.72338513831781
 20
140.82949610906235
 10
81.36621031830686
 20
140.19907830320483
 10
81.8028747857178
 20
139.7872257566325
 10
82.2459071274431
 20
139.38223103888575
 10
82.92215941519444
 20
138.78781227632754
 10
83.61212691433609
 20
138.20936982275217
 10
84.31543227778064
 20
137.64722003157527
 10
85.03169086388809
 20
137.10167034566433
 10
85.51619966300865
 20
136.74734055466146
 10
86.00617371885048
 20
136.40060751351987
 10
86.75112127027847
 20
135.89493571522416
 10
87.5076899524254
 20
135.4068223562956
 10
88.2754659936441
 20
134.93653438866232
 10
89.05402949291997
 20
134.48432901544632
 10
89.8429546495172
 20
134.05045355029745
 10
90.37444838589568
 20
133.77150411866535
 10
90.91022645868438
 20
133.50087478925664
 10
91.72164153386449
 20
133.1106743308502
 10
92.54195933440866
 20
132.73955503994705
 10
93.37073122392002
 20
132.38771988376465
 10
93.92771888373545
 20
132.1639719809125
 10
94.48812716763585
 20
131.94893493165534
 10
95.33485506008594
 20
131.64282596720463
 10
96.18850959119752
 20
131.35660094474358
 10
97.04862389252905
 20
131.09041640233914
 10
97.91472756275465
 20
130.84441791780756
 10
98.78634692492903
 20
130.618740029097
 10
99.66300528554405
 20
130.41350616070804
 10
100.54422319523515
 20
130.22882855619207
 10
101.42951871099486
 20
130.06480821676485
 10
102.31840765975015
 20
129.921534846068
 10
103.2104039031593
 20
129.79908680111
 10
104.10501960348385
 20
129.69753104941202
 10
104.70264376011282
 20
129.641461943561
 10
105.30106942262968
 20
129.59471685121258
 10
106.19989249614726
 20
129.54210597322609
 10
107.0997000585349
 20
129.51052793275286
 10
108.0
 20
129.5
 10
108.9002999414651
 20
129.51052793275286
 10
109.80010750385271
 20
129.54210597322609
 10
110.69893057737033
 20
129.59471685121258
 10
111.29735623988718
 20
129.641461943561
 10
111.89498039651613
 20
129.69753104941202
 10
112.78959609684067
 20
129.79908680110998
 10
113.68159234024984
 20
129.92153484606797
 10
114.57048128900513
 20
130.06480821676482
 10
115.45577680476485
 20
130.22882855619207
 10
116.33699471445597
 20
130.41350616070804
 10
117.21365307507098
 20
130.618740029097
 10
118.08527243724532
 20
130.84441791780756
 10
118.95137610747096
 20
131.09041640233914
 10
119.81149040880248
 20
131.35660094474358
 10
120.66514493991403
 20
131.64282596720463
 10
121.51187283236413
 20
131.94893493165534
 10
122.07228111626455
 20
132.1639719809125
 10
122.62926877607998
 20
132.38771988376465
 10
123.18270042186279
 20
132.62012425262114
 10
123.7324415280444
 20
132.86112859571804
 10
124.54984136653735
 20
133.23863134537925
 10
125.3581900041484
 20
133.63514528213625
 10
126.1570453504828
 20
134.05045355029745
 10
126.94597050708003
 20
134.48432901544632
 10
127.72453400635588
 20
134.9365343886623
 10
128.4923100475746
 20
135.40682235629558
 10
129.24887872972153
 20
135.89493571522416
 10
129.9938262811495
 20
136.40060751351984
 10
130.48380033699135
 20
136.7473405546615
 10
130.9683091361119
 20
137.10167034566433
 10
131.68456772221933
 20
137.64722003157527
 10
132.3878730856639
 20
138.20936982275214
 10
133.07784058480556
 20
138.78781227632754
 10
133.7540928725569
 20
139.38223103888575
 10
134.41626010275633
 20
139.99230101947816
 10
134.84970073187432
 20
140.40754504200854
 10
135.2766148616822
 20
140.82949610906235
 10
135.9045223083211
 20
141.47477361558606
 10
136.51716861551262
 20
142.13455791689574
 10
137.11421872356203
 20
142.80848817326378
 10
137.6953461024232
 20
143.49619580846067
 10
138.07376108165073
 20
143.9621362346029
 10
138.4448658721014
 20
144.43391967191496
 10
138.9876196185784
 20
145.15229923221386
 10
139.51342606243128
 20
145.8831743279539
 10
140.02199763717255
 20
146.626145239454
 10
140.5130562021613
 20
147.38080563176385
 10
140.98633319471958
 20
148.1467427768907
 10
141.44156977701098
 20
148.9235377795225
 10
141.73491502269638
 20
149.44722370071116
 10
142.02006014347825
 20
149.9754193437372
 10
142.43225152021404
 20
150.77588738864267
 10
142.8256117058571
 20
151.5857753971481
 10
143.1999255695201
 20
152.4046404369683
 10
143.5549883968558
 20
153.23203466622942
 10
143.89060600201634
 20
154.06750557839598
 10
144.2065948338549
 20
154.91059624974952
 10
144.50278207631055
 20
155.7608455892827
 10
144.7790057429225
 20
156.61778859087238
 10
145.03511476542124
 20
157.48095658759425
 10
145.27096907634888
 20
158.34987750803927
 10
145.41688850927736
 20
158.9321196366346
 10
145.55371282045823
 20
159.516565943054
 10
145.74182378725556
 20
160.39705733207532
 10
145.90929353936187
 20
161.2817068129996
 10
146.0560304866323
 20
162.17003056607382
 10
146.181954377809
 20
163.06154276206496
 10
146.2543063509206
 20
163.65741487015887
 10
146.31735964668368
 20
164.25434255347642
 10
146.39447166211812
 20
165.15139581780676
 10
146.45058552608555
 20
166.05000699970955
 10
146.4856705495996
 20
166.9496846436994
 10
146.49970754446463
 20
167.84993671103678
 10
146.49268883376948
 20
168.75027084882691
 10
146.47631350083006
 20
169.35029603637201
 10
146.45058552608555
 20
169.94999300029042
 10
146.39447166211812
 20
170.84860418219327
 10
146.31735964668368
 20
171.74565744652358
 10
146.21929165277507
 20
172.64066218982995
 10
146.10032131432715
 20
173.5331289290083
 10
145.9605136968839
 20
174.42256956900346
 10
145.79994526201392
 20
175.30849766975064
 10
145.61870382549304
 20
176.19042871221254
 10
145.41688850927736
 20
177.06788036336542
 10
145.19460968729302
 20
177.9403727399896
 10
145.03511476542127
 20
178.51904341240575
 10
144.86661752157275
 20
179.0951571650908
 10
144.59708249257613
 20
179.9542274125758
 10
144.30753231431027
 20
180.8067598261744
 10
143.99812534338847
 20
181.6522881511376
 10
143.66903079621503
 20
182.49034996329158
 10
143.3204286564399
 20
183.32048692194016
 10
142.95250957652465
 20
184.14224502053392
 10
142.56547477347354
 20
184.95517483496894
 10
142.15953591878684
 20
185.7588317693792
 10
141.73491502269638
 20
186.55277629928887
 10
141.29184431274712
 20
187.3365742119903
 10
140.9863331947196
 20
187.85325722310927
 10
140.6728039135479
 20
188.36511439758806
 10
140.1876431763394
 20
189.12357987540585
 10
139.68487883690577
 20
189.8704927491495
 10
139.16478585987852
 20
190.6054445279874
 10
138.62764868701802
 20
191.32803326267785
 10
138.2602329302797
 20
191.8026952886688
 10
137.88546165806224
 20
192.27157146714015
 10
137.30971291775685
 20
192.96378834789857
 10
136.71793453139418
 20
193.64235239307342
 10
136.3146697184075
 20
194.0869599366714
 10
135.90452230832113
 20
194.52522638441394
 10
135.2766148616822
 20
195.17050389093765
 10
134.63378968169314
 20
195.80092169679514
 10
133.9763983330432
 20
196.4161350229596
 10
133.30480034674068
 20
197.0158074058192
 10
132.61936302348366
 20
197.5996108811911
 10
131.92046123278092
 20
198.16722616368673
 10
131.20847720793395
 20
198.71834282133088
 10
130.48380033699135
 20
199.25265944533854
 10
129.9938262811495
 20
199.59939248648013
 10
129.4985060691816
 20
199.93844449551924
 10
128.74576543188326
 20
200.43244080616316
 10
127.98167881934475
 20
200.90869963338798
 10
127.20666411481146
 20
201.36696050857515
 10
126.68412555744663
 20
201.6623447215664
 10
126.15704535048279
 20
201.94954644970255
 10
125.62555161410437
 20
202.22849588133465
 10
125.08977354131561
 20
202.4991252107434
 10
124.27835846613551
 20
202.8893256691498
 10
123.45804066559134
 20
203.26044496005295
 10
122.62926877608
 20
203.61228011623535
 10
122.07228111626456
 20
203.8360280190875
 10
121.51187283236416
 20
204.05106506834466
 10
120.66514493991406
 20
204.35717403279537
 10
119.81149040880251
 20
204.6433990552564
 10
118.95137610747094
 20
204.90958359766086
 10
118.08527243724534
 20
205.15558208219244
 10
117.21365307507098
 20
205.381259970903
 10
116.33699471445597
 20
205.58649383929196
 10
115.45577680476487
 20
205.77117144380793
 10
114.57048128900514
 20
205.93519178323515
 10
113.68159234024986
 20
206.078465153932
 10
112.78959609684067
 20
206.20091319889002
 10
111.89498039651613
 20
206.30246895058798
 10
111.29735623988716
 20
206.358538056439
 10
110.69893057737032
 20
206.40528314878742
 10
109.80010750385273
 20
206.45789402677391
 10
108.90029994146511
 20
206.48947206724714
  0
LWPOLYLINE
  5
138
330
17
100
AcDbEntity
  8
KANTEN
370
50
100
AcDbPolyline
 90
36
 70
0
 10
122.58947368421052
 20
132.371398320763
 10
122.31016526109758
 20
132.25147827864842
 10
122.03506571001083
 20
132.12219468063822
 10
121.764488827878
 20
131.98369499624192
 10
121.49874325276849
 20
131.83613720745285
 10
121.23813211184009
 20
131.67968962854349
 10
120.98295267557194
 20
131.51453071407485
 10
120.73349601867793
 20
131.34084885533917
 10
120.49004668808747
 20
131.15884216546857
 10
120.25288237837223
 20
130.96871825345357
 10
120.02227361498913
 20
130.77069398733065
 10
119.79848344570098
 20
130.56499524680805
 10
119.58176714052661
 20
130.35185666561225
 10
119.37237190056281
 20
130.131521363849
 10
119.17053657601028
 20
129.9042406706844
 10
118.9764913937251
 20
129.67027383766205
 10
118.7904576946066
 20
129.42988774298334
 10
118.61264768112117
 20
129.18335658708833
 10
118.44326417524995
 20
128.9309615798846
 10
118.28250038713645
 20
128.6729906199802
 10
118.13053969469827
 20
128.4097379662874
 10
117.9875554344539
 20
128.14150390237126
 10
117.85371070380354
 20
127.86859439392617
 10
117.72915817498935
 20
127.59132073977095
 10
117.61403992094719
 20
127.30999921676056
 10
117.50848725324886
 20
127.02495071901961
 10
117.41262057231924
 20
126.73650039190915
 10
117.32654923009959
 20
126.444977261144
 10
117.2503714053134
 20
126.15071385748422
 10
117.18417399147715
 20
125.85404583742813
 10
117.1280324977838
 20
125.55531160034025
 10
117.08201096297199
 20
125.25485190245023
 10
117.04616188227904
 20
124.95300946816361
 10
117.02052614756154
 20
124.65012859912746
 10
117.00513300065126
 20
124.34655478149689
 10
117.0
 20
124.04263429185048
  0
LWPOLYLINE
  5
139
330
17
100
AcDbEntity
  8
KANTEN
370
50
100
AcDbPolyline
 90
3
 70
0
 10
99.0
 20
116.0
 10
99.0
 20
120.02131714592524
 10
99.0
 20
124.04263429185048
  0
LWPOLYLINE
  5
13A
330
17
100
AcDbEntity
  8
KANTEN
370
50
100
AcDbPolyline
 90
36
 70
0
 10
93.41052631578947
 20
132.37139832076303
 10
93.6898347389024
 20
132.25147827864845
 10
93.96493428998917
 20
132.12219468063824
 10
94.23551117212199
 20
131.98369499624192
 10
94.50125674723151
 20
131.83613720745285
 10
94.76186788815991
 20
131.6796896285435
 10
95.01704732442806
 20
131.51453071407485
 10
95.26650398132206
 20
131.3408488553392
 10
95.50995331191253
 20
131.15884216546857
 10
95.74711762162777
 20
130.96871825345357
 10
95.97772638501087
 20
130.77069398733067
 10
96.20151655429902
 20
130.56499524680805
 10
96.41823285947339
 20
130.35185666561225
 10
96.62762809943719
 20
130.13152136384898
 10
96.82946342398972
 20
129.9042406706844
 10
97.0235086062749
 20
129.67027383766205
 10
97.2095423053934
 20
129.42988774298334
 10
97.38735231887883
 20
129.18335658708833
 10
97.55673582475005
 20
128.9309615798846
 10
97.71749961286355
 20
128.6729906199802
 10
97.86946030530173
 20
128.4097379662874
 10
98.0124445655461
 20
128.14150390237126
 10
98.14628929619646
 20
127.86859439392617
 10
98.27084182501065
 20
127.59132073977095
 10
98.38596007905281
 20
127.30999921676056
 10
98.49151274675114
 20
127.02495071901961
 10
98.58737942768076
 20
126.73650039190915
 10
98.6734507699004
 20
126.444977261144
 10
98.7496285946866
 20
126.15071385748422
 10
98.81582600852285
 20
125.85404583742815
 10
98.8719675022162
 20
125.55531160034025
 10
98.91798903702801
 20
125.25485190245023
 10
98.95383811772096
 20
124.95300946816361
 10
98.97947385243846
 20
124.65012859912746
 10
98.99486699934874
 20
124.34655478149689
 10
99.0
 20
124.04263429185048
  0
LWPOLYLINE
  5
13B
330
17
100
AcDbEntity
  8
KANTEN
370
50
100
AcDbPolyline
 90
95
 70
0
 10
99.0
 20
116.0
 10
99.0050259264277
 20
115.69926520693093
 10
99.02009809239162
 20
115.3988662962939
 10
99.04519966420347
 20
115.09913877538312
 10
99.08030260660698
 20
114.800417401636
 10
99.12536771408975
 20
114.50303580875183
 10
99.18034465467072
 20
114.20732613406548
 10
99.24517202611466
 20
113.91361864759224
 10
99.31977742451062
 20
113.62224138315842
 10
99.4040775251378
 20
113.33351977202929
 10
99.49797817552873
 20
113.04777627944388
 10
99.60137450062558
 20
112.76533004446239
 10
99.71415101991214
 20
112.48649652352854
 10
99.83618177639093
 20
112.21158713814498
 10
99.96733047726107
 20
111.94090892705509
 10
100.10745064613995
 20
111.67476420331985
 10
100.25638578665874
 20
111.41345021667274
 10
100.41396955724883
 20
111.15725882152964
 10
100.58002595692416
 20
110.90647615102463
 10
100.75436952185194
 20
110.66138229743581
 10
100.93680553249204
 20
110.4222509993578
 10
101.127130231074
 20
110.18934933597077
 10
101.32513104916838
 20
109.96293742874698
 10
101.53058684509864
 20
109.74326815092822
 10
101.74326815092822
 20
109.53058684509864
 10
101.96293742874698
 20
109.32513104916839
 10
102.18934933597077
 20
109.127130231074
 10
102.4222509993578
 20
108.93680553249206
 10
102.66138229743581
 20
108.75436952185194
 10
102.90647615102465
 20
108.58002595692416
 10
103.15725882152965
 20
108.41396955724883
 10
103.41345021667274
 20
108.25638578665874
 10
103.67476420331984
 20
108.10745064613997
 10
103.94090892705509
 20
107.96733047726107
 10
104.21158713814498
 20
107.83618177639093
 10
104.48649652352854
 20
107.71415101991215
 10
104.76533004446239
 20
107.60137450062558
 10
105.04777627944388
 20
107.49797817552873
 10
105.33351977202929
 20
107.40407752513778
 10
105.62224138315842
 20
107.31977742451062
 10
105.91361864759224
 20
107.24517202611466
 10
106.20732613406548
 20
107.18034465467072
 10
106.50303580875183
 20
107.12536771408975
 10
106.80041740163598
 20
107.08030260660698
 10
107.09913877538311
 20
107.04519966420347
 10
107.3988662962939
 20
107.02009809239162
 10
107.69926520693093
 20
107.0050259264277
 10
108.0
 20
107.0
 10
108.30073479306907
 20
107.0050259264277
 10
108.6011337037061
 20
107.02009809239162
 10
108.90086122461689
 20
107.04519966420347
 10
109.199582598364
 20
107.08030260660698
 10
109.49696419124817
 20
107.12536771408975
 10
109.79267386593452
 20
107.18034465467072
 10
110.08638135240776
 20
107.24517202611466
 10
110.37775861684158
 20
107.31977742451062
 10
110.66648022797071
 20
107.40407752513778
 10
110.95222372055612
 20
107.49797817552873
 10
111.23466995553761
 20
107.60137450062558
 10
111.51350347647146
 20
107.71415101991214
 10
111.78841286185501
 20
107.83618177639093
 10
112.05909107294491
 20
107.96733047726107
 10
112.32523579668015
 20
108.10745064613995
 10
112.58654978332726
 20
108.25638578665874
 10
112.84274117847035
 20
108.41396955724883
 10
113.09352384897535
 20
108.58002595692416
 10
113.33861770256419
 20
108.75436952185194
 10
113.5777490006422
 20
108.93680553249206
 10
113.81065066402923
 20
109.127130231074
 10
114.03706257125302
 20
109.32513104916839
 10
114.25673184907178
 20
109.53058684509864
 10
114.46941315490136
 20
109.74326815092822
 10
114.67486895083162
 20
109.96293742874698
 10
114.872869768926
 20
110.18934933597077
 10
115.06319446750796
 20
110.4222509993578
 10
115.24563047814806
 20
110.66138229743581
 10
115.41997404307584
 20
110.90647615102463
 10
115.58603044275117
 20
111.15725882152964
 10
115.74361421334125
 20
111.41345021667274
 10
115.89254935386005
 20
111.67476420331985
 10
116.03266952273893
 20
111.94090892705509
 10
116.16381822360907
 20
112.21158713814498
 10
116.28584898008786
 20
112.48649652352856
 10
116.39862549937442
 20
112.76533004446239
 10
116.50202182447127
 20
113.04777627944387
 10
116.5959224748622
 20
113.33351977202929
 10
116.68022257548938
 20
113.62224138315842
 10
116.75482797388534
 20
113.91361864759224
 10
116.81965534532928
 20
114.20732613406548
 10
116.87463228591025
 20
114.50303580875183
 10
116.91969739339302
 20
114.800417401636
 10
116.95480033579653
 20
115.09913877538312
 10
116.97990190760838
 20
115.3988662962939
 10
116.9949740735723
 20
115.69926520693093
 10
117.0
 20
116.0
  0
LWPOLYLINE
  5
13C
330
17
100
AcDbEntity
  8
KANTEN
370
50
100
AcDbPolyline
 90
3
 70
0
 10
117.0
 20
124.04263429185048
 10
117.0
 20
120.02131714592524
 10
117.0
 20
116.0
  0
LWPOLYLINE
  5
13D
330
17
100
AcDbEntity
  8
KANTEN
370
50
100
AcDbPolyline
 90
83
 70
1
 10
104.0
 20
116.0
 10
104.01145581888139
 20
115.69748501646217
 10
104.04575765763245
 20
115.3967028113545
 10
104.10270903842715
 20
115.09937623790923
 10
104.18198374891378
 20
114.80720835581334
 10
104.28312771072974
 20
114.52187267623697
 10
104.40556158042128
 20
114.24500357611294
 10
104.54858406787031
 20
113.97818693657368
 10
104.71137595322077
 20
113.72295105916774
 10
104.89300477929565
 20
113.48075791188691
 10
105.09243019262742
 20
113.252994755146
 10
105.30850990250832
 20
113.04096619568071
 10
105.54000622392819
 20
112.84588671387854
 10
105.78559316692206
 20
112.66887370734496
 10
106.04386403172067
 20
112.51094109055123
 10
106.31333946619927
 20
112.37299348722408
 10
106.59247593947266
 20
112.25582104874292
 10
106.87967458310037
 20
112.16009492822431
 10
107.17329034926018
 20
112.08636343621771
 10
107.47164143343319
 20
112.03504890003225
 10
107.7730189076277
 20
112.00644524468419
 10
108.07569650896407
 20
112.00071630932105
 10
108.37794052755213
 20
112.01789490876575
 10
108.67801973702439
 20
112.0578826455564
 10
108.97421531084397
 20
112.1204504735579
 10
109.26483066758729
 20
112.20524000991753
 10
109.54820118880887
 20
112.31176558784955
 10
109.82270375382497
 20
112.4394170384904
 10
110.08676603680193
 20
112.5874631858909
 10
110.3388755128962
 20
112.75505603512563
 10
110.5775881218595
 20
112.94123562953129
 10
110.8015365394854
 20
113.14493554925144
 10
111.00943800951832
 20
113.36498901959283
 10
111.20010169116534
 20
113.60013559420523
 10
111.37243548012434
 20
113.84902837480395
 10
111.5254522640586
 20
114.11024172608131
 10
111.65827557668683
 20
114.38227944161649
 10
111.77014461810269
 20
114.66358331401044
 10
111.86041861256773
 20
114.95254206015677
 10
111.92858047881681
 20
115.24750055052547
 10
111.97423979185274
 20
115.54676928959492
 10
111.99713501926533
 20
115.84863409312932
 10
111.99713501926533
 20
116.15136590687068
 10
111.97423979185274
 20
116.45323071040508
 10
111.92858047881681
 20
116.75249944947453
 10
111.86041861256773
 20
117.04745793984323
 10
111.77014461810269
 20
117.33641668598956
 10
111.65827557668683
 20
117.61772055838351
 10
111.5254522640586
 20
117.88975827391869
 10
111.37243548012434
 20
118.15097162519605
 10
111.20010169116534
 20
118.39986440579477
 10
111.00943800951832
 20
118.63501098040717
 10
110.8015365394854
 20
118.85506445074856
 10
110.5775881218595
 20
119.05876437046871
 10
110.3388755128962
 20
119.24494396487437
 10
110.08676603680193
 20
119.4125368141091
 10
109.82270375382497
 20
119.5605829615096
 10
109.54820118880887
 20
119.68823441215045
 10
109.26483066758729
 20
119.79475999008247
 10
108.97421531084397
 20
119.8795495264421
 10
108.67801973702439
 20
119.9421173544436
 10
108.37794052755213
 20
119.98210509123425
 10
108.07569650896409
 20
119.99928369067895
 10
107.7730189076277
 20
119.99355475531581
 10
107.47164143343319
 20
119.96495109996775
 10
107.17329034926018
 20
119.91363656378229
 10
106.87967458310037
 20
119.83990507177569
 10
106.59247593947266
 20
119.74417895125708
 10
106.31333946619927
 20
119.62700651277594
 10
106.04386403172066
 20
119.48905890944877
 10
105.78559316692206
 20
119.33112629265504
 10
105.54000622392819
 20
119.15411328612146
 10
105.30850990250832
 20
118.95903380431929
 10
105.09243019262743
 20
118.74700524485401
 10
104.89300477929567
 20
118.51924208811309
 10
104.71137595322077
 20
118.27704894083226
 10
104.54858406787031
 20
118.02181306342632
 10
104.40556158042128
 20
117.75499642388706
 10
104.28312771072974
 20
117.47812732376303
 10
104.18198374891378
 20
117.19279164418666
 10
104.10270903842715
 20
116.90062376209077
 10
104.04575765763245
 20
116.6032971886455
 10
104.01145581888139
 20
116.30251498353783
  0
LWPOLYLINE
  5
13E
330
17
100
AcDbEntity
  8
KANTEN
370
50
100
AcDbPolyline
 90
3
 70
0
 10
117.0
 20
130.56672603151043
 10
117.0
 20
129.5333630157552
 10
117.0
 20
128.5
  0
LWPOLYLINE
  5
13F
330
17
100
AcDbEntity
  8
KANTEN
370
50
100
AcDbPolyline
 90
3
 70
0
 10
99.0
 20
128.5
 10
99.0
 20
129.5333630157552
 10
99.0
 20
130.56672603151043
  0
LWPOLYLINE
  5
140
330
17
100
AcDbEntity
  8
KANTEN
370
50
100
AcDbPolyline
 90
3
 70
0
 10
117.0
 20
128.5
 10
108.0
 20
128.5
 10
99.0
 20
128.5
  0
LWPOLYLINE
  5
141
330
17
100
AcDbEntity
  8
KANTEN
370
50
100
AcDbPolyline
 90
256
 70
1
 10
108.0
 20
193.5
 10
107.39997588816738
 20
193.4929396316945
 10
106.80028404231291
 20
193.4717624364878
 10
106.20125654442107
 20
193.43648014134448
 10
105.60322510859068
 20
193.3871122839899
 10
105.00652089734686
 20
193.3236862020911
 10
104.41147433825829
 20
193.2462370181186
 10
103.81841494096155
 20
193.15480761989696
 10
103.22767111469363
 20
193.0494486368557
 10
102.34661226602545
 20
192.8654219173805
 10
101.7630852973296
 20
192.72551101578316
 10
101.18301204744873
 20
192.57190825423964
 10
100.60671373448388
 20
192.4046986909515
 10
100.03450948614825
 20
192.22397491894625
 10
99.46671616304884
 20
192.02983701480366
 10
98.90364818322351
 20
191.82239248323785
 10
98.34561734803057
 20
191.60175619756615
 10
97.79293266948744
 20
191.36805033609744
 10
97.24590019915394
 20
191.12140431447543
 10
96.7048228586548
 20
190.86195471401413
 10
96.17000027193558
 20
190.5898452060654
 10
95.64172859934452
 20
190.30522647246025
 10
94.86224293801202
 20
189.85519021606046
 10
94.35162004802147
 20
189.5400028942995
 10
93.84855500816697
 20
189.2128877016573
 10
93.35332639291619
 20
188.87402577960358
 10
92.86620843728241
 20
188.5236047744108
 10
92.38747088496562
 20
188.1618187332444
 10
91.91737883898081
 20
187.7888679967081
 10
91.45619261485598
 20
187.40495908790467
 10
91.00416759648132
 20
187.0103045980727
 10
90.56155409468921
 20
186.6051230688633
 10
90.12859720864355
 20
186.1896388713217
 10
89.70553669011501
 20
185.76408208164082
 10
89.2926068107174
 20
185.32868835375555
 10
88.8900362321788
 20
184.88369878884842
 10
88.4980478797191
 20
184.42935980183864
 10
87.93038022321707
 20
183.73087289426
 10
87.56578398285022
 20
183.25427204964103
 10
87.21250327904144
 20
182.7692240851081
 10
86.87073374252677
 20
182.2759975980946
 10
86.54066462968291
 20
181.7748657149265
 10
86.22247871772578
 20
181.2661059395775
 10
85.91635220349681
 20
180.75
 10
85.48014277630281
 20
179.9626932847204
 10
85.20489156347523
 20
179.42948080041594
 10
84.94226324171633
 20
178.8899391910926
 10
84.69240324260882
 20
178.34436723027795
 10
84.4554499272208
 20
177.79306703083324
 10
84.23153450948779
 20
177.2363438776569
 10
84.02078098355241
 20
176.67450605863175
 10
83.82330605510212
 20
176.10786469390914
 10
83.63921907674285
 20
175.53673356362495
 10
83.4686219874446
 20
174.96142893414233
 10
83.31160925609228
 20
174.38226938291797
 10
83.16826782917309
 20
173.7995756220882
 10
83.03867708262956
 20
173.21367032087355
 10
82.92290877790484
 20
172.624877926899
 10
82.82102702220433
 20
172.03352448652976
 10
82.7330882329962
 20
171.43993746432176
 10
82.65914110676985
 20
170.84444556168663
 10
82.59922659207012
 20
170.24737853487184
 10
82.55337786682176
 20
169.64906701235682
 10
82.52162031995704
 20
169.0498423117659
 10
82.50044129211086
 20
168.15001900851308
 10
82.50397153735653
 20
167.54996374360022
 10
82.52162031995704
 20
166.9501576882341
 10
82.55337786682176
 20
166.35093298764318
 10
82.59922659207012
 20
165.75262146512816
 10
82.65914110676985
 20
165.15555443831337
 10
82.7330882329962
 20
164.56006253567824
 10
82.87022837471963
 20
163.67049909790364
 10
82.97906093850656
 20
163.08038533205783
 10
83.10174895681301
 20
162.49299582436709
 10
83.23822449061187
 20
161.90865584434223
 10
83.38841196597893
 20
161.32768897280476
 10
83.55222821594236
 20
160.75041692270267
 10
83.72958252653675
 20
160.1771593609604
 10
83.92037668703632
 20
159.60823373146175
 10
84.12450504433963
 20
159.04395507926426
 10
84.34185456147534
 20
158.4846358761414
 10
84.69240324260882
 20
157.65563276972205
 10
84.94226324171633
 20
157.1100608089074
 10
85.20489156347523
 20
156.57051919958406
 10
85.48014277630281
 20
156.0373067152796
 10
85.76786445863526
 20
155.51071862474117
 10
86.06789728333163
 20
154.99104652842865
 10
86.38007510590205
 20
154.47857819703992
 10
86.7042250565109
 20
153.97359741215655
 10
87.04016763570422
 20
153.4763838090984
 10
87.38771681380844
 20
152.9872127220744
 10
87.74668013394498
 20
152.5063550317151
 10
88.11685881860414
 20
152.03407701507112
 10
88.4980478797191
 20
151.57064019816136
 10
89.09001254010276
 20
150.8926222270469
 10
89.49779099618594
 20
150.45240010773034
 10
89.91581513148735
 20
150.02189504865828
 10
90.34385346331241
 20
149.60134544389143
 10
90.78166896356142
 20
149.19098417461413
 10
91.22901918998483
 20
148.7910384801754
 10
91.68565642043671
 20
148.401729832254
 10
92.15132779005208
 20
148.02327381221775
 10
92.86620843728241
 20
147.4763952255892
 10
93.35332639291619
 20
147.12597422039642
 10
93.84855500816695
 20
146.7871122983427
 10
94.35162004802146
 20
146.4599971057005
 10
94.86224293801202
 20
146.14480978393954
 10
95.38014091847832
 20
145.84172486941875
 10
95.90502720114691
 20
145.55091019673617
 10
96.70482285865478
 20
145.13804528598587
 10
97.24590019915394
 20
144.87859568552457
 10
97.79293266948744
 20
144.63194966390256
 10
98.34561734803057
 20
144.39824380243385
 10
98.90364818322351
 20
144.17760751676215
 10
99.46671616304884
 20
143.97016298519634
 10
100.03450948614824
 20
143.77602508105375
 10
100.60671373448388
 20
143.5953013090485
 10
101.18301204744873
 20
143.42809174576036
 10
101.76308529732961
 20
143.27448898421684
 10
102.34661226602546
 20
143.1345780826195
 10
103.22767111469362
 20
142.9505513631443
 10
103.81841494096155
 20
142.84519238010304
 10
104.41147433825829
 20
142.7537629818814
 10
105.00652089734686
 20
142.6763137979089
 10
105.60322510859066
 20
142.6128877160101
 10
106.20125654442106
 20
142.56351985865552
 10
106.8002840423129
 20
142.5282375635122
 10
107.39997588816736
 20
142.5070603683055
 10
108.0
 20
142.5
 10
108.60002411183264
 20
142.5070603683055
 10
109.19971595768709
 20
142.5282375635122
 10
109.79874345557892
 20
142.56351985865552
 10
110.39677489140932
 20
142.6128877160101
 10
110.99347910265314
 20
142.6763137979089
 10
111.58852566174171
 20
142.7537629818814
 10
112.18158505903843
 20
142.84519238010304
 10
112.77232888530635
 20
142.9505513631443
 10
113.65338773397454
 20
143.1345780826195
 10
114.23691470267039
 20
143.27448898421684
 10
114.81698795255127
 20
143.42809174576036
 10
115.39328626551612
 20
143.5953013090485
 10
115.96549051385176
 20
143.77602508105375
 10
116.53328383695114
 20
143.97016298519634
 10
117.09635181677649
 20
144.17760751676215
 10
117.65438265196943
 20
144.39824380243385
 10
118.20706733051256
 20
144.63194966390256
 10
118.75409980084605
 20
144.87859568552457
 10
119.29517714134519
 20
145.13804528598587
 10
119.82999972806442
 20
145.4101547939346
 10
120.35827140065547
 20
145.69477352753975
 10
121.13775706198798
 20
146.14480978393954
 10
121.64837995197853
 20
146.4599971057005
 10
122.15144499183303
 20
146.7871122983427
 10
122.6466736070838
 20
147.12597422039642
 10
123.13379156271758
 20
147.4763952255892
 10
123.61252911503438
 20
147.8381812667556
 10
124.08262116101919
 20
148.2111320032919
 10
124.54380738514402
 20
148.59504091209533
 10
124.99583240351866
 20
148.98969540192726
 10
125.65614653668757
 20
149.6013454438914
 10
126.08418486851264
 20
150.02189504865825
 10
126.50220900381404
 20
150.45240010773034
 10
126.90998745989722
 20
150.8926222270469
 10
127.3072944276573
 20
151.3423176316826
 10
127.69390989662192
 20
151.80123730083878
 10
128.06961977678293
 20
152.26912710574
 10
128.61228318619158
 20
152.9872127220744
 10
128.95983236429578
 20
153.4763838090984
 10
129.2957749434891
 20
153.97359741215655
 10
129.61992489409795
 20
154.47857819703992
 10
129.93210271666837
 20
154.99104652842865
 10
130.23213554136473
 20
155.51071862474114
 10
130.5198572236972
 20
156.0373067152796
 10
130.79510843652477
 20
156.57051919958403
 10
131.05773675828368
 20
157.1100608089074
 10
131.3075967573912
 20
157.65563276972205
 10
131.5445500727792
 20
158.20693296916676
 10
131.7684654905122
 20
158.7636561223431
 10
131.9792190164476
 20
159.32549394136825
 10
132.17669394489786
 20
159.89213530609086
 10
132.36078092325715
 20
160.46326643637508
 10
132.53137801255536
 20
161.03857106585764
 10
132.68839074390772
 20
161.61773061708203
 10
132.8317321708269
 20
162.2004243779118
 10
132.96132291737044
 20
162.78632967912642
 10
133.07709122209516
 20
163.37512207310098
 10
133.17897297779567
 20
163.96647551347024
 10
133.26691176700382
 20
164.56006253567824
 10
133.34085889323015
 20
165.15555443831337
 10
133.40077340792988
 20
165.75262146512816
 10
133.44662213317824
 20
166.35093298764318
 10
133.47837968004296
 20
166.9501576882341
 10
133.49955870788915
 20
167.84998099148692
 10
133.49602846264347
 20
168.45003625639976
 10
133.47837968004296
 20
169.04984231176587
 10
133.44662213317824
 20
169.64906701235682
 10
133.40077340792988
 20
170.24737853487184
 10
133.34085889323015
 20
170.8444455616866
 10
133.26691176700382
 20
171.43993746432176
 10
133.12977162528037
 20
172.32950090209636
 10
133.02093906149344
 20
172.91961466794217
 10
132.89825104318697
 20
173.50700417563291
 10
132.76177550938814
 20
174.0913441556578
 10
132.61158803402105
 20
174.67231102719524
 10
132.44777178405764
 20
175.2495830772973
 10
132.27041747346325
 20
175.82284063903958
 10
132.0796233129637
 20
176.39176626853825
 10
131.87549495566037
 20
176.9560449207357
 10
131.65814543852466
 20
177.5153641238586
 10
131.3075967573912
 20
178.34436723027792
 10
131.05773675828368
 20
178.88993919109257
 10
130.79510843652477
 20
179.42948080041597
 10
130.5198572236972
 20
179.96269328472036
 10
130.23213554136473
 20
180.48928137525883
 10
129.93210271666834
 20
181.00895347157137
 10
129.61992489409795
 20
181.52142180296008
 10
129.2957749434891
 20
182.02640258784342
 10
128.95983236429578
 20
182.52361619090158
 10
128.61228318619158
 20
183.01278727792558
 10
128.25331986605505
 20
183.4936449682849
 10
127.69390989662193
 20
184.19876269916122
 10
127.30729442765731
 20
184.6576823683174
 10
126.90998745989724
 20
185.1073777729531
 10
126.50220900381407
 20
185.54759989226966
 10
126.08418486851265
 20
185.97810495134172
 10
125.65614653668757
 20
186.39865455610857
 10
125.21833103643857
 20
186.80901582538587
 10
124.54380738514404
 20
187.40495908790467
 10
124.0826211610192
 20
187.7888679967081
 10
123.61252911503439
 20
188.16181873324436
 10
123.1337915627176
 20
188.52360477441079
 10
122.64667360708381
 20
188.87402577960358
 10
122.15144499183305
 20
189.2128877016573
 10
121.64837995197853
 20
189.5400028942995
 10
121.137757061988
 20
189.85519021606046
 10
120.6198590815217
 20
190.15827513058122
 10
120.09497279885308
 20
190.44908980326383
 10
119.5633888720586
 20
190.72747319421038
 10
119.02540166806436
 20
190.9932711473997
 10
118.48130909963939
 20
191.2463364760518
 10
117.93141246042475
 20
191.48652904413336
 10
117.37601625809134
 20
191.71371584395845
 10
116.81542804571708
 20
191.92777106984235
 10
116.24995825147826
 20
192.12857618776678
 10
115.67992000674842
 20
192.31602000101879
 10
114.81698795255129
 20
192.57190825423964
 10
114.23691470267039
 20
192.72551101578316
 10
113.65338773397455
 20
192.8654219173805
 10
113.06673017707668
 20
192.99156348275756
 10
112.47726689616667
 20
193.10386586047036
 10
111.88532430911633
 20
193.2022668625858
 10
111.29123020672421
 20
193.28671199911815
 10
110.69531357119963
 20
193.35715450820354
 10
110.09790439398792
 20
193.4135553819942
 10
109.49933349303569
 20
193.45588338825942
 10
108.60002411183262
 20
193.4929396316945
  0
LWPOLYLINE
  5
142
330
17
100
AcDbEntity
  8
KANTEN
370
50
100
AcDbPolyline
 90
256
 70
1
 10
108.0
 20
190.5
 10
107.69985673798655
 20
190.497998000317
 10
107.09978385306457
 20
190.4819841403911
 10
106.50035173339113
 20
190.4499678190517
 10
105.90198704901923
 20
190.40197182521032
 10
105.60333813000192
 20
190.3719916833727
 10
105.00737285997636
 20
190.30009378457396
 10
104.41353771334357
 20
190.21232289217838
 10
103.82225537628464
 20
190.1087414806682
 10
103.23394671791525
 20
189.98942327830198
 10
102.64903049071494
 20
189.85445321463573
 10
102.06792303246326
 20
189.70392736007057
 10
101.49103796989435
 20
189.537952857471
 10
100.91878592428151
 20
189.35664784590142
 10
100.35157421916085
 20
189.1601413765361
 10
99.78980659040229
 20
188.94857332080156
 10
99.51108942033875
 20
188.8371878421853
 10
98.95823635632155
 20
188.60331308823547
 10
98.41181913323877
 20
188.35477309296948
 10
97.8722266856468
 20
188.09174476478026
 10
97.60510997390111
 20
187.95485558317347
 10
97.07647324052776
 20
187.67044898153304
 10
96.55561176908752
 20
187.37204114233066
 10
96.04289630379704
 20
187.05984446941395
 10
95.53869179062362
 20
186.73408118139048
 10
95.04335711752022
 20
186.3949831534548
 10
94.79912640403502
 20
186.22050867301334
 10
94.31775552649037
 20
185.8618640171488
 10
93.84612353977803
 20
185.49050545721235
 10
93.38456614703799
 20
185.10669732267723
 10
92.93341188041052
 20
184.71071280450494
 10
92.49298186719018
 20
184.30283376069042
 10
92.06358960125046
 20
183.8833505156383
 10
91.64554071990183
 20
183.4525616535127
 10
91.44086335817495
 20
183.23302312994264
 10
91.0403849034735
 20
182.78585323130426
 10
90.65197814068657
 20
182.3281589036688
 10
90.27591953403524
 20
181.8602659294837
 10
89.91247675844113
 20
181.38250735049556
 10
89.56190850899787
 20
180.8952232306942
 10
89.22446431683446
 20
180.39876041425828
 10
88.90038437150136
 20
179.893472278675
 10
88.74342845408117
 20
179.63763087131179
 10
88.43982438062825
 20
179.11978101130302
 10
88.15014305321213
 20
178.5940161974606
 10
87.87459066423271
 20
178.06071066415345
 10
87.61336334924653
 20
177.52024401316245
 10
87.36664704735944
 20
176.97300094348367
 10
87.1346173688768
 20
176.41937097750318
 10
87.02416203643787
 20
176.14028388487685
 10
86.8144686623515
 20
175.57781379696766
 10
86.61985494696597
 20
175.00994989363153
 10
86.44045941446365
 20
174.4370963749668
 10
86.2764097568698
 20
173.85966099263246
 10
86.20017655047684
 20
173.56935342473616
 10
86.05936121068696
 20
172.9858168354736
 10
85.9341630078642
 20
172.39873138944532
 10
85.82467105689261
 20
171.80851496845997
 10
85.73096329309628
 20
171.21558768292437
 10
85.65310641676578
 20
170.6203715728128
 10
85.62013982131326
 20
170.32203754974623
 10
85.56615964772908
 20
169.72418300908595
 10
85.52814766727018
 20
169.12510121144066
 10
85.50613093650092
 20
168.52521857750753
 10
85.50012512671981
 20
167.92496209801132
 10
85.51013451280485
 20
167.3247590297765
 10
85.52114312307258
 20
167.0248110405604
 10
85.55515838319187
 20
166.42548902944506
 10
85.60514966703138
 20
165.82728774018835
 10
85.67108139127316
 20
165.23063296674997
 10
85.75290662634606
 20
164.63594940229441
 10
85.85056712982994
 20
164.04366033689848
 10
85.9639933879119
 20
163.45418735625745
 10
86.09310466486565
 20
162.86795004160433
 10
86.23780906051837
 20
162.2853656710561
 10
86.39800357566445
 20
161.70684892259897
 10
86.48387442378481
 20
161.4192447098727
 10
86.66708689787927
 20
160.8476005021136
 10
86.86548393560574
 20
160.28104730394978
 10
87.0789243198492
 20
159.71998838253214
 10
87.19123870577167
 20
159.44164423502826
 10
87.426955933946
 20
158.88957422201352
 10
87.55031682901422
 20
158.61594660041294
 10
87.80793342125367
 20
158.07374958609873
 10
88.07992253347474
 20
157.53861798194748
 10
88.36609056642725
 20
157.01093268951988
 10
88.6662338284407
 20
156.4910693101631
 10
88.98013868041016
 20
155.97939787766143
 10
89.14218225768559
 20
155.72674818975622
 10
89.47630753719817
 20
155.22804566467846
 10
89.82361780394409
 20
154.7384340946138
 10
90.18386584579531
 20
154.25826198039778
 10
90.55679524163912
 20
153.78787110395152
 10
90.94214054389624
 20
153.32759628500457
 10
91.33962746746397
 20
152.8777651427734
 10
91.54283595455331
 20
152.6568663050452
 10
91.95800217541078
 20
152.22329864021395
 10
92.3845869369798
 20
151.80096068060647
 10
92.82228660030464
 20
151.3901530423454
 10
93.27078961494878
 20
150.9911681343809
 10
93.49899291066909
 20
150.7961982865654
 10
93.96310003594377
 20
150.41547727690403
 10
94.43719849243891
 20
150.04727276243247
 10
94.92095082140492
 20
149.69184682760462
 10
95.1663398466011
 20
149.51900524682014
 10
95.6639252845239
 20
149.18321864360988
 10
96.17029142251282
 20
148.86082564550586
 10
96.68507783399103
 20
148.55205572876253
 10
97.2079180989115
 20
148.25712867285515
 10
97.47224234540867
 20
148.11492220869644
 10
98.00646388504406
 20
147.84114993559723
 10
98.54779872816124
 20
147.58172653928227
 10
99.09586155779336
 20
147.3368366748453
 10
99.650262268057
 20
147.10665465255104
 10
100.21060624182591
 20
146.8913443137627
 10
100.77649463161575
 20
146.69105891432133
 10
101.34752464347977
 20
146.50594101545985
 10
101.9232898237138
 20
146.33612238232917
 10
102.50338034816612
 20
146.18172389020907
 10
103.08738331394628
 20
146.04285543847044
 10
103.3807221606239
 20
145.9792763006606
 10
103.96981358449794
 20
145.86388477044125
 10
104.26546132961936
 20
145.81209291259242
 10
104.85869783484156
 20
145.72036309301313
 10
105.4541702889183
 20
145.64449170602077
 10
106.05145484024865
 20
145.58453275614337
 10
106.65012634739824
 20
145.5405289215883
 10
107.24975868171077
 20
145.5125115238644
 10
107.84992503062234
 20
145.50050050548754
 10
108.45019820146263
 20
145.50450441578582
 10
109.05015092552638
 20
145.52452040481413
 10
109.64935616219938
 20
145.56053422538284
 10
110.24738740292177
 20
145.61252024319867
 10
110.54582971108171
 20
145.64449170602077
 10
111.14130216515844
 20
145.72036309301313
 10
111.73453867038063
 20
145.81209291259242
 10
112.32511696667446
 20
145.91961587234985
 10
112.91261668605374
 20
146.04285543847044
 10
113.49661965183388
 20
146.18172389020907
 10
114.0767101762862
 20
146.33612238232917
 10
114.36515912402758
 20
146.41911147969554
 10
114.93860774425244
 20
146.59659553782623
 10
115.50711752980871
 20
146.78931433466522
 10
116.07028382086526
 20
146.99713069481504
 10
116.6277057610392
 20
147.219896696577
 10
117.17898658272176
 20
147.4574537772404
 10
117.45220127183875
 20
147.58172653928227
 10
117.99353611495594
 20
147.84114993559723
 10
118.52775765459134
 20
148.11492220869644
 10
118.79208190108848
 20
148.25712867285515
 10
119.31492216600896
 20
148.5520557287625
 10
119.82970857748718
 20
148.86082564550586
 10
120.33607471547612
 20
149.18321864360988
 10
120.8336601533989
 20
149.51900524682014
 10
121.07904917859508
 20
149.69184682760462
 10
121.56280150756109
 20
150.04727276243247
 10
122.03689996405623
 20
150.41547727690403
 10
122.50100708933091
 20
150.7961982865654
 10
122.95479253636961
 20
151.18916479784113
 10
123.39793330502869
 20
151.59409710092467
 10
123.83011397194487
 20
152.01070696887334
 10
124.25102691505049
 20
152.4386978627653
 10
124.66037253253603
 20
152.8777651427734
 10
125.05785945610374
 20
153.32759628500455
 10
125.25206715758699
 20
153.55644853956935
 10
125.63123824443284
 20
154.0218227952265
 10
125.9978595844273
 20
154.4971465838054
 10
126.35167022000499
 20
154.98208157437674
 10
126.69241831213746
 20
155.47628259484958
 10
127.01986131958982
 20
155.9793978776614
 10
127.3337661715593
 20
156.4910693101631
 10
127.63390943357275
 20
157.01093268951988
 10
127.7787533192879
 20
157.27382094430837
 10
128.05785672587166
 20
157.8052766803407
 10
128.32268314176417
 20
158.34398892298404
 10
128.573044066054
 20
158.8895742220135
 10
128.80876129422833
 20
159.44164423502826
 10
128.9210756801508
 20
159.71998838253214
 10
129.13451606439426
 20
160.28104730394978
 10
129.33291310212073
 20
160.8476005021136
 10
129.5161255762152
 20
161.41924470987266
 10
129.68402307778982
 20
161.99557303634407
 10
129.83648609900789
 20
162.5761752565339
 10
129.97340611814823
 20
163.16063810333165
 10
130.09468567685002
 20
163.7485455616696
 10
130.20023844948258
 20
164.33947916463856
 10
130.24709337365394
 20
164.6359494022944
 10
130.32891860872684
 20
165.23063296674997
 10
130.39485033296862
 20
165.82728774018835
 10
130.44484161680813
 20
166.42548902944506
 10
130.4638480298293
 20
166.72503659160986
 10
130.48986548719515
 20
167.3247590297765
 10
130.4998748732802
 20
167.92496209801132
 10
130.4938690634991
 20
168.52521857750756
 10
130.4848613507943
 20
168.8252333218896
 10
130.45484432433233
 20
169.4247688830123
 10
130.40884415431853
 20
170.02329030726293
 10
130.34689358323422
 20
170.6203715728128
 10
130.2690367069037
 20
171.2155876829244
 10
130.1753289431074
 20
171.80851496845997
 10
130.0658369921358
 20
172.39873138944532
 10
129.94063878931303
 20
172.98581683547363
 10
129.79982344952316
 20
173.56935342473616
 10
129.643491203779
 20
174.14892580146656
 10
129.55954058553635
 20
174.43709637496684
 10
129.38014505303403
 20
175.00994989363153
 10
129.1855313376485
 20
175.57781379696766
 10
128.97583796356213
 20
176.14028388487685
 10
128.7512141885142
 20
176.696959796527
 10
128.63335295264056
 20
176.97300094348367
 10
128.38663665075347
 20
177.52024401316245
 10
128.1254093357673
 20
178.06071066415345
 10
127.84985694678787
 20
178.5940161974606
 10
127.56017561937175
 20
179.11978101130302
 10
127.25657154591883
 20
179.6376308713118
 10
127.09961562849863
 20
179.893472278675
 10
126.77553568316553
 20
180.39876041425828
 10
126.43809149100213
 20
180.8952232306942
 10
126.26443249463892
 20
181.14003446147603
 10
125.90739521374142
 20
181.6225987483619
 10
125.53761162010149
 20
182.09546659967245
 10
125.15534492214645
 20
182.5583014325911
 10
124.76086721365793
 20
183.0107738057079
 10
124.35445928009815
 20
183.4525616535127
 10
123.93641039874954
 20
183.88335051563828
 10
123.5070181328098
 20
184.30283376069042
 10
123.06658811958948
 20
184.71071280450494
 10
122.61543385296201
 20
185.1066973226772
 10
122.15387646022197
 20
185.49050545721235
 10
121.68224447350964
 20
185.8618640171488
 10
121.20087359596498
 20
186.22050867301334
 10
120.95664288247978
 20
186.3949831534548
 10
120.46130820937638
 20
186.73408118139048
 10
119.95710369620295
 20
187.05984446941395
 10
119.44438823091248
 20
187.37204114233066
 10
118.92352675947224
 20
187.67044898153304
 10
118.66015690970796
 20
187.81441532471766
 10
118.12777331435322
 20
188.09174476478026
 10
117.8588543093662
 20
188.2250585093515
 10
117.31580115437353
 20
188.48086543220703
 10
116.76611710116578
 20
188.72209427081754
 10
116.21019340959771
 20
188.94857332080156
 10
115.64842578083915
 20
189.1601413765361
 10
115.08121407571849
 20
189.35664784590142
 10
114.50896203010564
 20
189.537952857471
 10
113.93207696753676
 20
189.70392736007057
 10
113.35096950928506
 20
189.85445321463573
 10
112.76605328208474
 20
189.98942327830198
 10
112.4722968878757
 20
190.05104443210564
 10
111.88244890680726
 20
190.16250415648085
 10
111.28983743571796
 20
190.25818882224132
 10
110.69488428978838
 20
190.33803032195658
 10
110.09801295098079
 20
190.40197182521032
 10
109.49964826660887
 20
190.4499678190517
 10
109.20003898355725
 20
190.46797512990307
 10
108.60023311187442
 20
190.4919923575349
  0
LWPOLYLINE
  5
143
330
17
100
AcDbEntity
  8
KANTEN
370
50
100
AcDbPolyline
 90
129
 70
0
 10
108.0
 20
183.0
 10
107.39982833601418
 20
182.98798832311223
 10
106.80061788110902
 20
182.95197252983314
 10
106.20332830493413
 20
182.89201030150562
 10
105.90570294387001
 20
182.85307779016475
 10
105.31308691766408
 20
182.75738791548056
 10
104.72477413569423
 20
182.6380632440833
 10
104.43252621448741
 20
182.56959610935323
 10
103.8524323879451
 20
182.41518931209137
 10
103.27898112700628
 20
182.23769576865712
 10
102.99503391918483
 20
182.14037886797556
 10
102.43326480723911
 20
181.928799635779
 10
101.88041113855408
 20
181.69491263816118
 10
101.33735833974768
 20
181.43909245846126
 10
100.80497614078688
 20
181.16174880725788
 10
100.28411718206563
 20
180.86332586619437
 10
100.02827035833731
 20
180.70635772045776
 10
99.52625422396439
 20
180.37722232664174
 10
99.03780927576356
 20
180.02826410677827
 10
98.79892134012741
 20
179.84652486997084
 10
98.33229279614218
 20
179.46888998205475
 10
98.10473903954157
 20
179.2731455470258
 10
97.66160811661251
 20
178.86819457249032
 10
97.23503471672913
 20
178.4458375657471
 10
96.82570202147117
 20
178.00675095558228
 10
96.6277069111913
 20
177.78115279004646
 10
96.2454555488149
 20
177.3182983824899
 10
95.88202975842658
 20
176.8405201896914
 10
95.53801158711525
 20
176.34858340062112
 10
95.21395199956322
 20
175.84327588004697
 10
95.05957013386727
 20
175.58586019378816
 10
94.9103699956449
 20
175.32540690672448
 10
94.62775177921894
 20
174.79580587729063
 10
94.36654997944514
 20
174.2553209779381
 10
94.127182925873
 20
173.70481782599677
 10
93.9100339784632
 20
173.14517808359815
 10
93.80990138030042
 20
172.86221155064234
 10
93.6267203991421
 20
172.29055165632138
 10
93.4665590433682
 20
171.71202019931164
 10
93.32967382050612
 20
171.12754373067054
 10
93.27002973431341
 20
170.8333683085665
 10
93.21628396003155
 20
170.53805832273008
 10
93.12657106225998
 20
169.94450806992361
 10
93.06067880750355
 20
169.34784357676497
 10
93.01871272595871
 20
168.74902043540106
 10
93.00074002869368
 20
168.14899769517683
 10
93.00076169698654
 20
167.84883674582076
 10
93.01882102404339
 20
167.24881660670923
 10
93.06087356193453
 20
166.64999953055818
 10
93.12685196112693
 20
166.05334455699875
 10
93.16878183002301
 20
165.75612665363118
 10
93.27043896339457
 20
165.1645050398713
 10
93.39568632714887
 20
164.5774246326818
 10
93.46709512825137
 20
164.2858815327584
 10
93.62734000947037
 20
163.70737320552684
 10
93.8106035237326
 20
163.13573976443593
 10
94.01659216408886
 20
162.57189671297803
 10
94.24497602800712
 20
162.0167470778931
 10
94.49538934573005
 20
161.4711799629199
 10
94.76743106607623
 20
160.9360691248459
 10
94.91142775839948
 20
160.67270331729333
 10
95.06066549874633
 20
160.41227157413587
 10
95.37462301210601
 20
159.900626202381
 10
95.70880078532768
 20
159.4019524387662
 10
96.06266361368668
 20
158.91704893770753
 10
96.24680102699452
 20
158.68000461904927
 10
96.6291192113003
 20
158.2172054049377
 10
97.0296485084012
 20
157.77007389319084
 10
97.4477474478304
 20
157.33932619037472
 10
97.6631773506757
 20
157.1303129062325
 10
98.10636673492779
 20
156.72542591419716
 10
98.5654013359834
 20
156.33859579429063
 10
99.03954598380139
 20
155.97044207696766
 10
99.52804130874075
 20
155.62155438136125
 10
100.03010495773424
 20
155.29249147097403
 10
100.54493284727135
 20
154.9837803587867
 10
100.80687648046398
 20
154.837212528013
 10
101.07170045118383
 20
154.6959154632168
 10
101.60956412117126
 20
154.42935781627935
 10
102.15766243795181
 20
154.18453432521795
 10
102.71511759087433
 20
153.9618370887885
 10
103.28103678378194
 20
153.7616227692907
 10
103.85451366487601
 20
153.5842120213531
 10
104.43462977829013
 20
153.42988897838646
 10
104.7268875815871
 20
153.36146403848966
 10
105.31521758526199
 20
153.24222430765687
 10
105.61105420105923
 20
153.19145726380466
 10
106.20547839974104
 20
153.10773045415158
 10
106.80277662690686
 20
153.0478544618199
 10
107.40199227544873
 20
153.01192518161932
 10
108.00216566739908
 20
153.00000015633717
 10
108.30231115627915
 20
153.00304671058854
 10
108.90211883271215
 20
153.02715185371648
 10
109.20154083968778
 20
153.04820079018708
 10
109.79882175242122
 20
153.1082492532605
 10
110.39322174973215
 20
153.192147702769
 10
110.9837888661926
 20
153.29976177057034
 10
111.56957727495146
 20
153.4309191066097
 10
112.14964880252997
 20
153.58540965494817
 10
112.72307443135996
 20
153.7629859901792
 10
113.00700758581935
 20
153.86034388552721
 10
113.28893578765845
 20
153.96336371369458
 10
113.8463266122554
 20
154.18622190916494
 10
114.39435421201944
 20
154.43120365650552
 10
114.9321408895567
 20
154.69791660350396
 10
115.4588253488932
 20
154.98593359419476
 10
115.97356407488927
 20
155.29479335297393
 10
116.22619538442667
 20
155.45688597288387
 10
116.72147613217633
 20
155.79607218655082
 10
117.2027889394881
 20
156.15480368523868
 10
117.66936295650554
 20
156.53250594003387
 10
117.89688844957837
 20
156.7282832267395
 10
118.33996090194732
 20
157.13329817533392
 10
118.76647331839807
 20
157.55571676541553
 10
118.97330498321028
 20
157.77324207065345
 10
119.37370515186274
 20
158.22048921885707
 10
119.75588968434174
 20
158.68339881021046
 10
120.11924649036519
 20
159.1612294686551
 10
120.29368143706729
 20
159.40550195043903
 10
120.62771520149028
 20
159.90427218898438
 10
120.7871802622995
 20
160.15857022352057
 10
121.09068749425691
 20
160.6764830219555
 10
121.37322924509168
 20
161.20612484967344
 10
121.63435300810804
 20
161.74664745514093
 10
121.75675109663497
 20
162.02071916822496
 10
121.87364057873677
 20
162.29718516063966
 10
122.09070872431363
 20
162.85685624869848
 10
122.28520979784835
 20
163.42476437421442
 10
122.45683229480096
 20
164.0
  0
LWPOLYLINE
  5
144
330
17
100
AcDbEntity
  8
KANTEN
370
50
100
AcDbPolyline
 90
3
 70
0
 10
126.3
 20
164.0
 10
124.37841614740049
 20
164.0
 10
122.45683229480096
 20
164.0
  0
LWPOLYLINE
  5
145
330
17
100
AcDbEntity
  8
KANTEN
370
50
100
AcDbPolyline
 90
3
 70
0
 10
126.3
 20
164.0
 10
126.3
 20
168.0
 10
126.3
 20
172.0
  0
LWPOLYLINE
  5
146
330
17
100
AcDbEntity
  8
KANTEN
370
50
100
AcDbPolyline
 90
3
 70
0
 10
126.3
 20
172.0
 10
124.37841614740054
 20
172.0
 10
122.45683229480107
 20
172.0
  0
LWPOLYLINE
  5
147
330
17
100
AcDbEntity
  8
KANTEN
370
50
100
AcDbPolyline
 90
34
 70
0
 10
122.45683229480102
 20
171.99999999999977
 10
122.28518947270506
 20
172.5752990862802
 10
122.09066302800868
 20
173.14326894407725
 10
121.87356457504185
 20
173.702999735415
 10
121.63424188651524
 20
174.25359482058067
 10
121.37307833641867
 20
174.79417219446265
 10
121.09049228588967
 20
175.32386589944565
 10
120.78693641303552
 20
175.84182741259883
 10
120.46289698778251
 20
176.34722700493532
 10
120.11889309291423
 20
176.83925507056537
 10
119.75547579254629
 20
177.31712342361408
 10
119.37322724936993
 20
177.78006656082613
 10
118.9727597920783
 20
178.22734288783502
 10
118.55471493446962
 20
178.65823590713228
 10
118.11976234779812
 20
179.07205536583373
 10
117.66859878801944
 20
179.46813836140413
 10
117.20194697964857
 20
179.84585040356905
 10
116.72055445801843
 20
180.20458643071262
 10
116.2251923717938
 20
180.54377177913346
 10
115.7166542476586
 20
180.86286310360538
 10
115.19575471915569
 20
181.16134924776895
 10
114.66332822171528
 20
181.43875206295928
 10
114.12022765596238
 20
181.69462717415823
 10
113.56732302144474
 20
181.9285646918443
 10
113.00550002296976
 20
182.14018986859972
 10
112.43565865178289
 20
182.32916369942305
 10
111.85871174386052
 20
182.49518346478555
 10
111.27558351762671
 20
182.63798321556123
 10
110.6872080934361
 20
182.7573341990541
 10
110.39134693431421
 20
182.80815518016158
 10
109.79687016346834
 20
182.89198635560876
 10
109.19951496397012
 20
182.9519618729855
 10
108.6002382465395
 20
182.98798565676492
 10
108.0
 20
183.0
  0
LINE
  5
148
330
17
100
AcDbEntity
  8
MITTELLINIEN
370
25
100
AcDbLine
 10
222.0
 20
168.0
 30
0.0
 11
315.0
 21
168.0
 31
0.0
  0
LINE
  5
149
330
17
100
AcDbEntity
  8
MITTELLINIEN
370
25
100
AcDbLine
 10
262.0
 20
220.0
 30
0.0
 11
288.0
 21
220.0
 31
0.0
  0
LINE
  5
14A
330
17
100
AcDbEntity
  8
MITTELLINIEN
370
25
100
AcDbLine
 10
262.0
 20
116.0
 30
0.0
 11
288.0
 21
116.0
 31
0.0
  0
LINE
  5
14B
330
17
100
AcDbEntity
  8
MITTELLINIEN
370
25
100
AcDbLine
 10
60.0
 20
168.0
 30
0.0
 11
156.0
 21
168.0
 31
0.0
  0
LINE
  5
14C
330
17
100
AcDbEntity
  8
MITTELLINIEN
370
25
100
AcDbLine
 10
108.0
 20
98.0
 30
0.0
 11
108.0
 21
238.0
 31
0.0
  0
LINE
  5
14D
330
17
100
AcDbEntity
  8
MITTELLINIEN
370
25
100
AcDbLine
 10
95.0
 20
220.0
 30
0.0
 11
121.0
 21
220.0
 31
0.0
  0
LINE
  5
14E
330
17
100
AcDbEntity
  8
MITTELLINIEN
370
25
100
AcDbLine
 10
95.0
 20
116.0
 30
0.0
 11
121.0
 21
116.0
 31
0.0
  0
LINE
  5
14F
330
17
100
AcDbEntity
  8
KANTEN
370
100
100
AcDbLine
 10
108.0
 20
247.0
 30
0.0
 11
108.0
 21
254.0
 31
0.0
  0
LINE
  5
150
330
17
100
AcDbEntity
  8
DUENN
370
25
100
AcDbLine
 10
108.0
 20
252.0
 30
0.0
 11
116.0
 21
252.0
 31
0.0
  0
SOLID
  5
151
330
17
100
AcDbEntity
  8
DUENN
100
AcDbTrace
 10
116.0
 20
252.0
 30
0.0
 11
113.0
 21
252.9
 31
0.0
 12
113.0
 22
251.1
 32
0.0
 13
113.0
 23
251.1
 33
0.0
  0
TEXT
  5
152
330
17
100
AcDbEntity
  8
TEXT
100
AcDbText
 10
118.0
 20
250.25
 30
0.0
 40
5.000000000000001
  1
A
 41
0.85
 11
118.0
 21
250.25
 31
0.0
100
AcDbText
  0
LINE
  5
153
330
17
100
AcDbEntity
  8
KANTEN
370
100
100
AcDbLine
 10
108.0
 20
89.0
 30
0.0
 11
108.0
 21
82.0
 31
0.0
  0
LINE
  5
154
330
17
100
AcDbEntity
  8
DUENN
370
25
100
AcDbLine
 10
108.0
 20
84.0
 30
0.0
 11
116.0
 21
84.0
 31
0.0
  0
SOLID
  5
155
330
17
100
AcDbEntity
  8
DUENN
100
AcDbTrace
 10
116.0
 20
84.0
 30
0.0
 11
113.0
 21
84.9
 31
0.0
 12
113.0
 22
83.1
 32
0.0
 13
113.0
 23
83.1
 33
0.0
  0
TEXT
  5
156
330
17
100
AcDbEntity
  8
TEXT
100
AcDbText
 10
118.0
 20
82.25
 30
0.0
 40
5.000000000000001
  1
A
 41
0.85
 11
118.0
 21
82.25
 31
0.0
100
AcDbText
  0
TEXT
  5
157
330
17
100
AcDbEntity
  8
TEXT
100
AcDbText
 10
268.0
 20
265.0
 30
0.0
 40
5.000000000000001
  1
A-A
 41
0.85
 72
1
 11
268.0
 21
265.0
 31
0.0
100
AcDbText
  0
LINE
  5
158
330
17
100
AcDbEntity
  8
DUENN
370
25
100
AcDbLine
 10
227.0
 20
190.5
 30
0.0
 11
216.0
 21
190.5
 31
0.0
  0
LINE
  5
159
330
17
100
AcDbEntity
  8
DUENN
370
25
100
AcDbLine
 10
227.0
 20
145.5
 30
0.0
 11
216.0
 21
145.5
 31
0.0
  0
LINE
  5
15A
330
17
100
AcDbEntity
  8
DUENN
370
25
100
AcDbLine
 10
218.0
 20
190.5
 30
0.0
 11
218.0
 21
145.5
 31
0.0
  0
SOLID
  5
15B
330
17
100
AcDbEntity
  8
DUENN
100
AcDbTrace
 10
218.0
 20
190.5
 30
0.0
 11
217.1
 21
187.5
 31
0.0
 12
218.9
 22
187.5
 32
0.0
 13
218.9
 23
187.5
 33
0.0
  0
SOLID
  5
15C
330
17
100
AcDbEntity
  8
DUENN
100
AcDbTrace
 10
218.0
 20
145.5
 30
0.0
 11
218.9
 21
148.5
 31
0.0
 12
217.1
 22
148.5
 32
0.0
 13
217.1
 23
148.5
 33
0.0
  0
TEXT
  5
15D
330
17
100
AcDbEntity
  8
TEXT
100
AcDbText
 10
217.0
 20
168.0
 30
0.0
 40
3.4999999999999996
  1
Ø45k6
 50
90.0
 41
0.85
 72
1
 11
217.0
 21
168.0
 31
0.0
100
AcDbText
  0
SOLID
  5
15E
330
17
100
AcDbEntity
  8
DUENN
100
AcDbTrace
 10
219.8
 20
145.5
 30
0.0
 11
216.2
 21
145.5
 31
0.0
 12
218.0
 22
142.4
 32
0.0
 13
218.0
 23
142.4
 33
0.0
  0
LINE
  5
15F
330
17
100
AcDbEntity
  8
DUENN
370
25
100
AcDbLine
 10
218.0
 20
142.4
 30
0.0
 11
218.0
 21
139.5
 31
0.0
  0
LWPOLYLINE
  5
160
330
17
100
AcDbEntity
  8
DUENN
370
25
100
AcDbPolyline
 90
4
 70
1
 10
214.5
 20
132.5
 10
221.5
 20
132.5
 10
221.5
 20
139.5
 10
214.5
 20
139.5
  0
TEXT
  5
161
330
17
100
AcDbEntity
  8
TEXT
100
AcDbText
 10
218.0
 20
134.25
 30
0.0
 40
3.4999999999999996
  1
B
 41
0.85
 72
1
 11
218.0
 21
134.25
 31
0.0
100
AcDbText
  0
LINE
  5
162
330
17
100
AcDbEntity
  8
DUENN
370
25
100
AcDbLine
 10
310.0
 20
190.5
 30
0.0
 11
321.0
 21
190.5
 31
0.0
  0
LINE
  5
163
330
17
100
AcDbEntity
  8
DUENN
370
25
100
AcDbLine
 10
310.0
 20
145.5
 30
0.0
 11
321.0
 21
145.5
 31
0.0
  0
LINE
  5
164
330
17
100
AcDbEntity
  8
DUENN
370
25
100
AcDbLine
 10
319.0
 20
190.5
 30
0.0
 11
319.0
 21
145.5
 31
0.0
  0
SOLID
  5
165
330
17
100
AcDbEntity
  8
DUENN
100
AcDbTrace
 10
319.0
 20
190.5
 30
0.0
 11
318.1
 21
187.5
 31
0.0
 12
319.9
 22
187.5
 32
0.0
 13
319.9
 23
187.5
 33
0.0
  0
SOLID
  5
166
330
17
100
AcDbEntity
  8
DUENN
100
AcDbTrace
 10
319.0
 20
145.5
 30
0.0
 11
319.9
 21
148.5
 31
0.0
 12
318.1
 22
148.5
 32
0.0
 13
318.1
 23
148.5
 33
0.0
  0
TEXT
  5
167
330
17
100
AcDbEntity
  8
TEXT
100
AcDbText
 10
318.0
 20
168.0
 30
0.0
 40
3.4999999999999996
  1
Ø45k6
 50
90.0
 41
0.85
 72
1
 11
318.0
 21
168.0
 31
0.0
100
AcDbText
  0
LINE
  5
168
330
17
100
AcDbEntity
  8
DUENN
370
25
100
AcDbLine
 10
319.0
 20
190.5
 30
0.0
 11
319.0
 21
220.0
 31
0.0
  0
SOLID
  5
169
330
17
100
AcDbEntity
  8
DUENN
100
AcDbTrace
 10
319.0
 20
190.5
 30
0.0
 11
319.9
 21
193.5
 31
0.0
 12
318.1
 22
193.5
 32
0.0
 13
318.1
 23
193.5
 33
0.0
  0
LWPOLYLINE
  5
16A
330
17
100
AcDbEntity
  8
DUENN
370
25
100
AcDbPolyline
 90
4
 70
1
 10
315.5
 20
220.0
 10
322.5
 20
220.0
 10
322.5
 20
227.0
 10
315.5
 20
227.0
  0
LWPOLYLINE
  5
16B
330
17
100
AcDbEntity
  8
DUENN
370
25
100
AcDbPolyline
 90
4
 70
1
 10
322.5
 20
220.0
 10
338.0
 20
220.0
 10
338.0
 20
227.0
 10
322.5
 20
227.0
  0
LWPOLYLINE
  5
16C
330
17
100
AcDbEntity
  8
DUENN
370
25
100
AcDbPolyline
 90
4
 70
1
 10
338.0
 20
220.0
 10
345.0
 20
220.0
 10
345.0
 20
227.0
 10
338.0
 20
227.0
  0
CIRCLE
  5
16D
330
17
100
AcDbEntity
  8
DUENN
370
25
100
AcDbCircle
 10
319.0
 20
223.5
 30
0.0
 40
2.0
  0
CIRCLE
  5
16E
330
17
100
AcDbEntity
  8
DUENN
370
25
100
AcDbCircle
 10
319.0
 20
223.5
 30
0.0
 40
1.1
  0
TEXT
  5
16F
330
17
100
AcDbEntity
  8
TEXT
100
AcDbText
 10
323.9
 20
222.0
 30
0.0
 40
3.4999999999999996
  1
Ø0,05
 41
0.85
 11
323.9
 21
222.0
 31
0.0
100
AcDbText
  0
TEXT
  5
170
330
17
100
AcDbEntity
  8
TEXT
100
AcDbText
 10
341.5
 20
222.0
 30
0.0
 40
3.4999999999999996
  1
B
 41
0.85
 72
1
 11
341.5
 21
222.0
 31
0.0
100
AcDbText
  0
LINE
  5
171
330
17
100
AcDbEntity
  8
DUENN
370
25
100
AcDbLine
 10
309.0
 20
191.5
 30
0.0
 11
309.0
 21
240.0
 31
0.0
  0
LINE
  5
172
330
17
100
AcDbEntity
  8
DUENN
370
25
100
AcDbLine
 10
293.0
 20
194.5
 30
0.0
 11
293.0
 21
240.0
 31
0.0
  0
LINE
  5
173
330
17
100
AcDbEntity
  8
DUENN
370
25
100
AcDbLine
 10
309.0
 20
238.0
 30
0.0
 11
293.0
 21
238.0
 31
0.0
  0
SOLID
  5
174
330
17
100
AcDbEntity
  8
DUENN
100
AcDbTrace
 10
309.0
 20
238.0
 30
0.0
 11
306.0
 21
238.9
 31
0.0
 12
306.0
 22
237.1
 32
0.0
 13
306.0
 23
237.1
 33
0.0
  0
SOLID
  5
175
330
17
100
AcDbEntity
  8
DUENN
100
AcDbTrace
 10
293.0
 20
238.0
 30
0.0
 11
296.0
 21
237.1
 31
0.0
 12
296.0
 22
238.9
 32
0.0
 13
296.0
 23
238.9
 33
0.0
  0
TEXT
  5
176
330
17
100
AcDbEntity
  8
TEXT
100
AcDbText
 10
301.0
 20
239.0
 30
0.0
 40
3.4999999999999996
  1
16
 41
0.85
 72
1
 11
301.0
 21
239.0
 31
0.0
100
AcDbText
  0
LINE
  5
177
330
17
100
AcDbEntity
  8
DUENN
370
25
100
AcDbLine
 10
309.0
 20
191.5
 30
0.0
 11
309.0
 21
247.0
 31
0.0
  0
LINE
  5
178
330
17
100
AcDbEntity
  8
DUENN
370
25
100
AcDbLine
 10
285.0
 20
208.5
 30
0.0
 11
285.0
 21
247.0
 31
0.0
  0
LINE
  5
179
330
17
100
AcDbEntity
  8
DUENN
370
25
100
AcDbLine
 10
309.0
 20
245.0
 30
0.0
 11
285.0
 21
245.0
 31
0.0
  0
SOLID
  5
17A
330
17
100
AcDbEntity
  8
DUENN
100
AcDbTrace
 10
309.0
 20
245.0
 30
0.0
 11
306.0
 21
245.9
 31
0.0
 12
306.0
 22
244.1
 32
0.0
 13
306.0
 23
244.1
 33
0.0
  0
SOLID
  5
17B
330
17
100
AcDbEntity
  8
DUENN
100
AcDbTrace
 10
285.0
 20
245.0
 30
0.0
 11
288.0
 21
244.1
 31
0.0
 12
288.0
 22
245.9
 32
0.0
 13
288.0
 23
245.9
 33
0.0
  0
TEXT
  5
17C
330
17
100
AcDbEntity
  8
TEXT
100
AcDbText
 10
297.0
 20
246.0
 30
0.0
 40
3.4999999999999996
  1
24
 41
0.85
 72
1
 11
297.0
 21
246.0
 31
0.0
100
AcDbText
  0
LINE
  5
17D
330
17
100
AcDbEntity
  8
DUENN
370
25
100
AcDbLine
 10
309.0
 20
191.5
 30
0.0
 11
309.0
 21
254.0
 31
0.0
  0
LINE
  5
17E
330
17
100
AcDbEntity
  8
DUENN
370
25
100
AcDbLine
 10
283.5
 20
230.0
 30
0.0
 11
283.5
 21
254.0
 31
0.0
  0
LINE
  5
17F
330
17
100
AcDbEntity
  8
DUENN
370
25
100
AcDbLine
 10
309.0
 20
252.0
 30
0.0
 11
283.5
 21
252.0
 31
0.0
  0
SOLID
  5
180
330
17
100
AcDbEntity
  8
DUENN
100
AcDbTrace
 10
309.0
 20
252.0
 30
0.0
 11
306.0
 21
252.9
 31
0.0
 12
306.0
 22
251.1
 32
0.0
 13
306.0
 23
251.1
 33
0.0
  0
SOLID
  5
181
330
17
100
AcDbEntity
  8
DUENN
100
AcDbTrace
 10
283.5
 20
252.0
 30
0.0
 11
286.5
 21
251.1
 31
0.0
 12
286.5
 22
252.9
 32
0.0
 13
286.5
 23
252.9
 33
0.0
  0
TEXT
  5
182
330
17
100
AcDbEntity
  8
TEXT
100
AcDbText
 10
296.25
 20
253.0
 30
0.0
 40
3.4999999999999996
  1
25,5
 41
0.85
 72
1
 11
296.25
 21
253.0
 31
0.0
100
AcDbText
  0
LINE
  5
183
330
17
100
AcDbEntity
  8
DUENN
370
25
100
AcDbLine
 10
266.5
 20
106.0
 30
0.0
 11
266.5
 21
97.0
 31
0.0
  0
LINE
  5
184
330
17
100
AcDbEntity
  8
DUENN
370
25
100
AcDbLine
 10
283.5
 20
106.0
 30
0.0
 11
283.5
 21
97.0
 31
0.0
  0
LINE
  5
185
330
17
100
AcDbEntity
  8
DUENN
370
25
100
AcDbLine
 10
266.5
 20
99.0
 30
0.0
 11
283.5
 21
99.0
 31
0.0
  0
SOLID
  5
186
330
17
100
AcDbEntity
  8
DUENN
100
AcDbTrace
 10
266.5
 20
99.0
 30
0.0
 11
269.5
 21
98.1
 31
0.0
 12
269.5
 22
99.9
 32
0.0
 13
269.5
 23
99.9
 33
0.0
  0
SOLID
  5
187
330
17
100
AcDbEntity
  8
DUENN
100
AcDbTrace
 10
283.5
 20
99.0
 30
0.0
 11
280.5
 21
99.9
 31
0.0
 12
280.5
 22
98.1
 32
0.0
 13
280.5
 23
98.1
 33
0.0
  0
TEXT
  5
188
330
17
100
AcDbEntity
  8
TEXT
100
AcDbText
 10
268.722
 20
100.0
 30
0.0
 40
3.4999999999999996
  1
17
 41
0.85
 11
268.722
 21
100.0
 31
0.0
100
AcDbText
  0
TEXT
  5
189
330
17
100
AcDbEntity
  8
TEXT
100
AcDbText
 10
275.822
 20
102.5
 30
0.0
 40
2.2
  1
-0,1
 41
0.85
 11
275.822
 21
102.5
 31
0.0
100
AcDbText
  0
TEXT
  5
18A
330
17
100
AcDbEntity
  8
TEXT
100
AcDbText
 10
275.822
 20
99.5
 30
0.0
 40
2.2
  1
-0,2
 41
0.85
 11
275.822
 21
99.5
 31
0.0
100
AcDbText
  0
LINE
  5
18B
330
17
100
AcDbEntity
  8
DUENN
370
25
100
AcDbLine
 10
265.0
 20
127.5
 30
0.0
 11
265.0
 21
90.0
 31
0.0
  0
LINE
  5
18C
330
17
100
AcDbEntity
  8
DUENN
370
25
100
AcDbLine
 10
285.0
 20
127.5
 30
0.0
 11
285.0
 21
90.0
 31
0.0
  0
LINE
  5
18D
330
17
100
AcDbEntity
  8
DUENN
370
25
100
AcDbLine
 10
265.0
 20
92.0
 30
0.0
 11
285.0
 21
92.0
 31
0.0
  0
SOLID
  5
18E
330
17
100
AcDbEntity
  8
DUENN
100
AcDbTrace
 10
265.0
 20
92.0
 30
0.0
 11
268.0
 21
91.1
 31
0.0
 12
268.0
 22
92.9
 32
0.0
 13
268.0
 23
92.9
 33
0.0
  0
SOLID
  5
18F
330
17
100
AcDbEntity
  8
DUENN
100
AcDbTrace
 10
285.0
 20
92.0
 30
0.0
 11
282.0
 21
92.9
 31
0.0
 12
282.0
 22
91.1
 32
0.0
 13
282.0
 23
91.1
 33
0.0
  0
TEXT
  5
190
330
17
100
AcDbEntity
  8
TEXT
100
AcDbText
 10
275.0
 20
93.0
 30
0.0
 40
3.4999999999999996
  1
20
 41
0.85
 72
1
 11
275.0
 21
93.0
 31
0.0
100
AcDbText
  0
LINE
  5
191
330
17
100
AcDbEntity
  8
DUENN
370
25
100
AcDbLine
 10
257.0
 20
141.5
 30
0.0
 11
257.0
 21
83.0
 31
0.0
  0
LINE
  5
192
330
17
100
AcDbEntity
  8
DUENN
370
25
100
AcDbLine
 10
293.0
 20
141.5
 30
0.0
 11
293.0
 21
83.0
 31
0.0
  0
LINE
  5
193
330
17
100
AcDbEntity
  8
DUENN
370
25
100
AcDbLine
 10
257.0
 20
85.0
 30
0.0
 11
293.0
 21
85.0
 31
0.0
  0
SOLID
  5
194
330
17
100
AcDbEntity
  8
DUENN
100
AcDbTrace
 10
257.0
 20
85.0
 30
0.0
 11
260.0
 21
84.1
 31
0.0
 12
260.0
 22
85.9
 32
0.0
 13
260.0
 23
85.9
 33
0.0
  0
SOLID
  5
195
330
17
100
AcDbEntity
  8
DUENN
100
AcDbTrace
 10
293.0
 20
85.0
 30
0.0
 11
290.0
 21
85.9
 31
0.0
 12
290.0
 22
84.1
 32
0.0
 13
290.0
 23
84.1
 33
0.0
  0
TEXT
  5
196
330
17
100
AcDbEntity
  8
TEXT
100
AcDbText
 10
275.0
 20
86.0
 30
0.0
 40
3.4999999999999996
  1
36 -0,1
 41
0.85
 72
1
 11
275.0
 21
86.0
 31
0.0
100
AcDbText
  0
LINE
  5
197
330
17
100
AcDbEntity
  8
DUENN
370
25
100
AcDbLine
 10
228.0
 20
144.5
 30
0.0
 11
228.0
 21
76.0
 31
0.0
  0
LINE
  5
198
330
17
100
AcDbEntity
  8
DUENN
370
25
100
AcDbLine
 10
309.0
 20
144.5
 30
0.0
 11
309.0
 21
76.0
 31
0.0
  0
LINE
  5
199
330
17
100
AcDbEntity
  8
DUENN
370
25
100
AcDbLine
 10
228.0
 20
78.0
 30
0.0
 11
309.0
 21
78.0
 31
0.0
  0
SOLID
  5
19A
330
17
100
AcDbEntity
  8
DUENN
100
AcDbTrace
 10
228.0
 20
78.0
 30
0.0
 11
231.0
 21
77.1
 31
0.0
 12
231.0
 22
78.9
 32
0.0
 13
231.0
 23
78.9
 33
0.0
  0
SOLID
  5
19B
330
17
100
AcDbEntity
  8
DUENN
100
AcDbTrace
 10
309.0
 20
78.0
 30
0.0
 11
306.0
 21
78.9
 31
0.0
 12
306.0
 22
77.1
 32
0.0
 13
306.0
 23
77.1
 33
0.0
  0
TEXT
  5
19C
330
17
100
AcDbEntity
  8
TEXT
100
AcDbText
 10
268.5
 20
79.0
 30
0.0
 40
3.4999999999999996
  1
81
 41
0.85
 72
1
 11
268.5
 21
79.0
 31
0.0
100
AcDbText
  0
LWPOLYLINE
  5
19D
330
17
100
AcDbEntity
  8
DUENN
370
25
100
AcDbPolyline
 90
4
 70
1
 10
196.0
 20
232.0
 10
203.0
 20
232.0
 10
203.0
 20
239.0
 10
196.0
 20
239.0
  0
LWPOLYLINE
  5
19E
330
17
100
AcDbEntity
  8
DUENN
370
25
100
AcDbPolyline
 90
4
 70
1
 10
203.0
 20
232.0
 10
216.0
 20
232.0
 10
216.0
 20
239.0
 10
203.0
 20
239.0
  0
LWPOLYLINE
  5
19F
330
17
100
AcDbEntity
  8
DUENN
370
25
100
AcDbPolyline
 90
4
 70
1
 10
216.0
 20
232.0
 10
223.0
 20
232.0
 10
223.0
 20
239.0
 10
216.0
 20
239.0
  0
LINE
  5
1A0
330
17
100
AcDbEntity
  8
DUENN
370
25
100
AcDbLine
 10
197.1
 20
233.9
 30
0.0
 11
199.29999999999998
 21
237.1
 31
0.0
  0
SOLID
  5
1A1
330
17
100
AcDbEntity
  8
DUENN
100
AcDbTrace
 10
199.29999999999998
 20
237.1
 30
0.0
 11
197.89999999999998
 21
236.79999999999998
 31
0.0
 12
198.99999999999997
 22
235.7
 32
0.0
 13
198.99999999999997
 23
235.7
 33
0.0
  0
LINE
  5
1A2
330
17
100
AcDbEntity
  8
DUENN
370
25
100
AcDbLine
 10
199.3
 20
233.9
 30
0.0
 11
201.5
 21
237.1
 31
0.0
  0
SOLID
  5
1A3
330
17
100
AcDbEntity
  8
DUENN
100
AcDbTrace
 10
201.5
 20
237.1
 30
0.0
 11
200.1
 21
236.79999999999998
 31
0.0
 12
201.2
 22
235.7
 32
0.0
 13
201.2
 23
235.7
 33
0.0
  0
LINE
  5
1A4
330
17
100
AcDbEntity
  8
DUENN
370
25
100
AcDbLine
 10
197.1
 20
233.9
 30
0.0
 11
199.9
 21
233.9
 31
0.0
  0
TEXT
  5
1A5
330
17
100
AcDbEntity
  8
TEXT
100
AcDbText
 10
204.4
 20
234.0
 30
0.0
 40
3.4999999999999996
  1
0,05
 41
0.85
 11
204.4
 21
234.0
 31
0.0
100
AcDbText
  0
TEXT
  5
1A6
330
17
100
AcDbEntity
  8
TEXT
100
AcDbText
 10
219.5
 20
234.0
 30
0.0
 40
3.4999999999999996
  1
A
 41
0.85
 72
1
 11
219.5
 21
234.0
 31
0.0
100
AcDbText
  0
LWPOLYLINE
  5
1A7
330
17
100
AcDbEntity
  8
DUENN
370
25
100
AcDbPolyline
 90
3
 70
0
 10
223.0
 20
235.5
 10
241.0
 20
235.5
 10
241.0
 20
190.6
  0
SOLID
  5
1A8
330
17
100
AcDbEntity
  8
DUENN
100
AcDbTrace
 10
241.0
 20
190.6
 30
0.0
 11
241.9
 21
193.6
 31
0.0
 12
240.1
 22
193.6
 32
0.0
 13
240.1
 23
193.6
 33
0.0
  0
LINE
  5
1A9
330
17
100
AcDbEntity
  8
DUENN
370
25
100
AcDbLine
 10
78.0
 20
220.0
 30
0.0
 11
78.0
 21
116.0
 31
0.0
  0
SOLID
  5
1AA
330
17
100
AcDbEntity
  8
DUENN
100
AcDbTrace
 10
78.0
 20
220.0
 30
0.0
 11
77.1
 21
217.0
 31
0.0
 12
78.9
 22
217.0
 32
0.0
 13
78.9
 23
217.0
 33
0.0
  0
SOLID
  5
1AB
330
17
100
AcDbEntity
  8
DUENN
100
AcDbTrace
 10
78.0
 20
116.0
 30
0.0
 11
78.9
 21
119.0
 31
0.0
 12
77.1
 22
119.0
 32
0.0
 13
77.1
 23
119.0
 33
0.0
  0
TEXT
  5
1AC
330
17
100
AcDbEntity
  8
TEXT
100
AcDbText
 10
77.0
 20
168.0
 30
0.0
 40
3.4999999999999996
  1
104
 50
90.0
 41
0.85
 72
1
 11
77.0
 21
168.0
 31
0.0
100
AcDbText
  0
LINE
  5
1AD
330
17
100
AcDbEntity
  8
DUENN
370
25
100
AcDbLine
 10
98.0
 20
220.0
 30
0.0
 11
76.5
 21
220.0
 31
0.0
  0
LINE
  5
1AE
330
17
100
AcDbEntity
  8
DUENN
370
25
100
AcDbLine
 10
98.0
 20
116.0
 30
0.0
 11
76.5
 21
116.0
 31
0.0
  0
LINE
  5
1AF
330
17
100
AcDbEntity
  8
DUENN
370
25
100
AcDbLine
 10
99.0
 20
221.0
 30
0.0
 11
99.0
 21
237.0
 31
0.0
  0
LINE
  5
1B0
330
17
100
AcDbEntity
  8
DUENN
370
25
100
AcDbLine
 10
117.0
 20
221.0
 30
0.0
 11
117.0
 21
237.0
 31
0.0
  0
LINE
  5
1B1
330
17
100
AcDbEntity
  8
DUENN
370
25
100
AcDbLine
 10
99.0
 20
235.0
 30
0.0
 11
117.0
 21
235.0
 31
0.0
  0
SOLID
  5
1B2
330
17
100
AcDbEntity
  8
DUENN
100
AcDbTrace
 10
99.0
 20
235.0
 30
0.0
 11
102.0
 21
234.1
 31
0.0
 12
102.0
 22
235.9
 32
0.0
 13
102.0
 23
235.9
 33
0.0
  0
SOLID
  5
1B3
330
17
100
AcDbEntity
  8
DUENN
100
AcDbTrace
 10
117.0
 20
235.0
 30
0.0
 11
114.0
 21
235.9
 31
0.0
 12
114.0
 22
234.1
 32
0.0
 13
114.0
 23
234.1
 33
0.0
  0
TEXT
  5
1B4
330
17
100
AcDbEntity
  8
TEXT
100
AcDbText
 10
108.0
 20
236.0
 30
0.0
 40
3.4999999999999996
  1
18
 41
0.85
 72
1
 11
108.0
 21
236.0
 31
0.0
100
AcDbText
  0
LWPOLYLINE
  5
1B5
330
17
100
AcDbEntity
  8
DUENN
370
25
100
AcDbPolyline
 90
3
 70
0
 10
110.82842712474618
 20
222.82842712474618
 10
130.0
 20
246.0
 10
144.0
 20
246.0
  0
SOLID
  5
1B6
330
17
100
AcDbEntity
  8
DUENN
100
AcDbTrace
 10
110.82842712474618
 20
222.82842712474618
 30
0.0
 11
113.43426700626758
 21
224.56612632537687
 31
0.0
 12
112.04741315392606
 22
225.71357409858726
 32
0.0
 13
112.04741315392606
 23
225.71357409858726
 33
0.0
  0
TEXT
  5
1B7
330
17
100
AcDbEntity
  8
TEXT
100
AcDbText
 10
131.0
 20
246.9
 30
0.0
 40
3.4999999999999996
  1
Ø8H8
 41
0.85
 11
131.0
 21
246.9
 31
0.0
100
AcDbText
  0
LWPOLYLINE
  5
1B8
330
17
100
AcDbEntity
  8
DUENN
370
25
100
AcDbPolyline
 90
3
 70
0
 10
101.64
 20
109.64
 10
86.0
 20
92.0
 10
78.0
 20
92.0
  0
SOLID
  5
1B9
330
17
100
AcDbEntity
  8
DUENN
100
AcDbTrace
 10
101.64
 20
109.64
 30
0.0
 11
98.97632744418193
 21
107.9923202631028
 31
0.0
 12
100.3231796480219
 22
106.79817239076395
 32
0.0
 13
100.3231796480219
 23
106.79817239076395
 33
0.0
  0
TEXT
  5
1BA
330
17
100
AcDbEntity
  8
TEXT
100
AcDbText
 10
79.0
 20
92.9
 30
0.0
 40
3.4999999999999996
  1
R9
 41
0.85
 11
79.0
 21
92.9
 31
0.0
100
AcDbText
  0
LINE
  5
1BB
330
17
100
AcDbEntity
  8
DUENN
370
25
100
AcDbLine
 10
68.5
 20
167.0
 30
0.0
 11
68.5
 21
73.0
 31
0.0
  0
LINE
  5
1BC
330
17
100
AcDbEntity
  8
DUENN
370
25
100
AcDbLine
 10
147.5
 20
167.0
 30
0.0
 11
147.5
 21
73.0
 31
0.0
  0
LINE
  5
1BD
330
17
100
AcDbEntity
  8
DUENN
370
25
100
AcDbLine
 10
68.5
 20
75.0
 30
0.0
 11
147.5
 21
75.0
 31
0.0
  0
SOLID
  5
1BE
330
17
100
AcDbEntity
  8
DUENN
100
AcDbTrace
 10
68.5
 20
75.0
 30
0.0
 11
71.5
 21
74.1
 31
0.0
 12
71.5
 22
75.9
 32
0.0
 13
71.5
 23
75.9
 33
0.0
  0
SOLID
  5
1BF
330
17
100
AcDbEntity
  8
DUENN
100
AcDbTrace
 10
147.5
 20
75.0
 30
0.0
 11
144.5
 21
75.9
 31
0.0
 12
144.5
 22
74.1
 32
0.0
 13
144.5
 23
74.1
 33
0.0
  0
TEXT
  5
1C0
330
17
100
AcDbEntity
  8
TEXT
100
AcDbText
 10
108.0
 20
76.0
 30
0.0
 40
3.4999999999999996
  1
Ø79
 41
0.85
 72
1
 11
108.0
 21
76.0
 31
0.0
100
AcDbText
  0
LINE
  5
1C1
330
17
100
AcDbEntity
  8
DUENN
370
25
100
AcDbLine
 10
127.3
 20
172.0
 30
0.0
 11
137.0
 21
172.0
 31
0.0
  0
LINE
  5
1C2
330
17
100
AcDbEntity
  8
DUENN
370
25
100
AcDbLine
 10
127.3
 20
164.0
 30
0.0
 11
137.0
 21
164.0
 31
0.0
  0
LINE
  5
1C3
330
17
100
AcDbEntity
  8
DUENN
370
25
100
AcDbLine
 10
135.0
 20
179.0
 30
0.0
 11
135.0
 21
157.0
 31
0.0
  0
SOLID
  5
1C4
330
17
100
AcDbEntity
  8
DUENN
100
AcDbTrace
 10
135.0
 20
172.0
 30
0.0
 11
135.9
 21
175.0
 31
0.0
 12
134.1
 22
175.0
 32
0.0
 13
134.1
 23
175.0
 33
0.0
  0
SOLID
  5
1C5
330
17
100
AcDbEntity
  8
DUENN
100
AcDbTrace
 10
135.0
 20
164.0
 30
0.0
 11
134.1
 21
161.0
 31
0.0
 12
135.9
 22
161.0
 32
0.0
 13
135.9
 23
161.0
 33
0.0
  0
TEXT
  5
1C6
330
17
100
AcDbEntity
  8
TEXT
100
AcDbText
 10
134.0
 20
168.0
 30
0.0
 40
3.4999999999999996
  1
8JS9
 50
90.0
 41
0.85
 72
1
 11
134.0
 21
168.0
 31
0.0
100
AcDbText
  0
LINE
  5
1C7
330
17
100
AcDbEntity
  8
DUENN
370
25
100
AcDbLine
 10
93.0
 20
167.0
 30
0.0
 11
93.0
 21
135.0
 31
0.0
  0
LINE
  5
1C8
330
17
100
AcDbEntity
  8
DUENN
370
25
100
AcDbLine
 10
126.3
 20
163.0
 30
0.0
 11
126.3
 21
135.0
 31
0.0
  0
LINE
  5
1C9
330
17
100
AcDbEntity
  8
DUENN
370
25
100
AcDbLine
 10
93.0
 20
137.0
 30
0.0
 11
126.3
 21
137.0
 31
0.0
  0
SOLID
  5
1CA
330
17
100
AcDbEntity
  8
DUENN
100
AcDbTrace
 10
93.0
 20
137.0
 30
0.0
 11
96.0
 21
136.1
 31
0.0
 12
96.0
 22
137.9
 32
0.0
 13
96.0
 23
137.9
 33
0.0
  0
SOLID
  5
1CB
330
17
100
AcDbEntity
  8
DUENN
100
AcDbTrace
 10
126.3
 20
137.0
 30
0.0
 11
123.3
 21
137.9
 31
0.0
 12
123.3
 22
136.1
 32
0.0
 13
123.3
 23
136.1
 33
0.0
  0
TEXT
  5
1CC
330
17
100
AcDbEntity
  8
TEXT
100
AcDbText
 10
109.65
 20
138.0
 30
0.0
 40
3.4999999999999996
  1
33,3+0,2
 41
0.85
 72
1
 11
109.65
 21
138.0
 31
0.0
100
AcDbText
  0
LINE
  5
1CD
330
17
100
AcDbEntity
  8
DUENN
370
25
100
AcDbLine
 10
135.0
 20
172.0
 30
0.0
 11
135.0
 21
198.0
 31
0.0
  0
SOLID
  5
1CE
330
17
100
AcDbEntity
  8
DUENN
100
AcDbTrace
 10
135.0
 20
172.0
 30
0.0
 11
135.9
 21
175.0
 31
0.0
 12
134.1
 22
175.0
 32
0.0
 13
134.1
 23
175.0
 33
0.0
  0
LWPOLYLINE
  5
1CF
330
17
100
AcDbEntity
  8
DUENN
370
25
100
AcDbPolyline
 90
4
 70
1
 10
131.5
 20
198.0
 10
138.5
 20
198.0
 10
138.5
 20
205.0
 10
131.5
 20
205.0
  0
LWPOLYLINE
  5
1D0
330
17
100
AcDbEntity
  8
DUENN
370
25
100
AcDbPolyline
 90
4
 70
1
 10
138.5
 20
198.0
 10
151.5
 20
198.0
 10
151.5
 20
205.0
 10
138.5
 20
205.0
  0
LWPOLYLINE
  5
1D1
330
17
100
AcDbEntity
  8
DUENN
370
25
100
AcDbPolyline
 90
4
 70
1
 10
151.5
 20
198.0
 10
158.5
 20
198.0
 10
158.5
 20
205.0
 10
151.5
 20
205.0
  0
LINE
  5
1D2
330
17
100
AcDbEntity
  8
DUENN
370
25
100
AcDbLine
 10
132.8
 20
201.5
 30
0.0
 11
137.2
 21
201.5
 31
0.0
  0
LINE
  5
1D3
330
17
100
AcDbEntity
  8
DUENN
370
25
100
AcDbLine
 10
133.7
 20
202.8
 30
0.0
 11
136.3
 21
202.8
 31
0.0
  0
LINE
  5
1D4
330
17
100
AcDbEntity
  8
DUENN
370
25
100
AcDbLine
 10
133.7
 20
200.2
 30
0.0
 11
136.3
 21
200.2
 31
0.0
  0
TEXT
  5
1D5
330
17
100
AcDbEntity
  8
TEXT
100
AcDbText
 10
139.9
 20
200.0
 30
0.0
 40
3.4999999999999996
  1
0,02
 41
0.85
 11
139.9
 21
200.0
 31
0.0
100
AcDbText
  0
TEXT
  5
1D6
330
17
100
AcDbEntity
  8
TEXT
100
AcDbText
 10
155.0
 20
200.0
 30
0.0
 40
3.4999999999999996
  1
A
 41
0.85
 72
1
 11
155.0
 21
200.0
 31
0.0
100
AcDbText
  0
LINE
  5
1D7
330
17
100
AcDbEntity
  8
DUENN
370
25
100
AcDbLine
 10
97.39339828220179
 20
157.3933982822018
 30
0.0
 11
118.60660171779821
 21
178.6066017177982
 31
0.0
  0
SOLID
  5
1D8
330
17
100
AcDbEntity
  8
DUENN
100
AcDbTrace
 10
97.39339828220179
 20
157.3933982822018
 30
0.0
 11
100.15111472882933
 21
158.87832252269354
 31
0.0
 12
98.87832252269354
 22
160.1511147288293
 32
0.0
 13
98.87832252269354
 23
160.1511147288293
 33
0.0
  0
SOLID
  5
1D9
330
17
100
AcDbEntity
  8
DUENN
100
AcDbTrace
 10
118.60660171779821
 20
178.6066017177982
 30
0.0
 11
115.84888527117067
 21
177.12167747730646
 31
0.0
 12
117.12167747730646
 22
175.8488852711707
 32
0.0
 13
117.12167747730646
 23
175.8488852711707
 33
0.0
  0
LINE
  5
1DA
330
17
100
AcDbEntity
  8
DUENN
370
25
100
AcDbLine
 10
89.96877707974303
 20
186.03122292025697
 30
0.0
 11
126.03122292025697
 21
149.96877707974303
 31
0.0
  0
SOLID
  5
1DB
330
17
100
AcDbEntity
  8
DUENN
100
AcDbTrace
 10
89.96877707974303
 20
186.03122292025697
 30
0.0
 11
91.45370132023479
 21
183.27350647362945
 31
0.0
 12
92.72649352637058
 22
184.54629867976521
 32
0.0
 13
92.72649352637058
 23
184.54629867976521
 33
0.0
  0
SOLID
  5
1DC
330
17
100
AcDbEntity
  8
DUENN
100
AcDbTrace
 10
126.03122292025697
 20
149.96877707974303
 30
0.0
 11
124.54629867976521
 21
152.72649352637055
 31
0.0
 12
123.27350647362942
 22
151.45370132023479
 32
0.0
 13
123.27350647362942
 23
151.45370132023479
 33
0.0
  0
TEXT
  5
1DD
330
17
100
AcDbEntity
  8
TEXT
100
AcDbText
 10
95.27207793864214
 20
182.14213562373095
 30
0.0
 40
3.4999999999999996
  1
Ø51
 50
315.0
 41
0.85
 72
1
 11
95.27207793864214
 21
182.14213562373095
 31
0.0
100
AcDbText
  0
LINE
  5
1DE
330
17
100
AcDbEntity
  8
DUENN
370
25
100
AcDbLine
 10
97.39339828220179
 20
157.3933982822018
 30
0.0
 11
75.4730880654188
 21
135.4730880654188
 31
0.0
  0
TEXT
  5
1DF
330
17
100
AcDbEntity
  8
TEXT
100
AcDbText
 10
86.08679656440357
 20
147.48679656440356
 30
0.0
 40
3.4999999999999996
  1
Ø30H7
 50
45.0
 41
0.85
 72
1
 11
86.08679656440357
 21
147.48679656440356
 31
0.0
100
AcDbText
  0
SOLID
  5
1E0
330
17
100
AcDbEntity
  8
DUENN
100
AcDbTrace
 10
76.7458802715546
 20
134.20029585928302
 30
0.0
 11
74.20029585928302
 21
136.7458802715546
 31
0.0
 12
73.2810570437405
 22
133.2810570437405
 32
0.0
 13
73.2810570437405
 23
133.2810570437405
 33
0.0
  0
LINE
  5
1E1
330
17
100
AcDbEntity
  8
DUENN
370
25
100
AcDbLine
 10
73.2810570437405
 20
133.2810570437405
 30
0.0
 11
72.64466094067262
 21
132.64466094067262
 31
0.0
  0
LWPOLYLINE
  5
1E2
330
17
100
AcDbEntity
  8
DUENN
370
25
100
AcDbPolyline
 90
4
 70
1
 10
66.6697872065197
 20
126.66978720651971
 10
73.6697872065197
 20
126.66978720651971
 10
73.6697872065197
 20
133.66978720651971
 10
66.6697872065197
 20
133.66978720651971
  0
TEXT
  5
1E3
330
17
100
AcDbEntity
  8
TEXT
100
AcDbText
 10
70.1697872065197
 20
128.41978720651971
 30
0.0
 40
3.4999999999999996
  1
A
 41
0.85
 72
1
 11
70.1697872065197
 21
128.41978720651971
 31
0.0
100
AcDbText
  0
LWPOLYLINE
  5
1E4
330
17
100
AcDbEntity
  8
DUENN
100
AcDbPolyline
 90
2
 70
1
 10
103.65
 20
212.0
 40
0.7
 41
0.7
 42
1.0
 10
104.35
 20
212.0
 40
0.7
 41
0.7
 42
1.0
  0
LWPOLYLINE
  5
1E5
330
17
100
AcDbEntity
  8
DUENN
370
25
100
AcDbPolyline
 90
3
 70
0
 10
104.0
 20
212.0
 10
82.0
 20
230.0
 10
78.0
 20
230.0
  0
LWPOLYLINE
  5
1E6
330
17
100
AcDbEntity
  8
DUENN
370
25
100
AcDbPolyline
 90
4
 70
1
 10
54.0
 20
226.5
 10
61.0
 20
226.5
 10
61.0
 20
233.5
 10
54.0
 20
233.5
  0
LWPOLYLINE
  5
1E7
330
17
100
AcDbEntity
  8
DUENN
370
25
100
AcDbPolyline
 90
4
 70
1
 10
61.0
 20
226.5
 10
74.0
 20
226.5
 10
74.0
 20
233.5
 10
61.0
 20
233.5
  0
LWPOLYLINE
  5
1E8
330
17
100
AcDbEntity
  8
DUENN
370
25
100
AcDbPolyline
 90
4
 70
1
 10
74.0
 20
226.5
 10
81.0
 20
226.5
 10
81.0
 20
233.5
 10
74.0
 20
233.5
  0
LINE
  5
1E9
330
17
100
AcDbEntity
  8
DUENN
370
25
100
AcDbLine
 10
55.1
 20
228.4
 30
0.0
 11
57.300000000000004
 21
231.6
 31
0.0
  0
SOLID
  5
1EA
330
17
100
AcDbEntity
  8
DUENN
100
AcDbTrace
 10
57.300000000000004
 20
231.6
 30
0.0
 11
55.900000000000006
 21
231.29999999999998
 31
0.0
 12
57.00000000000001
 22
230.2
 32
0.0
 13
57.00000000000001
 23
230.2
 33
0.0
  0
LINE
  5
1EB
330
17
100
AcDbEntity
  8
DUENN
370
25
100
AcDbLine
 10
57.3
 20
228.4
 30
0.0
 11
59.5
 21
231.6
 31
0.0
  0
SOLID
  5
1EC
330
17
100
AcDbEntity
  8
DUENN
100
AcDbTrace
 10
59.5
 20
231.6
 30
0.0
 11
58.1
 21
231.29999999999998
 31
0.0
 12
59.2
 22
230.2
 32
0.0
 13
59.2
 23
230.2
 33
0.0
  0
LINE
  5
1ED
330
17
100
AcDbEntity
  8
DUENN
370
25
100
AcDbLine
 10
55.1
 20
228.4
 30
0.0
 11
57.9
 21
228.4
 31
0.0
  0
TEXT
  5
1EE
330
17
100
AcDbEntity
  8
TEXT
100
AcDbText
 10
62.4
 20
228.5
 30
0.0
 40
3.4999999999999996
  1
0,05
 41
0.85
 11
62.4
 21
228.5
 31
0.0
100
AcDbText
  0
TEXT
  5
1EF
330
17
100
AcDbEntity
  8
TEXT
100
AcDbText
 10
77.5
 20
228.5
 30
0.0
 40
3.4999999999999996
  1
A
 41
0.85
 72
1
 11
77.5
 21
228.5
 31
0.0
100
AcDbText
  0
TEXT
  5
1F0
330
17
100
AcDbEntity
  8
TEXT
100
AcDbText
 10
54.0
 20
235.5
 30
0.0
 40
3.0
  1
beidseitig
 41
0.85
 11
54.0
 21
235.5
 31
0.0
100
AcDbText
  0
LINE
  5
1F1
330
17
100
AcDbEntity
  8
DUENN
370
25
100
AcDbLine
 10
248.0
 20
190.6
 30
0.0
 11
248.0
 21
208.0
 31
0.0
  0
SOLID
  5
1F2
330
17
100
AcDbEntity
  8
DUENN
100
AcDbTrace
 10
248.0
 20
190.6
 30
0.0
 11
248.9
 21
193.6
 31
0.0
 12
247.1
 22
193.6
 32
0.0
 13
247.1
 23
193.6
 33
0.0
  0
LWPOLYLINE
  5
1F3
330
17
100
AcDbEntity
  8
DUENN
370
25
100
AcDbPolyline
 90
3
 70
0
 10
245.11324865405186
 20
213.0
 10
248.0
 20
208.0
 10
253.77350269189625
 20
218.0
  0
LINE
  5
1F4
330
17
100
AcDbEntity
  8
DUENN
370
25
100
AcDbLine
 10
245.11324865405186
 20
213.0
 30
0.0
 11
250.88675134594814
 21
213.0
 31
0.0
  0
LINE
  5
1F5
330
17
100
AcDbEntity
  8
DUENN
370
25
100
AcDbLine
 10
253.77350269189625
 20
218.0
 30
0.0
 11
257.7735026918963
 21
218.0
 31
0.0
  0
TEXT
  5
1F6
330
17
100
AcDbEntity
  8
TEXT
100
AcDbText
 10
254.57350269189627
 20
213.9
 30
0.0
 40
3.4999999999999996
  1
z
 41
0.85
 11
254.57350269189627
 21
213.9
 31
0.0
100
AcDbText
  0
LINE
  5
1F7
330
17
100
AcDbEntity
  8
DUENN
370
25
100
AcDbLine
 10
302.0
 20
190.6
 30
0.0
 11
300.0
 21
208.0
 31
0.0
  0
SOLID
  5
1F8
330
17
100
AcDbEntity
  8
DUENN
100
AcDbTrace
 10
302.0
 20
190.6
 30
0.0
 11
302.55154094877633
 21
193.68314816086138
 31
0.0
 12
300.76331501547673
 22
193.47760495013728
 32
0.0
 13
300.76331501547673
 23
193.47760495013728
 33
0.0
  0
LWPOLYLINE
  5
1F9
330
17
100
AcDbEntity
  8
DUENN
370
25
100
AcDbPolyline
 90
3
 70
0
 10
297.11324865405186
 20
213.0
 10
300.0
 20
208.0
 10
305.7735026918963
 20
218.0
  0
LINE
  5
1FA
330
17
100
AcDbEntity
  8
DUENN
370
25
100
AcDbLine
 10
297.11324865405186
 20
213.0
 30
0.0
 11
302.88675134594814
 21
213.0
 31
0.0
  0
LINE
  5
1FB
330
17
100
AcDbEntity
  8
DUENN
370
25
100
AcDbLine
 10
305.7735026918963
 20
218.0
 30
0.0
 11
309.7735026918963
 21
218.0
 31
0.0
  0
TEXT
  5
1FC
330
17
100
AcDbEntity
  8
TEXT
100
AcDbText
 10
306.57350269189624
 20
213.9
 30
0.0
 40
3.4999999999999996
  1
z
 41
0.85
 11
306.57350269189624
 21
213.9
 31
0.0
100
AcDbText
  0
LINE
  5
1FD
330
17
100
AcDbEntity
  8
DUENN
370
25
100
AcDbLine
 10
238.0
 20
183.1
 30
0.0
 11
236.0
 21
173.0
 31
0.0
  0
SOLID
  5
1FE
330
17
100
AcDbEntity
  8
DUENN
100
AcDbTrace
 10
238.0
 20
183.1
 30
0.0
 11
236.53439876420626
 21
180.33196585685076
 31
0.0
 12
238.3001131755204
 22
179.98231943876877
 32
0.0
 13
238.3001131755204
 23
179.98231943876877
 33
0.0
  0
LWPOLYLINE
  5
1FF
330
17
100
AcDbEntity
  8
DUENN
370
25
100
AcDbPolyline
 90
3
 70
0
 10
233.11324865405186
 20
178.0
 10
236.0
 20
173.0
 10
241.77350269189625
 20
183.0
  0
LINE
  5
200
330
17
100
AcDbEntity
  8
DUENN
370
25
100
AcDbLine
 10
233.11324865405186
 20
178.0
 30
0.0
 11
238.88675134594814
 21
178.0
 31
0.0
  0
LINE
  5
201
330
17
100
AcDbEntity
  8
DUENN
370
25
100
AcDbLine
 10
241.77350269189625
 20
183.0
 30
0.0
 11
245.77350269189625
 21
183.0
 31
0.0
  0
TEXT
  5
202
330
17
100
AcDbEntity
  8
TEXT
100
AcDbText
 10
242.57350269189627
 20
178.9
 30
0.0
 40
3.4999999999999996
  1
y
 41
0.85
 11
242.57350269189627
 21
178.9
 31
0.0
100
AcDbText
  0
LINE
  5
203
330
17
100
AcDbEntity
  8
DUENN
370
25
100
AcDbLine
 10
266.4
 20
124.0
 30
0.0
 11
248.0
 21
116.0
 31
0.0
  0
SOLID
  5
204
330
17
100
AcDbEntity
  8
DUENN
100
AcDbTrace
 10
266.4
 20
124.0
 30
0.0
 11
263.28993633096724
 21
123.62918471638456
 31
0.0
 12
264.0076433315133
 22
121.97845861512873
 32
0.0
 13
264.0076433315133
 23
121.97845861512873
 33
0.0
  0
LWPOLYLINE
  5
205
330
17
100
AcDbEntity
  8
DUENN
370
25
100
AcDbPolyline
 90
3
 70
0
 10
245.11324865405186
 20
121.0
 10
248.0
 20
116.0
 10
253.77350269189625
 20
126.0
  0
LINE
  5
206
330
17
100
AcDbEntity
  8
DUENN
370
25
100
AcDbLine
 10
245.11324865405186
 20
121.0
 30
0.0
 11
250.88675134594814
 21
121.0
 31
0.0
  0
LINE
  5
207
330
17
100
AcDbEntity
  8
DUENN
370
25
100
AcDbLine
 10
253.77350269189625
 20
126.0
 30
0.0
 11
257.7735026918963
 21
126.0
 31
0.0
  0
TEXT
  5
208
330
17
100
AcDbEntity
  8
TEXT
100
AcDbText
 10
254.57350269189627
 20
121.9
 30
0.0
 40
3.4999999999999996
  1
y
 41
0.85
 11
254.57350269189627
 21
121.9
 31
0.0
100
AcDbText
  0
LINE
  5
209
330
17
100
AcDbEntity
  8
DUENN
370
25
100
AcDbLine
 10
111.06417777247592
 20
113.42884956125384
 30
0.0
 11
134.0
 21
108.0
 31
0.0
  0
SOLID
  5
20A
330
17
100
AcDbEntity
  8
DUENN
100
AcDbTrace
 10
111.06417777247592
 20
113.42884956125384
 30
0.0
 11
113.77621359892862
 21
111.86204974122671
 31
0.0
 12
114.19081308815319
 22
113.6136510838657
 32
0.0
 13
114.19081308815319
 23
113.6136510838657
 33
0.0
  0
LWPOLYLINE
  5
20B
330
17
100
AcDbEntity
  8
DUENN
370
25
100
AcDbPolyline
 90
3
 70
0
 10
131.11324865405186
 20
113.0
 10
134.0
 20
108.0
 10
139.77350269189625
 20
118.0
  0
LINE
  5
20C
330
17
100
AcDbEntity
  8
DUENN
370
25
100
AcDbLine
 10
131.11324865405186
 20
113.0
 30
0.0
 11
136.88675134594814
 21
113.0
 31
0.0
  0
LINE
  5
20D
330
17
100
AcDbEntity
  8
DUENN
370
25
100
AcDbLine
 10
139.77350269189625
 20
118.0
 30
0.0
 11
143.77350269189625
 21
118.0
 31
0.0
  0
TEXT
  5
20E
330
17
100
AcDbEntity
  8
TEXT
100
AcDbText
 10
140.57350269189627
 20
113.9
 30
0.0
 40
3.4999999999999996
  1
z
 41
0.85
 11
140.57350269189627
 21
113.9
 31
0.0
100
AcDbText
  0
LWPOLYLINE
  5
20F
330
17
100
AcDbEntity
  8
DUENN
370
25
100
AcDbPolyline
 90
3
 70
0
 10
25.113248654051873
 20
59.0
 10
28.0
 20
54.0
 10
33.773502691896255
 20
64.0
  0
CIRCLE
  5
210
330
17
100
AcDbEntity
  8
DUENN
370
25
100
AcDbCircle
 10
28.0
 20
57.1
 30
0.0
 40
1.5
  0
TEXT
  5
211
330
17
100
AcDbEntity
  8
TEXT
100
AcDbText
 10
37.0
 20
54.5
 30
0.0
 40
6.999999999999999
  1
(
 41
0.85
 11
37.0
 21
54.5
 31
0.0
100
AcDbText
  0
LWPOLYLINE
  5
212
330
17
100
AcDbEntity
  8
DUENN
370
25
100
AcDbPolyline
 90
3
 70
0
 10
40.11324865405187
 20
59.0
 10
43.0
 20
54.0
 10
48.773502691896255
 20
64.0
  0
LINE
  5
213
330
17
100
AcDbEntity
  8
DUENN
370
25
100
AcDbLine
 10
40.11324865405187
 20
59.0
 30
0.0
 11
45.88675134594813
 21
59.0
 31
0.0
  0
TEXT
  5
214
330
17
100
AcDbEntity
  8
TEXT
100
AcDbText
 10
52.0
 20
54.5
 30
0.0
 40
6.999999999999999
  1
)
 41
0.85
 11
52.0
 21
54.5
 31
0.0
100
AcDbText
  0
LWPOLYLINE
  5
215
330
17
100
AcDbEntity
  8
DUENN
370
25
100
AcDbPolyline
 90
3
 70
0
 10
61.11324865405187
 20
59.0
 10
64.0
 20
54.0
 10
69.77350269189625
 20
64.0
  0
LINE
  5
216
330
17
100
AcDbEntity
  8
DUENN
370
25
100
AcDbLine
 10
61.11324865405187
 20
59.0
 30
0.0
 11
66.88675134594813
 21
59.0
 31
0.0
  0
LINE
  5
217
330
17
100
AcDbEntity
  8
DUENN
370
25
100
AcDbLine
 10
69.77350269189625
 20
64.0
 30
0.0
 11
73.77350269189625
 21
64.0
 31
0.0
  0
TEXT
  5
218
330
17
100
AcDbEntity
  8
TEXT
100
AcDbText
 10
70.57350269189625
 20
59.9
 30
0.0
 40
3.4999999999999996
  1
x
 41
0.85
 11
70.57350269189625
 21
59.9
 31
0.0
100
AcDbText
  0
TEXT
  5
219
330
17
100
AcDbEntity
  8
TEXT
100
AcDbText
 10
76.0
 20
56.0
 30
0.0
 40
3.4999999999999996
  1
=
 41
0.85
 11
76.0
 21
56.0
 31
0.0
100
AcDbText
  0
LWPOLYLINE
  5
21A
330
17
100
AcDbEntity
  8
DUENN
370
25
100
AcDbPolyline
 90
3
 70
0
 10
82.11324865405187
 20
59.0
 10
85.0
 20
54.0
 10
90.77350269189625
 20
64.0
  0
LINE
  5
21B
330
17
100
AcDbEntity
  8
DUENN
370
25
100
AcDbLine
 10
82.11324865405187
 20
59.0
 30
0.0
 11
87.88675134594813
 21
59.0
 31
0.0
  0
LINE
  5
21C
330
17
100
AcDbEntity
  8
DUENN
370
25
100
AcDbLine
 10
90.77350269189625
 20
64.0
 30
0.0
 11
106.27350269189625
 21
64.0
 31
0.0
  0
TEXT
  5
21D
330
17
100
AcDbEntity
  8
TEXT
100
AcDbText
 10
91.57350269189625
 20
59.9
 30
0.0
 40
3.4999999999999996
  1
Rz 63
 41
0.85
 11
91.57350269189625
 21
59.9
 31
0.0
100
AcDbText
  0
LWPOLYLINE
  5
21E
330
17
100
AcDbEntity
  8
DUENN
370
25
100
AcDbPolyline
 90
3
 70
0
 10
113.11324865405187
 20
59.0
 10
116.0
 20
54.0
 10
121.77350269189625
 20
64.0
  0
LINE
  5
21F
330
17
100
AcDbEntity
  8
DUENN
370
25
100
AcDbLine
 10
113.11324865405187
 20
59.0
 30
0.0
 11
118.88675134594813
 21
59.0
 31
0.0
  0
LINE
  5
220
330
17
100
AcDbEntity
  8
DUENN
370
25
100
AcDbLine
 10
121.77350269189625
 20
64.0
 30
0.0
 11
125.77350269189625
 21
64.0
 31
0.0
  0
TEXT
  5
221
330
17
100
AcDbEntity
  8
TEXT
100
AcDbText
 10
122.57350269189625
 20
59.9
 30
0.0
 40
3.4999999999999996
  1
y
 41
0.85
 11
122.57350269189625
 21
59.9
 31
0.0
100
AcDbText
  0
TEXT
  5
222
330
17
100
AcDbEntity
  8
TEXT
100
AcDbText
 10
128.0
 20
56.0
 30
0.0
 40
3.4999999999999996
  1
=
 41
0.85
 11
128.0
 21
56.0
 31
0.0
100
AcDbText
  0
LWPOLYLINE
  5
223
330
17
100
AcDbEntity
  8
DUENN
370
25
100
AcDbPolyline
 90
3
 70
0
 10
134.11324865405186
 20
59.0
 10
137.0
 20
54.0
 10
142.77350269189625
 20
64.0
  0
LINE
  5
224
330
17
100
AcDbEntity
  8
DUENN
370
25
100
AcDbLine
 10
134.11324865405186
 20
59.0
 30
0.0
 11
139.88675134594814
 21
59.0
 31
0.0
  0
LINE
  5
225
330
17
100
AcDbEntity
  8
DUENN
370
25
100
AcDbLine
 10
142.77350269189625
 20
64.0
 30
0.0
 11
158.27350269189625
 21
64.0
 31
0.0
  0
TEXT
  5
226
330
17
100
AcDbEntity
  8
TEXT
100
AcDbText
 10
143.57350269189627
 20
59.9
 30
0.0
 40
3.4999999999999996
  1
Rz 16
 41
0.85
 11
143.57350269189627
 21
59.9
 31
0.0
100
AcDbText
  0
LWPOLYLINE
  5
227
330
17
100
AcDbEntity
  8
DUENN
370
25
100
AcDbPolyline
 90
3
 70
0
 10
165.11324865405186
 20
59.0
 10
168.0
 20
54.0
 10
173.77350269189625
 20
64.0
  0
LINE
  5
228
330
17
100
AcDbEntity
  8
DUENN
370
25
100
AcDbLine
 10
165.11324865405186
 20
59.0
 30
0.0
 11
170.88675134594814
 21
59.0
 31
0.0
  0
LINE
  5
229
330
17
100
AcDbEntity
  8
DUENN
370
25
100
AcDbLine
 10
173.77350269189625
 20
64.0
 30
0.0
 11
177.77350269189625
 21
64.0
 31
0.0
  0
TEXT
  5
22A
330
17
100
AcDbEntity
  8
TEXT
100
AcDbText
 10
174.57350269189627
 20
59.9
 30
0.0
 40
3.4999999999999996
  1
z
 41
0.85
 11
174.57350269189627
 21
59.9
 31
0.0
100
AcDbText
  0
TEXT
  5
22B
330
17
100
AcDbEntity
  8
TEXT
100
AcDbText
 10
180.0
 20
56.0
 30
0.0
 40
3.4999999999999996
  1
=
 41
0.85
 11
180.0
 21
56.0
 31
0.0
100
AcDbText
  0
LWPOLYLINE
  5
22C
330
17
100
AcDbEntity
  8
DUENN
370
25
100
AcDbPolyline
 90
3
 70
0
 10
186.11324865405186
 20
59.0
 10
189.0
 20
54.0
 10
194.77350269189625
 20
64.0
  0
LINE
  5
22D
330
17
100
AcDbEntity
  8
DUENN
370
25
100
AcDbLine
 10
186.11324865405186
 20
59.0
 30
0.0
 11
191.88675134594814
 21
59.0
 31
0.0
  0
LINE
  5
22E
330
17
100
AcDbEntity
  8
DUENN
370
25
100
AcDbLine
 10
194.77350269189625
 20
64.0
 30
0.0
 11
208.37350269189625
 21
64.0
 31
0.0
  0
TEXT
  5
22F
330
17
100
AcDbEntity
  8
TEXT
100
AcDbText
 10
195.57350269189627
 20
59.9
 30
0.0
 40
3.4999999999999996
  1
Rz 4
 41
0.85
 11
195.57350269189627
 21
59.9
 31
0.0
100
AcDbText
  0
LINE
  5
230
330
17
100
AcDbEntity
  8
DUENN
370
25
100
AcDbLine
 10
206.0
 20
50.0
 30
0.0
 11
206.0
 21
56.0
 31
0.0
  0
LINE
  5
231
330
17
100
AcDbEntity
  8
DUENN
370
25
100
AcDbLine
 10
202.0
 20
56.0
 30
0.0
 11
206.0
 21
56.0
 31
0.0
  0
LINE
  5
232
330
17
100
AcDbEntity
  8
DUENN
370
25
100
AcDbLine
 10
206.0
 20
56.0
 30
0.0
 11
210.0
 21
60.0
 31
0.0
  0
LINE
  5
233
330
17
100
AcDbEntity
  8
DUENN
370
25
100
AcDbLine
 10
210.0
 20
60.0
 30
0.0
 11
215.0
 21
60.0
 31
0.0
  0
LINE
  5
234
330
17
100
AcDbEntity
  8
DUENN
370
25
100
AcDbLine
 10
210.0
 20
60.0
 30
0.0
 11
210.0
 21
63.0
 31
0.0
  0
TEXT
  5
235
330
17
100
AcDbEntity
  8
TEXT
100
AcDbText
 10
210.6
 20
60.8
 30
0.0
 40
2.5000000000000004
  1
-0,3
 41
0.85
 11
210.6
 21
60.8
 31
0.0
100
AcDbText
  0
LINE
  5
236
330
17
100
AcDbEntity
  8
DUENN
370
25
100
AcDbLine
 10
224.0
 20
56.0
 30
0.0
 11
224.0
 21
51.0
 31
0.0
  0
LINE
  5
237
330
17
100
AcDbEntity
  8
DUENN
370
25
100
AcDbLine
 10
224.0
 20
51.0
 30
0.0
 11
229.0
 21
51.0
 31
0.0
  0
LINE
  5
238
330
17
100
AcDbEntity
  8
DUENN
370
25
100
AcDbLine
 10
224.0
 20
51.0
 30
0.0
 11
229.0
 21
56.0
 31
0.0
  0
LINE
  5
239
330
17
100
AcDbEntity
  8
DUENN
370
25
100
AcDbLine
 10
229.0
 20
56.0
 30
0.0
 11
234.0
 21
56.0
 31
0.0
  0
LINE
  5
23A
330
17
100
AcDbEntity
  8
DUENN
370
25
100
AcDbLine
 10
229.0
 20
56.0
 30
0.0
 11
229.0
 21
59.0
 31
0.0
  0
TEXT
  5
23B
330
17
100
AcDbEntity
  8
TEXT
100
AcDbText
 10
229.6
 20
56.8
 30
0.0
 40
2.5000000000000004
  1
+0,3
 41
0.85
 11
229.6
 21
56.8
 31
0.0
100
AcDbText
  0
TEXT
  5
23C
330
17
100
AcDbEntity
  8
TEXT
100
AcDbText
 10
25.0
 20
16.0
 30
0.0
 40
3.0
  1
Gusstoleranzen DIN 1686 - GTB 18
 41
0.85
 11
25.0
 21
16.0
 31
0.0
100
AcDbText
  0
TEXT
  5
23D
330
17
100
AcDbEntity
  8
TEXT
100
AcDbText
 10
25.0
 20
21.2
 30
0.0
 40
3.0
  1
Allgemeintoleranzen ISO 2768-mK, Passungssystem Einheitsbohrung
 41
0.85
 11
25.0
 21
21.2
 31
0.0
100
AcDbText
  0
TEXT
  5
23E
330
17
100
AcDbEntity
  8
TEXT
100
AcDbText
 10
25.0
 20
26.4
 30
0.0
 40
3.0
  1
Werkstückkanten nach DIN ISO 13715
 41
0.85
 11
25.0
 21
26.4
 31
0.0
100
AcDbText
  0
TEXT
  5
23F
330
17
100
AcDbEntity
  8
TEXT
100
AcDbText
 10
25.0
 20
31.6
 30
0.0
 40
3.0
  1
Oberflächen nach DIN EN ISO 1302
 41
0.85
 11
25.0
 21
31.6
 31
0.0
100
AcDbText
  0
TEXT
  5
240
330
17
100
AcDbEntity
  8
TEXT
100
AcDbText
 10
25.0
 20
36.8
 30
0.0
 40
3.0
  1
Nicht bemaßte Radien R2
 41
0.85
 11
25.0
 21
36.8
 31
0.0
100
AcDbText
  0
TEXT
  5
241
330
17
100
AcDbEntity
  8
TEXT
100
AcDbText
 10
25.0
 20
42.0
 30
0.0
 40
3.0
  1
Nicht bemaßte Freistiche DIN 509 - E0,6×0,3
 41
0.85
 11
25.0
 21
42.0
 31
0.0
100
AcDbText
  0
LWPOLYLINE
  5
242
330
17
100
AcDbEntity
  8
KANTEN
370
50
100
AcDbPolyline
 90
4
 70
1
 10
230.0
 20
10.0
 10
410.0
 20
10.0
 10
410.0
 20
46.0
 10
230.0
 20
46.0
  0
LINE
  5
243
330
17
100
AcDbEntity
  8
DUENN
370
25
100
AcDbLine
 10
230.0
 20
37.0
 30
0.0
 11
410.0
 21
37.0
 31
0.0
  0
LINE
  5
244
330
17
100
AcDbEntity
  8
DUENN
370
25
100
AcDbLine
 10
290.0
 20
28.0
 30
0.0
 11
410.0
 21
28.0
 31
0.0
  0
LINE
  5
245
330
17
100
AcDbEntity
  8
DUENN
370
25
100
AcDbLine
 10
270.0
 20
37.0
 30
0.0
 11
270.0
 21
46.0
 31
0.0
  0
LINE
  5
246
330
17
100
AcDbEntity
  8
DUENN
370
25
100
AcDbLine
 10
320.0
 20
37.0
 30
0.0
 11
320.0
 21
46.0
 31
0.0
  0
LINE
  5
247
330
17
100
AcDbEntity
  8
DUENN
370
25
100
AcDbLine
 10
365.0
 20
37.0
 30
0.0
 11
365.0
 21
46.0
 31
0.0
  0
LINE
  5
248
330
17
100
AcDbEntity
  8
DUENN
370
25
100
AcDbLine
 10
290.0
 20
10.0
 30
0.0
 11
290.0
 21
37.0
 31
0.0
  0
LINE
  5
249
330
17
100
AcDbEntity
  8
DUENN
370
25
100
AcDbLine
 10
360.0
 20
10.0
 30
0.0
 11
360.0
 21
37.0
 31
0.0
  0
LINE
  5
24A
330
17
100
AcDbEntity
  8
DUENN
370
25
100
AcDbLine
 10
360.0
 20
19.0
 30
0.0
 11
410.0
 21
19.0
 31
0.0
  0
LINE
  5
24B
330
17
100
AcDbEntity
  8
DUENN
370
25
100
AcDbLine
 10
368.0
 20
10.0
 30
0.0
 11
368.0
 21
19.0
 31
0.0
  0
LINE
  5
24C
330
17
100
AcDbEntity
  8
DUENN
370
25
100
AcDbLine
 10
393.0
 20
10.0
 30
0.0
 11
393.0
 21
19.0
 31
0.0
  0
LINE
  5
24D
330
17
100
AcDbEntity
  8
DUENN
370
25
100
AcDbLine
 10
401.0
 20
10.0
 30
0.0
 11
401.0
 21
19.0
 31
0.0
  0
LINE
  5
24E
330
17
100
AcDbEntity
  8
DUENN
370
25
100
AcDbLine
 10
230.0
 20
23.0
 30
0.0
 11
290.0
 21
23.0
 31
0.0
  0
TEXT
  5
24F
330
17
100
AcDbEntity
  8
TEXT
100
AcDbText
 10
231.0
 20
44.0
 30
0.0
 40
1.8
  1
Verantwortl. Abt.
 41
0.85
 11
231.0
 21
44.0
 31
0.0
100
AcDbText
  0
TEXT
  5
250
330
17
100
AcDbEntity
  8
TEXT
100
AcDbText
 10
271.0
 20
44.0
 30
0.0
 40
1.8
  1
Technische Referenz
 41
0.85
 11
271.0
 21
44.0
 31
0.0
100
AcDbText
  0
TEXT
  5
251
330
17
100
AcDbEntity
  8
TEXT
100
AcDbText
 10
321.0
 20
44.0
 30
0.0
 40
1.8
  1
Erstellt durch
 41
0.85
 11
321.0
 21
44.0
 31
0.0
100
AcDbText
  0
TEXT
  5
252
330
17
100
AcDbEntity
  8
TEXT
100
AcDbText
 10
366.0
 20
44.0
 30
0.0
 40
1.8
  1
Genehmigt von
 41
0.85
 11
366.0
 21
44.0
 31
0.0
100
AcDbText
  0
TEXT
  5
253
330
17
100
AcDbEntity
  8
TEXT
100
AcDbText
 10
271.0
 20
39.0
 30
0.0
 40
2.2
  1
Projekt Fliehkraftkupplung
 41
0.85
 11
271.0
 21
39.0
 31
0.0
100
AcDbText
  0
TEXT
  5
254
330
17
100
AcDbEntity
  8
TEXT
100
AcDbText
 10
291.0
 20
35.0
 30
0.0
 40
1.8
  1
Dokumentenart
 41
0.85
 11
291.0
 21
35.0
 31
0.0
100
AcDbText
  0
TEXT
  5
255
330
17
100
AcDbEntity
  8
TEXT
100
AcDbText
 10
293.0
 20
30.0
 30
0.0
 40
3.4999999999999996
  1
Einzelteilzeichnung
 41
0.85
 11
293.0
 21
30.0
 31
0.0
100
AcDbText
  0
TEXT
  5
256
330
17
100
AcDbEntity
  8
TEXT
100
AcDbText
 10
361.0
 20
35.0
 30
0.0
 40
1.8
  1
Dokumentenstatus
 41
0.85
 11
361.0
 21
35.0
 31
0.0
100
AcDbText
  0
TEXT
  5
257
330
17
100
AcDbEntity
  8
TEXT
100
AcDbText
 10
363.0
 20
30.0
 30
0.0
 40
2.5000000000000004
  1
in Bearbeitung
 41
0.85
 11
363.0
 21
30.0
 31
0.0
100
AcDbText
  0
TEXT
  5
258
330
17
100
AcDbEntity
  8
TEXT
100
AcDbText
 10
291.0
 20
26.0
 30
0.0
 40
1.8
  1
Titel, Zusätzlicher Titel
 41
0.85
 11
291.0
 21
26.0
 31
0.0
100
AcDbText
  0
TEXT
  5
259
330
17
100
AcDbEntity
  8
TEXT
100
AcDbText
 10
325.0
 20
16.0
 30
0.0
 40
4.0
  1
Antriebsnabe (Pos. 1)
 41
0.85
 72
1
 11
325.0
 21
16.0
 31
0.0
100
AcDbText
  0
TEXT
  5
25A
330
17
100
AcDbEntity
  8
TEXT
100
AcDbText
 10
361.0
 20
26.0
 30
0.0
 40
1.8
  1
Sachnummer
 41
0.85
 11
361.0
 21
26.0
 31
0.0
100
AcDbText
  0
TEXT
  5
25B
330
17
100
AcDbEntity
  8
TEXT
100
AcDbText
 10
363.0
 20
21.0
 30
0.0
 40
3.4999999999999996
  1
14.2.5.2
 41
0.85
 11
363.0
 21
21.0
 31
0.0
100
AcDbText
  0
TEXT
  5
25C
330
17
100
AcDbEntity
  8
TEXT
100
AcDbText
 10
361.0
 20
17.0
 30
0.0
 40
1.8
  1
Änd.
 41
0.85
 11
361.0
 21
17.0
 31
0.0
100
AcDbText
  0
TEXT
  5
25D
330
17
100
AcDbEntity
  8
TEXT
100
AcDbText
 10
369.0
 20
17.0
 30
0.0
 40
1.8
  1
Ausgabedatum
 41
0.85
 11
369.0
 21
17.0
 31
0.0
100
AcDbText
  0
TEXT
  5
25E
330
17
100
AcDbEntity
  8
TEXT
100
AcDbText
 10
394.0
 20
17.0
 30
0.0
 40
1.8
  1
Spr.
 41
0.85
 11
394.0
 21
17.0
 31
0.0
100
AcDbText
  0
TEXT
  5
25F
330
17
100
AcDbEntity
  8
TEXT
100
AcDbText
 10
402.0
 20
17.0
 30
0.0
 40
1.8
  1
Blatt
 41
0.85
 11
402.0
 21
17.0
 31
0.0
100
AcDbText
  0
TEXT
  5
260
330
17
100
AcDbEntity
  8
TEXT
100
AcDbText
 10
362.0
 20
12.0
 30
0.0
 40
2.5000000000000004
  1
A
 41
0.85
 11
362.0
 21
12.0
 31
0.0
100
AcDbText
  0
TEXT
  5
261
330
17
100
AcDbEntity
  8
TEXT
100
AcDbText
 10
370.0
 20
12.0
 30
0.0
 40
2.5000000000000004
  1
2026-10-09
 41
0.85
 11
370.0
 21
12.0
 31
0.0
100
AcDbText
  0
TEXT
  5
262
330
17
100
AcDbEntity
  8
TEXT
100
AcDbText
 10
395.0
 20
12.0
 30
0.0
 40
2.5000000000000004
  1
de
 41
0.85
 11
395.0
 21
12.0
 31
0.0
100
AcDbText
  0
TEXT
  5
263
330
17
100
AcDbEntity
  8
TEXT
100
AcDbText
 10
403.0
 20
12.0
 30
0.0
 40
2.5000000000000004
  1
1/1
 41
0.85
 11
403.0
 21
12.0
 31
0.0
100
AcDbText
  0
TEXT
  5
264
330
17
100
AcDbEntity
  8
TEXT
100
AcDbText
 10
231.0
 20
34.5
 30
0.0
 40
2.5000000000000004
  1
Werkstoff:
 41
0.85
 11
231.0
 21
34.5
 31
0.0
100
AcDbText
  0
TEXT
  5
265
330
17
100
AcDbEntity
  8
TEXT
100
AcDbText
 10
233.0
 20
27.5
 30
0.0
 40
3.4999999999999996
  1
EN-GJS-700-2
 41
0.85
 11
233.0
 21
27.5
 31
0.0
100
AcDbText
  0
TEXT
  5
266
330
17
100
AcDbEntity
  8
TEXT
100
AcDbText
 10
231.0
 20
19.0
 30
0.0
 40
3.4999999999999996
  1
Maßstab 1:1
 41
0.85
 11
231.0
 21
19.0
 31
0.0
100
AcDbText
  0
LWPOLYLINE
  5
267
330
17
100
AcDbEntity
  8
DUENN
370
25
100
AcDbPolyline
 90
4
 70
1
 10
271.0
 20
14.0
 10
271.0
 20
17.0
 10
276.5
 20
18.5
 10
276.5
 20
12.5
  0
CIRCLE
  5
268
330
17
100
AcDbEntity
  8
DUENN
370
25
100
AcDbCircle
 10
282.0
 20
15.5
 30
0.0
 40
3.0
  0
CIRCLE
  5
269
330
17
100
AcDbEntity
  8
DUENN
370
25
100
AcDbCircle
 10
282.0
 20
15.5
 30
0.0
 40
1.5
  0
ENDSEC
  0
SECTION
  2
OBJECTS
  0
DICTIONARY
  5
A
330
0
100
AcDbDictionary
281
1
  3
ACAD_COLOR
350
B
  3
ACAD_GROUP
350
C
  3
ACAD_LAYOUT
350
D
  3
ACAD_MATERIAL
350
E
  3
ACAD_MLEADERSTYLE
350
F
  3
ACAD_MLINESTYLE
350
10
  3
ACAD_PLOTSETTINGS
350
11
  3
ACAD_PLOTSTYLENAME
350
12
  3
ACAD_SCALELIST
350
14
  3
ACAD_TABLESTYLE
350
15
  3
ACAD_VISUALSTYLE
350
16
  3
EZDXF_META
350
2D
  0
DICTIONARY
  5
B
330
A
100
AcDbDictionary
281
1
  0
DICTIONARY
  5
C
330
A
100
AcDbDictionary
281
1
  0
DICTIONARY
  5
D
330
A
100
AcDbDictionary
281
1
  3
Model
350
1A
  3
Layout1
350
1E
  0
DICTIONARY
  5
E
330
A
100
AcDbDictionary
281
1
  3
ByBlock
350
1F
  3
ByLayer
350
20
  3
Global
350
21
  0
DICTIONARY
  5
F
330
A
100
AcDbDictionary
281
1
  3
Standard
350
2C
  0
DICTIONARY
  5
10
330
A
100
AcDbDictionary
281
1
  3
Standard
350
22
  0
DICTIONARY
  5
11
330
A
100
AcDbDictionary
281
1
  0
ACDBDICTIONARYWDFLT
  5
12
330
A
100
AcDbDictionary
281
1
  3
Normal
350
13
100
AcDbDictionaryWithDefault
340
13
  0
ACDBPLACEHOLDER
  5
13
330
12
  0
DICTIONARY
  5
14
330
A
100
AcDbDictionary
281
1
  0
DICTIONARY
  5
15
330
A
100
AcDbDictionary
281
1
  0
DICTIONARY
  5
16
330
A
100
AcDbDictionary
281
1
  3
2dWireframe
350
5A
  3
Basic
350
5B
  3
Brighten
350
5C
  3
ColorChange
350
5D
  3
Conceptual
350
5E
  3
Dim
350
5F
  3
EdgeColorOff
350
60
  3
Facepattern
350
61
  3
Flat
350
62
  3
FlatWithEdges
350
63
  3
Gouraud
350
64
  3
GouraudWithEdges
350
65
  3
Hidden
350
66
  3
JitterOff
350
67
  3
Linepattern
350
68
  3
Modeling
350
69
  3
OverhangOff
350
6A
  3
Realistic
350
6B
  3
Shaded
350
6C
  3
Shaded with edges
350
6D
  3
Shades of Gray
350
6E
  3
Sketchy
350
6F
  3
Thicken
350
70
  3
Wireframe
350
71
  3
X-Ray
350
72
  0
LAYOUT
  5
1A
330
D
100
AcDbPlotSettings
  1

  4
A3
  6

 40
7.5
 41
20.0
 42
7.5
 43
20.0
 44
420.0
 45
297.0
 46
0.0
 47
0.0
 48
0.0
 49
0.0
140
0.0
141
0.0
142
1.0
143
1.0
 70
1024
 72
1
 73
0
 74
5
  7

 75
16
 76
0
 77
2
 78
300
147
1.0
148
0.0
149
0.0
100
AcDbLayout
  1
Model
 70
1
 71
0
 10
0.0
 20
0.0
 11
420.0
 21
297.0
 12
0.0
 22
0.0
 32
0.0
 14
1e+20
 24
1e+20
 34
1e+20
 15
-1e+20
 25
-1e+20
 35
-1e+20
146
0.0
 13
0.0
 23
0.0
 33
0.0
 16
1.0
 26
0.0
 36
0.0
 17
0.0
 27
1.0
 37
0.0
 76
1
330
17
  0
LAYOUT
  5
1E
330
D
100
AcDbPlotSettings
  1

  4
A3
  6

 40
7.5
 41
20.0
 42
7.5
 43
20.0
 44
420.0
 45
297.0
 46
0.0
 47
0.0
 48
0.0
 49
0.0
140
0.0
141
0.0
142
1.0
143
1.0
 70
0
 72
1
 73
0
 74
5
  7

 75
16
 76
0
 77
2
 78
300
147
1.0
148
0.0
149
0.0
100
AcDbLayout
  1
Layout1
 70
1
 71
1
 10
0.0
 20
0.0
 11
420.0
 21
297.0
 12
0.0
 22
0.0
 32
0.0
 14
1e+20
 24
1e+20
 34
1e+20
 15
-1e+20
 25
-1e+20
 35
-1e+20
146
0.0
 13
0.0
 23
0.0
 33
0.0
 16
1.0
 26
0.0
 36
0.0
 17
0.0
 27
1.0
 37
0.0
 76
1
330
1B
  0
MATERIAL
  5
1F
102
{ACAD_REACTORS
330
E
102
}
330
E
100
AcDbMaterial
  1
ByBlock
  2

 70
0
 40
1.0
 71
1
 41
1.0
 91
-1023410177
 42
1.0
 72
1
  3

 73
1
 74
1
 75
1
 44
0.5
 73
0
 45
1.0
 46
1.0
 77
1
  4

 78
1
 79
1
170
1
 48
1.0
171
1
  6

172
1
173
1
174
1
140
1.0
141
1.0
175
1
  7

176
1
177
1
178
1
143
1.0
179
1
  8

270
1
271
1
272
1
145
1.0
146
1.0
273
1
  9

274
1
275
1
276
1
 42
1.0
 72
1
  3

 73
1
 74
1
 75
1
 94
63
  0
MATERIAL
  5
20
102
{ACAD_REACTORS
330
E
102
}
330
E
100
AcDbMaterial
  1
ByLayer
  2

 70
0
 40
1.0
 71
1
 41
1.0
 91
-1023410177
 42
1.0
 72
1
  3

 73
1
 74
1
 75
1
 44
0.5
 73
0
 45
1.0
 46
1.0
 77
1
  4

 78
1
 79
1
170
1
 48
1.0
171
1
  6

172
1
173
1
174
1
140
1.0
141
1.0
175
1
  7

176
1
177
1
178
1
143
1.0
179
1
  8

270
1
271
1
272
1
145
1.0
146
1.0
273
1
  9

274
1
275
1
276
1
 42
1.0
 72
1
  3

 73
1
 74
1
 75
1
 94
63
  0
MATERIAL
  5
21
102
{ACAD_REACTORS
330
E
102
}
330
E
100
AcDbMaterial
  1
Global
  2

 70
0
 40
1.0
 71
1
 41
1.0
 91
-1023410177
 42
1.0
 72
1
  3

 73
1
 74
1
 75
1
 44
0.5
 73
0
 45
1.0
 46
1.0
 77
1
  4

 78
1
 79
1
170
1
 48
1.0
171
1
  6

172
1
173
1
174
1
140
1.0
141
1.0
175
1
  7

176
1
177
1
178
1
143
1.0
179
1
  8

270
1
271
1
272
1
145
1.0
146
1.0
273
1
  9

274
1
275
1
276
1
 42
1.0
 72
1
  3

 73
1
 74
1
 75
1
 94
63
  0
MLINESTYLE
  5
22
102
{ACAD_REACTORS
330
10
102
}
330
10
100
AcDbMlineStyle
  2
Standard
 70
0
  3

 62
256
 51
90.0
 52
90.0
 71
2
 49
0.5
 62
256
  6
BYLAYER
 49
-0.5
 62
256
  6
BYLAYER
  0
MLEADERSTYLE
  5
2C
102
{ACAD_REACTORS
330
F
102
}
330
F
100
AcDbMLeaderStyle
179
2
170
2
171
1
172
0
 90
2
 40
0.0
 41
0.0
173
1
 91
-1056964608
 92
-2
290
1
 42
2.0
291
1
 43
8.0
  3
Standard
 44
4.0
300

342
29
174
1
175
1
176
0
178
1
 93
-1056964608
 45
4.0
292
0
297
0
 46
4.0
 94
-1056964608
 47
1.0
 49
1.0
140
1.0
294
1
141
0.0
177
0
142
1.0
295
0
296
0
143
3.75
271
0
272
9
273
9
  0
DICTIONARY
  5
2D
330
A
100
AcDbDictionary
280
1
281
1
  3
CREATED_BY_EZDXF
350
2E
  3
WRITTEN_BY_EZDXF
350
26C
  0
DICTIONARYVAR
  5
2E
330
2D
100
DictionaryVariables
280
0
  1
1.4.4 @ 2026-10-09T07:45:48.358410+00:00
  0
VISUALSTYLE
  5
5A
102
{ACAD_REACTORS
330
16
102
}
330
16
100
AcDbVisualStyle
  2
2dWireframe
 70
4
 90
0
 40
0.6
 62
7
290
0
291
0
  0
VISUALSTYLE
  5
5B
102
{ACAD_REACTORS
330
16
102
}
330
16
100
AcDbVisualStyle
  2
Basic
 70
7
 90
1
 40
0.6
 62
7
290
0
291
1
  0
VISUALSTYLE
  5
5C
102
{ACAD_REACTORS
330
16
102
}
330
16
100
AcDbVisualStyle
  2
Brighten
 70
12
 90
2
 40
0.6
 62
7
290
0
291
1
  0
VISUALSTYLE
  5
5D
102
{ACAD_REACTORS
330
16
102
}
330
16
100
AcDbVisualStyle
  2
ColorChange
 70
16
 90
2
 40
0.6
 62
8
290
0
291
1
  0
VISUALSTYLE
  5
5E
102
{ACAD_REACTORS
330
16
102
}
330
16
100
AcDbVisualStyle
  2
Conceptual
 70
9
 90
3
 40
0.6
 62
7
290
0
291
0
  0
VISUALSTYLE
  5
5F
102
{ACAD_REACTORS
330
16
102
}
330
16
100
AcDbVisualStyle
  2
Dim
 70
11
 90
2
 40
0.6
 62
7
290
0
291
1
  0
VISUALSTYLE
  5
60
102
{ACAD_REACTORS
330
16
102
}
330
16
100
AcDbVisualStyle
  2
EdgeColorOff
 70
22
 90
2
 40
0.6
 62
7
290
0
291
1
  0
VISUALSTYLE
  5
61
102
{ACAD_REACTORS
330
16
102
}
330
16
100
AcDbVisualStyle
  2
Facepattern
 70
15
 90
2
 40
0.6
 62
7
290
0
291
1
  0
VISUALSTYLE
  5
62
102
{ACAD_REACTORS
330
16
102
}
330
16
100
AcDbVisualStyle
  2
Flat
 70
0
 90
2
 40
0.6
 62
7
290
0
291
1
  0
VISUALSTYLE
  5
63
102
{ACAD_REACTORS
330
16
102
}
330
16
100
AcDbVisualStyle
  2
FlatWithEdges
 70
1
 90
2
 40
0.6
 62
7
290
0
291
1
  0
VISUALSTYLE
  5
64
102
{ACAD_REACTORS
330
16
102
}
330
16
100
AcDbVisualStyle
  2
Gouraud
 70
2
 90
2
 40
0.6
 62
7
290
0
291
1
  0
VISUALSTYLE
  5
65
102
{ACAD_REACTORS
330
16
102
}
330
16
100
AcDbVisualStyle
  2
GouraudWithEdges
 70
3
 90
2
 40
0.6
 62
7
290
0
291
1
  0
VISUALSTYLE
  5
66
102
{ACAD_REACTORS
330
16
102
}
330
16
100
AcDbVisualStyle
  2
Hidden
 70
6
 90
1
 40
0.6
 62
7
290
0
291
0
  0
VISUALSTYLE
  5
67
102
{ACAD_REACTORS
330
16
102
}
330
16
100
AcDbVisualStyle
  2
JitterOff
 70
20
 90
2
 40
0.6
 62
7
290
0
291
1
  0
VISUALSTYLE
  5
68
102
{ACAD_REACTORS
330
16
102
}
330
16
100
AcDbVisualStyle
  2
Linepattern
 70
14
 90
2
 40
0.6
 62
7
290
0
291
1
  0
VISUALSTYLE
  5
69
102
{ACAD_REACTORS
330
16
102
}
330
16
100
AcDbVisualStyle
  2
Modeling
 70
10
 90
2
 40
0.6
 62
7
290
0
291
0
  0
VISUALSTYLE
  5
6A
102
{ACAD_REACTORS
330
16
102
}
330
16
100
AcDbVisualStyle
  2
OverhangOff
 70
21
 90
2
 40
0.6
 62
7
290
0
291
1
  0
VISUALSTYLE
  5
6B
102
{ACAD_REACTORS
330
16
102
}
330
16
100
AcDbVisualStyle
  2
Realistic
 70
8
 90
2
 40
0.6
 62
7
290
0
291
0
  0
VISUALSTYLE
  5
6C
102
{ACAD_REACTORS
330
16
102
}
330
16
100
AcDbVisualStyle
  2
Shaded
 70
27
 90
2
 40
0.6
 62
7
290
0
291
0
  0
VISUALSTYLE
  5
6D
102
{ACAD_REACTORS
330
16
102
}
330
16
100
AcDbVisualStyle
  2
Shaded with edges
 70
26
 90
2
 40
0.6
 62
7
290
0
291
0
  0
VISUALSTYLE
  5
6E
102
{ACAD_REACTORS
330
16
102
}
330
16
100
AcDbVisualStyle
  2
Shades of Gray
 70
23
 90
2
 40
0.6
 62
7
290
0
291
0
  0
VISUALSTYLE
  5
6F
102
{ACAD_REACTORS
330
16
102
}
330
16
100
AcDbVisualStyle
  2
Sketchy
 70
24
 90
1
 40
0.6
 62
7
290
0
291
0
  0
VISUALSTYLE
  5
70
102
{ACAD_REACTORS
330
16
102
}
330
16
100
AcDbVisualStyle
  2
Thicken
 70
13
 90
2
 40
0.6
 62
7
290
0
291
1
  0
VISUALSTYLE
  5
71
102
{ACAD_REACTORS
330
16
102
}
330
16
100
AcDbVisualStyle
  2
Wireframe
 70
5
 90
0
 40
0.6
 62
7
290
0
291
0
  0
VISUALSTYLE
  5
72
102
{ACAD_REACTORS
330
16
102
}
330
16
100
AcDbVisualStyle
  2
X-Ray
 70
25
 90
2
 40
0.5
 62
7
290
0
291
0
  0
DICTIONARYVAR
  5
26C
330
2D
100
DictionaryVariables
280
0
  1
1.4.4 @ 2026-10-09T07:45:48.388764+00:00
  0
ENDSEC
  0
EOF
