  0
SECTION
  2
HEADER
  9
$ACADVER
  1
AC1024
  9
$ACADMAINTVER
 70
6
  9
$DWGCODEPAGE
  3
ANSI_1252
  9
$LASTSAVEDBY
  1
ezdxf
  9
$INSBASE
 10
0.0
 20
0.0
 30
0.0
  9
$EXTMIN
 10
1e+20
 20
1e+20
 30
1e+20
  9
$EXTMAX
 10
-1e+20
 20
-1e+20
 30
-1e+20
  9
$LIMMIN
 10
0.0
 20
0.0
  9
$LIMMAX
 10
420.0
 20
297.0
  9
$ORTHOMODE
 70
0
  9
$REGENMODE
 70
1
  9
$FILLMODE
 70
1
  9
$QTEXTMODE
 70
0
  9
$MIRRTEXT
 70
1
  9
$LTSCALE
 40
1.0
  9
$ATTMODE
 70
1
  9
$TEXTSIZE
 40
2.5
  9
$TRACEWID
 40
1.0
  9
$TEXTSTYLE
  7
OpenSans
  9
$CLAYER
  8
0
  9
$CELTYPE
  6
ByLayer
  9
$CECOLOR
 62
256
  9
$CELTSCALE
 40
1.0
  9
$DISPSILH
 70
0
  9
$DIMSCALE
 40
1.0
  9
$DIMASZ
 40
0.175
  9
$DIMEXO
 40
0.125
  9
$DIMDLI
 40
3.75
  9
$DIMRND
 40
0.0
  9
$DIMDLE
 40
0.0
  9
$DIMEXE
 40
0.375
  9
$DIMTP
 40
0.0
  9
$DIMTM
 40
0.0
  9
$DIMTXT
 40
0.25
  9
$DIMCEN
 40
2.5
  9
$DIMTSZ
 40
0.0
  9
$DIMTOL
 70
0
  9
$DIMLIM
 70
0
  9
$DIMTIH
 70
0
  9
$DIMTOH
 70
0
  9
$DIMSE1
 70
0
  9
$DIMSE2
 70
0
  9
$DIMTAD
 70
1
  9
$DIMZIN
 70
12
  9
$DIMBLK
  1
ARCHTICK
  9
$DIMASO
 70
1
  9
$DIMSHO
 70
1
  9
$DIMPOST
  1

  9
$DIMAPOST
  1

  9
$DIMALT
 70
0
  9
$DIMALTD
 70
3
  9
$DIMALTF
 40
0.03937007874
  9
$DIMLFAC
 40
100.0
  9
$DIMTOFL
 70
1
  9
$DIMTVP
 40
0.0
  9
$DIMTIX
 70
0
  9
$DIMSOXD
 70
0
  9
$DIMSAH
 70
0
  9
$DIMBLK1
  1

  9
$DIMBLK2
  1

  9
$DIMSTYLE
  2
EZDXF
  9
$DIMCLRD
 70
0
  9
$DIMCLRE
 70
0
  9
$DIMCLRT
 70
0
  9
$DIMTFAC
 40
0.5
  9
$DIMGAP
 40
0.1
  9
$DIMJUST
 70
0
  9
$DIMSD1
 70
0
  9
$DIMSD2
 70
0
  9
$DIMTOLJ
 70
0
  9
$DIMTZIN
 70
8
  9
$DIMALTZ
 70
0
  9
$DIMALTTZ
 70
0
  9
$DIMUPT
 70
1
  9
$DIMDEC
 70
2
  9
$DIMTDEC
 70
2
  9
$DIMALTU
 70
2
  9
$DIMALTTD
 70
3
  9
$DIMTXSTY
  7
OpenSansCondensed-Light
  9
$DIMAUNIT
 70
0
  9
$DIMADEC
 70
2
  9
$DIMALTRND
 40
0.0
  9
$DIMAZIN
 70
3
  9
$DIMDSEP
 70
46
  9
$DIMATFIT
 70
3
  9
$DIMFRAC
 70
0
  9
$DIMLDRBLK
  1

  9
$DIMLUNIT
 70
2
  9
$DIMLWD
 70
-2
  9
$DIMLWE
 70
-2
  9
$DIMTMOVE
 70
2
  9
$DIMFXL
 40
1.0
  9
$DIMFXLON
 70
0
  9
$DIMJOGANG
 40
0.785398163397
  9
$DIMTFILL
 70
0
  9
$DIMTFILLCLR
 70
0
  9
$DIMARCSYM
 70
0
  9
$DIMLTYPE
  6

  9
$DIMLTEX1
  6

  9
$DIMLTEX2
  6

  9
$DIMTXTDIRECTION
 70
0
  9
$LUNITS
 70
2
  9
$LUPREC
 70
4
  9
$SKETCHINC
 40
1.0
  9
$FILLETRAD
 40
10.0
  9
$AUNITS
 70
0
  9
$AUPREC
 70
2
  9
$MENU
  1
.
  9
$ELEVATION
 40
0.0
  9
$PELEVATION
 40
0.0
  9
$THICKNESS
 40
0.0
  9
$LIMCHECK
 70
0
  9
$CHAMFERA
 40
0.0
  9
$CHAMFERB
 40
0.0
  9
$CHAMFERC
 40
0.0
  9
$CHAMFERD
 40
0.0
  9
$SKPOLY
 70
0
  9
$TDCREATE
 40
2461323.339212963
  9
$TDUCREATE
 40
2458532.153996898
  9
$TDUPDATE
 40
2461323.339224537
  9
$TDUUPDATE
 40
2458532.1544311
  9
$TDINDWG
 40
0.0
  9
$TDUSRTIMER
 40
0.0
  9
$USRTIMER
 70
1
  9
$ANGBASE
 50
0.0
  9
$ANGDIR
 70
0
  9
$PDMODE
 70
0
  9
$PDSIZE
 40
0.0
  9
$PLINEWID
 40
0.0
  9
$SPLFRAME
 70
0
  9
$SPLINETYPE
 70
6
  9
$SPLINESEGS
 70
8
  9
$HANDSEED
  5
261
  9
$SURFTAB1
 70
6
  9
$SURFTAB2
 70
6
  9
$SURFTYPE
 70
6
  9
$SURFU
 70
6
  9
$SURFV
 70
6
  9
$UCSBASE
  2

  9
$UCSNAME
  2

  9
$UCSORG
 10
0.0
 20
0.0
 30
0.0
  9
$UCSXDIR
 10
1.0
 20
0.0
 30
0.0
  9
$UCSYDIR
 10
0.0
 20
1.0
 30
0.0
  9
$UCSORTHOREF
  2

  9
$UCSORTHOVIEW
 70
0
  9
$UCSORGTOP
 10
0.0
 20
0.0
 30
0.0
  9
$UCSORGBOTTOM
 10
0.0
 20
0.0
 30
0.0
  9
$UCSORGLEFT
 10
0.0
 20
0.0
 30
0.0
  9
$UCSORGRIGHT
 10
0.0
 20
0.0
 30
0.0
  9
$UCSORGFRONT
 10
0.0
 20
0.0
 30
0.0
  9
$UCSORGBACK
 10
0.0
 20
0.0
 30
0.0
  9
$PUCSBASE
  2

  9
$PUCSNAME
  2

  9
$PUCSORG
 10
0.0
 20
0.0
 30
0.0
  9
$PUCSXDIR
 10
1.0
 20
0.0
 30
0.0
  9
$PUCSYDIR
 10
0.0
 20
1.0
 30
0.0
  9
$PUCSORTHOREF
  2

  9
$PUCSORTHOVIEW
 70
0
  9
$PUCSORGTOP
 10
0.0
 20
0.0
 30
0.0
  9
$PUCSORGBOTTOM
 10
0.0
 20
0.0
 30
0.0
  9
$PUCSORGLEFT
 10
0.0
 20
0.0
 30
0.0
  9
$PUCSORGRIGHT
 10
0.0
 20
0.0
 30
0.0
  9
$PUCSORGFRONT
 10
0.0
 20
0.0
 30
0.0
  9
$PUCSORGBACK
 10
0.0
 20
0.0
 30
0.0
  9
$USERI1
 70
0
  9
$USERI2
 70
0
  9
$USERI3
 70
0
  9
$USERI4
 70
0
  9
$USERI5
 70
0
  9
$USERR1
 40
0.0
  9
$USERR2
 40
0.0
  9
$USERR3
 40
0.0
  9
$USERR4
 40
0.0
  9
$USERR5
 40
0.0
  9
$WORLDVIEW
 70
1
  9
$SHADEDGE
 70
3
  9
$SHADEDIF
 70
70
  9
$TILEMODE
 70
1
  9
$MAXACTVP
 70
64
  9
$PINSBASE
 10
0.0
 20
0.0
 30
0.0
  9
$PLIMCHECK
 70
0
  9
$PEXTMIN
 10
1e+20
 20
1e+20
 30
1e+20
  9
$PEXTMAX
 10
-1e+20
 20
-1e+20
 30
-1e+20
  9
$PLIMMIN
 10
0.0
 20
0.0
  9
$PLIMMAX
 10
420.0
 20
297.0
  9
$UNITMODE
 70
0
  9
$VISRETAIN
 70
1
  9
$PLINEGEN
 70
0
  9
$PSLTSCALE
 70
1
  9
$TREEDEPTH
 70
3020
  9
$CMLSTYLE
  2
Standard
  9
$CMLJUST
 70
0
  9
$CMLSCALE
 40
20.0
  9
$PROXYGRAPHICS
 70
1
  9
$MEASUREMENT
 70
1
  9
$CELWEIGHT
370
-1
  9
$ENDCAPS
280
0
  9
$JOINSTYLE
280
0
  9
$LWDISPLAY
290
0
  9
$INSUNITS
 70
4
  9
$HYPERLINKBASE
  1

  9
$STYLESHEET
  1

  9
$XEDIT
290
1
  9
$CEPSNTYPE
380
0
  9
$PSTYLEMODE
290
1
  9
$FINGERPRINTGUID
  2
{15DD668E-FA1D-499D-8BF3-E757EBE62C0A}
  9
$VERSIONGUID
  2
{5E22F196-5C54-4DF5-BD3E-187C5F18CEE1}
  9
$EXTNAMES
290
1
  9
$PSVPSCALE
 40
0.0
  9
$OLESTARTUP
290
0
  9
$SORTENTS
280
127
  9
$INDEXCTL
280
0
  9
$HIDETEXT
280
1
  9
$XCLIPFRAME
280
1
  9
$HALOGAP
280
0
  9
$OBSCOLOR
 70
257
  9
$OBSLTYPE
280
0
  9
$INTERSECTIONDISPLAY
280
0
  9
$INTERSECTIONCOLOR
 70
257
  9
$DIMASSOC
280
2
  9
$PROJECTNAME
  1

  9
$CAMERADISPLAY
290
0
  9
$LENSLENGTH
 40
50.0
  9
$CAMERAHEIGHT
 40
0.0
  9
$STEPSPERSEC
 40
24.0
  9
$STEPSIZE
 40
100.0
  9
$3DDWFPREC
 40
2.0
  9
$PSOLWIDTH
 40
0.005
  9
$PSOLHEIGHT
 40
0.08
  9
$LOFTANG1
 40
1.570796326795
  9
$LOFTANG2
 40
1.570796326795
  9
$LOFTMAG1
 40
0.0
  9
$LOFTMAG2
 40
0.0
  9
$LOFTPARAM
 70
7
  9
$LOFTNORMALS
280
1
  9
$LATITUDE
 40
37.795
  9
$LONGITUDE
 40
-122.394
  9
$NORTHDIRECTION
 40
0.0
  9
$TIMEZONE
 70
-8000
  9
$LIGHTGLYPHDISPLAY
280
1
  9
$TILEMODELIGHTSYNCH
280
1
  9
$CMATERIAL
347
20
  9
$SOLIDHIST
280
0
  9
$SHOWHIST
280
1
  9
$DWFFRAME
280
2
  9
$DGNFRAME
280
2
  9
$REALWORLDSCALE
290
1
  9
$INTERFERECOLOR
 62
256
  9
$CSHADOW
280
0
  9
$SHADOWPLANELOCATION
 40
0.0
  0
ENDSEC
  0
SECTION
  2
CLASSES
  0
CLASS
  1
ACDBDICTIONARYWDFLT
  2
AcDbDictionaryWithDefault
  3
ObjectDBX Classes
 90
0
 91
0
280
0
281
0
  0
CLASS
  1
SUN
  2
AcDbSun
  3
SCENEOE
 90
1153
 91
0
280
0
281
0
  0
CLASS
  1
VISUALSTYLE
  2
AcDbVisualStyle
  3
ObjectDBX Classes
 90
4095
 91
0
280
0
281
0
  0
CLASS
  1
MATERIAL
  2
AcDbMaterial
  3
ObjectDBX Classes
 90
1153
 91
0
280
0
281
0
  0
CLASS
  1
SCALE
  2
AcDbScale
  3
ObjectDBX Classes
 90
1153
 91
0
280
0
281
0
  0
CLASS
  1
TABLESTYLE
  2
AcDbTableStyle
  3
ObjectDBX Classes
 90
4095
 91
0
280
0
281
0
  0
CLASS
  1
MLEADERSTYLE
  2
AcDbMLeaderStyle
  3
ACDB_MLEADERSTYLE_CLASS
 90
4095
 91
0
280
0
281
0
  0
CLASS
  1
DICTIONARYVAR
  2
AcDbDictionaryVar
  3
ObjectDBX Classes
 90
0
 91
0
280
0
281
0
  0
CLASS
  1
CELLSTYLEMAP
  2
AcDbCellStyleMap
  3
ObjectDBX Classes
 90
1152
 91
0
280
0
281
0
  0
CLASS
  1
MENTALRAYRENDERSETTINGS
  2
AcDbMentalRayRenderSettings
  3
SCENEOE
 90
1024
 91
0
280
0
281
0
  0
CLASS
  1
ACDBDETAILVIEWSTYLE
  2
AcDbDetailViewStyle
  3
ObjectDBX Classes
 90
1025
 91
0
280
0
281
0
  0
CLASS
  1
ACDBSECTIONVIEWSTYLE
  2
AcDbSectionViewStyle
  3
ObjectDBX Classes
 90
1025
 91
0
280
0
281
0
  0
CLASS
  1
RASTERVARIABLES
  2
AcDbRasterVariables
  3
ISM
 90
0
 91
0
280
0
281
0
  0
CLASS
  1
ACDBPLACEHOLDER
  2
AcDbPlaceHolder
  3
ObjectDBX Classes
 90
0
 91
0
280
0
281
0
  0
CLASS
  1
LAYOUT
  2
AcDbLayout
  3
ObjectDBX Classes
 90
0
 91
0
280
0
281
0
  0
ENDSEC
  0
SECTION
  2
TABLES
  0
TABLE
  2
VPORT
  5
8
330
0
100
AcDbSymbolTable
 70
1
  0
VPORT
  5
23
330
8
100
AcDbSymbolTableRecord
100
AcDbViewportTableRecord
  2
*Active
 70
0
 10
0.0
 20
0.0
 11
1.0
 21
1.0
 12
0.0
 22
0.0
 13
0.0
 23
0.0
 14
0.5
 24
0.5
 15
0.5
 25
0.5
 16
0.0
 26
0.0
 36
1.0
 17
0.0
 27
0.0
 37
0.0
 40
1000.0
 41
1.34
 42
50.0
 43
0.0
 44
0.0
 50
0.0
 51
0.0
 71
0
 72
1000
 73
1
 74
3
 75
0
 76
0
 77
0
 78
0
281
0
 65
0
146
0.0
  0
ENDTAB
  0
TABLE
  2
LTYPE
  5
2
330
0
100
AcDbSymbolTable
 70
21
  0
LTYPE
  5
24
330
2
100
AcDbSymbolTableRecord
100
AcDbLinetypeTableRecord
  2
ByBlock
 70
0
  3

 72
65
 73
0
 40
0.0
  0
LTYPE
  5
25
330
2
100
AcDbSymbolTableRecord
100
AcDbLinetypeTableRecord
  2
ByLayer
 70
0
  3

 72
65
 73
0
 40
0.0
  0
LTYPE
  5
26
330
2
100
AcDbSymbolTableRecord
100
AcDbLinetypeTableRecord
  2
Continuous
 70
0
  3

 72
65
 73
0
 40
0.0
  0
LTYPE
  5
2F
330
2
100
AcDbSymbolTableRecord
100
AcDbLinetypeTableRecord
  2
CENTER
 70
0
  3
Center ____ _ ____ _ ____ _ ____ _ ____ _ ____
 72
65
 73
4
 40
5.08
 49
3.175
 74
0
 49
-0.635
 74
0
 49
0.635
 74
0
 49
-0.635
 74
0
  0
LTYPE
  5
30
330
2
100
AcDbSymbolTableRecord
100
AcDbLinetypeTableRecord
  2
CENTERX2
 70
0
  3
Center (2x) ________  __  ________  __  ________
 72
65
 73
4
 40
8.89
 49
6.35
 74
0
 49
-0.635
 74
0
 49
1.27
 74
0
 49
-0.635
 74
0
  0
LTYPE
  5
31
330
2
100
AcDbSymbolTableRecord
100
AcDbLinetypeTableRecord
  2
CENTER2
 70
0
  3
Center (.5x) ____ _ ____ _ ____ _ ____ _ ____
 72
65
 73
4
 40
2.54
 49
1.587
 74
0
 49
-0.318
 74
0
 49
0.318
 74
0
 49
-0.318
 74
0
  0
LTYPE
  5
32
330
2
100
AcDbSymbolTableRecord
100
AcDbLinetypeTableRecord
  2
DASHED
 70
0
  3
Dashed __ __ __ __ __ __ __ __ __ __ __ __ __ _
 72
65
 73
2
 40
1.524
 49
1.27
 74
0
 49
-0.254
 74
0
  0
LTYPE
  5
33
330
2
100
AcDbSymbolTableRecord
100
AcDbLinetypeTableRecord
  2
DASHEDX2
 70
0
  3
Dashed (2x) ____  ____  ____  ____  ____  ____
 72
65
 73
2
 40
3.048
 49
2.54
 74
0
 49
-0.508
 74
0
  0
LTYPE
  5
34
330
2
100
AcDbSymbolTableRecord
100
AcDbLinetypeTableRecord
  2
DASHED2
 70
0
  3
Dashed (.5x) _ _ _ _ _ _ _ _ _ _ _ _ _ _
 72
65
 73
2
 40
0.762
 49
0.635
 74
0
 49
-0.127
 74
0
  0
LTYPE
  5
35
330
2
100
AcDbSymbolTableRecord
100
AcDbLinetypeTableRecord
  2
PHANTOM
 70
0
  3
Phantom ______  __  __  ______  __  __  ______
 72
65
 73
6
 40
6.35
 49
3.175
 74
0
 49
-0.635
 74
0
 49
0.635
 74
0
 49
-0.635
 74
0
 49
0.635
 74
0
 49
-0.635
 74
0
  0
LTYPE
  5
36
330
2
100
AcDbSymbolTableRecord
100
AcDbLinetypeTableRecord
  2
PHANTOMX2
 70
0
  3
Phantom (2x)____________    ____    ____    ____________
 72
65
 73
6
 40
10.795
 49
6.35
 74
0
 49
-0.635
 74
0
 49
1.27
 74
0
 49
-0.635
 74
0
 49
1.27
 74
0
 49
-0.635
 74
0
  0
LTYPE
  5
37
330
2
100
AcDbSymbolTableRecord
100
AcDbLinetypeTableRecord
  2
PHANTOM2
 70
0
  3
Phantom (.5x) ___ _ _ ___ _ _ ___ _ _ ___ _ _ ___
 72
65
 73
6
 40
3.175
 49
1.587
 74
0
 49
-0.318
 74
0
 49
0.318
 74
0
 49
-0.318
 74
0
 49
0.318
 74
0
 49
-0.318
 74
0
  0
LTYPE
  5
38
330
2
100
AcDbSymbolTableRecord
100
AcDbLinetypeTableRecord
  2
DASHDOT
 70
0
  3
Dash dot __ . __ . __ . __ . __ . __ . __ . __
 72
65
 73
4
 40
3.556
 49
2.54
 74
0
 49
-0.508
 74
0
 49
0.0
 74
0
 49
-0.508
 74
0
  0
LTYPE
  5
39
330
2
100
AcDbSymbolTableRecord
100
AcDbLinetypeTableRecord
  2
DASHDOTX2
 70
0
  3
Dash dot (2x) ____  .  ____  .  ____  .  ____
 72
65
 73
4
 40
6.096
 49
5.08
 74
0
 49
-0.508
 74
0
 49
0.0
 74
0
 49
-0.508
 74
0
  0
LTYPE
  5
3A
330
2
100
AcDbSymbolTableRecord
100
AcDbLinetypeTableRecord
  2
DASHDOT2
 70
0
  3
Dash dot (.5x) _ . _ . _ . _ . _ . _ . _ . _
 72
65
 73
4
 40
1.778
 49
1.27
 74
0
 49
-0.254
 74
0
 49
0.0
 74
0
 49
-0.254
 74
0
  0
LTYPE
  5
3B
330
2
100
AcDbSymbolTableRecord
100
AcDbLinetypeTableRecord
  2
DOT
 70
0
  3
Dot .  .  .  .  .  .  .  .  .  .  .  .  .  .  .  .
 72
65
 73
2
 40
0.508
 49
0.0
 74
0
 49
-0.508
 74
0
  0
LTYPE
  5
3C
330
2
100
AcDbSymbolTableRecord
100
AcDbLinetypeTableRecord
  2
DOTX2
 70
0
  3
Dot (2x) .    .    .    .    .    .    .    . 
 72
65
 73
2
 40
1.016
 49
0.0
 74
0
 49
-1.016
 74
0
  0
LTYPE
  5
3D
330
2
100
AcDbSymbolTableRecord
100
AcDbLinetypeTableRecord
  2
DOT2
 70
0
  3
Dot (.5) . . . . . . . . . . . . . . . . . . . 
 72
65
 73
2
 40
0.254
 49
0.0
 74
0
 49
-0.254
 74
0
  0
LTYPE
  5
3E
330
2
100
AcDbSymbolTableRecord
100
AcDbLinetypeTableRecord
  2
DIVIDE
 70
0
  3
Divide __ . . __ . . __ . . __ . . __ . . __
 72
65
 73
6
 40
4.064
 49
2.54
 74
0
 49
-0.508
 74
0
 49
0.0
 74
0
 49
-0.508
 74
0
 49
0.0
 74
0
 49
-0.508
 74
0
  0
LTYPE
  5
3F
330
2
100
AcDbSymbolTableRecord
100
AcDbLinetypeTableRecord
  2
DIVIDEX2
 70
0
  3
Divide (2x) ____  . .  ____  . .  ____  . .  ____
 72
65
 73
6
 40
6.604
 49
5.08
 74
0
 49
-0.508
 74
0
 49
0.0
 74
0
 49
-0.508
 74
0
 49
0.0
 74
0
 49
-0.508
 74
0
  0
LTYPE
  5
40
330
2
100
AcDbSymbolTableRecord
100
AcDbLinetypeTableRecord
  2
DIVIDE2
 70
0
  3
Divide(.5x) _ . _ . _ . _ . _ . _ . _ . _
 72
65
 73
6
 40
2.032
 49
1.27
 74
0
 49
-0.254
 74
0
 49
0.0
 74
0
 49
-0.254
 74
0
 49
0.0
 74
0
 49
-0.254
 74
0
  0
ENDTAB
  0
TABLE
  2
LAYER
  5
1
330
0
100
AcDbSymbolTable
 70
8
  0
LAYER
  5
27
330
1
100
AcDbSymbolTableRecord
100
AcDbLayerTableRecord
  2
0
 70
0
 62
7
  6
Continuous
370
-3
390
13
347
21
  0
LAYER
  5
28
330
1
100
AcDbSymbolTableRecord
100
AcDbLayerTableRecord
  2
Defpoints
 70
0
 62
7
  6
Continuous
290
0
370
-3
390
13
347
21
  0
LAYER
  5
8A
330
1
100
AcDbSymbolTableRecord
100
AcDbLayerTableRecord
  2
KANTEN
 70
0
 62
7
  6
CONTINUOUS
370
50
390
13
347
21
  0
LAYER
  5
8B
330
1
100
AcDbSymbolTableRecord
100
AcDbLayerTableRecord
  2
DUENN
 70
0
 62
7
  6
CONTINUOUS
370
25
390
13
347
21
  0
LAYER
  5
8C
330
1
100
AcDbSymbolTableRecord
100
AcDbLayerTableRecord
  2
MITTELLINIEN
 70
0
 62
1
  6
CENTER
370
25
390
13
347
21
  0
LAYER
  5
8D
330
1
100
AcDbSymbolTableRecord
100
AcDbLayerTableRecord
  2
SCHRAFFUR
 70
0
 62
8
  6
CONTINUOUS
370
25
390
13
347
21
  0
LAYER
  5
8E
330
1
100
AcDbSymbolTableRecord
100
AcDbLayerTableRecord
  2
TEXT
 70
0
 62
7
  6
CONTINUOUS
370
25
390
13
347
21
  0
LAYER
  5
8F
330
1
100
AcDbSymbolTableRecord
100
AcDbLayerTableRecord
  2
RAHMEN
 70
0
 62
7
  6
CONTINUOUS
370
70
390
13
347
21
  0
ENDTAB
  0
TABLE
  2
STYLE
  5
5
330
0
100
AcDbSymbolTable
 70
26
  0
STYLE
  5
29
330
5
100
AcDbSymbolTableRecord
100
AcDbTextStyleTableRecord
  2
Standard
 70
0
 40
0.0
 41
1.0
 50
0.0
 71
0
 42
2.5
  3
arial.ttf
  4

  0
STYLE
  5
41
330
5
100
AcDbSymbolTableRecord
100
AcDbTextStyleTableRecord
  2
OpenSans-Light
 70
0
 40
0.0
 41
1.0
 50
0.0
 71
0
 42
2.5
  3
OpenSans-Light.ttf
  4

  0
STYLE
  5
42
330
5
100
AcDbSymbolTableRecord
100
AcDbTextStyleTableRecord
  2
OpenSans-Light-Italic
 70
0
 40
0.0
 41
1.0
 50
0.0
 71
0
 42
2.5
  3
OpenSans-LightItalic.ttf
  4

  0
STYLE
  5
43
330
5
100
AcDbSymbolTableRecord
100
AcDbTextStyleTableRecord
  2
OpenSans
 70
0
 40
0.0
 41
1.0
 50
0.0
 71
0
 42
2.5
  3
OpenSans-Regular.ttf
  4

  0
STYLE
  5
44
330
5
100
AcDbSymbolTableRecord
100
AcDbTextStyleTableRecord
  2
OpenSans-Italic
 70
0
 40
0.0
 41
1.0
 50
0.0
 71
0
 42
2.5
  3
OpenSans-Italic.ttf
  4

  0
STYLE
  5
45
330
5
100
AcDbSymbolTableRecord
100
AcDbTextStyleTableRecord
  2
OpenSans-SemiBold
 70
0
 40
0.0
 41
1.0
 50
0.0
 71
0
 42
2.5
  3
OpenSans-SemiBold.ttf
  4

  0
STYLE
  5
46
330
5
100
AcDbSymbolTableRecord
100
AcDbTextStyleTableRecord
  2
OpenSans-SemiBoldItalic
 70
0
 40
0.0
 41
1.0
 50
0.0
 71
0
 42
2.5
  3
OpenSans-SemiBoldItalic.ttf
  4

  0
STYLE
  5
47
330
5
100
AcDbSymbolTableRecord
100
AcDbTextStyleTableRecord
  2
OpenSans-Bold
 70
0
 40
0.0
 41
1.0
 50
0.0
 71
0
 42
2.5
  3
OpenSans-Bold.ttf
  4

  0
STYLE
  5
48
330
5
100
AcDbSymbolTableRecord
100
AcDbTextStyleTableRecord
  2
OpenSans-BoldItalic
 70
0
 40
0.0
 41
1.0
 50
0.0
 71
0
 42
2.5
  3
OpenSans-BoldItalic.ttf
  4

  0
STYLE
  5
49
330
5
100
AcDbSymbolTableRecord
100
AcDbTextStyleTableRecord
  2
OpenSans-ExtraBold
 70
0
 40
0.0
 41
1.0
 50
0.0
 71
0
 42
2.5
  3
OpenSans-ExtraBold.ttf
  4

  0
STYLE
  5
4A
330
5
100
AcDbSymbolTableRecord
100
AcDbTextStyleTableRecord
  2
OpenSans-ExtraBoldItalic
 70
0
 40
0.0
 41
1.0
 50
0.0
 71
0
 42
2.5
  3
OpenSans-ExtraBoldItalic.ttf
  4

  0
STYLE
  5
4B
330
5
100
AcDbSymbolTableRecord
100
AcDbTextStyleTableRecord
  2
OpenSansCondensed-Bold
 70
0
 40
0.0
 41
1.0
 50
0.0
 71
0
 42
2.5
  3
OpenSansCondensed-Bold.ttf
  4

  0
STYLE
  5
4C
330
5
100
AcDbSymbolTableRecord
100
AcDbTextStyleTableRecord
  2
OpenSansCondensed-Light
 70
0
 40
0.0
 41
1.0
 50
0.0
 71
0
 42
2.5
  3
OpenSansCondensed-Light.ttf
  4

  0
STYLE
  5
4D
330
5
100
AcDbSymbolTableRecord
100
AcDbTextStyleTableRecord
  2
OpenSansCondensed-Italic
 70
0
 40
0.0
 41
1.0
 50
0.0
 71
0
 42
2.5
  3
OpenSansCondensed-LightItalic.ttf
  4

  0
STYLE
  5
4E
330
5
100
AcDbSymbolTableRecord
100
AcDbTextStyleTableRecord
  2
LiberationSans
 70
0
 40
0.0
 41
1.0
 50
0.0
 71
0
 42
2.5
  3
LiberationSans-Regular.ttf
  4

  0
STYLE
  5
4F
330
5
100
AcDbSymbolTableRecord
100
AcDbTextStyleTableRecord
  2
LiberationSans-Bold
 70
0
 40
0.0
 41
1.0
 50
0.0
 71
0
 42
2.5
  3
LiberationSans-Bold.ttf
  4

  0
STYLE
  5
50
330
5
100
AcDbSymbolTableRecord
100
AcDbTextStyleTableRecord
  2
LiberationSans-BoldItalic
 70
0
 40
0.0
 41
1.0
 50
0.0
 71
0
 42
2.5
  3
LiberationSans-BoldItalic.ttf
  4

  0
STYLE
  5
51
330
5
100
AcDbSymbolTableRecord
100
AcDbTextStyleTableRecord
  2
LiberationSans-Italic
 70
0
 40
0.0
 41
1.0
 50
0.0
 71
0
 42
2.5
  3
LiberationSans-Italic.ttf
  4

  0
STYLE
  5
52
330
5
100
AcDbSymbolTableRecord
100
AcDbTextStyleTableRecord
  2
LiberationSerif
 70
0
 40
0.0
 41
1.0
 50
0.0
 71
0
 42
2.5
  3
LiberationSerif-Regular.ttf
  4

  0
STYLE
  5
53
330
5
100
AcDbSymbolTableRecord
100
AcDbTextStyleTableRecord
  2
LiberationSerif-Bold
 70
0
 40
0.0
 41
1.0
 50
0.0
 71
0
 42
2.5
  3
LiberationSerif-Bold.ttf
  4

  0
STYLE
  5
54
330
5
100
AcDbSymbolTableRecord
100
AcDbTextStyleTableRecord
  2
LiberationSerif-BoldItalic
 70
0
 40
0.0
 41
1.0
 50
0.0
 71
0
 42
2.5
  3
LiberationSerif-BoldItalic.ttf
  4

  0
STYLE
  5
55
330
5
100
AcDbSymbolTableRecord
100
AcDbTextStyleTableRecord
  2
LiberationSerif-Italic
 70
0
 40
0.0
 41
1.0
 50
0.0
 71
0
 42
2.5
  3
LiberationSerif-Italic.ttf
  4

  0
STYLE
  5
56
330
5
100
AcDbSymbolTableRecord
100
AcDbTextStyleTableRecord
  2
LiberationMono
 70
0
 40
0.0
 41
1.0
 50
0.0
 71
0
 42
2.5
  3
LiberationMono-Regular.ttf
  4

  0
STYLE
  5
57
330
5
100
AcDbSymbolTableRecord
100
AcDbTextStyleTableRecord
  2
LiberationMono-Bold
 70
0
 40
0.0
 41
1.0
 50
0.0
 71
0
 42
2.5
  3
LiberationMono-Bold.ttf
  4

  0
STYLE
  5
58
330
5
100
AcDbSymbolTableRecord
100
AcDbTextStyleTableRecord
  2
LiberationMono-BoldItalic
 70
0
 40
0.0
 41
1.0
 50
0.0
 71
0
 42
2.5
  3
LiberationMono-BoldItalic.ttf
  4

  0
STYLE
  5
59
330
5
100
AcDbSymbolTableRecord
100
AcDbTextStyleTableRecord
  2
LiberationMono-Italic
 70
0
 40
0.0
 41
1.0
 50
0.0
 71
0
 42
2.5
  3
LiberationMono-Italic.ttf
  4

  0
ENDTAB
  0
TABLE
  2
VIEW
  5
7
330
0
100
AcDbSymbolTable
 70
0
  0
ENDTAB
  0
TABLE
  2
UCS
  5
6
330
0
100
AcDbSymbolTable
 70
0
  0
ENDTAB
  0
TABLE
  2
APPID
  5
3
330
0
100
AcDbSymbolTable
 70
3
  0
APPID
  5
2A
330
3
100
AcDbSymbolTableRecord
100
AcDbRegAppTableRecord
  2
ACAD
 70
0
  0
APPID
  5
25E
330
3
100
AcDbSymbolTableRecord
100
AcDbRegAppTableRecord
  2
HATCHBACKGROUNDCOLOR
 70
0
  0
APPID
  5
25F
330
3
100
AcDbSymbolTableRecord
100
AcDbRegAppTableRecord
  2
EZDXF
 70
0
  0
ENDTAB
  0
TABLE
  2
DIMSTYLE
  5
4
330
0
100
AcDbSymbolTable
 70
12
100
AcDbDimStyleTable
  0
DIMSTYLE
105
2B
330
4
100
AcDbSymbolTableRecord
100
AcDbDimStyleTableRecord
  2
Standard
 70
0
 40
1.0
 41
2.5
 42
0.625
 43
3.75
 44
1.25
 45
0.0
 46
0.0
 47
0.0
 48
0.0
 49
2.5
140
2.5
141
2.5
142
0.0
143
0.03937007874
144
1.0
145
0.0
146
1.0
147
0.625
148
0.0
 69
0
 70
0
 71
0
 72
0
 73
0
 74
0
 75
0
 76
0
 77
1
 78
8
 79
3
170
0
171
3
172
1
173
0
174
0
175
0
176
0
177
0
178
0
179
2
271
2
272
2
273
2
274
3
275
0
276
0
277
2
278
44
279
0
280
0
281
0
282
0
283
0
284
8
285
0
286
0
288
0
289
3
290
0
371
-2
372
-2
  0
DIMSTYLE
105
73
330
4
100
AcDbSymbolTableRecord
100
AcDbDimStyleTableRecord
  2
EZDXF
 70
0
 40
1.0
 41
0.175
 42
0.125
 43
3.75
 44
0.375
 45
0.0
 46
0.0
 47
0.0
 48
0.0
 49
2.5
140
0.25
141
2.5
142
0.0
143
0.03937007874
144
100.0
145
0.0
146
0.5
147
0.1
148
0.0
 69
0
 70
0
 71
0
 72
0
 73
0
 74
0
 75
0
 76
0
 77
1
 78
12
 79
3
170
0
171
3
172
1
173
0
174
0
175
0
176
0
177
0
178
0
179
2
271
2
272
2
273
2
274
3
275
0
276
0
277
2
278
46
279
2
280
0
281
0
282
0
283
0
284
8
285
0
286
0
288
1
289
3
290
0
340
4C
342
74
371
-2
372
-2
  0
DIMSTYLE
105
7C
330
4
100
AcDbSymbolTableRecord
100
AcDbDimStyleTableRecord
  2
EZ_M_100_H25_CM
 70
0
 40
1.0
 41
0.25
 42
0.125
 43
3.75
 44
0.375
 45
0.0
 46
0.0
 47
0.0
 48
0.0
 49
2.5
140
0.25
141
2.5
142
0.125
143
0.03937007874
144
100.0
145
0.0
146
0.5
147
0.1
148
0.0
 69
0
 70
0
 71
0
 72
0
 73
0
 74
0
 75
0
 76
0
 77
1
 78
12
 79
3
170
0
171
3
172
1
173
0
174
0
175
0
176
0
177
0
178
0
179
2
271
2
272
2
273
2
274
3
275
0
276
0
277
2
278
46
279
2
280
0
281
0
282
0
283
0
284
8
285
0
286
0
288
1
289
3
290
0
340
4C
371
-2
372
-2
  0
DIMSTYLE
105
7D
330
4
100
AcDbSymbolTableRecord
100
AcDbDimStyleTableRecord
  2
EZ_M_50_H25_CM
 70
0
 40
1.0
 41
0.125
 42
0.0625
 43
3.75
 44
0.1875
 45
0.0
 46
0.0
 47
0.0
 48
0.0
 49
2.5
140
0.125
141
2.5
142
0.0625
143
0.03937007874
144
100.0
145
0.0
146
0.5
147
0.05
148
0.0
 69
0
 70
0
 71
0
 72
0
 73
0
 74
0
 75
0
 76
0
 77
1
 78
12
 79
3
170
0
171
3
172
1
173
0
174
0
175
0
176
0
177
0
178
0
179
2
271
2
272
2
273
2
274
3
275
0
276
0
277
2
278
46
279
2
280
0
281
0
282
0
283
0
284
8
285
0
286
0
288
1
289
3
290
0
340
4C
371
-2
372
-2
  0
DIMSTYLE
105
7E
330
4
100
AcDbSymbolTableRecord
100
AcDbDimStyleTableRecord
  2
EZ_M_25_H25_CM
 70
0
 40
1.0
 41
0.0625
 42
0.03125
 43
3.75
 44
0.09375
 45
0.0
 46
0.0
 47
0.0
 48
0.0
 49
2.5
140
0.0625
141
2.5
142
0.03125
143
0.03937007874
144
100.0
145
0.0
146
0.5
147
0.025
148
0.0
 69
0
 70
0
 71
0
 72
0
 73
0
 74
0
 75
0
 76
0
 77
1
 78
12
 79
3
170
0
171
3
172
1
173
0
174
0
175
0
176
0
177
0
178
0
179
2
271
2
272
2
273
2
274
3
275
0
276
0
277
2
278
46
279
2
280
0
281
0
282
0
283
0
284
8
285
0
286
0
288
1
289
3
290
0
340
4C
371
-2
372
-2
  0
DIMSTYLE
105
7F
330
4
100
AcDbSymbolTableRecord
100
AcDbDimStyleTableRecord
  2
EZ_M_20_H25_CM
 70
0
 40
1.0
 41
0.05
 42
0.025
 43
3.75
 44
0.07500000000000001
 45
0.0
 46
0.0
 47
0.0
 48
0.0
 49
2.5
140
0.05
141
2.5
142
0.025
143
0.03937007874
144
100.0
145
0.0
146
0.5
147
0.020000000000000004
148
0.0
 69
0
 70
0
 71
0
 72
0
 73
0
 74
0
 75
0
 76
0
 77
1
 78
12
 79
3
170
0
171
3
172
1
173
0
174
0
175
0
176
0
177
0
178
0
179
2
271
2
272
2
273
2
274
3
275
0
276
0
277
2
278
46
279
2
280
0
281
0
282
0
283
0
284
8
285
0
286
0
288
1
289
3
290
0
340
4C
371
-2
372
-2
  0
DIMSTYLE
105
80
330
4
100
AcDbSymbolTableRecord
100
AcDbDimStyleTableRecord
  2
EZ_M_10_H25_CM
 70
0
 40
1.0
 41
0.025
 42
0.0125
 43
3.75
 44
0.037500000000000006
 45
0.0
 46
0.0
 47
0.0
 48
0.0
 49
2.5
140
0.025
141
2.5
142
0.0125
143
0.03937007874
144
100.0
145
0.0
146
0.5
147
0.010000000000000002
148
0.0
 69
0
 70
0
 71
0
 72
0
 73
0
 74
0
 75
0
 76
0
 77
1
 78
12
 79
3
170
0
171
3
172
1
173
0
174
0
175
0
176
0
177
0
178
0
179
2
271
2
272
2
273
2
274
3
275
0
276
0
277
2
278
46
279
2
280
0
281
0
282
0
283
0
284
8
285
0
286
0
288
1
289
3
290
0
340
4C
371
-2
372
-2
  0
DIMSTYLE
105
81
330
4
100
AcDbSymbolTableRecord
100
AcDbDimStyleTableRecord
  2
EZ_M_5_H25_CM
 70
0
 40
1.0
 41
0.0125
 42
0.00625
 43
3.75
 44
0.018750000000000003
 45
0.0
 46
0.0
 47
0.0
 48
0.0
 49
2.5
140
0.0125
141
2.5
142
0.00625
143
0.03937007874
144
100.0
145
0.0
146
0.5
147
0.005000000000000001
148
0.0
 69
0
 70
0
 71
0
 72
0
 73
0
 74
0
 75
0
 76
0
 77
1
 78
12
 79
3
170
0
171
3
172
1
173
0
174
0
175
0
176
0
177
0
178
0
179
2
271
2
272
2
273
2
274
3
275
0
276
0
277
2
278
46
279
2
280
0
281
0
282
0
283
0
284
8
285
0
286
0
288
1
289
3
290
0
340
4C
371
-2
372
-2
  0
DIMSTYLE
105
82
330
4
100
AcDbSymbolTableRecord
100
AcDbDimStyleTableRecord
  2
EZ_M_1_H25_CM
 70
0
 40
1.0
 41
0.0025
 42
0.00125
 43
3.75
 44
0.00375
 45
0.0
 46
0.0
 47
0.0
 48
0.0
 49
2.5
140
0.0025
141
2.5
142
0.00125
143
0.03937007874
144
100.0
145
0.0
146
0.5
147
0.001
148
0.0
 69
0
 70
0
 71
0
 72
0
 73
0
 74
0
 75
0
 76
0
 77
1
 78
12
 79
3
170
0
171
3
172
1
173
0
174
0
175
0
176
0
177
0
178
0
179
2
271
2
272
2
273
2
274
3
275
0
276
0
277
2
278
46
279
2
280
0
281
0
282
0
283
0
284
8
285
0
286
0
288
1
289
3
290
0
340
4C
371
-2
372
-2
  0
DIMSTYLE
105
83
330
4
100
AcDbSymbolTableRecord
100
AcDbDimStyleTableRecord
  2
EZ_RADIUS
 70
0
 40
1.0
 41
0.25
 42
0.125
 43
3.75
 44
0.375
 45
0.0
 46
0.0
 47
0.0
 48
0.0
 49
2.5
140
0.25
141
0.0
142
0.0
143
0.03937007874
144
100.0
145
0.0
146
0.5
147
0.1
148
0.0
 69
0
 70
0
 71
0
 72
0
 73
0
 74
0
 75
0
 76
0
 77
1
 78
12
 79
3
170
0
171
3
172
0
173
0
174
0
175
0
176
0
177
0
178
0
179
2
271
2
272
2
273
2
274
3
275
0
276
0
277
2
278
46
279
1
280
0
281
0
282
0
283
0
284
8
285
0
286
0
288
1
289
3
290
0
340
4C
342
84
371
-2
372
-2
  0
DIMSTYLE
105
88
330
4
100
AcDbSymbolTableRecord
100
AcDbDimStyleTableRecord
  2
EZ_RADIUS_INSIDE
 70
0
 40
1.0
 41
0.25
 42
0.125
 43
3.75
 44
0.375
 45
0.0
 46
0.0
 47
0.0
 48
0.0
 49
2.5
140
0.25
141
0.0
142
0.0
143
0.03937007874
144
100.0
145
0.0
146
0.5
147
0.1
148
0.0
 69
0
 70
0
 71
0
 72
0
 73
0
 74
0
 75
0
 76
0
 77
0
 78
12
 79
3
170
0
171
3
172
0
173
0
174
1
175
0
176
0
177
0
178
0
179
2
271
2
272
2
273
2
274
3
275
0
276
0
277
2
278
46
279
0
280
0
281
0
282
0
283
0
284
8
285
0
286
0
288
1
289
0
290
0
340
4C
342
84
371
-2
372
-2
  0
DIMSTYLE
105
89
330
4
100
AcDbSymbolTableRecord
100
AcDbDimStyleTableRecord
  2
EZ_CURVED
 70
0
 40
1.0
 41
0.25
 42
0.125
 43
3.75
 44
0.375
 45
0.0
 46
0.0
 47
0.0
 48
0.0
 49
2.5
140
0.25
141
2.5
142
0.0
143
0.03937007874
144
100.0
145
0.0
146
0.5
147
0.1
148
0.0
 69
0
 70
0
 71
0
 72
0
 73
0
 74
0
 75
0
 76
0
 77
1
 78
12
 79
2
 90
2
170
0
171
3
172
1
173
0
174
0
175
0
176
0
177
0
178
0
179
2
271
2
272
2
273
2
274
3
275
0
276
0
277
2
278
46
279
2
280
0
281
0
282
0
283
0
284
8
285
0
286
0
288
1
289
3
290
0
340
4C
371
-2
372
-2
  0
ENDTAB
  0
TABLE
  2
BLOCK_RECORD
  5
9
330
0
100
AcDbSymbolTable
 70
5
  0
BLOCK_RECORD
  5
17
330
9
100
AcDbSymbolTableRecord
100
AcDbBlockTableRecord
  2
*Model_Space
340
1A
 70
0
280
1
281
0
  0
BLOCK_RECORD
  5
1B
330
9
100
AcDbSymbolTableRecord
100
AcDbBlockTableRecord
  2
*Paper_Space
340
1E
 70
0
280
1
281
0
  0
BLOCK_RECORD
  5
74
330
9
100
AcDbSymbolTableRecord
100
AcDbBlockTableRecord
  2
_ARCHTICK
340
0
 70
0
280
1
281
0
  0
BLOCK_RECORD
  5
78
330
9
100
AcDbSymbolTableRecord
100
AcDbBlockTableRecord
  2
_CLOSEDFILLED
340
0
 70
0
280
1
281
0
  0
BLOCK_RECORD
  5
84
330
9
100
AcDbSymbolTableRecord
100
AcDbBlockTableRecord
  2
_CLOSEDBLANK
340
0
 70
0
280
1
281
0
  0
ENDTAB
  0
ENDSEC
  0
SECTION
  2
BLOCKS
  0
BLOCK
  5
18
330
17
100
AcDbEntity
  8
0
100
AcDbBlockBegin
  2
*Model_Space
 70
0
 10
0.0
 20
0.0
 30
0.0
  3
*Model_Space
  1

  0
ENDBLK
  5
19
330
17
100
AcDbEntity
  8
0
100
AcDbBlockEnd
  0
BLOCK
  5
1C
330
1B
100
AcDbEntity
  8
0
100
AcDbBlockBegin
  2
*Paper_Space
 70
0
 10
0.0
 20
0.0
 30
0.0
  3
*Paper_Space
  1

  0
ENDBLK
  5
1D
330
1B
100
AcDbEntity
  8
0
100
AcDbBlockEnd
  0
BLOCK
  5
75
330
74
100
AcDbEntity
  8
0
100
AcDbBlockBegin
  2
_ARCHTICK
 70
0
 10
0.0
 20
0.0
 30
0.0
  3
_ARCHTICK
  1

  0
LWPOLYLINE
  5
77
330
74
100
AcDbEntity
  8
0
  6
BYBLOCK
 62
0
100
AcDbPolyline
 90
2
 70
0
 43
0.15
 10
-0.5
 20
-0.5
 10
0.5
 20
0.5
  0
ENDBLK
  5
76
330
74
100
AcDbEntity
  8
0
100
AcDbBlockEnd
  0
BLOCK
  5
79
330
78
100
AcDbEntity
  8
0
100
AcDbBlockBegin
  2
_CLOSEDFILLED
 70
0
 10
0.0
 20
0.0
 30
0.0
  3
_CLOSEDFILLED
  1

  0
SOLID
  5
7B
330
78
100
AcDbEntity
  8
0
  6
BYBLOCK
 62
0
100
AcDbTrace
 10
-1.0
 20
0.16439898372402537
 30
0.0
 11
0.0
 21
0.0
 31
0.0
 12
-1.0
 22
-0.16439898372402537
 32
0.0
 13
-1.0
 23
-0.16439898372402537
 33
0.0
  0
ENDBLK
  5
7A
330
78
100
AcDbEntity
  8
0
100
AcDbBlockEnd
  0
BLOCK
  5
85
330
84
100
AcDbEntity
  8
0
100
AcDbBlockBegin
  2
_CLOSEDBLANK
 70
0
 10
0.0
 20
0.0
 30
0.0
  3
_CLOSEDBLANK
  1

  0
LWPOLYLINE
  5
87
330
84
100
AcDbEntity
  8
0
  6
BYBLOCK
 62
0
100
AcDbPolyline
 90
3
 70
1
 10
-1.0
 20
0.16439898372402537
 10
0.0
 20
0.0
 10
-1.0
 20
-0.16439898372402537
  0
ENDBLK
  5
86
330
84
100
AcDbEntity
  8
0
100
AcDbBlockEnd
  0
ENDSEC
  0
SECTION
  2
ENTITIES
  0
LWPOLYLINE
  5
90
330
17
100
AcDbEntity
  8
KANTEN
370
50
100
AcDbPolyline
 90
4
 70
1
 10
20.0
 20
10.0
 10
410.0
 20
10.0
 10
410.0
 20
287.0
 10
20.0
 20
287.0
  0
LWPOLYLINE
  5
91
330
17
100
AcDbEntity
  8
KANTEN
370
50
100
AcDbPolyline
 90
3
 70
0
 10
324.78
 20
221.78
 10
326.78
 20
221.78
 10
328.78
 20
221.78
  0
LWPOLYLINE
  5
92
330
17
100
AcDbEntity
  8
KANTEN
370
50
100
AcDbPolyline
 90
3
 70
0
 10
324.78
 20
144.78
 10
326.78
 20
144.78
 10
328.78
 20
144.78
  0
LWPOLYLINE
  5
93
330
17
100
AcDbEntity
  8
KANTEN
370
50
100
AcDbPolyline
 90
3
 70
0
 10
300.78
 20
144.78
 10
302.78
 20
144.78
 10
304.78
 20
144.78
  0
LWPOLYLINE
  5
94
330
17
100
AcDbEntity
  8
KANTEN
370
50
100
AcDbPolyline
 90
3
 70
0
 10
300.78
 20
221.78
 10
302.78
 20
221.78
 10
304.78
 20
221.78
  0
LINE
  5
95
330
17
100
AcDbEntity
  8
KANTEN
370
50
100
AcDbLine
 10
306.28
 20
235.28
 30
0.0
 11
306.28
 21
244.28
 31
0.0
  0
LWPOLYLINE
  5
96
330
17
100
AcDbEntity
  8
KANTEN
370
50
100
AcDbPolyline
 90
3
 70
0
 10
306.28
 20
227.23736570814953
 10
306.28
 20
231.25868285407478
 10
306.28
 20
235.28
  0
LINE
  5
97
330
17
100
AcDbEntity
  8
KANTEN
370
50
100
AcDbLine
 10
306.28
 20
218.908601679237
 30
0.0
 11
306.28
 21
227.23736570814953
 31
0.0
  0
LINE
  5
98
330
17
100
AcDbEntity
  8
KANTEN
370
50
100
AcDbLine
 10
323.28
 20
244.28
 30
0.0
 11
323.28
 21
235.28
 31
0.0
  0
LWPOLYLINE
  5
99
330
17
100
AcDbEntity
  8
KANTEN
370
50
100
AcDbPolyline
 90
3
 70
0
 10
323.28
 20
227.23736570814953
 10
323.28
 20
231.25868285407478
 10
323.28
 20
235.28
  0
LINE
  5
9A
330
17
100
AcDbEntity
  8
KANTEN
370
50
100
AcDbLine
 10
323.28
 20
218.908601679237
 30
0.0
 11
323.28
 21
227.23736570814953
 31
0.0
  0
LWPOLYLINE
  5
9B
330
17
100
AcDbEntity
  8
KANTEN
370
50
100
AcDbPolyline
 90
3
 70
0
 10
324.78
 20
220.7132739684896
 10
324.78
 20
221.7466369842448
 10
324.78
 20
222.78
  0
LWPOLYLINE
  5
9C
330
17
100
AcDbEntity
  8
KANTEN
370
50
100
AcDbPolyline
 90
3
 70
0
 10
323.28
 20
220.7132739684896
 10
324.03
 20
220.7132739684896
 10
324.78
 20
220.7132739684896
  0
LWPOLYLINE
  5
9D
330
17
100
AcDbEntity
  8
KANTEN
370
50
100
AcDbPolyline
 90
3
 70
0
 10
304.78
 20
220.7132739684896
 10
305.53
 20
220.7132739684896
 10
306.28
 20
220.7132739684896
  0
LWPOLYLINE
  5
9E
330
17
100
AcDbEntity
  8
KANTEN
370
50
100
AcDbPolyline
 90
11
 70
0
 10
328.78
 20
221.78
 10
329.09286893008044
 20
221.75537668119028
 10
329.3980339887499
 20
221.6821130325903
 10
329.68798099947907
 20
221.56201304837674
 10
329.9555705045849
 20
221.3980339887499
 10
330.1942135623731
 20
221.19421356237308
 10
330.3980339887499
 20
220.95557050458495
 10
330.5620130483767
 20
220.6879809994791
 10
330.6821130325903
 20
220.3980339887499
 10
330.7553766811902
 20
220.09286893008047
 10
330.78
 20
219.78
  0
LWPOLYLINE
  5
9F
330
17
100
AcDbEntity
  8
KANTEN
370
50
100
AcDbPolyline
 90
11
 70
0
 10
328.78
 20
144.78
 10
329.09286893008044
 20
144.80462331880972
 10
329.3980339887499
 20
144.8778869674097
 10
329.68798099947907
 20
144.99798695162326
 10
329.9555705045849
 20
145.16196601125012
 10
330.1942135623731
 20
145.36578643762692
 10
330.3980339887499
 20
145.60442949541505
 10
330.5620130483767
 20
145.8720190005209
 10
330.6821130325903
 20
146.16196601125012
 10
330.7553766811902
 20
146.46713106991953
 10
330.78
 20
146.78
  0
LWPOLYLINE
  5
A0
330
17
100
AcDbEntity
  8
KANTEN
370
50
100
AcDbPolyline
 90
11
 70
0
 10
298.78
 20
146.78
 10
298.8046233188097
 20
146.46713106991953
 10
298.87788696740967
 20
146.16196601125012
 10
298.99798695162326
 20
145.8720190005209
 10
299.16196601125006
 20
145.60442949541505
 10
299.36578643762687
 20
145.36578643762692
 10
299.60442949541505
 20
145.16196601125012
 10
299.8720190005209
 20
144.99798695162326
 10
300.16196601125006
 20
144.8778869674097
 10
300.4671310699195
 20
144.80462331880972
 10
300.78
 20
144.78
  0
LWPOLYLINE
  5
A1
330
17
100
AcDbEntity
  8
KANTEN
370
50
100
AcDbPolyline
 90
3
 70
0
 10
298.78
 20
155.78
 10
298.78
 20
151.28
 10
298.78
 20
146.78
  0
LWPOLYLINE
  5
A2
330
17
100
AcDbEntity
  8
KANTEN
370
50
100
AcDbPolyline
 90
11
 70
0
 10
298.78
 20
155.78
 10
298.7553766811902
 20
156.09286893008047
 10
298.6821130325903
 20
156.3980339887499
 10
298.5620130483767
 20
156.6879809994791
 10
298.3980339887499
 20
156.95557050458495
 10
298.1942135623731
 20
157.1942135623731
 10
297.9555705045849
 20
157.3980339887499
 10
297.68798099947907
 20
157.56201304837674
 10
297.3980339887499
 20
157.6821130325903
 10
297.09286893008044
 20
157.75537668119028
 10
296.78
 20
157.78
  0
LWPOLYLINE
  5
A3
330
17
100
AcDbEntity
  8
KANTEN
370
50
100
AcDbPolyline
 90
3
 70
0
 10
296.78
 20
160.48
 10
296.78
 20
159.13
 10
296.78
 20
157.78
  0
LWPOLYLINE
  5
A4
330
17
100
AcDbEntity
  8
KANTEN
370
50
100
AcDbPolyline
 90
9
 70
0
 10
296.78
 20
160.48
 10
296.7684711682419
 20
160.5970541932097
 10
296.7343277195067
 20
160.70961005941905
 10
296.6788817673815
 20
160.81334213981177
 10
296.60426406871187
 20
160.90426406871194
 10
296.5133421398117
 20
160.97888176738152
 10
296.40961005941904
 20
161.03432771950676
 10
296.29705419320965
 20
161.06847116824196
 10
296.17999999999995
 20
161.08
  0
LWPOLYLINE
  5
A5
330
17
100
AcDbEntity
  8
KANTEN
370
50
100
AcDbPolyline
 90
3
 70
0
 10
295.3996152422706
 20
161.08
 10
295.7898076211353
 20
161.08
 10
296.17999999999995
 20
161.08
  0
LWPOLYLINE
  5
A6
330
17
100
AcDbEntity
  8
KANTEN
370
50
100
AcDbPolyline
 90
3
 70
0
 10
295.3996152422706
 20
161.08
 10
294.83980762113526
 20
160.93
 10
294.28
 20
160.78
  0
LWPOLYLINE
  5
A7
330
17
100
AcDbEntity
  8
KANTEN
370
50
100
AcDbPolyline
 90
3
 70
0
 10
267.78
 20
160.78
 10
281.03
 20
160.78
 10
294.28
 20
160.78
  0
LWPOLYLINE
  5
A8
330
17
100
AcDbEntity
  8
KANTEN
370
50
100
AcDbPolyline
 90
3
 70
0
 10
267.78
 20
168.28
 10
267.78
 20
164.53
 10
267.78
 20
160.78
  0
LWPOLYLINE
  5
A9
330
17
100
AcDbEntity
  8
KANTEN
370
50
100
AcDbPolyline
 90
3
 70
0
 10
348.78
 20
168.28
 10
308.28
 20
168.28
 10
267.78
 20
168.28
  0
LWPOLYLINE
  5
AA
330
17
100
AcDbEntity
  8
KANTEN
370
50
100
AcDbPolyline
 90
3
 70
0
 10
348.78
 20
160.78
 10
348.78
 20
164.53
 10
348.78
 20
168.28
  0
LWPOLYLINE
  5
AB
330
17
100
AcDbEntity
  8
KANTEN
370
50
100
AcDbPolyline
 90
3
 70
0
 10
335.28
 20
160.78
 10
342.03
 20
160.78
 10
348.78
 20
160.78
  0
LWPOLYLINE
  5
AC
330
17
100
AcDbEntity
  8
KANTEN
370
50
100
AcDbPolyline
 90
3
 70
0
 10
334.1603847577293
 20
161.08
 10
334.7201923788646
 20
160.93
 10
335.28
 20
160.78
  0
LWPOLYLINE
  5
AD
330
17
100
AcDbEntity
  8
KANTEN
370
50
100
AcDbPolyline
 90
3
 70
0
 10
333.38
 20
161.08
 10
333.77019237886464
 20
161.08
 10
334.1603847577293
 20
161.08
  0
LWPOLYLINE
  5
AE
330
17
100
AcDbEntity
  8
KANTEN
370
50
100
AcDbPolyline
 90
9
 70
0
 10
333.38
 20
161.08
 10
333.2629458067903
 20
161.06847116824196
 10
333.1503899405809
 20
161.0343277195068
 10
333.0466578601882
 20
160.97888176738152
 10
332.955735931288
 20
160.90426406871194
 10
332.88111823261846
 20
160.81334213981177
 10
332.8256722804932
 20
160.70961005941905
 10
332.791528831758
 20
160.5970541932097
 10
332.78
 20
160.48
  0
LWPOLYLINE
  5
AF
330
17
100
AcDbEntity
  8
KANTEN
370
50
100
AcDbPolyline
 90
3
 70
0
 10
332.78
 20
157.78
 10
332.78
 20
159.13
 10
332.78
 20
160.48
  0
LWPOLYLINE
  5
B0
330
17
100
AcDbEntity
  8
KANTEN
370
50
100
AcDbPolyline
 90
11
 70
0
 10
332.78
 20
157.78
 10
332.4671310699195
 20
157.75537668119028
 10
332.16196601125006
 20
157.6821130325903
 10
331.8720190005209
 20
157.56201304837674
 10
331.60442949541505
 20
157.3980339887499
 10
331.36578643762687
 20
157.1942135623731
 10
331.16196601125006
 20
156.95557050458495
 10
330.99798695162326
 20
156.6879809994791
 10
330.87788696740967
 20
156.3980339887499
 10
330.8046233188097
 20
156.09286893008047
 10
330.78
 20
155.78
  0
LWPOLYLINE
  5
B1
330
17
100
AcDbEntity
  8
KANTEN
370
50
100
AcDbPolyline
 90
3
 70
0
 10
330.78
 20
146.78
 10
330.78
 20
151.28
 10
330.78
 20
155.78
  0
LWPOLYLINE
  5
B2
330
17
100
AcDbEntity
  8
KANTEN
370
50
100
AcDbPolyline
 90
3
 70
0
 10
324.78
 20
144.78
 10
324.78
 20
144.28
 10
324.78
 20
143.78
  0
LWPOLYLINE
  5
B3
330
17
100
AcDbEntity
  8
KANTEN
370
50
100
AcDbPolyline
 90
3
 70
0
 10
323.28
 20
143.78
 10
324.03
 20
143.78
 10
324.78
 20
143.78
  0
LWPOLYLINE
  5
B4
330
17
100
AcDbEntity
  8
KANTEN
370
50
100
AcDbPolyline
 90
3
 70
0
 10
323.28
 20
143.78
 10
323.28
 20
139.53
 10
323.28
 20
135.28
  0
LWPOLYLINE
  5
B5
330
17
100
AcDbEntity
  8
KANTEN
370
50
100
AcDbPolyline
 90
3
 70
0
 10
306.28
 20
135.28
 10
314.78
 20
135.28
 10
323.28
 20
135.28
  0
LWPOLYLINE
  5
B6
330
17
100
AcDbEntity
  8
KANTEN
370
50
100
AcDbPolyline
 90
3
 70
0
 10
306.28
 20
143.78
 10
306.28
 20
139.53
 10
306.28
 20
135.28
  0
LWPOLYLINE
  5
B7
330
17
100
AcDbEntity
  8
KANTEN
370
50
100
AcDbPolyline
 90
3
 70
0
 10
304.78
 20
143.78
 10
305.53
 20
143.78
 10
306.28
 20
143.78
  0
LWPOLYLINE
  5
B8
330
17
100
AcDbEntity
  8
KANTEN
370
50
100
AcDbPolyline
 90
3
 70
0
 10
304.78
 20
144.78
 10
304.78
 20
144.28
 10
304.78
 20
143.78
  0
LWPOLYLINE
  5
B9
330
17
100
AcDbEntity
  8
KANTEN
370
50
100
AcDbPolyline
 90
3
 70
0
 10
323.28
 20
127.28
 10
323.28
 20
124.78
 10
323.28
 20
122.28
  0
LINE
  5
BA
330
17
100
AcDbEntity
  8
KANTEN
370
50
100
AcDbLine
 10
323.28
 20
131.28
 30
0.0
 11
323.28
 21
127.28
 31
0.0
  0
LINE
  5
BB
330
17
100
AcDbEntity
  8
KANTEN
370
50
100
AcDbLine
 10
323.28
 20
135.28
 30
0.0
 11
323.28
 21
131.28
 31
0.0
  0
LWPOLYLINE
  5
BC
330
17
100
AcDbEntity
  8
KANTEN
370
50
100
AcDbPolyline
 90
3
 70
0
 10
306.28
 20
127.28
 10
306.28
 20
124.78
 10
306.28
 20
122.28
  0
LINE
  5
BD
330
17
100
AcDbEntity
  8
KANTEN
370
50
100
AcDbLine
 10
306.28
 20
131.28
 30
0.0
 11
306.28
 21
127.28
 31
0.0
  0
LINE
  5
BE
330
17
100
AcDbEntity
  8
KANTEN
370
50
100
AcDbLine
 10
306.28
 20
135.28
 30
0.0
 11
306.28
 21
131.28
 31
0.0
  0
LWPOLYLINE
  5
BF
330
17
100
AcDbEntity
  8
KANTEN
370
50
100
AcDbPolyline
 90
11
 70
0
 10
298.78
 20
219.78
 10
298.8046233188097
 20
220.09286893008047
 10
298.87788696740967
 20
220.3980339887499
 10
298.99798695162326
 20
220.6879809994791
 10
299.16196601125006
 20
220.95557050458495
 10
299.36578643762687
 20
221.19421356237308
 10
299.60442949541505
 20
221.3980339887499
 10
299.8720190005209
 20
221.56201304837674
 10
300.16196601125006
 20
221.6821130325903
 10
300.4671310699195
 20
221.75537668119028
 10
300.78
 20
221.78
  0
LINE
  5
C0
330
17
100
AcDbEntity
  8
KANTEN
370
50
100
AcDbLine
 10
298.78
 20
155.78000004059052
 30
0.0
 11
298.78
 21
146.78
 31
0.0
  0
LWPOLYLINE
  5
C1
330
17
100
AcDbEntity
  8
KANTEN
370
50
100
AcDbPolyline
 90
3
 70
0
 10
304.78
 20
220.7132739684896
 10
304.78
 20
221.7466369842448
 10
304.78
 20
222.78
  0
LWPOLYLINE
  5
C2
330
17
100
AcDbEntity
  8
KANTEN
370
50
100
AcDbPolyline
 90
3
 70
0
 10
304.78
 20
222.78
 10
305.53
 20
222.78
 10
306.28
 20
222.78
  0
LWPOLYLINE
  5
C3
330
17
100
AcDbEntity
  8
KANTEN
370
50
100
AcDbPolyline
 90
3
 70
0
 10
323.28
 20
222.78
 10
324.03
 20
222.78
 10
324.78
 20
222.78
  0
LINE
  5
C4
330
17
100
AcDbEntity
  8
KANTEN
370
50
100
AcDbLine
 10
298.78
 20
183.28
 30
0.0
 11
298.78
 21
219.78
 31
0.0
  0
LINE
  5
C5
330
17
100
AcDbEntity
  8
KANTEN
370
50
100
AcDbLine
 10
330.78
 20
183.28
 30
0.0
 11
330.78
 21
219.78
 31
0.0
  0
LWPOLYLINE
  5
C6
330
17
100
AcDbEntity
  8
KANTEN
370
50
100
AcDbPolyline
 90
11
 70
0
 10
296.78
 20
208.78
 10
297.09286893008044
 20
208.80462331880972
 10
297.3980339887499
 20
208.8778869674097
 10
297.68798099947907
 20
208.99798695162326
 10
297.9555705045849
 20
209.16196601125012
 10
298.1942135623731
 20
209.3657864376269
 10
298.3980339887499
 20
209.60442949541505
 10
298.5620130483767
 20
209.8720190005209
 10
298.6821130325903
 20
210.16196601125012
 10
298.7553766811902
 20
210.46713106991953
 10
298.78
 20
210.78
  0
LINE
  5
C7
330
17
100
AcDbEntity
  8
KANTEN
370
50
100
AcDbLine
 10
296.78
 20
208.78
 30
0.0
 11
296.78
 21
206.08000000581112
 31
0.0
  0
LINE
  5
C8
330
17
100
AcDbEntity
  8
KANTEN
370
50
100
AcDbLine
 10
296.78
 20
160.48000000631936
 30
0.0
 11
296.78
 21
157.78
 31
0.0
  0
LINE
  5
C9
330
17
100
AcDbEntity
  8
KANTEN
370
50
100
AcDbLine
 10
296.78
 20
183.28
 30
0.0
 11
296.78
 21
206.08
 31
0.0
  0
LINE
  5
CA
330
17
100
AcDbEntity
  8
KANTEN
370
50
100
AcDbLine
 10
296.78
 20
183.28
 30
0.0
 11
296.78
 21
208.78
 31
0.0
  0
LWPOLYLINE
  5
CB
330
17
100
AcDbEntity
  8
KANTEN
370
50
100
AcDbPolyline
 90
9
 70
0
 10
296.17999999999995
 20
205.48
 10
296.29705419320965
 20
205.49152883175807
 10
296.40961005941904
 20
205.52567228049324
 10
296.51334213981175
 20
205.58111823261848
 10
296.6042640687119
 20
205.65573593128806
 10
296.6788817673815
 20
205.74665786018824
 10
296.7343277195067
 20
205.85038994058095
 10
296.7684711682419
 20
205.96294580679032
 10
296.78
 20
206.08
  0
LWPOLYLINE
  5
CC
330
17
100
AcDbEntity
  8
KANTEN
370
50
100
AcDbPolyline
 90
3
 70
0
 10
295.3996152422706
 20
205.48
 10
295.7898076211353
 20
205.48
 10
296.17999999999995
 20
205.48
  0
LWPOLYLINE
  5
CD
330
17
100
AcDbEntity
  8
KANTEN
370
50
100
AcDbPolyline
 90
3
 70
0
 10
294.28
 20
205.78
 10
294.8398076211353
 20
205.63
 10
295.3996152422706
 20
205.48
  0
LWPOLYLINE
  5
CE
330
17
100
AcDbEntity
  8
KANTEN
370
50
100
AcDbPolyline
 90
3
 70
0
 10
267.78
 20
205.78
 10
281.03
 20
205.78
 10
294.28
 20
205.78
  0
LINE
  5
CF
330
17
100
AcDbEntity
  8
KANTEN
370
50
100
AcDbLine
 10
267.78
 20
183.28
 30
0.0
 11
267.78
 21
168.28
 31
0.0
  0
LINE
  5
D0
330
17
100
AcDbEntity
  8
KANTEN
370
50
100
AcDbLine
 10
267.78
 20
183.28
 30
0.0
 11
267.78
 21
205.78
 31
0.0
  0
LINE
  5
D1
330
17
100
AcDbEntity
  8
KANTEN
370
50
100
AcDbLine
 10
348.78
 20
183.28
 30
0.0
 11
348.78
 21
168.28
 31
0.0
  0
LINE
  5
D2
330
17
100
AcDbEntity
  8
KANTEN
370
50
100
AcDbLine
 10
348.78
 20
183.28
 30
0.0
 11
348.78
 21
205.78
 31
0.0
  0
LWPOLYLINE
  5
D3
330
17
100
AcDbEntity
  8
KANTEN
370
50
100
AcDbPolyline
 90
3
 70
0
 10
335.28
 20
205.78
 10
342.03
 20
205.78
 10
348.78
 20
205.78
  0
LWPOLYLINE
  5
D4
330
17
100
AcDbEntity
  8
KANTEN
370
50
100
AcDbPolyline
 90
3
 70
0
 10
334.1603847577293
 20
205.48
 10
334.7201923788646
 20
205.63
 10
335.28
 20
205.78
  0
LWPOLYLINE
  5
D5
330
17
100
AcDbEntity
  8
KANTEN
370
50
100
AcDbPolyline
 90
3
 70
0
 10
333.38
 20
205.48
 10
333.77019237886464
 20
205.48
 10
334.1603847577293
 20
205.48
  0
LWPOLYLINE
  5
D6
330
17
100
AcDbEntity
  8
KANTEN
370
50
100
AcDbPolyline
 90
9
 70
0
 10
332.78
 20
206.08
 10
332.791528831758
 20
205.96294580679032
 10
332.8256722804932
 20
205.85038994058095
 10
332.88111823261846
 20
205.74665786018824
 10
332.955735931288
 20
205.65573593128806
 10
333.0466578601882
 20
205.58111823261848
 10
333.1503899405809
 20
205.5256722804932
 10
333.2629458067903
 20
205.49152883175805
 10
333.38
 20
205.48
  0
LINE
  5
D7
330
17
100
AcDbEntity
  8
KANTEN
370
50
100
AcDbLine
 10
332.78
 20
183.28
 30
0.0
 11
332.78
 21
208.78
 31
0.0
  0
LWPOLYLINE
  5
D8
330
17
100
AcDbEntity
  8
KANTEN
370
50
100
AcDbPolyline
 90
11
 70
0
 10
330.78
 20
210.78
 10
330.8046233188097
 20
210.46713106991953
 10
330.87788696740967
 20
210.16196601125012
 10
330.99798695162326
 20
209.8720190005209
 10
331.16196601125006
 20
209.60442949541505
 10
331.36578643762687
 20
209.3657864376269
 10
331.60442949541505
 20
209.16196601125012
 10
331.8720190005209
 20
208.99798695162326
 10
332.16196601125006
 20
208.8778869674097
 10
332.4671310699195
 20
208.80462331880972
 10
332.78
 20
208.78
  0
LWPOLYLINE
  5
D9
330
17
100
AcDbEntity
  8
KANTEN
370
50
100
AcDbPolyline
 90
3
 70
0
 10
323.28
 20
122.28
 10
314.78
 20
122.28
 10
306.28
 20
122.28
  0
LWPOLYLINE
  5
DA
330
17
100
AcDbEntity
  8
KANTEN
370
50
100
AcDbPolyline
 90
3
 70
0
 10
306.28
 20
127.28
 10
314.78
 20
127.28
 10
323.28
 20
127.28
  0
LINE
  5
DB
330
17
100
AcDbEntity
  8
KANTEN
370
50
100
AcDbLine
 10
295.3996152422706
 20
183.28
 30
0.0
 11
295.3996152422706
 21
205.48
 31
0.0
  0
LINE
  5
DC
330
17
100
AcDbEntity
  8
KANTEN
370
50
100
AcDbLine
 10
294.28
 20
183.28
 30
0.0
 11
294.28
 21
205.78
 31
0.0
  0
LINE
  5
DD
330
17
100
AcDbEntity
  8
KANTEN
370
50
100
AcDbLine
 10
335.28
 20
183.28
 30
0.0
 11
335.28
 21
205.78
 31
0.0
  0
LINE
  5
DE
330
17
100
AcDbEntity
  8
KANTEN
370
50
100
AcDbLine
 10
334.1603847577293
 20
183.28
 30
0.0
 11
334.1603847577293
 21
205.48
 31
0.0
  0
LWPOLYLINE
  5
DF
330
17
100
AcDbEntity
  8
KANTEN
370
50
100
AcDbPolyline
 90
3
 70
0
 10
323.28
 20
244.28
 10
314.78
 20
244.28
 10
306.28
 20
244.28
  0
LINE
  5
E0
330
17
100
AcDbEntity
  8
DUENN
370
25
100
AcDbLine
 10
348.78
 20
167.7980245558078
 30
0.0
 11
348.2980245558078
 21
168.28
 31
0.0
  0
LINE
  5
E1
330
17
100
AcDbEntity
  8
DUENN
370
25
100
AcDbLine
 10
348.78
 20
164.26249064987508
 30
0.0
 11
344.7624906498751
 21
168.28
 31
0.0
  0
LINE
  5
E2
330
17
100
AcDbEntity
  8
DUENN
370
25
100
AcDbLine
 10
348.72358708246054
 20
160.78336966148174
 30
0.0
 11
341.2269567439423
 21
168.28
 31
0.0
  0
LINE
  5
E3
330
17
100
AcDbEntity
  8
DUENN
370
25
100
AcDbLine
 10
345.19142283800954
 20
160.78
 30
0.0
 11
337.69142283800954
 21
168.28
 31
0.0
  0
LINE
  5
E4
330
17
100
AcDbEntity
  8
DUENN
370
25
100
AcDbLine
 10
341.65588893207683
 20
160.78
 30
0.0
 11
334.15588893207683
 21
168.28
 31
0.0
  0
LINE
  5
E5
330
17
100
AcDbEntity
  8
DUENN
370
25
100
AcDbLine
 10
338.1203550261441
 20
160.78
 30
0.0
 11
330.6203550261441
 21
168.28
 31
0.0
  0
LINE
  5
E6
330
17
100
AcDbEntity
  8
DUENN
370
25
100
AcDbLine
 10
334.33058674157434
 20
161.034234378637
 30
0.0
 11
327.08482112021136
 21
168.28
 31
0.0
  0
LINE
  5
E7
330
17
100
AcDbEntity
  8
DUENN
370
25
100
AcDbLine
 10
332.78
 20
159.04928721427865
 30
0.0
 11
323.54928721427865
 21
168.28
 31
0.0
  0
LINE
  5
E8
330
17
100
AcDbEntity
  8
DUENN
370
25
100
AcDbLine
 10
331.2398093798861
 20
157.0539439284598
 30
0.0
 11
320.0137533083459
 21
168.28
 31
0.0
  0
LINE
  5
E9
330
17
100
AcDbEntity
  8
DUENN
370
25
100
AcDbLine
 10
330.78
 20
153.97821940241317
 30
0.0
 11
316.4782194024132
 21
168.28
 31
0.0
  0
LINE
  5
EA
330
17
100
AcDbEntity
  8
DUENN
370
25
100
AcDbLine
 10
330.78
 20
150.44268549648044
 30
0.0
 11
312.9426854964804
 21
168.28
 31
0.0
  0
LINE
  5
EB
330
17
100
AcDbEntity
  8
DUENN
370
25
100
AcDbLine
 10
330.7799296419781
 20
146.9072219485696
 30
0.0
 11
309.4071515905477
 21
168.28
 31
0.0
  0
LINE
  5
EC
330
17
100
AcDbEntity
  8
DUENN
370
25
100
AcDbLine
 10
329.30093445258586
 20
144.85068323202907
 30
0.0
 11
305.87161768461493
 21
168.28
 31
0.0
  0
LINE
  5
ED
330
17
100
AcDbEntity
  8
DUENN
370
25
100
AcDbLine
 10
325.8360837786822
 20
144.78
 30
0.0
 11
302.3360837786822
 21
168.28
 31
0.0
  0
LINE
  5
EE
330
17
100
AcDbEntity
  8
DUENN
370
25
100
AcDbLine
 10
323.31384468097065
 20
143.7667051917788
 30
0.0
 11
298.80054987274946
 21
168.28
 31
0.0
  0
LINE
  5
EF
330
17
100
AcDbEntity
  8
DUENN
370
25
100
AcDbLine
 10
323.28
 20
140.26501596681675
 30
0.0
 11
295.26501596681675
 21
168.28
 31
0.0
  0
LINE
  5
F0
330
17
100
AcDbEntity
  8
DUENN
370
25
100
AcDbLine
 10
323.28
 20
136.729482060884
 30
0.0
 11
291.729482060884
 21
168.28
 31
0.0
  0
LINE
  5
F1
330
17
100
AcDbEntity
  8
DUENN
370
25
100
AcDbLine
 10
321.1939481549513
 20
135.28
 30
0.0
 11
296.78
 21
159.69394815495127
 31
0.0
  0
LINE
  5
F2
330
17
100
AcDbEntity
  8
DUENN
370
25
100
AcDbLine
 10
295.4028790778882
 20
161.07106907706304
 30
0.0
 11
288.1939481549513
 21
168.28
 31
0.0
  0
LINE
  5
F3
330
17
100
AcDbEntity
  8
DUENN
370
25
100
AcDbLine
 10
317.6584142490185
 20
135.28
 30
0.0
 11
298.78
 21
154.15841424901853
 31
0.0
  0
LINE
  5
F4
330
17
100
AcDbEntity
  8
DUENN
370
25
100
AcDbLine
 10
292.1584142490185
 20
160.78
 30
0.0
 11
284.6584142490185
 21
168.28
 31
0.0
  0
LINE
  5
F5
330
17
100
AcDbEntity
  8
DUENN
370
25
100
AcDbLine
 10
314.12288034308574
 20
135.28
 30
0.0
 11
306.28
 21
143.1228803430858
 31
0.0
  0
LINE
  5
F6
330
17
100
AcDbEntity
  8
DUENN
370
25
100
AcDbLine
 10
305.62288034308574
 20
143.78
 30
0.0
 11
304.78
 21
144.6228803430858
 31
0.0
  0
LINE
  5
F7
330
17
100
AcDbEntity
  8
DUENN
370
25
100
AcDbLine
 10
304.62288034308574
 20
144.78
 30
0.0
 11
298.78
 21
150.6228803430858
 31
0.0
  0
LINE
  5
F8
330
17
100
AcDbEntity
  8
DUENN
370
25
100
AcDbLine
 10
288.6228803430858
 20
160.78
 30
0.0
 11
281.1228803430858
 21
168.28
 31
0.0
  0
LINE
  5
F9
330
17
100
AcDbEntity
  8
DUENN
370
25
100
AcDbLine
 10
310.58734643715303
 20
135.28
 30
0.0
 11
306.28
 21
139.58734643715306
 31
0.0
  0
LINE
  5
FA
330
17
100
AcDbEntity
  8
DUENN
370
25
100
AcDbLine
 10
301.08734643715303
 20
144.78
 30
0.0
 11
298.78
 21
147.08734643715306
 31
0.0
  0
LINE
  5
FB
330
17
100
AcDbEntity
  8
DUENN
370
25
100
AcDbLine
 10
285.08734643715303
 20
160.78
 30
0.0
 11
277.58734643715303
 21
168.28
 31
0.0
  0
LINE
  5
FC
330
17
100
AcDbEntity
  8
DUENN
370
25
100
AcDbLine
 10
307.0518125312203
 20
135.28
 30
0.0
 11
306.28
 21
136.05181253122032
 31
0.0
  0
LINE
  5
FD
330
17
100
AcDbEntity
  8
DUENN
370
25
100
AcDbLine
 10
281.5518125312203
 20
160.78
 30
0.0
 11
274.0518125312203
 21
168.28
 31
0.0
  0
LINE
  5
FE
330
17
100
AcDbEntity
  8
DUENN
370
25
100
AcDbLine
 10
278.01627862528755
 20
160.78
 30
0.0
 11
270.51627862528755
 21
168.28
 31
0.0
  0
LINE
  5
FF
330
17
100
AcDbEntity
  8
DUENN
370
25
100
AcDbLine
 10
274.48074471935485
 20
160.78
 30
0.0
 11
267.78
 21
167.48074471935485
 31
0.0
  0
LINE
  5
100
330
17
100
AcDbEntity
  8
DUENN
370
25
100
AcDbLine
 10
270.9452108134221
 20
160.78
 30
0.0
 11
267.78
 21
163.9452108134221
 31
0.0
  0
LINE
  5
101
330
17
100
AcDbEntity
  8
DUENN
370
25
100
AcDbLine
 10
323.28
 20
127.19779254855239
 30
0.0
 11
323.19779254855234
 21
127.28
 31
0.0
  0
LINE
  5
102
330
17
100
AcDbEntity
  8
DUENN
370
25
100
AcDbLine
 10
323.28
 20
123.66225864261965
 30
0.0
 11
319.66225864261963
 21
127.28
 31
0.0
  0
LINE
  5
103
330
17
100
AcDbEntity
  8
DUENN
370
25
100
AcDbLine
 10
321.12672473668687
 20
122.28
 30
0.0
 11
316.12672473668687
 21
127.28
 31
0.0
  0
LINE
  5
104
330
17
100
AcDbEntity
  8
DUENN
370
25
100
AcDbLine
 10
317.59119083075416
 20
122.28
 30
0.0
 11
312.59119083075416
 21
127.28
 31
0.0
  0
LINE
  5
105
330
17
100
AcDbEntity
  8
DUENN
370
25
100
AcDbLine
 10
314.0556569248214
 20
122.28
 30
0.0
 11
309.0556569248214
 21
127.28
 31
0.0
  0
LINE
  5
106
330
17
100
AcDbEntity
  8
DUENN
370
25
100
AcDbLine
 10
310.5201230188887
 20
122.28
 30
0.0
 11
306.28
 21
126.5201230188887
 31
0.0
  0
LINE
  5
107
330
17
100
AcDbEntity
  8
DUENN
370
25
100
AcDbLine
 10
306.9845891129559
 20
122.28
 30
0.0
 11
306.28
 21
122.98458911295596
 31
0.0
  0
LWPOLYLINE
  5
108
330
17
100
AcDbEntity
  8
KANTEN
370
50
100
AcDbPolyline
 90
36
 70
0
 10
171.11947368421053
 20
218.908601679237
 10
170.84016526109758
 20
219.02852172135158
 10
170.56506571001083
 20
219.15780531936178
 10
170.294488827878
 20
219.2963050037581
 10
170.0287432527685
 20
219.44386279254715
 10
169.7681321118401
 20
219.6003103714565
 10
169.51295267557194
 20
219.76546928592518
 10
169.26349601867793
 20
219.9391511446608
 10
169.0200466880875
 20
220.12115783453143
 10
168.78288237837222
 20
220.31128174654643
 10
168.55227361498913
 20
220.50930601266936
 10
168.32848344570098
 20
220.71500475319195
 10
168.1117671405266
 20
220.92814333438776
 10
167.9023719005628
 20
221.14847863615103
 10
167.70053657601028
 20
221.3757593293156
 10
167.5064913937251
 20
221.60972616233795
 10
167.3204576946066
 20
221.8501122570167
 10
167.1426476811212
 20
222.09664341291165
 10
166.97326417524994
 20
222.3490384201154
 10
166.81250038713645
 20
222.6070093800198
 10
166.6605396946983
 20
222.8702620337126
 10
166.5175554344539
 20
223.13849609762875
 10
166.38371070380356
 20
223.41140560607383
 10
166.25915817498935
 20
223.68867926022904
 10
166.1440399209472
 20
223.97000078323944
 10
166.03848725324886
 20
224.2550492809804
 10
165.94262057231924
 20
224.54349960809085
 10
165.8565492300996
 20
224.835022738856
 10
165.7803714053134
 20
225.12928614251578
 10
165.71417399147714
 20
225.42595416257186
 10
165.6580324977838
 20
225.72468839965975
 10
165.612010962972
 20
226.0251480975498
 10
165.57616188227905
 20
226.32699053183637
 10
165.55052614756153
 20
226.62987140087256
 10
165.53513300065126
 20
226.9334452185031
 10
165.53
 20
227.23736570814953
  0
LWPOLYLINE
  5
109
330
17
100
AcDbEntity
  8
KANTEN
370
50
100
AcDbPolyline
 90
3
 70
0
 10
165.53
 20
235.28
 10
165.53
 20
231.25868285407478
 10
165.53
 20
227.23736570814953
  0
LWPOLYLINE
  5
10A
330
17
100
AcDbEntity
  8
KANTEN
370
50
100
AcDbPolyline
 90
95
 70
0
 10
165.53
 20
235.28
 10
165.52497407357228
 20
235.58073479306907
 10
165.50990190760837
 20
235.8811337037061
 10
165.48480033579654
 20
236.18086122461688
 10
165.44969739339302
 20
236.479582598364
 10
165.40463228591025
 20
236.77696419124817
 10
165.3496553453293
 20
237.07267386593452
 10
165.28482797388534
 20
237.36638135240776
 10
165.21022257548938
 20
237.6577586168416
 10
165.12592247486222
 20
237.9464802279707
 10
165.03202182447126
 20
238.23222372055614
 10
164.92862549937442
 20
238.5146699555376
 10
164.81584898008785
 20
238.79350347647147
 10
164.69381822360907
 20
239.06841286185502
 10
164.56266952273893
 20
239.3390910729449
 10
164.42254935386003
 20
239.60523579668015
 10
164.27361421334126
 20
239.86654978332726
 10
164.11603044275117
 20
240.12274117847036
 10
163.94997404307585
 20
240.37352384897537
 10
163.77563047814806
 20
240.6186177025642
 10
163.59319446750794
 20
240.8577490006422
 10
163.402869768926
 20
241.09065066402923
 10
163.2048689508316
 20
241.31706257125302
 10
162.99941315490136
 20
241.53673184907177
 10
162.78673184907177
 20
241.74941315490136
 10
162.56706257125302
 20
241.9548689508316
 10
162.34065066402923
 20
242.152869768926
 10
162.1077490006422
 20
242.34319446750794
 10
161.8686177025642
 20
242.52563047814806
 10
161.62352384897537
 20
242.69997404307583
 10
161.37274117847036
 20
242.86603044275117
 10
161.11654978332726
 20
243.02361421334126
 10
160.85523579668015
 20
243.17254935386003
 10
160.5890910729449
 20
243.31266952273893
 10
160.31841286185502
 20
243.44381822360907
 10
160.04350347647144
 20
243.56584898008785
 10
159.7646699555376
 20
243.67862549937442
 10
159.48222372055614
 20
243.78202182447126
 10
159.1964802279707
 20
243.87592247486222
 10
158.9077586168416
 20
243.96022257548938
 10
158.61638135240776
 20
244.03482797388534
 10
158.32267386593452
 20
244.09965534532927
 10
158.02696419124817
 20
244.15463228591025
 10
157.729582598364
 20
244.19969739339302
 10
157.43086122461688
 20
244.23480033579654
 10
157.1311337037061
 20
244.25990190760837
 10
156.83073479306907
 20
244.2749740735723
 10
156.53
 20
244.28
 10
156.22926520693093
 20
244.2749740735723
 10
155.9288662962939
 20
244.25990190760837
 10
155.62913877538313
 20
244.23480033579654
 10
155.330417401636
 20
244.19969739339302
 10
155.03303580875183
 20
244.15463228591025
 10
154.73732613406548
 20
244.09965534532927
 10
154.44361864759225
 20
244.03482797388534
 10
154.15224138315844
 20
243.96022257548938
 10
153.8635197720293
 20
243.87592247486222
 10
153.57777627944387
 20
243.78202182447126
 10
153.2953300444624
 20
243.67862549937442
 10
153.01649652352856
 20
243.56584898008788
 10
152.74158713814498
 20
243.44381822360907
 10
152.4709089270551
 20
243.31266952273893
 10
152.20476420331985
 20
243.17254935386006
 10
151.94345021667274
 20
243.02361421334126
 10
151.68725882152964
 20
242.86603044275117
 10
151.43647615102464
 20
242.69997404307583
 10
151.1913822974358
 20
242.52563047814806
 10
150.9522509993578
 20
242.34319446750794
 10
150.71934933597078
 20
242.152869768926
 10
150.49293742874698
 20
241.9548689508316
 10
150.27326815092823
 20
241.74941315490136
 10
150.06058684509864
 20
241.53673184907177
 10
149.8551310491684
 20
241.31706257125302
 10
149.657130231074
 20
241.09065066402923
 10
149.46680553249206
 20
240.8577490006422
 10
149.28436952185194
 20
240.6186177025642
 10
149.11002595692415
 20
240.37352384897537
 10
148.94396955724883
 20
240.12274117847036
 10
148.78638578665874
 20
239.86654978332726
 10
148.63745064613997
 20
239.60523579668015
 10
148.49733047726107
 20
239.3390910729449
 10
148.36618177639093
 20
239.06841286185502
 10
148.24415101991215
 20
238.79350347647144
 10
148.13137450062558
 20
238.5146699555376
 10
148.02797817552874
 20
238.23222372055614
 10
147.93407752513778
 20
237.9464802279707
 10
147.84977742451062
 20
237.6577586168416
 10
147.77517202611466
 20
237.36638135240776
 10
147.71034465467073
 20
237.07267386593452
 10
147.65536771408975
 20
236.77696419124817
 10
147.61030260660698
 20
236.479582598364
 10
147.57519966420347
 20
236.18086122461688
 10
147.55009809239164
 20
235.8811337037061
 10
147.53502592642772
 20
235.58073479306907
 10
147.53
 20
235.28
  0
LWPOLYLINE
  5
10B
330
17
100
AcDbEntity
  8
KANTEN
370
50
100
AcDbPolyline
 90
3
 70
0
 10
147.53
 20
227.23736570814953
 10
147.53
 20
231.25868285407478
 10
147.53
 20
235.28
  0
LWPOLYLINE
  5
10C
330
17
100
AcDbEntity
  8
KANTEN
370
50
100
AcDbPolyline
 90
36
 70
0
 10
141.94052631578947
 20
218.908601679237
 10
142.21983473890242
 20
219.02852172135158
 10
142.49493428998915
 20
219.15780531936178
 10
142.765511172122
 20
219.29630500375808
 10
143.0312567472315
 20
219.44386279254712
 10
143.2918678881599
 20
219.6003103714565
 10
143.54704732442806
 20
219.76546928592515
 10
143.79650398132205
 20
219.9391511446608
 10
144.0399533119125
 20
220.1211578345314
 10
144.27711762162775
 20
220.31128174654643
 10
144.50772638501087
 20
220.50930601266933
 10
144.73151655429902
 20
220.71500475319192
 10
144.9482328594734
 20
220.92814333438776
 10
145.15762809943718
 20
221.14847863615103
 10
145.35946342398972
 20
221.3757593293156
 10
145.5535086062749
 20
221.60972616233795
 10
145.7395423053934
 20
221.8501122570167
 10
145.9173523188788
 20
222.09664341291165
 10
146.08673582475004
 20
222.3490384201154
 10
146.24749961286355
 20
222.60700938001978
 10
146.39946030530172
 20
222.8702620337126
 10
146.5424445655461
 20
223.13849609762875
 10
146.67628929619644
 20
223.41140560607383
 10
146.80084182501065
 20
223.68867926022904
 10
146.9159600790528
 20
223.97000078323944
 10
147.02151274675114
 20
224.25504928098036
 10
147.11737942768076
 20
224.54349960809085
 10
147.2034507699004
 20
224.83502273885597
 10
147.2796285946866
 20
225.12928614251578
 10
147.34582600852286
 20
225.42595416257186
 10
147.4019675022162
 20
225.72468839965973
 10
147.447989037028
 20
226.02514809754976
 10
147.48383811772095
 20
226.32699053183637
 10
147.50947385243848
 20
226.62987140087253
 10
147.52486699934875
 20
226.9334452185031
 10
147.53
 20
227.23736570814953
  0
LWPOLYLINE
  5
10D
330
17
100
AcDbEntity
  8
KANTEN
370
50
100
AcDbPolyline
 90
83
 70
1
 10
160.53
 20
235.28
 10
160.5185441811186
 20
234.97748501646217
 10
160.48424234236757
 20
234.67670281135452
 10
160.42729096157285
 20
234.37937623790924
 10
160.34801625108622
 20
234.08720835581335
 10
160.24687228927027
 20
233.80187267623697
 10
160.12443841957872
 20
233.52500357611294
 10
159.9814159321297
 20
233.25818693657368
 10
159.81862404677923
 20
233.00295105916774
 10
159.63699522070434
 20
232.7607579118869
 10
159.43756980737257
 20
232.532994755146
 10
159.22149009749168
 20
232.3209661956807
 10
158.98999377607183
 20
232.12588671387854
 10
158.74440683307793
 20
231.94887370734494
 10
158.48613596827934
 20
231.79094109055123
 10
158.21666053380073
 20
231.65299348722408
 10
157.93752406052732
 20
231.53582104874292
 10
157.65032541689962
 20
231.4400949282243
 10
157.35670965073982
 20
231.3663634362177
 10
157.05835856656682
 20
231.31504890003225
 10
156.75698109237229
 20
231.2864452446842
 10
156.45430349103592
 20
231.28071630932106
 10
156.1520594724479
 20
231.29789490876576
 10
155.85198026297562
 20
231.33788264555642
 10
155.55578468915604
 20
231.4004504735579
 10
155.2651693324127
 20
231.48524000991753
 10
154.98179881119114
 20
231.59176558784955
 10
154.70729624617505
 20
231.7194170384904
 10
154.44323396319805
 20
231.8674631858909
 10
154.19112448710382
 20
232.03505603512565
 10
153.95241187814048
 20
232.2212356295313
 10
153.7284634605146
 20
232.42493554925144
 10
153.52056199048167
 20
232.64498901959283
 10
153.32989830883466
 20
232.88013559420523
 10
153.15756451987568
 20
233.12902837480397
 10
153.0045477359414
 20
233.3902417260813
 10
152.87172442331317
 20
233.66227944161648
 10
152.75985538189732
 20
233.94358331401043
 10
152.66958138743226
 20
234.2325420601568
 10
152.6014195211832
 20
234.52750055052547
 10
152.55576020814726
 20
234.82676928959492
 10
152.53286498073467
 20
235.12863409312934
 10
152.53286498073467
 20
235.43136590687067
 10
152.55576020814726
 20
235.73323071040508
 10
152.6014195211832
 20
236.03249944947453
 10
152.66958138743226
 20
236.3274579398432
 10
152.7598553818973
 20
236.61641668598958
 10
152.87172442331317
 20
236.89772055838353
 10
153.0045477359414
 20
237.1697582739187
 10
153.15756451987568
 20
237.43097162519604
 10
153.32989830883466
 20
237.67986440579477
 10
153.52056199048167
 20
237.91501098040717
 10
153.7284634605146
 20
238.13506445074856
 10
153.95241187814048
 20
238.3387643704687
 10
154.19112448710382
 20
238.52494396487435
 10
154.44323396319805
 20
238.6925368141091
 10
154.70729624617505
 20
238.8405829615096
 10
154.98179881119114
 20
238.96823441215045
 10
155.2651693324127
 20
239.07475999008247
 10
155.55578468915604
 20
239.1595495264421
 10
155.85198026297562
 20
239.22211735444358
 10
156.1520594724479
 20
239.26210509123425
 10
156.45430349103592
 20
239.27928369067894
 10
156.75698109237229
 20
239.2735547553158
 10
157.05835856656682
 20
239.24495109996775
 10
157.35670965073982
 20
239.1936365637823
 10
157.65032541689962
 20
239.1199050717757
 10
157.93752406052732
 20
239.02417895125708
 10
158.21666053380073
 20
238.90700651277592
 10
158.48613596827934
 20
238.76905890944877
 10
158.74440683307793
 20
238.61112629265506
 10
158.98999377607183
 20
238.43411328612146
 10
159.22149009749168
 20
238.2390338043193
 10
159.43756980737257
 20
238.02700524485402
 10
159.63699522070434
 20
237.7992420881131
 10
159.81862404677923
 20
237.55704894083226
 10
159.9814159321297
 20
237.30181306342632
 10
160.12443841957872
 20
237.03499642388707
 10
160.24687228927027
 20
236.75812732376303
 10
160.34801625108622
 20
236.47279164418666
 10
160.42729096157285
 20
236.18062376209076
 10
160.48424234236757
 20
235.88329718864549
 10
160.5185441811186
 20
235.58251498353783
  0
LWPOLYLINE
  5
10E
330
17
100
AcDbEntity
  8
KANTEN
370
50
100
AcDbPolyline
 90
3
 70
0
 10
165.53
 20
222.78
 10
165.53
 20
221.7466369842448
 10
165.53
 20
220.7132739684896
  0
LWPOLYLINE
  5
10F
330
17
100
AcDbEntity
  8
KANTEN
370
50
100
AcDbPolyline
 90
3
 70
0
 10
147.53
 20
222.78
 10
156.53
 20
222.78
 10
165.53
 20
222.78
  0
LWPOLYLINE
  5
110
330
17
100
AcDbEntity
  8
KANTEN
370
50
100
AcDbPolyline
 90
3
 70
0
 10
147.53
 20
220.7132739684896
 10
147.53
 20
221.7466369842448
 10
147.53
 20
222.78
  0
LWPOLYLINE
  5
111
330
17
100
AcDbEntity
  8
KANTEN
370
50
100
AcDbPolyline
 90
294
 70
1
 10
156.53
 20
221.78
 10
157.4302999414651
 20
221.76947206724714
 10
158.33010750385273
 20
221.73789402677392
 10
159.2289305773703
 20
221.68528314878742
 10
160.12627759064773
 20
221.61166820647134
 10
161.0216577795805
 20
221.51708946024965
 10
161.91458145573128
 20
221.4015986357681
 10
162.50825795581906
 20
221.31301765326657
 10
163.10048128900513
 20
221.21519178323518
 10
163.98577680476487
 20
221.0511714438079
 10
164.86699471445596
 20
220.866493839292
 10
165.74365307507097
 20
220.66125997090302
 10
166.61527243724535
 20
220.43558208219244
 10
167.19331704296042
 20
220.27383285956336
 10
167.76876965958706
 20
220.10309134956958
 10
168.62678280180472
 20
219.83020992889044
 10
169.47818014579573
 20
219.53733899380953
 10
170.3224960575869
 20
219.2246387170806
 10
171.15926877607998
 20
218.89228011623533
 10
171.98804066559134
 20
218.54044496005298
 10
172.53588633395003
 20
218.29516246806048
 10
173.07984136653738
 20
218.04136865462073
 10
173.8881900041484
 20
217.64485471786375
 10
174.6870453504828
 20
217.22954644970255
 10
175.47597050708004
 20
216.79567098455368
 10
176.2545340063559
 20
216.34346561133768
 10
177.0223100475746
 20
215.87317764370442
 10
177.77887872972155
 20
215.3850642847758
 10
178.5238262811495
 20
214.87939248648013
 10
179.25674528587274
 20
214.3564388035544
 10
179.977234906385
 20
213.81648924229503
 10
180.6849011028799
 20
213.2598391041395
 10
181.37935684875333
 20
212.68679282416423
 10
182.0602223422706
 20
212.0976638045874
 10
182.7271252142822
 20
211.49277424336748
 10
183.16378968169315
 20
211.08092169679514
 10
183.59398013243927
 20
210.6623114325824
 10
184.22689871989573
 20
210.0219483452466
 10
184.8446697184075
 20
209.3669599366714
 10
185.44695526555742
 20
208.69770442368372
 10
186.0334259680085
 20
208.01454782586984
 10
186.4154616580622
 20
207.55157146714015
 10
186.7902329302797
 20
207.08269528866882
 10
187.33857026736345
 20
206.36856855850812
 10
187.87005822491543
 20
205.64181456096333
 10
188.38440612919663
 20
204.90283076186375
 10
188.7176431763394
 20
204.40357987540588
 10
189.0430562021613
 20
203.89919436823615
 10
189.51633319471958
 20
203.1332572231093
 10
189.97156977701098
 20
202.35646222047748
 10
190.40851697760047
 20
201.56923419387584
 10
190.82693582761817
 20
200.77200368271863
 10
191.22659749145288
 20
199.96520669683497
 10
191.60728339190354
 20
199.1492844780125
 10
191.85042865643987
 20
198.60048692194016
 10
192.0849883968558
 20
198.0479653337706
 10
192.3109055974698
 20
197.4918540178597
 10
192.52812534338847
 20
196.9322881511376
 10
192.8375323143103
 20
196.08675982617441
 10
193.12708249257614
 20
195.23422741257576
 10
193.39661752157275
 20
194.3751571650908
 10
193.64598999108404
 20
193.51001891404653
 10
193.87506351791058
 20
192.6392858083951
 10
194.08371282045823
 20
191.76343405694598
 10
194.27182378725558
 20
190.88294266792468
 10
194.43929353936187
 20
189.99829318700043
 10
194.5860304866323
 20
189.1099694339262
 10
194.6722967949992
 20
188.51595217722556
 10
194.74929165277507
 20
187.92066218982993
 10
194.84735964668369
 20
187.0256574465236
 10
194.92447166211812
 20
186.12860418219324
 10
194.98058552608552
 20
185.22999300029045
 10
195.01567054959963
 20
184.3303153563006
 10
195.0297075444646
 20
183.4300632889632
 10
195.02268883376945
 20
182.5297291511731
 10
194.99461825608634
 20
181.62980534070985
 10
194.9455111633713
 20
180.73078403094283
 10
194.9010989383989
 20
180.1321807136363
 10
194.84735964668369
 20
179.53434255347642
 10
194.74929165277507
 20
178.63933781017005
 10
194.63032131432715
 20
177.7468710709917
 10
194.4905136968839
 20
176.85743043099654
 10
194.32994526201395
 20
175.97150233024936
 10
194.14870382549304
 20
175.08957128778746
 10
193.94688850927736
 20
174.2121196366346
 10
193.72460968729303
 20
173.33962726001042
 10
193.56511476542127
 20
172.76095658759428
 10
193.39661752157275
 20
172.1848428349092
 10
193.12708249257614
 20
171.32577258742424
 10
192.8375323143103
 20
170.4732401738256
 10
192.52812534338847
 20
169.6277118488624
 10
192.3109055974698
 20
169.06814598214032
 10
192.0849883968558
 20
168.5120346662294
 10
191.72992556952013
 20
167.68464043696835
 10
191.35561170585711
 20
166.86577539714813
 10
191.09547477347357
 20
166.3248251650311
 10
190.82693582761817
 20
165.78799631728137
 10
190.40851697760047
 20
164.99076580612416
 10
189.97156977701098
 20
164.20353777952252
 10
189.51633319471958
 20
163.4267427768907
 10
189.0430562021613
 20
162.66080563176388
 10
188.55199763717255
 20
161.90614523945396
 10
188.04342606243125
 20
161.1631743279539
 10
187.51761961857844
 20
160.4322992322139
 10
187.157648687018
 20
159.95196673732215
 10
186.7902329302797
 20
159.47730471133121
 10
186.22534610242317
 20
158.77619580846067
 10
185.64421872356203
 20
158.08848817326378
 10
185.04716861551265
 20
157.41455791689575
 10
184.4345223083211
 20
156.75477361558606
 10
183.8066148616822
 20
156.10949610906235
 10
183.16378968169315
 20
155.47907830320483
 10
182.5063983330432
 20
154.8638649770404
 10
181.8348003467407
 20
154.26419259418083
 10
181.14936302348363
 20
153.6803891188089
 10
180.4504612327809
 20
153.11277383631327
 10
179.73847720793395
 20
152.56165717866912
 10
179.25674528587274
 20
152.2035611964456
 10
178.76948905317167
 20
151.85301912919635
 10
178.02850606918156
 20
151.34155550448077
 10
177.52796010120127
 20
151.01026694271613
 10
177.0223100475746
 20
150.68682235629558
 10
176.2545340063559
 20
150.2165343886623
 10
175.47597050708004
 20
149.76432901544632
 10
174.6870453504828
 20
149.33045355029745
 10
173.88819000414838
 20
148.91514528213625
 10
173.07984136653738
 20
148.51863134537928
 10
172.2624415280444
 20
148.14112859571804
 10
171.43643752921662
 20
147.78284349151946
 10
170.60228111626455
 20
147.44397198091252
 10
169.76042849399968
 20
147.12469939462318
 10
168.91134007633346
 20
146.8252003446161
 10
168.34149040880249
 20
146.63660094474358
 10
167.76876965958706
 20
146.45690865043042
 10
166.90460997133297
 20
146.2041659845295
 10
166.03477635081316
 20
145.97170029978554
 10
165.15974451490362
 20
145.75963873298272
 10
164.27999302341343
 20
145.56809726177897
 10
163.39600301735774
 20
145.39718064127703
 10
162.5082579558191
 20
145.24698234673343
 10
161.61724335154076
 20
145.11758452243615
 10
161.0216577795805
 20
145.04291053975035
 10
160.42498039651613
 20
144.97753104941205
 10
159.8273562398872
 20
144.92146194356104
 10
159.22893057737033
 20
144.87471685121258
 10
158.33010750385276
 20
144.8221059732261
 10
157.4302999414651
 20
144.79052793275287
 10
156.53
 20
144.78
 10
155.62970005853492
 20
144.79052793275287
 10
154.72989249614727
 20
144.8221059732261
 10
153.83106942262967
 20
144.87471685121258
 10
152.93372240935227
 20
144.94833179352867
 10
152.03834222041954
 20
145.04291053975035
 10
151.1454185442687
 20
145.1584013642319
 10
150.55174204418094
 20
145.24698234673343
 10
149.95951871099487
 20
145.34480821676482
 10
149.07422319523516
 20
145.5088285561921
 10
148.19300528554405
 20
145.69350616070804
 10
147.31634692492904
 20
145.89874002909698
 10
146.73467797633273
 20
146.04692778654092
 10
146.15539002866703
 20
146.2041659845295
 10
145.29123034041294
 20
146.45690865043042
 10
144.43321719819528
 20
146.72979007110956
 10
143.58181985420427
 20
147.02266100619048
 10
142.7375039424131
 20
147.3353612829194
 10
141.90073122392002
 20
147.66771988376465
 10
141.07195933440866
 20
148.01955503994702
 10
140.25164153386447
 20
148.39067433085023
 10
139.70968146279253
 20
148.64870079961085
 10
139.1718099958516
 20
148.91514528213625
 10
138.3729546495172
 20
149.33045355029745
 10
137.58402949291997
 20
149.76432901544632
 10
136.80546599364413
 20
150.2165343886623
 10
136.0376899524254
 20
150.68682235629558
 10
135.53203989879876
 20
151.0102669427161
 10
135.03149393081844
 20
151.34155550448077
 10
134.29051094682833
 20
151.85301912919635
 10
133.5616908638881
 20
152.38167034566433
 10
133.082765093615
 20
152.74351075770497
 10
132.6095387672191
 20
153.11277383631327
 10
131.91063697651637
 20
153.6803891188089
 10
131.22519965325932
 20
154.2641925941808
 10
130.5536016669568
 20
154.8638649770404
 10
129.89621031830683
 20
155.47907830320486
 10
129.2533851383178
 20
156.10949610906235
 10
128.6254776916789
 20
156.75477361558606
 10
128.01283138448736
 20
157.41455791689572
 10
127.41578127643798
 20
158.08848817326378
 10
126.83465389757681
 20
158.77619580846067
 10
126.2697670697203
 20
159.47730471133121
 10
125.72142973263655
 20
160.1914314414919
 10
125.36521414012148
 20
160.67455547201257
 10
125.01657393756872
 20
161.1631743279539
 10
124.50800236282744
 20
161.906145239454
 10
124.0169437978387
 20
162.66080563176385
 10
123.54366680528042
 20
163.4267427768907
 10
123.08843022298902
 20
164.2035377795225
 10
122.79508497730362
 20
164.72722370071116
 10
122.50993985652175
 20
165.2554193437372
 10
122.09774847978598
 20
166.05588738864267
 10
121.7043882941429
 20
166.8657753971481
 10
121.3300744304799
 20
167.68464043696832
 10
120.9750116031442
 20
168.51203466622943
 10
120.63939399798365
 20
169.34750557839598
 10
120.32340516614511
 20
170.19059624974952
 10
120.02721792368945
 20
171.0408455892827
 10
119.75099425707751
 20
171.89778859087238
 10
119.57801107492804
 20
172.47257132887944
 10
119.41401000891597
 20
173.04998108595348
 10
119.18493648208944
 20
173.9207141916049
 10
118.97628717954177
 20
174.79656594305396
 10
118.78817621274443
 20
175.67705733207532
 10
118.62070646063813
 20
176.5617068129996
 10
118.4739695133677
 20
177.45003056607382
 10
118.34804562219101
 20
178.34154276206496
 10
118.27569364907941
 20
178.93741487015888
 10
118.21264035331632
 20
179.53434255347642
 10
118.13552833788188
 20
180.43139581780676
 10
118.07941447391447
 20
181.33000699970955
 10
118.04432945040038
 20
182.22968464369941
 10
118.03029245553539
 20
183.12993671103678
 10
118.03731116623054
 20
184.03027084882692
 10
118.06538174391366
 20
184.93019465929018
 10
118.11448883662871
 20
185.82921596905717
 10
118.15890106160111
 20
186.42781928636373
 10
118.21264035331632
 20
187.02565744652358
 10
118.31070834722493
 20
187.92066218982995
 10
118.42967868567285
 20
188.81312892900831
 10
118.5694863031161
 20
189.70256956900346
 10
118.73005473798607
 20
190.58849766975064
 10
118.91129617450696
 20
191.47042871221254
 10
119.11311149072264
 20
192.34788036336542
 10
119.33539031270698
 20
193.2203727399896
 10
119.49488523457875
 20
193.79904341240575
 10
119.66338247842725
 20
194.3751571650908
 10
119.93291750742388
 20
195.23422741257576
 10
120.22246768568972
 20
196.08675982617441
 10
120.53187465661154
 20
196.9322881511376
 10
120.86096920378498
 20
197.77034996329158
 10
121.2095713435601
 20
198.60048692194016
 10
121.45271660809647
 20
199.14928447801248
 10
121.70438829414289
 20
199.69422460285188
 10
122.09774847978596
 20
200.50411261135733
 10
122.50993985652175
 20
201.3045806562628
 10
122.94073699457903
 20
202.09519095711386
 10
123.3899042885916
 20
202.87551112471144
 10
123.85719608645209
 20
203.64511439758806
 10
124.3423568236606
 20
204.40357987540585
 10
124.84512116309422
 20
205.1504927491495
 10
125.36521414012148
 20
205.8854445279874
 10
125.90235131298199
 20
206.60803326267785
 10
126.26976706972029
 20
207.0826952886688
 10
126.64453834193776
 20
207.55157146714015
 10
127.02657403199152
 20
208.01454782586984
 10
127.41578127643797
 20
208.47151182673622
 10
128.01283138448736
 20
209.14544208310426
 10
128.6254776916789
 20
209.80522638441394
 10
129.2533851383178
 20
210.45050389093765
 10
129.89621031830683
 20
211.08092169679514
 10
130.3328747857178
 20
211.49277424336748
 10
130.77590712744313
 20
211.89776896111428
 10
131.45215941519444
 20
212.49218772367246
 10
132.14212691433607
 20
213.07063017724784
 10
132.84543227778065
 20
213.6327799684247
 10
133.5616908638881
 20
214.17832965433564
 10
134.29051094682833
 20
214.70698087080365
 10
135.0314939308184
 20
215.21844449551924
 10
135.78423456811674
 20
215.71244080616316
 10
136.54832118065525
 20
216.18869963338796
 10
137.32333588518856
 20
216.64696050857515
 10
138.10885482183647
 20
217.08697280628692
 10
138.90444838589565
 20
217.50849588133465
 10
139.7096814627925
 20
217.91129920038915
 10
140.25164153386447
 20
218.16932566914977
 10
140.79755847195557
 20
218.41887140428196
 10
141.62356247078338
 20
218.77715650848054
 10
142.45771888373545
 20
219.11602801908748
 10
143.2995715060003
 20
219.43530060537682
 10
143.86485506008594
 20
219.63717403279537
 10
144.43321719819528
 20
219.83020992889044
 10
145.29123034041294
 20
220.10309134956958
 10
146.15539002866703
 20
220.3558340154705
 10
147.0252236491868
 20
220.58829970021446
 10
147.9002554850964
 20
220.80036126701728
 10
148.78000697658658
 20
220.99190273822103
 10
149.6639969826423
 20
221.16281935872297
 10
150.5517420441809
 20
221.31301765326657
 10
151.1454185442687
 20
221.4015986357681
 10
151.74040390315935
 20
221.48091319889
 10
152.63501960348387
 20
221.58246895058795
 10
153.5317654903896
 20
221.6630768676168
 10
154.13053736820774
 20
221.70515555048064
 10
154.72989249614727
 20
221.73789402677392
 10
155.6297000585349
 20
221.76947206724714
  0
LWPOLYLINE
  5
112
330
17
100
AcDbEntity
  8
KANTEN
370
50
100
AcDbPolyline
 90
36
 70
0
 10
141.94052631578947
 20
147.651398320763
 10
142.21983473890242
 20
147.53147827864842
 10
142.49493428998917
 20
147.40219468063822
 10
142.765511172122
 20
147.2636949962419
 10
143.0312567472315
 20
147.11613720745285
 10
143.2918678881599
 20
146.95968962854352
 10
143.54704732442806
 20
146.79453071407482
 10
143.79650398132208
 20
146.6208488553392
 10
144.03995331191254
 20
146.43884216546857
 10
144.27711762162778
 20
146.24871825345357
 10
144.50772638501087
 20
146.05069398733065
 10
144.73151655429902
 20
145.84499524680805
 10
144.9482328594734
 20
145.63185666561225
 10
145.1576280994372
 20
145.41152136384898
 10
145.35946342398972
 20
145.1842406706844
 10
145.5535086062749
 20
144.95027383766205
 10
145.7395423053934
 20
144.7098877429833
 10
145.91735231887884
 20
144.46335658708836
 10
146.08673582475006
 20
144.2109615798846
 10
146.24749961286355
 20
143.9529906199802
 10
146.39946030530172
 20
143.6897379662874
 10
146.5424445655461
 20
143.42150390237126
 10
146.67628929619644
 20
143.14859439392617
 10
146.80084182501065
 20
142.87132073977097
 10
146.9159600790528
 20
142.58999921676056
 10
147.02151274675114
 20
142.30495071901962
 10
147.11737942768076
 20
142.01650039190915
 10
147.2034507699004
 20
141.724977261144
 10
147.2796285946866
 20
141.43071385748422
 10
147.34582600852286
 20
141.13404583742812
 10
147.4019675022162
 20
140.83531160034025
 10
147.447989037028
 20
140.5348519024502
 10
147.48383811772095
 20
140.23300946816363
 10
147.50947385243848
 20
139.93012859912744
 10
147.52486699934875
 20
139.6265547814969
 10
147.53
 20
139.32263429185048
  0
LWPOLYLINE
  5
113
330
17
100
AcDbEntity
  8
KANTEN
370
50
100
AcDbPolyline
 90
3
 70
0
 10
165.53
 20
131.28
 10
165.53
 20
135.30131714592522
 10
165.53
 20
139.32263429185048
  0
LWPOLYLINE
  5
114
330
17
100
AcDbEntity
  8
KANTEN
370
50
100
AcDbPolyline
 90
36
 70
0
 10
171.11947368421053
 20
147.651398320763
 10
170.84016526109758
 20
147.53147827864842
 10
170.56506571001083
 20
147.40219468063822
 10
170.294488827878
 20
147.2636949962419
 10
170.0287432527685
 20
147.11613720745285
 10
169.7681321118401
 20
146.95968962854352
 10
169.51295267557194
 20
146.79453071407482
 10
169.26349601867793
 20
146.6208488553392
 10
169.0200466880875
 20
146.43884216546857
 10
168.78288237837222
 20
146.24871825345357
 10
168.55227361498913
 20
146.05069398733065
 10
168.32848344570098
 20
145.84499524680808
 10
168.1117671405266
 20
145.63185666561225
 10
167.9023719005628
 20
145.41152136384898
 10
167.70053657601028
 20
145.1842406706844
 10
167.5064913937251
 20
144.95027383766205
 10
167.3204576946066
 20
144.7098877429833
 10
167.1426476811212
 20
144.46335658708836
 10
166.97326417524994
 20
144.2109615798846
 10
166.81250038713645
 20
143.9529906199802
 10
166.6605396946983
 20
143.6897379662874
 10
166.5175554344539
 20
143.42150390237126
 10
166.38371070380356
 20
143.14859439392617
 10
166.25915817498935
 20
142.87132073977097
 10
166.1440399209472
 20
142.58999921676056
 10
166.03848725324886
 20
142.30495071901962
 10
165.94262057231924
 20
142.01650039190915
 10
165.8565492300996
 20
141.724977261144
 10
165.7803714053134
 20
141.43071385748422
 10
165.71417399147714
 20
141.13404583742815
 10
165.6580324977838
 20
140.83531160034025
 10
165.612010962972
 20
140.5348519024502
 10
165.57616188227905
 20
140.23300946816363
 10
165.55052614756153
 20
139.93012859912744
 10
165.53513300065126
 20
139.6265547814969
 10
165.53
 20
139.32263429185048
  0
LWPOLYLINE
  5
115
330
17
100
AcDbEntity
  8
KANTEN
370
50
100
AcDbPolyline
 90
95
 70
0
 10
165.53
 20
131.28
 10
165.52497407357228
 20
130.97926520693093
 10
165.50990190760837
 20
130.6788662962939
 10
165.48480033579654
 20
130.37913877538313
 10
165.44969739339302
 20
130.080417401636
 10
165.40463228591025
 20
129.78303580875183
 10
165.3496553453293
 20
129.48732613406548
 10
165.28482797388534
 20
129.19361864759225
 10
165.21022257548938
 20
128.9022413831584
 10
165.12592247486222
 20
128.6135197720293
 10
165.03202182447126
 20
128.32777627944387
 10
164.92862549937442
 20
128.0453300444624
 10
164.81584898008785
 20
127.76649652352855
 10
164.69381822360907
 20
127.49158713814498
 10
164.56266952273893
 20
127.22090892705509
 10
164.42254935386003
 20
126.95476420331985
 10
164.27361421334126
 20
126.69345021667274
 10
164.11603044275117
 20
126.43725882152964
 10
163.94997404307585
 20
126.18647615102464
 10
163.77563047814806
 20
125.94138229743581
 10
163.59319446750794
 20
125.7022509993578
 10
163.402869768926
 20
125.46934933597078
 10
163.2048689508316
 20
125.24293742874698
 10
162.99941315490136
 20
125.02326815092822
 10
162.78673184907177
 20
124.81058684509864
 10
162.56706257125302
 20
124.60513104916839
 10
162.34065066402923
 20
124.407130231074
 10
162.1077490006422
 20
124.21680553249206
 10
161.8686177025642
 20
124.03436952185194
 10
161.62352384897537
 20
123.86002595692416
 10
161.37274117847036
 20
123.69396955724883
 10
161.11654978332726
 20
123.53638578665874
 10
160.85523579668015
 20
123.38745064613997
 10
160.5890910729449
 20
123.24733047726107
 10
160.31841286185502
 20
123.11618177639093
 10
160.04350347647144
 20
122.99415101991215
 10
159.7646699555376
 20
122.88137450062558
 10
159.48222372055614
 20
122.77797817552873
 10
159.1964802279707
 20
122.68407752513778
 10
158.9077586168416
 20
122.59977742451062
 10
158.61638135240776
 20
122.52517202611466
 10
158.32267386593452
 20
122.46034465467072
 10
158.02696419124817
 20
122.40536771408975
 10
157.729582598364
 20
122.36030260660698
 10
157.43086122461688
 20
122.32519966420347
 10
157.1311337037061
 20
122.30009809239162
 10
156.83073479306907
 20
122.2850259264277
 10
156.53
 20
122.28
 10
156.22926520693093
 20
122.2850259264277
 10
155.9288662962939
 20
122.30009809239162
 10
155.62913877538313
 20
122.32519966420347
 10
155.330417401636
 20
122.36030260660698
 10
155.03303580875183
 20
122.40536771408975
 10
154.73732613406548
 20
122.46034465467072
 10
154.44361864759225
 20
122.52517202611466
 10
154.15224138315844
 20
122.59977742451062
 10
153.8635197720293
 20
122.68407752513778
 10
153.57777627944387
 20
122.77797817552873
 10
153.2953300444624
 20
122.88137450062558
 10
153.01649652352856
 20
122.99415101991214
 10
152.74158713814498
 20
123.11618177639093
 10
152.4709089270551
 20
123.24733047726107
 10
152.20476420331985
 20
123.38745064613995
 10
151.94345021667274
 20
123.53638578665874
 10
151.68725882152964
 20
123.69396955724883
 10
151.43647615102464
 20
123.86002595692416
 10
151.1913822974358
 20
124.03436952185194
 10
150.9522509993578
 20
124.21680553249206
 10
150.71934933597078
 20
124.407130231074
 10
150.49293742874698
 20
124.60513104916839
 10
150.27326815092823
 20
124.81058684509864
 10
150.06058684509864
 20
125.02326815092822
 10
149.8551310491684
 20
125.24293742874698
 10
149.657130231074
 20
125.46934933597078
 10
149.46680553249206
 20
125.7022509993578
 10
149.28436952185194
 20
125.94138229743581
 10
149.11002595692415
 20
126.18647615102464
 10
148.94396955724883
 20
126.43725882152964
 10
148.78638578665874
 20
126.69345021667274
 10
148.63745064613997
 20
126.95476420331985
 10
148.49733047726107
 20
127.22090892705509
 10
148.36618177639093
 20
127.49158713814498
 10
148.24415101991215
 20
127.76649652352856
 10
148.13137450062558
 20
128.0453300444624
 10
148.02797817552874
 20
128.32777627944387
 10
147.93407752513778
 20
128.6135197720293
 10
147.84977742451062
 20
128.9022413831584
 10
147.77517202611466
 20
129.19361864759225
 10
147.71034465467073
 20
129.48732613406548
 10
147.65536771408975
 20
129.78303580875183
 10
147.61030260660698
 20
130.080417401636
 10
147.57519966420347
 20
130.37913877538313
 10
147.55009809239164
 20
130.6788662962939
 10
147.53502592642772
 20
130.97926520693093
 10
147.53
 20
131.28
  0
LWPOLYLINE
  5
116
330
17
100
AcDbEntity
  8
KANTEN
370
50
100
AcDbPolyline
 90
3
 70
0
 10
147.53
 20
139.32263429185048
 10
147.53
 20
135.30131714592522
 10
147.53
 20
131.28
  0
LWPOLYLINE
  5
117
330
17
100
AcDbEntity
  8
KANTEN
370
50
100
AcDbPolyline
 90
83
 70
1
 10
160.53
 20
131.28
 10
160.5185441811186
 20
130.97748501646217
 10
160.48424234236757
 20
130.67670281135452
 10
160.42729096157285
 20
130.37937623790924
 10
160.34801625108622
 20
130.08720835581335
 10
160.24687228927027
 20
129.80187267623697
 10
160.12443841957872
 20
129.52500357611294
 10
159.9814159321297
 20
129.25818693657368
 10
159.81862404677923
 20
129.00295105916774
 10
159.63699522070434
 20
128.7607579118869
 10
159.43756980737257
 20
128.532994755146
 10
159.22149009749168
 20
128.3209661956807
 10
158.98999377607183
 20
128.12588671387854
 10
158.74440683307793
 20
127.94887370734496
 10
158.48613596827934
 20
127.79094109055123
 10
158.21666053380073
 20
127.65299348722408
 10
157.93752406052732
 20
127.53582104874292
 10
157.65032541689962
 20
127.44009492822431
 10
157.35670965073982
 20
127.36636343621771
 10
157.05835856656682
 20
127.31504890003225
 10
156.75698109237229
 20
127.28644524468419
 10
156.45430349103592
 20
127.28071630932105
 10
156.1520594724479
 20
127.29789490876576
 10
155.85198026297562
 20
127.3378826455564
 10
155.55578468915604
 20
127.4004504735579
 10
155.2651693324127
 20
127.48524000991753
 10
154.98179881119114
 20
127.59176558784955
 10
154.70729624617505
 20
127.7194170384904
 10
154.44323396319805
 20
127.8674631858909
 10
154.19112448710382
 20
128.03505603512565
 10
153.95241187814048
 20
128.2212356295313
 10
153.7284634605146
 20
128.42493554925144
 10
153.52056199048167
 20
128.64498901959283
 10
153.32989830883466
 20
128.88013559420523
 10
153.15756451987568
 20
129.12902837480397
 10
153.0045477359414
 20
129.3902417260813
 10
152.87172442331317
 20
129.66227944161648
 10
152.75985538189732
 20
129.94358331401043
 10
152.66958138743226
 20
130.2325420601568
 10
152.6014195211832
 20
130.52750055052547
 10
152.55576020814726
 20
130.82676928959492
 10
152.53286498073467
 20
131.12863409312934
 10
152.53286498073467
 20
131.43136590687067
 10
152.55576020814726
 20
131.73323071040508
 10
152.6014195211832
 20
132.03249944947453
 10
152.66958138743226
 20
132.3274579398432
 10
152.7598553818973
 20
132.61641668598958
 10
152.87172442331317
 20
132.89772055838353
 10
153.0045477359414
 20
133.1697582739187
 10
153.15756451987568
 20
133.43097162519604
 10
153.32989830883466
 20
133.67986440579477
 10
153.52056199048167
 20
133.91501098040717
 10
153.7284634605146
 20
134.13506445074856
 10
153.95241187814048
 20
134.3387643704687
 10
154.19112448710382
 20
134.52494396487435
 10
154.44323396319805
 20
134.6925368141091
 10
154.70729624617505
 20
134.8405829615096
 10
154.98179881119114
 20
134.96823441215045
 10
155.2651693324127
 20
135.07475999008247
 10
155.55578468915604
 20
135.1595495264421
 10
155.85198026297562
 20
135.22211735444358
 10
156.1520594724479
 20
135.26210509123425
 10
156.45430349103592
 20
135.27928369067894
 10
156.75698109237229
 20
135.2735547553158
 10
157.05835856656682
 20
135.24495109996775
 10
157.35670965073982
 20
135.1936365637823
 10
157.65032541689962
 20
135.1199050717757
 10
157.93752406052732
 20
135.02417895125708
 10
158.21666053380073
 20
134.90700651277592
 10
158.48613596827934
 20
134.76905890944877
 10
158.74440683307793
 20
134.61112629265506
 10
158.98999377607183
 20
134.43411328612146
 10
159.22149009749168
 20
134.2390338043193
 10
159.43756980737257
 20
134.02700524485402
 10
159.63699522070434
 20
133.7992420881131
 10
159.81862404677923
 20
133.55704894083226
 10
159.9814159321297
 20
133.30181306342632
 10
160.12443841957872
 20
133.03499642388707
 10
160.24687228927027
 20
132.75812732376303
 10
160.34801625108622
 20
132.47279164418666
 10
160.42729096157285
 20
132.18062376209076
 10
160.48424234236757
 20
131.88329718864549
 10
160.5185441811186
 20
131.58251498353783
  0
LWPOLYLINE
  5
118
330
17
100
AcDbEntity
  8
KANTEN
370
50
100
AcDbPolyline
 90
3
 70
0
 10
147.53
 20
145.8467260315104
 10
147.53
 20
144.81336301575521
 10
147.53
 20
143.78
  0
LWPOLYLINE
  5
119
330
17
100
AcDbEntity
  8
KANTEN
370
50
100
AcDbPolyline
 90
3
 70
0
 10
165.53
 20
143.78
 10
165.53
 20
144.81336301575521
 10
165.53
 20
145.8467260315104
  0
LWPOLYLINE
  5
11A
330
17
100
AcDbEntity
  8
KANTEN
370
50
100
AcDbPolyline
 90
3
 70
0
 10
147.53
 20
143.78
 10
156.53
 20
143.78
 10
165.53
 20
143.78
  0
LWPOLYLINE
  5
11B
330
17
100
AcDbEntity
  8
KANTEN
370
50
100
AcDbPolyline
 90
256
 70
1
 10
156.53
 20
208.78
 10
157.13002411183263
 20
208.7729396316945
 10
158.02933349303567
 20
208.73588338825942
 10
158.6279043939879
 20
208.6935553819942
 10
159.22531357119962
 20
208.63715450820354
 10
159.82123020672418
 20
208.56671199911816
 10
160.41532430911636
 20
208.4822668625858
 10
161.00726689616667
 20
208.38386586047037
 10
161.5967301770767
 20
208.27156348275756
 10
162.18338773397454
 20
208.1454219173805
 10
162.7669147026704
 20
208.00551101578316
 10
163.34698795255127
 20
207.85190825423965
 10
163.9232862655161
 20
207.6846986909515
 10
164.49549051385176
 20
207.50397491894626
 10
165.06328383695114
 20
207.30983701480366
 10
165.6263518167765
 20
207.10239248323785
 10
166.18438265196943
 20
206.88175619756615
 10
166.73706733051256
 20
206.64805033609744
 10
167.28409980084606
 20
206.40140431447543
 10
167.8251771413452
 20
206.14195471401413
 10
168.35999972806442
 20
205.8698452060654
 10
168.88827140065547
 20
205.58522647246025
 10
169.667757061988
 20
205.13519021606047
 10
170.17837995197854
 20
204.82000289429948
 10
170.68144499183302
 20
204.4928877016573
 10
171.1766736070838
 20
204.1540257796036
 10
171.6637915627176
 20
203.80360477441081
 10
172.1425291150344
 20
203.4418187332444
 10
172.8443435795633
 20
202.878270167746
 10
173.30098081001518
 20
202.4889615198246
 10
173.74833103643857
 20
202.08901582538587
 10
174.18614653668757
 20
201.6786545561086
 10
174.61418486851267
 20
201.25810495134175
 10
175.03220900381405
 20
200.82759989226966
 10
175.43998745989722
 20
200.3873777729531
 10
175.8372944276573
 20
199.9376823683174
 10
176.22390989662193
 20
199.47876269916122
 10
176.59961977678293
 20
199.01087289426
 10
176.9642160171498
 20
198.53427204964103
 10
177.48983236429578
 20
197.8036161909016
 10
177.8257749434891
 20
197.30640258784345
 10
178.14992489409795
 20
196.80142180296008
 10
178.46210271666837
 20
196.28895347157135
 10
178.76213554136473
 20
195.76928137525883
 10
179.0498572236972
 20
195.24269328472036
 10
179.32510843652477
 20
194.70948080041597
 10
179.58773675828365
 20
194.1699391910926
 10
179.83759675739117
 20
193.62436723027795
 10
180.0745500727792
 20
193.07306703083324
 10
180.2984654905122
 20
192.5163438776569
 10
180.5092190164476
 20
191.95450605863175
 10
180.7066939448979
 20
191.38786469390914
 10
180.89078092325715
 20
190.81673356362495
 10
181.0613780125554
 20
190.24142893414233
 10
181.21839074390772
 20
189.66226938291797
 10
181.3617321708269
 20
189.0795756220882
 10
181.49132291737044
 20
188.49367032087355
 10
181.65977162528037
 20
187.60950090209639
 10
181.75468846803923
 20
187.01698965617624
 10
181.8356370291529
 20
186.42240903587754
 10
181.9025724830014
 20
185.82608829282123
 10
181.9554577637841
 20
185.2283576422288
 10
181.99426358604535
 20
184.62954808006415
 10
182.01896846089122
 20
184.02999119974336
 10
182.02955870788915
 20
183.43001900851309
 10
182.02602846264347
 20
182.82996374360022
 10
182.00837968004296
 20
182.2301576882341
 10
181.97662213317824
 20
181.63093298764318
 10
181.9025724830014
 20
180.73391170717878
 10
181.8356370291529
 20
180.13759096412247
 10
181.75468846803923
 20
179.54301034382377
 10
181.65977162528037
 20
178.95049909790364
 10
181.55093906149344
 20
178.36038533205783
 10
181.42825104318698
 20
177.7729958243671
 10
181.29177550938812
 20
177.18865584434224
 10
181.14158803402105
 20
176.60768897280477
 10
180.97777178405764
 20
176.03041692270267
 10
180.80041747346326
 20
175.45715936096036
 10
180.60962331296366
 20
174.88823373146175
 10
180.40549495566037
 20
174.32395507926427
 10
180.18814543852466
 20
173.7646358761414
 10
179.95769511980293
 20
173.21058584754994
 10
179.7142716123679
 20
172.66211180111821
 10
179.45800971305218
 20
172.11951745675012
 10
179.0498572236972
 20
171.31730671527964
 10
178.76213554136473
 20
170.79071862474117
 10
178.46210271666837
 20
170.27104652842866
 10
178.14992489409795
 20
169.75857819703992
 10
177.8257749434891
 20
169.25359741215655
 10
177.48983236429578
 20
168.7563838090984
 10
177.14228318619155
 20
168.2672127220744
 10
176.78331986605502
 20
167.7863550317151
 10
176.41314118139587
 20
167.31407701507112
 10
176.0319521202809
 20
166.85064019816136
 10
175.6399637678212
 20
166.39630121115158
 10
175.2373931892826
 20
165.95131164624445
 10
174.61418486851267
 20
165.30189504865828
 10
174.1861465366876
 20
164.88134544389143
 10
173.74833103643857
 20
164.47098417461413
 10
173.30098081001518
 20
164.0710384801754
 10
172.6126211610192
 20
163.4911320032919
 10
172.1425291150344
 20
163.1181812667556
 10
171.6637915627176
 20
162.7563952255892
 10
171.1766736070838
 20
162.40597422039642
 10
170.68144499183305
 20
162.0671122983427
 10
170.17837995197854
 20
161.73999710570052
 10
169.667757061988
 20
161.42480978393954
 10
169.14985908152167
 20
161.12172486941876
 10
168.6249727988531
 20
160.83091019673617
 10
167.82517714134522
 20
160.41804528598587
 10
167.28409980084606
 20
160.15859568552457
 10
166.73706733051256
 20
159.91194966390256
 10
166.18438265196943
 20
159.67824380243385
 10
165.6263518167765
 20
159.45760751676215
 10
165.06328383695117
 20
159.25016298519634
 10
164.49549051385176
 20
159.05602508105375
 10
163.92328626551614
 20
158.8753013090485
 10
163.34698795255127
 20
158.70809174576036
 10
162.7669147026704
 20
158.55448898421685
 10
162.18338773397454
 20
158.4145780826195
 10
161.30232888530637
 20
158.23055136314434
 10
160.71158505903847
 20
158.12519238010304
 10
160.1185256617417
 20
158.0337629818814
 10
159.52347910265314
 20
157.9563137979089
 10
158.92677489140934
 20
157.89288771601014
 10
158.32874345557894
 20
157.84351985865553
 10
157.7297159576871
 20
157.8082375635122
 10
157.13002411183263
 20
157.7870603683055
 10
156.53
 20
157.78
 10
155.92997588816738
 20
157.7870603683055
 10
155.3302840423129
 20
157.8082375635122
 10
154.7312565444211
 20
157.84351985865553
 10
154.1332251085907
 20
157.89288771601014
 10
153.53652089734686
 20
157.9563137979089
 10
152.94147433825827
 20
158.0337629818814
 10
152.34841494096156
 20
158.12519238010304
 10
151.75767111469366
 20
158.23055136314431
 10
151.169569986434
 20
158.3497815880073
 10
150.58443721975644
 20
158.482817030433
 10
150.00259683449158
 20
158.62958402146302
 10
149.13671373448386
 20
158.8753013090485
 10
148.56450948614824
 20
159.05602508105375
 10
147.99671616304886
 20
159.25016298519634
 10
147.4336481832235
 20
159.45760751676215
 10
146.87561734803057
 20
159.67824380243385
 10
146.32293266948744
 20
159.91194966390256
 10
145.77590019915397
 20
160.15859568552457
 10
145.2348228586548
 20
160.41804528598587
 10
144.70000027193558
 20
160.6901547939346
 10
144.17172859934453
 20
160.97477352753975
 10
143.65030037363255
 20
161.27174387793184
 10
143.13600433796188
 20
161.58090139647953
 10
142.37855500816696
 20
162.0671122983427
 10
141.88332639291622
 20
162.40597422039642
 10
141.3962084372824
 20
162.7563952255892
 10
140.91747088496564
 20
163.1181812667556
 10
140.4473788389808
 20
163.4911320032919
 10
139.98619261485598
 20
163.87504091209533
 10
139.53416759648132
 20
164.26969540192727
 10
139.09155409468923
 20
164.67487693113668
 10
138.65859720864356
 20
165.0903611286783
 10
138.23553669011503
 20
165.51591791835918
 10
137.62001254010278
 20
166.1726222270469
 10
137.2227055723427
 20
166.62231763168256
 10
136.83609010337807
 20
167.08123730083878
 10
136.46038022321707
 20
167.54912710574
 10
136.0957839828502
 20
168.02572795035897
 10
135.74250327904144
 20
168.5107759148919
 10
135.40073374252677
 20
169.0040024019054
 10
135.0706646296829
 20
169.5051342850735
 10
134.75247871772578
 20
170.0138940604225
 10
134.29786445863527
 20
170.79071862474115
 10
134.0101427763028
 20
171.3173067152796
 10
133.73489156347523
 20
171.85051919958403
 10
133.47226324171635
 20
172.3900608089074
 10
133.22240324260883
 20
172.93563276972205
 10
132.9854499272208
 20
173.48693296916676
 10
132.76153450948777
 20
174.0436561223431
 10
132.55078098355241
 20
174.60549394136825
 10
132.35330605510214
 20
175.17213530609087
 10
132.16921907674285
 20
175.74326643637508
 10
131.9986219874446
 20
176.31857106585764
 10
131.84160925609228
 20
176.89773061708203
 10
131.6982678291731
 20
177.4804243779118
 10
131.56867708262956
 20
178.06632967912643
 10
131.45290877790484
 20
178.65512207310098
 10
131.30531153196077
 20
179.54301034382377
 10
131.2243629708471
 20
180.13759096412247
 10
131.1574275169986
 20
180.73391170717878
 10
131.1045422362159
 20
181.33164235777122
 10
131.06573641395465
 20
181.93045191993585
 10
131.0410315391088
 20
182.53000880025664
 10
131.03044129211085
 20
183.12998099148692
 10
131.03397153735654
 20
183.73003625639976
 10
131.05162031995704
 20
184.32984231176587
 10
131.08337786682176
 20
184.92906701235682
 10
131.1574275169986
 20
185.82608829282123
 10
131.2243629708471
 20
186.42240903587754
 10
131.30531153196077
 20
187.01698965617624
 10
131.40022837471963
 20
187.60950090209636
 10
131.50906093850656
 20
188.19961466794217
 10
131.63174895681303
 20
188.78700417563292
 10
131.76822449061189
 20
189.3713441556578
 10
131.91841196597895
 20
189.95231102719524
 10
132.08222821594237
 20
190.5295830772973
 10
132.25958252653675
 20
191.10284063903958
 10
132.45037668703634
 20
191.67176626853825
 10
132.65450504433963
 20
192.2360449207357
 10
132.87185456147535
 20
192.7953641238586
 10
133.10230488019707
 20
193.34941415245007
 10
133.47226324171632
 20
194.16993919109257
 10
133.73489156347523
 20
194.70948080041597
 10
134.0101427763028
 20
195.24269328472036
 10
134.29786445863527
 20
195.76928137525883
 10
134.59789728333163
 20
196.28895347157138
 10
134.91007510590205
 20
196.80142180296008
 10
135.23422505651087
 20
197.30640258784342
 10
135.5701676357042
 20
197.80361619090158
 10
135.91771681380843
 20
198.29278727792558
 10
136.27668013394495
 20
198.7736449682849
 10
136.83609010337807
 20
199.47876269916122
 10
137.2227055723427
 20
199.9376823683174
 10
137.62001254010278
 20
200.38737777295307
 10
138.02779099618593
 20
200.82759989226963
 10
138.44581513148736
 20
201.25810495134175
 10
138.87385346331243
 20
201.6786545561086
 10
139.31166896356143
 20
202.08901582538587
 10
139.98619261485595
 20
202.68495908790467
 10
140.4473788389808
 20
203.0688679967081
 10
140.9174708849656
 20
203.44181873324436
 10
141.39620843728238
 20
203.8036047744108
 10
141.8833263929162
 20
204.15402577960356
 10
142.37855500816696
 20
204.4928877016573
 10
142.88162004802146
 20
204.82000289429948
 10
143.392242938012
 20
205.13519021606047
 10
143.9101409184783
 20
205.43827513058122
 10
144.43502720114694
 20
205.72908980326383
 10
144.9666111279414
 20
206.00747319421038
 10
145.50459833193563
 20
206.2732711473997
 10
146.0486909003606
 20
206.5263364760518
 10
146.59858753957525
 20
206.76652904413336
 10
147.15398374190866
 20
206.99371584395846
 10
147.71457195428292
 20
207.20777106984235
 10
148.28004174852174
 20
207.40857618776678
 10
148.85007999325157
 20
207.5960200010188
 10
149.42437102729946
 20
207.76999871176636
 10
150.00259683449158
 20
207.93041597853698
 10
150.87661226602543
 20
208.1454219173805
 10
151.46326982292334
 20
208.27156348275756
 10
152.05273310383333
 20
208.38386586047037
 10
152.64467569088367
 20
208.4822668625858
 10
153.2387697932758
 20
208.56671199911816
 10
153.83468642880035
 20
208.63715450820354
 10
154.4320956060121
 20
208.6935553819942
 10
155.0306665069643
 20
208.73588338825942
 10
155.92997588816738
 20
208.7729396316945
  0
LWPOLYLINE
  5
11C
330
17
100
AcDbEntity
  8
KANTEN
370
50
100
AcDbPolyline
 90
256
 70
1
 10
156.53
 20
205.78
 10
157.13023311187442
 20
205.77199235753494
 10
157.43021614693544
 20
205.7619841403911
 10
158.0296482666089
 20
205.7299678190517
 10
158.62801295098078
 20
205.68197182521033
 10
159.22488428978838
 20
205.61803032195658
 10
159.81983743571797
 20
205.53818882224132
 10
160.41244890680727
 20
205.44250415648085
 10
161.0022968878757
 20
205.33104443210564
 10
161.29605328208476
 20
205.26942327830199
 10
161.88096950928505
 20
205.13445321463573
 10
162.46207696753675
 20
204.98392736007057
 10
163.03896203010567
 20
204.817952857471
 10
163.6112140757185
 20
204.63664784590145
 10
164.17842578083915
 20
204.4401413765361
 10
164.7401934095977
 20
204.22857332080156
 10
165.01891057966125
 20
204.1171878421853
 10
165.57176364367845
 20
203.88331308823547
 10
166.11818086676124
 20
203.63477309296948
 10
166.65777331435322
 20
203.37174476478026
 10
167.19015690970798
 20
203.09441532471766
 10
167.7149527072712
 20
202.80298217322616
 10
168.2317871624106
 20
202.49765274963733
 10
168.74029239730118
 20
202.1786443845163
 10
168.99130820937637
 20
202.01408118139048
 10
169.48664288247977
 20
201.6749831534548
 10
169.97275514102756
 20
201.32279175234189
 10
170.4492989749607
 20
200.9577576645246
 10
170.91593518493332
 20
200.58014071777734
 10
171.37233162375156
 20
200.19020969623335
 10
171.59658811958948
 20
199.99071280450494
 10
172.0370181328098
 20
199.58283376069042
 10
172.46641039874953
 20
199.1633505156383
 10
172.6768715519451
 20
198.9493503083244
 10
173.08913664182506
 20
198.5130231299426
 10
173.4896150965265
 20
198.06585323130426
 10
173.87802185931344
 20
197.6081589036688
 10
174.25408046596476
 20
197.1402659294837
 10
174.61752324155887
 20
196.66250735049556
 10
174.96809149100213
 20
196.1752232306942
 10
175.30553568316554
 20
195.67876041425825
 10
175.62961562849864
 20
195.173472278675
 10
175.78657154591883
 20
194.9176308713118
 10
176.09017561937173
 20
194.39978101130302
 10
176.37985694678787
 20
193.8740161974606
 10
176.6554093357673
 20
193.34071066415345
 10
176.91663665075347
 20
192.80024401316246
 10
177.16335295264057
 20
192.25300094348367
 10
177.2812141885142
 20
191.976959796527
 10
177.50583796356213
 20
191.42028388487685
 10
177.7155313376485
 20
190.85781379696766
 10
177.91014505303403
 20
190.28994989363153
 10
178.0017533278788
 20
190.00412143158692
 10
178.173491203779
 20
189.42892580146653
 10
178.32982344952316
 20
188.84935342473617
 10
178.47063878931303
 20
188.2658168354736
 10
178.5958369921358
 20
187.67873138944532
 10
178.65255138277072
 20
187.38398834265757
 10
178.75416028108722
 20
186.7923638479726
 10
178.83995023454884
 20
186.19823928627417
 10
178.90986017868676
 20
185.60203754974623
 10
178.96384035227092
 20
185.00418300908595
 10
179.0018523327298
 20
184.40510121144067
 10
179.0238690634991
 20
183.80521857750753
 10
179.0298748732802
 20
183.20496209801132
 10
179.01986548719515
 20
182.6047590297765
 10
178.9938480298293
 20
182.00503659160987
 10
178.97484161680813
 20
181.70548902944506
 10
178.92485033296862
 20
181.10728774018835
 10
178.85891860872684
 20
180.51063296674997
 10
178.77709337365394
 20
179.91594940229442
 10
178.67943287017005
 20
179.32366033689848
 10
178.5660066120881
 20
178.73418735625745
 10
178.43689533513435
 20
178.14795004160433
 10
178.29219093948163
 20
177.5653656710561
 10
178.13199642433557
 20
176.98684892259897
 10
178.0461255762152
 20
176.6992447098727
 10
177.86291310212073
 20
176.1276005021136
 10
177.66451606439426
 20
175.56104730394978
 10
177.4510756801508
 20
174.99998838253214
 10
177.33876129422833
 20
174.72164423502826
 10
177.103044066054
 20
174.16957422201352
 10
176.85268314176417
 20
173.62398892298407
 10
176.58785672587166
 20
173.0852766803407
 10
176.30875331928792
 20
172.55382094430837
 10
176.01557158514987
 20
172.03
 10
175.70852020741347
 20
171.5141866981567
 10
175.54986131958984
 20
171.25939787766143
 10
175.22241831213748
 20
170.75628259484958
 10
174.881670220005
 20
170.26208157437674
 10
174.52785958442732
 20
169.7771465838054
 10
174.3461341542047
 20
169.53826198039778
 10
173.97320475836088
 20
169.06787110395152
 10
173.58785945610376
 20
168.60759628500458
 10
173.39061621424506
 20
168.38135506578075
 10
172.9871640454467
 20
167.9368663050452
 10
172.57199782458923
 20
167.50329864021396
 10
172.14541306302021
 20
167.08096068060647
 10
171.70771339969536
 20
166.6701530423454
 10
171.2592103850512
 20
166.2711681343809
 10
170.8002232592465
 20
165.88428995035673
 10
170.3310787249301
 20
165.50979386646623
 10
170.0928015075611
 20
165.32727276243247
 10
169.6090491785951
 20
164.97184682760462
 10
169.11598730744194
 20
164.62945246120344
 10
168.61396685082852
 20
164.30033337626614
 10
168.10334514211723
 20
163.9847238366114
 10
167.5844856369594
 20
163.6828484900928
 10
167.3220819010885
 20
163.53712867285515
 10
166.79155993542867
 20
163.25625440404303
 10
166.52353611495596
 20
163.12114993559723
 10
165.98220127183876
 20
162.86172653928227
 10
165.43413844220663
 20
162.6168366748453
 10
164.879737731943
 20
162.38665465255104
 10
164.31939375817407
 20
162.1713443137627
 10
163.75350536838425
 20
161.97105891432133
 10
163.18247535652023
 20
161.78594101545985
 10
162.6067101762862
 20
161.61612238232917
 10
162.0266196518339
 20
161.46172389020907
 10
161.7350813054382
 20
161.39034197152048
 10
161.14927783937608
 20
161.2592763006606
 10
160.56018641550205
 20
161.14388477044125
 10
160.26453867038063
 20
161.09209291259242
 10
159.67130216515844
 20
161.00036309301314
 10
159.0758297110817
 20
160.92449170602077
 10
158.47854515975135
 20
160.86453275614338
 10
157.87987365260176
 20
160.8205289215883
 10
157.28024131828923
 20
160.7925115238644
 10
156.68007496937767
 20
160.78050050548754
 10
156.07980179853737
 20
160.78450441578582
 10
155.4798490744736
 20
160.80452040481413
 10
154.88064383780062
 20
160.84053422538284
 10
154.58145484024865
 20
160.86453275614338
 10
153.9841702889183
 20
160.92449170602077
 10
153.38869783484157
 20
161.00036309301314
 10
152.79546132961937
 20
161.09209291259242
 10
152.49981358449796
 20
161.14388477044125
 10
151.9107221606239
 20
161.2592763006606
 10
151.32491869456183
 20
161.39034197152048
 10
150.74282015561934
 20
161.53698849172923
 10
150.1648408759724
 20
161.69911147969555
 10
149.59139225574756
 20
161.87659553782623
 10
149.0228824701913
 20
162.0693143346652
 10
148.45971617913474
 20
162.27713069481504
 10
148.180262268057
 20
162.38665465255104
 10
147.62586155779337
 20
162.6168366748453
 10
147.07779872816127
 20
162.86172653928227
 10
146.53646388504404
 20
163.12114993559723
 10
146.00224234540866
 20
163.39492220869644
 10
145.7379180989115
 20
163.53712867285515
 10
145.21507783399105
 20
163.8320557287625
 10
144.70029142251283
 20
164.14082564550586
 10
144.19392528452389
 20
164.46321864360988
 10
143.94401269255806
 20
164.62945246120344
 10
143.45095082140492
 20
164.97184682760462
 10
142.9671984924389
 20
165.32727276243247
 10
142.49310003594377
 20
165.69547727690403
 10
142.0289929106691
 20
166.07619828656541
 10
141.5752074636304
 20
166.46916479784113
 10
141.13206669497131
 20
166.87409710092467
 10
140.69988602805515
 20
167.29070696887334
 10
140.2789730849495
 20
167.7186978627653
 10
139.86962746746397
 20
168.1577651427734
 10
139.66938378575495
 20
168.38135506578075
 10
139.277932842413
 20
168.83644853956935
 10
138.89876175556716
 20
169.30182279522654
 10
138.5321404155727
 20
169.7771465838054
 10
138.178329779995
 20
170.26208157437674
 10
137.83758168786252
 20
170.75628259484958
 10
137.6721822576856
 20
171.00674818975622
 10
137.35147979258653
 20
171.5141866981567
 10
137.04442841485013
 20
172.03
 10
136.7512466807121
 20
172.55382094430837
 10
136.47214327412834
 20
173.0852766803407
 10
136.20731685823586
 20
173.62398892298404
 10
135.956955933946
 20
174.1695742220135
 10
135.72123870577167
 20
174.72164423502826
 10
135.6089243198492
 20
174.99998838253214
 10
135.39548393560574
 20
175.56104730394978
 10
135.19708689787927
 20
176.1276005021136
 10
135.0138744237848
 20
176.69924470987266
 10
134.84597692221018
 20
177.27557303634407
 10
134.69351390099212
 20
177.8561752565339
 10
134.62310466486565
 20
178.14795004160433
 10
134.4939933879119
 20
178.73418735625745
 10
134.38056712982996
 20
179.32366033689846
 10
134.28290662634606
 20
179.9159494022944
 10
134.20108139127316
 20
180.51063296674997
 10
134.13514966703138
 20
181.10728774018835
 10
134.08515838319187
 20
181.70548902944506
 10
134.0661519701707
 20
182.00503659160987
 10
134.04013451280485
 20
182.6047590297765
 10
134.0301251267198
 20
183.20496209801132
 10
134.0361309365009
 20
183.80521857750756
 10
134.0451386492057
 20
184.1052333218896
 10
134.07515567566767
 20
184.7047688830123
 10
134.12115584568147
 20
185.30329030726293
 10
134.18310641676578
 20
185.9003715728128
 10
134.22004976545117
 20
186.1982392862742
 10
134.30583971891278
 20
186.79236384797264
 10
134.40744861722928
 20
187.38398834265757
 10
134.52480413615808
 20
187.97269165766886
 10
134.6578227431626
 20
188.55805475961404
 10
134.8064097568698
 20
189.13966099263246
 10
134.97045941446365
 20
189.71709637496684
 10
135.14985494696597
 20
190.28994989363153
 10
135.34446866235152
 20
190.85781379696766
 10
135.4474394703059
 20
191.1397481837388
 10
135.6646173688768
 20
191.69937097750318
 10
135.89664704735944
 20
192.25300094348367
 10
136.14336334924653
 20
192.80024401316246
 10
136.4045906642327
 20
193.34071066415345
 10
136.54058824556705
 20
193.60828241827934
 10
136.82323025261854
 20
194.1378647129024
 10
137.1198993500059
 20
194.65971848320945
 10
137.43038437150136
 20
195.173472278675
 10
137.75446431683446
 20
195.67876041425828
 10
138.09190850899788
 20
196.1752232306942
 10
138.26556750536108
 20
196.42003446147604
 10
138.62260478625856
 20
196.90259874836187
 10
138.9923883798985
 20
197.37546659967245
 10
139.37465507785356
 20
197.8383014325911
 10
139.76913278634206
 20
198.29077380570791
 10
140.17554071990185
 20
198.7325616535127
 10
140.59358960125044
 20
199.16335051563829
 10
141.0229818671902
 20
199.58283376069045
 10
141.46341188041052
 20
199.99071280450494
 10
141.914566147038
 20
200.3866973226772
 10
142.37612353977804
 20
200.77050545721235
 10
142.84775552649035
 20
201.1418640171488
 10
143.32912640403504
 20
201.50050867301337
 10
143.8198935372226
 20
201.84618414496808
 10
144.06869179062363
 20
202.01408118139048
 10
144.57289630379705
 20
202.33984446941395
 10
145.08561176908754
 20
202.65204114233066
 10
145.60647324052775
 20
202.95044898153304
 10
146.1351099739011
 20
203.2348555831735
 10
146.6711456906338
 20
203.5050585093515
 10
147.21419884562647
 20
203.76086543220703
 10
147.48823635632155
 20
203.88331308823547
 10
148.04108942033872
 20
204.1171878421853
 10
148.3198065904023
 20
204.22857332080156
 10
148.88157421916085
 20
204.4401413765361
 10
149.4487859242815
 20
204.63664784590145
 10
150.02103796989437
 20
204.817952857471
 10
150.59792303246326
 20
204.98392736007057
 10
151.17903049071495
 20
205.13445321463573
 10
151.76394671791525
 20
205.26942327830199
 10
152.0577031121243
 20
205.33104443210564
 10
152.64755109319276
 20
205.44250415648085
 10
153.24016256428203
 20
205.53818882224132
 10
153.83511571021162
 20
205.61803032195658
 10
154.4319870490192
 20
205.68197182521033
 10
155.03035173339114
 20
205.7299678190517
 10
155.62978385306457
 20
205.7619841403911
 10
155.92976688812558
 20
205.77199235753494
  0
LWPOLYLINE
  5
11D
330
17
100
AcDbEntity
  8
KANTEN
370
50
100
AcDbPolyline
 90
129
 70
0
 10
156.53
 20
198.28
 10
157.13017166398583
 20
198.26798832311223
 10
157.72938211889098
 20
198.23197252983314
 10
158.32667169506587
 20
198.17201030150562
 10
158.62429705613
 20
198.13307779016475
 10
158.92108379925747
 20
198.0881976710513
 10
159.51166644664798
 20
197.98066886916828
 10
160.0974737855126
 20
197.84959610935323
 10
160.6775676120549
 20
197.69518931209137
 10
160.9651812308165
 20
197.60931147856775
 10
161.53496608081517
 20
197.42037886797556
 10
162.0967351927609
 20
197.208799635779
 10
162.64958886144592
 20
196.9749126381612
 10
162.9223951120487
 20
196.8497194050377
 10
163.4602202914165
 20
196.58308410529074
 10
163.9869463285308
 20
196.2951431591593
 10
164.50172964166268
 20
195.98635772045776
 10
165.00374577603563
 20
195.65722232664172
 10
165.49219072423642
 20
195.30826410677827
 10
165.7310786598726
 20
195.12652486997084
 10
166.19770720385782
 20
194.74888998205475
 10
166.42526096045844
 20
194.5531455470258
 10
166.8683918833875
 20
194.14819457249033
 10
167.29496528327087
 20
193.7258375657471
 10
167.7042979785288
 20
193.28675095558228
 10
168.09573439955133
 20
192.83163796419416
 10
168.2845444511851
 20
192.5982983824899
 10
168.64797024157343
 20
192.1205201896914
 10
168.99198841288475
 20
191.62858340062112
 10
169.31604800043678
 20
191.12327588004698
 10
169.61963000435512
 20
190.60540690672448
 10
169.76358867099466
 20
190.34202031198734
 10
170.03555313036568
 20
189.8068702026982
 10
170.28588767768437
 20
189.2612669392806
 10
170.402817074127
 20
188.98481782599677
 10
170.61996602153678
 20
188.42517808359815
 10
170.8145490863852
 20
187.85729804564352
 10
170.98625463281851
 20
187.28208720433642
 10
171.13480766463093
 20
186.7004667925793
 10
171.2599702656866
 20
186.1133683085665
 10
171.31371603996845
 20
185.81805832273008
 10
171.36154198095588
 20
185.5217320239368
 10
171.43936013755547
 20
184.92650547787503
 10
171.49330010527828
 20
184.32864195957404
 10
171.52327549619585
 20
183.72909898148782
 10
171.52925997130632
 20
183.42899769517683
 10
171.52321049999387
 20
182.82873632666306
 10
171.4931485486766
 20
182.22919768260735
 10
171.43912226328058
 20
181.63134195827288
 10
171.40314803887307
 20
181.33334455699878
 10
171.31334944654105
 20
180.73980726293178
 10
171.19987447862627
 20
180.15033823211684
 10
171.06290487174863
 20
179.5658815327584
 10
170.90265999052963
 20
178.98737320552684
 10
170.81388807716124
 20
178.70063962991216
 10
170.61922302505522
 20
178.1327876913562
 10
170.51340783591115
 20
177.85189671297803
 10
170.2850239719929
 20
177.2967470778931
 10
170.162546748813
 20
177.02271071937471
 10
169.9012669177265
 20
176.48226353740355
 10
169.61857224160053
 20
175.95270331729333
 10
169.46933450125368
 20
175.69227157413587
 10
169.155376987894
 20
175.180626202381
 10
168.8211992146723
 20
174.6819524387662
 10
168.46733638631332
 20
174.19704893770754
 10
168.28319897300548
 20
173.96000461904927
 10
167.9008807886997
 20
173.4972054049377
 10
167.50035149159882
 20
173.05007389319084
 10
167.0822525521696
 20
172.61932619037472
 10
166.64725357966108
 20
172.20565216345292
 10
166.19605124968717
 20
171.80971433492516
 10
165.96459866401662
 20
171.61859579429063
 10
165.4904540161986
 20
171.25044207696766
 10
165.00195869125926
 20
170.90155438136125
 10
164.49989504226576
 20
170.57249147097403
 10
164.24402555848428
 20
170.41556026548176
 10
163.72312351953602
 20
170.117212528013
 10
163.19070128385036
 20
169.83994574388504
 10
162.6476115559424
 20
169.58420397163422
 10
162.0947241249231
 20
169.3503967962652
 10
161.81488240912566
 20
169.24183708878851
 10
161.24896321621807
 20
169.0416227692907
 10
160.675486335124
 20
168.8642120213531
 10
160.38620034624947
 20
168.7841482178664
 10
159.8031124184129
 20
168.64146403848966
 10
159.214782414738
 20
168.52222430765687
 10
158.91894579894077
 20
168.47145726380467
 10
158.32452160025898
 20
168.38773045415158
 10
157.72722337309312
 20
168.3278544618199
 10
157.12800772455128
 20
168.29192518161932
 10
156.52783433260092
 20
168.28000015633717
 10
156.22768884372087
 20
168.28304671058854
 10
155.62788116728785
 20
168.30715185371648
 10
155.02951828551258
 20
168.3552368653808
 10
154.73117824757878
 20
168.3882492532605
 10
154.13677825026787
 20
168.472147702769
 10
153.5462111338074
 20
168.57976177057034
 10
152.96042272504855
 20
168.7109191066097
 10
152.38035119747005
 20
168.86540965494817
 10
151.80692556864003
 20
169.0429859901792
 10
151.52299241418064
 20
169.14034388552722
 10
150.96125385543965
 20
169.35200422252203
 10
150.4084339606131
 20
169.58597103751327
 10
150.13564578798056
 20
169.71120365650552
 10
149.5978591104433
 20
169.97791660350396
 10
149.0711746511068
 20
170.26593359419476
 10
148.55643592511072
 20
170.57479335297393
 10
148.05446731582288
 20
170.90400122335797
 10
147.80852386782368
 20
171.07607218655082
 10
147.3272110605119
 20
171.43480368523868
 10
146.86063704349445
 20
171.81250594003387
 10
146.40954906161625
 20
172.20857403927718
 10
146.1900390980527
 20
172.41329817533392
 10
145.76352668160195
 20
172.83571676541553
 10
145.55669501678972
 20
173.05324207065345
 10
145.3542573849807
 20
173.27486246956886
 10
144.96288667626249
 20
173.7300319709533
 10
144.59004135791346
 20
174.20049628970486
 10
144.41075350963482
 20
174.44122946865508
 10
144.06680636667343
 20
174.93321592119406
 10
143.7428197377005
 20
175.43857022352057
 10
143.4393125057431
 20
175.9564830219555
 10
143.1567707549083
 20
176.48612484967344
 10
142.89564699189197
 20
177.02664745514093
 10
142.77324890336502
 20
177.30071916822496
 10
142.54502535156192
 20
177.85593472729687
 10
142.43929127568637
 20
178.13685624869848
 10
142.24479020215165
 20
178.70476437421442
 10
142.07316770519904
 20
179.28
  0
LWPOLYLINE
  5
11E
330
17
100
AcDbEntity
  8
KANTEN
370
50
100
AcDbPolyline
 90
3
 70
0
 10
138.23
 20
179.28
 10
140.15158385259952
 20
179.28
 10
142.07316770519904
 20
179.28
  0
LWPOLYLINE
  5
11F
330
17
100
AcDbEntity
  8
KANTEN
370
50
100
AcDbPolyline
 90
3
 70
0
 10
138.23
 20
179.28
 10
138.23
 20
183.28
 10
138.23
 20
187.28
  0
LWPOLYLINE
  5
120
330
17
100
AcDbEntity
  8
KANTEN
370
50
100
AcDbPolyline
 90
3
 70
0
 10
138.23
 20
187.28
 10
140.15158385259946
 20
187.28
 10
142.07316770519893
 20
187.28
  0
LWPOLYLINE
  5
121
330
17
100
AcDbEntity
  8
KANTEN
370
50
100
AcDbPolyline
 90
34
 70
0
 10
142.07316770519898
 20
187.27999999999977
 10
142.24481052729493
 20
187.8552990862802
 10
142.33923191911703
 20
188.14025732596465
 10
142.54508559202108
 20
188.70422058931086
 10
142.77334187316654
 20
189.2594947262647
 10
143.02363511597912
 20
189.80519023628338
 10
143.2955643726017
 20
190.34043296294567
 10
143.58869403617757
 20
190.86436549427398
 10
143.9025545386547
 20
191.37614853623316
 10
144.2366431029925
 20
191.87496225720614
 10
144.59042454856652
 20
192.36000760129235
 10
144.96333214848116
 20
192.8305075683254
 10
145.3547685374164
 20
193.2857084585591
 10
145.76410666855463
 20
193.72488108002864
 10
146.19069081805506
 20
194.14732191665217
 10
146.6338376354655
 20
194.55235425520203
 10
147.09283723839033
 20
194.93932926933996
 10
147.56695434965957
 20
195.30762705898024
 10
148.05542947517878
 20
195.65665764331516
 10
148.557480120572
 20
195.98586190591277
 10
149.07230204466921
 20
196.29471249037238
 10
149.59907054783025
 20
196.5827146451033
 10
150.1369417930415
 20
196.84940701587362
 10
150.68505415766876
 20
197.09436238485927
 10
151.24252961370138
 20
197.31718835500953
 10
151.8084751342762
 20
197.5175279786328
 10
152.3819841242283
 20
197.69506032919548
 10
152.96213787237718
 20
197.8495010154183
 10
153.54800702322163
 20
197.98060263684604
 10
154.1386530656858
 20
198.08815518016158
 10
154.73312983653165
 20
198.17198635560877
 10
155.33048503602987
 20
198.2319618729855
 10
155.9297617534605
 20
198.26798565676492
 10
156.53
 20
198.28
  0
LINE
  5
122
330
17
100
AcDbEntity
  8
MITTELLINIEN
370
25
100
AcDbLine
 10
265.17999999999995
 20
183.28
 30
0.0
 11
350.97999999999996
 21
183.28
 31
0.0
  0
LINE
  5
123
330
17
100
AcDbEntity
  8
MITTELLINIEN
370
25
100
AcDbLine
 10
302.17999999999995
 20
235.28
 30
0.0
 11
327.58
 21
235.28
 31
0.0
  0
LINE
  5
124
330
17
100
AcDbEntity
  8
MITTELLINIEN
370
25
100
AcDbLine
 10
302.17999999999995
 20
131.28
 30
0.0
 11
327.58
 21
131.28
 31
0.0
  0
LINE
  5
125
330
17
100
AcDbEntity
  8
MITTELLINIEN
370
25
100
AcDbLine
 10
113.53
 20
183.28
 30
0.0
 11
199.53
 21
183.28
 31
0.0
  0
LINE
  5
126
330
17
100
AcDbEntity
  8
MITTELLINIEN
370
25
100
AcDbLine
 10
156.53
 20
247.28
 30
0.0
 11
156.53
 21
122.48
 31
0.0
  0
LINE
  5
127
330
17
100
AcDbEntity
  8
MITTELLINIEN
370
25
100
AcDbLine
 10
144.53
 20
235.28
 30
0.0
 11
168.53
 21
235.28
 31
0.0
  0
LINE
  5
128
330
17
100
AcDbEntity
  8
MITTELLINIEN
370
25
100
AcDbLine
 10
144.53
 20
131.28
 30
0.0
 11
168.53
 21
131.28
 31
0.0
  0
LINE
  5
129
330
17
100
AcDbEntity
  8
KANTEN
370
100
100
AcDbLine
 10
111.99051731436796
 20
258.80594361188724
 30
0.0
 11
111.99051731436796
 21
251.18592837185673
 31
0.0
  0
LINE
  5
12A
330
17
100
AcDbEntity
  8
DUENN
370
25
100
AcDbLine
 10
101.49182965032597
 20
255.08060282787233
 30
0.0
 11
111.99051731436796
 21
255.08060282787233
 31
0.0
  0
SOLID
  5
12B
330
17
100
AcDbEntity
  8
DUENN
100
AcDbTrace
 10
111.99051731436796
 20
255.08060282787233
 30
0.0
 11
108.99051731436796
 21
255.98060282787233
 31
0.0
 12
108.99051731436796
 22
254.18060282787232
 32
0.0
 13
108.99051731436796
 23
254.18060282787232
 33
0.0
  0
TEXT
  5
12C
330
17
100
AcDbEntity
  8
TEXT
100
AcDbText
 10
111.99051731436796
 20
262.19261705190075
 30
0.0
 40
5.000000000000001
  1
A
 72
1
 11
111.99051731436796
 21
262.19261705190075
 31
0.0
100
AcDbText
  0
LWPOLYLINE
  5
12D
330
17
100
AcDbEntity
  8
KANTEN
370
100
100
AcDbPolyline
 90
3
 70
0
 10
111.99051731436796
 20
190.58
 10
111.99051731436796
 20
183.28
 10
118.93319786639573
 20
183.28
  0
LWPOLYLINE
  5
12E
330
17
100
AcDbEntity
  8
KANTEN
370
100
100
AcDbPolyline
 90
3
 70
0
 10
150.5985945305224
 20
183.28
 10
156.53
 20
183.28
 10
156.53
 20
176.68
  0
LINE
  5
12F
330
17
100
AcDbEntity
  8
KANTEN
370
100
100
AcDbLine
 10
156.53
 20
120.7990009313352
 30
0.0
 11
156.53
 21
114.0256540513081
 31
0.0
  0
LINE
  5
130
330
17
100
AcDbEntity
  8
DUENN
370
25
100
AcDbLine
 10
145.85725171450343
 20
117.75099483532301
 30
0.0
 11
156.53
 21
117.75099483532301
 31
0.0
  0
SOLID
  5
131
330
17
100
AcDbEntity
  8
DUENN
100
AcDbTrace
 10
156.53
 20
117.75099483532301
 30
0.0
 11
153.53
 21
118.65099483532302
 31
0.0
 12
153.53
 22
116.85099483532301
 32
0.0
 13
153.53
 23
116.85099483532301
 33
0.0
  0
TEXT
  5
132
330
17
100
AcDbEntity
  8
TEXT
100
AcDbText
 10
156.53
 20
106.74430615527896
 30
0.0
 40
5.000000000000001
  1
A
 72
1
 11
156.53
 21
106.74430615527896
 31
0.0
100
AcDbText
  0
TEXT
  5
133
330
17
100
AcDbEntity
  8
TEXT
100
AcDbText
 10
233.06409279485226
 20
251.52459571585808
 30
0.0
 40
5.000000000000001
  1
A-A
 72
1
 11
233.06409279485226
 21
251.52459571585808
 31
0.0
100
AcDbText
  0
LINE
  5
134
330
17
100
AcDbEntity
  8
DUENN
370
25
100
AcDbLine
 10
147.53
 20
238.28
 30
0.0
 11
147.53
 21
263.007281347896
 31
0.0
  0
LINE
  5
135
330
17
100
AcDbEntity
  8
DUENN
370
25
100
AcDbLine
 10
165.53
 20
238.28
 30
0.0
 11
165.53
 21
263.007281347896
 31
0.0
  0
LINE
  5
136
330
17
100
AcDbEntity
  8
DUENN
370
25
100
AcDbLine
 10
147.53
 20
261.007281347896
 30
0.0
 11
165.53
 21
261.007281347896
 31
0.0
  0
SOLID
  5
137
330
17
100
AcDbEntity
  8
DUENN
100
AcDbTrace
 10
147.53
 20
261.007281347896
 30
0.0
 11
150.53
 21
260.10728134789605
 31
0.0
 12
150.53
 22
261.907281347896
 32
0.0
 13
150.53
 23
261.907281347896
 33
0.0
  0
SOLID
  5
138
330
17
100
AcDbEntity
  8
DUENN
100
AcDbTrace
 10
165.53
 20
261.007281347896
 30
0.0
 11
162.53
 21
261.907281347896
 31
0.0
 12
162.53
 22
260.10728134789605
 32
0.0
 13
162.53
 23
260.10728134789605
 33
0.0
  0
TEXT
  5
139
330
17
100
AcDbEntity
  8
TEXT
100
AcDbText
 10
156.53
 20
262.007281347896
 30
0.0
 40
3.4999999999999996
  1
18
 72
1
 11
156.53
 21
262.007281347896
 31
0.0
100
AcDbText
  0
LINE
  5
13A
330
17
100
AcDbEntity
  8
DUENN
370
25
100
AcDbLine
 10
162.03
 20
239.28
 30
0.0
 11
179.35331470662942
 21
239.28
 31
0.0
  0
LINE
  5
13B
330
17
100
AcDbEntity
  8
DUENN
370
25
100
AcDbLine
 10
162.03
 20
231.28
 30
0.0
 11
179.35331470662942
 21
231.28
 31
0.0
  0
LINE
  5
13C
330
17
100
AcDbEntity
  8
DUENN
370
25
100
AcDbLine
 10
177.35331470662942
 20
246.28
 30
0.0
 11
177.35331470662942
 21
224.28
 31
0.0
  0
SOLID
  5
13D
330
17
100
AcDbEntity
  8
DUENN
100
AcDbTrace
 10
177.35331470662942
 20
239.28
 30
0.0
 11
178.25331470662942
 21
242.28
 31
0.0
 12
176.4533147066294
 22
242.28
 32
0.0
 13
176.4533147066294
 23
242.28
 33
0.0
  0
SOLID
  5
13E
330
17
100
AcDbEntity
  8
DUENN
100
AcDbTrace
 10
177.35331470662942
 20
231.28
 30
0.0
 11
176.4533147066294
 21
228.28
 31
0.0
 12
178.25331470662942
 22
228.28
 32
0.0
 13
178.25331470662942
 23
228.28
 33
0.0
  0
TEXT
  5
13F
330
17
100
AcDbEntity
  8
TEXT
100
AcDbText
 10
176.35331470662942
 20
246.78
 30
0.0
 40
3.4999999999999996
  1
Ø8H8
 50
90.0
 72
1
 11
176.35331470662942
 21
246.78
 31
0.0
100
AcDbText
  0
LINE
  5
140
330
17
100
AcDbEntity
  8
DUENN
370
25
100
AcDbLine
 10
179.35331470662942
 20
231.28
 30
0.0
 11
190.39200745068158
 21
231.28
 31
0.0
  0
LWPOLYLINE
  5
141
330
17
100
AcDbEntity
  8
DUENN
370
25
100
AcDbPolyline
 90
3
 70
0
 10
184.11858266471987
 20
236.28
 10
187.005334010668
 20
231.28
 10
192.77883670256426
 20
241.28
  0
LINE
  5
142
330
17
100
AcDbEntity
  8
DUENN
370
25
100
AcDbLine
 10
184.11858266471987
 20
236.28
 30
0.0
 11
189.89208535661615
 21
236.28
 31
0.0
  0
LINE
  5
143
330
17
100
AcDbEntity
  8
DUENN
370
25
100
AcDbLine
 10
192.77883670256426
 20
241.28
 30
0.0
 11
196.77883670256426
 21
241.28
 31
0.0
  0
TEXT
  5
144
330
17
100
AcDbEntity
  8
TEXT
100
AcDbText
 10
193.57883670256427
 20
237.18
 30
0.0
 40
3.4999999999999996
  1
z
 11
193.57883670256427
 21
237.18
 31
0.0
100
AcDbText
  0
LINE
  5
145
330
17
100
AcDbEntity
  8
DUENN
370
25
100
AcDbLine
 10
143.53
 20
235.28
 30
0.0
 11
59.69841673016679
 21
235.28
 31
0.0
  0
LINE
  5
146
330
17
100
AcDbEntity
  8
DUENN
370
25
100
AcDbLine
 10
143.53
 20
131.28
 30
0.0
 11
59.69841673016679
 21
131.28
 31
0.0
  0
LINE
  5
147
330
17
100
AcDbEntity
  8
DUENN
370
25
100
AcDbLine
 10
61.69841673016679
 20
235.28
 30
0.0
 11
61.69841673016679
 21
131.28
 31
0.0
  0
SOLID
  5
148
330
17
100
AcDbEntity
  8
DUENN
100
AcDbTrace
 10
61.69841673016679
 20
235.28
 30
0.0
 11
60.79841673016679
 21
232.28
 31
0.0
 12
62.59841673016679
 22
232.28
 32
0.0
 13
62.59841673016679
 23
232.28
 33
0.0
  0
SOLID
  5
149
330
17
100
AcDbEntity
  8
DUENN
100
AcDbTrace
 10
61.69841673016679
 20
131.28
 30
0.0
 11
62.59841673016679
 21
134.28
 31
0.0
 12
60.79841673016679
 22
134.28
 32
0.0
 13
60.79841673016679
 23
134.28
 33
0.0
  0
TEXT
  5
14A
330
17
100
AcDbEntity
  8
TEXT
100
AcDbText
 10
60.69841673016679
 20
183.28
 30
0.0
 40
3.4999999999999996
  1
104
 50
90.0
 72
1
 11
60.69841673016679
 21
183.28
 31
0.0
100
AcDbText
  0
LINE
  5
14B
330
17
100
AcDbEntity
  8
DUENN
370
25
100
AcDbLine
 10
137.23
 20
187.28
 30
0.0
 11
77.13978494623656
 21
187.28
 31
0.0
  0
LINE
  5
14C
330
17
100
AcDbEntity
  8
DUENN
370
25
100
AcDbLine
 10
137.23
 20
179.28
 30
0.0
 11
77.13978494623656
 21
179.28
 31
0.0
  0
LINE
  5
14D
330
17
100
AcDbEntity
  8
DUENN
370
25
100
AcDbLine
 10
79.13978494623656
 20
194.28
 30
0.0
 11
79.13978494623656
 21
172.28
 31
0.0
  0
SOLID
  5
14E
330
17
100
AcDbEntity
  8
DUENN
100
AcDbTrace
 10
79.13978494623656
 20
187.28
 30
0.0
 11
80.03978494623657
 21
190.28
 31
0.0
 12
78.23978494623655
 22
190.28
 32
0.0
 13
78.23978494623655
 23
190.28
 33
0.0
  0
SOLID
  5
14F
330
17
100
AcDbEntity
  8
DUENN
100
AcDbTrace
 10
79.13978494623656
 20
179.28
 30
0.0
 11
78.23978494623655
 21
176.28
 31
0.0
 12
80.03978494623657
 22
176.28
 32
0.0
 13
80.03978494623657
 23
176.28
 33
0.0
  0
TEXT
  5
150
330
17
100
AcDbEntity
  8
TEXT
100
AcDbText
 10
78.13978494623656
 20
195.68
 30
0.0
 40
3.4999999999999996
  1
8JS9
 50
90.0
 72
1
 11
78.13978494623656
 21
195.68
 31
0.0
100
AcDbText
  0
LINE
  5
151
330
17
100
AcDbEntity
  8
DUENN
370
25
100
AcDbLine
 10
79.13978494623656
 20
194.28
 30
0.0
 11
79.13978494623656
 21
208.88
 31
0.0
  0
LWPOLYLINE
  5
152
330
17
100
AcDbEntity
  8
DUENN
370
25
100
AcDbPolyline
 90
3
 70
0
 10
74.13978494623656
 20
205.99324865405185
 10
79.13978494623656
 20
208.88
 10
69.13978494623656
 20
214.65350269189625
  0
LINE
  5
153
330
17
100
AcDbEntity
  8
DUENN
370
25
100
AcDbLine
 10
74.13978494623656
 20
205.99324865405185
 30
0.0
 11
74.13978494623656
 21
211.76675134594814
 31
0.0
  0
LINE
  5
154
330
17
100
AcDbEntity
  8
DUENN
370
25
100
AcDbLine
 10
69.13978494623656
 20
214.65350269189625
 30
0.0
 11
69.13978494623656
 21
218.65350269189625
 31
0.0
  0
TEXT
  5
155
330
17
100
AcDbEntity
  8
TEXT
100
AcDbText
 10
73.23978494623655
 20
215.45350269189626
 30
0.0
 40
3.4999999999999996
  1
y
 50
90.0
 11
73.23978494623655
 21
215.45350269189626
 31
0.0
100
AcDbText
  0
LWPOLYLINE
  5
156
330
17
100
AcDbEntity
  8
DUENN
370
25
100
AcDbPolyline
 90
3
 70
0
 10
79.13978494623656
 20
172.28
 10
79.13978494623656
 20
151.39238845144357
 10
83.37312674625349
 20
151.39238845144357
  0
LWPOLYLINE
  5
157
330
17
100
AcDbEntity
  8
DUENN
370
25
100
AcDbPolyline
 90
4
 70
1
 10
83.37312674625349
 20
147.89238845144357
 10
94.37312674625349
 20
147.89238845144357
 10
94.37312674625349
 20
154.89238845144357
 10
83.37312674625349
 20
154.89238845144357
  0
LWPOLYLINE
  5
158
330
17
100
AcDbEntity
  8
DUENN
370
25
100
AcDbPolyline
 90
4
 70
1
 10
94.37312674625349
 20
147.89238845144357
 10
109.5731267462535
 20
147.89238845144357
 10
109.5731267462535
 20
154.89238845144357
 10
94.37312674625349
 20
154.89238845144357
  0
LWPOLYLINE
  5
159
330
17
100
AcDbEntity
  8
DUENN
370
25
100
AcDbPolyline
 90
4
 70
1
 10
109.5731267462535
 20
147.89238845144357
 10
117.5731267462535
 20
147.89238845144357
 10
117.5731267462535
 20
154.89238845144357
 10
109.5731267462535
 20
154.89238845144357
  0
LINE
  5
15A
330
17
100
AcDbEntity
  8
DUENN
370
25
100
AcDbLine
 10
86.67312674625349
 20
151.39238845144357
 30
0.0
 11
91.0731267462535
 21
151.39238845144357
 31
0.0
  0
LINE
  5
15B
330
17
100
AcDbEntity
  8
DUENN
370
25
100
AcDbLine
 10
87.5731267462535
 20
152.69238845144358
 30
0.0
 11
90.17312674625349
 21
152.69238845144358
 31
0.0
  0
LINE
  5
15C
330
17
100
AcDbEntity
  8
DUENN
370
25
100
AcDbLine
 10
87.5731267462535
 20
150.09238845144355
 30
0.0
 11
90.17312674625349
 21
150.09238845144355
 31
0.0
  0
TEXT
  5
15D
330
17
100
AcDbEntity
  8
TEXT
100
AcDbText
 10
95.7731267462535
 20
149.89238845144357
 30
0.0
 40
3.4999999999999996
  1
0,02
 11
95.7731267462535
 21
149.89238845144357
 31
0.0
100
AcDbText
  0
TEXT
  5
15E
330
17
100
AcDbEntity
  8
TEXT
100
AcDbText
 10
113.5731267462535
 20
149.89238845144357
 30
0.0
 40
3.4999999999999996
  1
A
 72
1
 11
113.5731267462535
 21
149.89238845144357
 31
0.0
100
AcDbText
  0
LINE
  5
15F
330
17
100
AcDbEntity
  8
DUENN
370
25
100
AcDbLine
 10
167.03
 20
222.78
 30
0.0
 11
209.66404199475065
 21
222.78
 31
0.0
  0
LINE
  5
160
330
17
100
AcDbEntity
  8
DUENN
370
25
100
AcDbLine
 10
167.03
 20
143.78
 30
0.0
 11
209.66404199475065
 21
143.78
 31
0.0
  0
LINE
  5
161
330
17
100
AcDbEntity
  8
DUENN
370
25
100
AcDbLine
 10
207.66404199475065
 20
222.78
 30
0.0
 11
207.66404199475065
 21
143.78
 31
0.0
  0
SOLID
  5
162
330
17
100
AcDbEntity
  8
DUENN
100
AcDbTrace
 10
207.66404199475065
 20
222.78
 30
0.0
 11
206.76404199475064
 21
219.78
 31
0.0
 12
208.56404199475065
 22
219.78
 32
0.0
 13
208.56404199475065
 23
219.78
 33
0.0
  0
SOLID
  5
163
330
17
100
AcDbEntity
  8
DUENN
100
AcDbTrace
 10
207.66404199475065
 20
143.78
 30
0.0
 11
208.56404199475065
 21
146.78
 31
0.0
 12
206.76404199475064
 22
146.78
 32
0.0
 13
206.76404199475064
 23
146.78
 33
0.0
  0
TEXT
  5
164
330
17
100
AcDbEntity
  8
TEXT
100
AcDbText
 10
206.66404199475065
 20
183.28
 30
0.0
 40
3.4999999999999996
  1
79
 50
90.0
 72
1
 11
206.66404199475065
 21
183.28
 31
0.0
100
AcDbText
  0
LINE
  5
165
330
17
100
AcDbEntity
  8
DUENN
370
25
100
AcDbLine
 10
130.22987714904633
 20
133.74254891020308
 30
0.0
 11
146.0001105658583
 21
144.3397059808172
 31
0.0
  0
SOLID
  5
166
330
17
100
AcDbEntity
  8
DUENN
100
AcDbTrace
 10
146.0001105658583
 20
144.3397059808172
 30
0.0
 11
143.0081031124905
 21
143.41348171046394
 31
0.0
 12
144.01204430865394
 22
141.9194595972923
 32
0.0
 13
144.01204430865394
 23
141.9194595972923
 33
0.0
  0
TEXT
  5
167
330
17
100
AcDbEntity
  8
TEXT
100
AcDbText
 10
132.2179434062507
 20
136.16279529372798
 30
0.0
 40
3.4999999999999996
  1
R9
 50
33.9
 11
132.2179434062507
 21
136.16279529372798
 31
0.0
100
AcDbText
  0
LINE
  5
168
330
17
100
AcDbEntity
  8
DUENN
370
25
100
AcDbLine
 10
141.53
 20
182.28
 30
0.0
 11
141.53
 21
79.68292269917873
 31
0.0
  0
LINE
  5
169
330
17
100
AcDbEntity
  8
DUENN
370
25
100
AcDbLine
 10
171.53
 20
182.28
 30
0.0
 11
171.53
 21
79.68292269917873
 31
0.0
  0
LINE
  5
16A
330
17
100
AcDbEntity
  8
DUENN
370
25
100
AcDbLine
 10
141.53
 20
81.68292269917873
 30
0.0
 11
171.53
 21
81.68292269917873
 31
0.0
  0
SOLID
  5
16B
330
17
100
AcDbEntity
  8
DUENN
100
AcDbTrace
 10
141.53
 20
81.68292269917873
 30
0.0
 11
144.53
 21
80.78292269917873
 31
0.0
 12
144.53
 22
82.58292269917874
 32
0.0
 13
144.53
 23
82.58292269917874
 33
0.0
  0
SOLID
  5
16C
330
17
100
AcDbEntity
  8
DUENN
100
AcDbTrace
 10
171.53
 20
81.68292269917873
 30
0.0
 11
168.53
 21
82.58292269917874
 31
0.0
 12
168.53
 22
80.78292269917873
 32
0.0
 13
168.53
 23
80.78292269917873
 33
0.0
  0
TEXT
  5
16D
330
17
100
AcDbEntity
  8
TEXT
100
AcDbText
 10
156.53
 20
82.68292269917873
 30
0.0
 40
3.4999999999999996
  1
Ø30H7
 72
1
 11
156.53
 21
82.68292269917873
 31
0.0
100
AcDbText
  0
SOLID
  5
16E
330
17
100
AcDbEntity
  8
DUENN
100
AcDbTrace
 10
171.53
 20
83.48292269917873
 30
0.0
 11
171.53
 21
79.88292269917874
 31
0.0
 12
174.63
 22
81.68292269917873
 32
0.0
 13
174.63
 23
81.68292269917873
 33
0.0
  0
LINE
  5
16F
330
17
100
AcDbEntity
  8
DUENN
370
25
100
AcDbLine
 10
174.63
 20
81.68292269917873
 30
0.0
 11
182.23
 21
81.68292269917873
 31
0.0
  0
LWPOLYLINE
  5
170
330
17
100
AcDbEntity
  8
DUENN
370
25
100
AcDbPolyline
 90
4
 70
1
 10
182.23
 20
78.18292269917873
 10
189.23
 20
78.18292269917873
 10
189.23
 20
85.18292269917873
 10
182.23
 20
85.18292269917873
  0
TEXT
  5
171
330
17
100
AcDbEntity
  8
TEXT
100
AcDbText
 10
185.73
 20
79.93292269917873
 30
0.0
 40
3.4999999999999996
  1
A
 72
1
 11
185.73
 21
79.93292269917873
 31
0.0
100
AcDbText
  0
LWPOLYLINE
  5
172
330
17
100
AcDbEntity
  8
DUENN
370
25
100
AcDbPolyline
 90
3
 70
0
 10
166.53
 20
90.31086104927665
 10
171.53
 20
93.19761239522478
 10
161.53
 20
98.97111508712104
  0
LINE
  5
173
330
17
100
AcDbEntity
  8
DUENN
370
25
100
AcDbLine
 10
166.53
 20
90.31086104927665
 30
0.0
 11
166.53
 21
96.08436374117291
 31
0.0
  0
LINE
  5
174
330
17
100
AcDbEntity
  8
DUENN
370
25
100
AcDbLine
 10
161.53
 20
98.97111508712104
 30
0.0
 11
161.53
 21
102.97111508712104
 31
0.0
  0
TEXT
  5
175
330
17
100
AcDbEntity
  8
TEXT
100
AcDbText
 10
165.63
 20
99.77111508712103
 30
0.0
 40
3.4999999999999996
  1
z
 50
90.0
 11
165.63
 21
99.77111508712103
 31
0.0
100
AcDbText
  0
LINE
  5
176
330
17
100
AcDbEntity
  8
DUENN
370
25
100
AcDbLine
 10
138.23
 20
178.28
 30
0.0
 11
138.23
 21
67.32156464312928
 31
0.0
  0
LINE
  5
177
330
17
100
AcDbEntity
  8
DUENN
370
25
100
AcDbLine
 10
171.53
 20
182.28
 30
0.0
 11
171.53
 21
67.32156464312928
 31
0.0
  0
LINE
  5
178
330
17
100
AcDbEntity
  8
DUENN
370
25
100
AcDbLine
 10
138.23
 20
69.32156464312928
 30
0.0
 11
171.53
 21
69.32156464312928
 31
0.0
  0
SOLID
  5
179
330
17
100
AcDbEntity
  8
DUENN
100
AcDbTrace
 10
138.23
 20
69.32156464312928
 30
0.0
 11
141.23
 21
68.42156464312927
 31
0.0
 12
141.23
 22
70.22156464312928
 32
0.0
 13
141.23
 23
70.22156464312928
 33
0.0
  0
SOLID
  5
17A
330
17
100
AcDbEntity
  8
DUENN
100
AcDbTrace
 10
171.53
 20
69.32156464312928
 30
0.0
 11
168.53
 21
70.22156464312928
 31
0.0
 12
168.53
 22
68.42156464312927
 32
0.0
 13
168.53
 23
68.42156464312927
 33
0.0
  0
TEXT
  5
17B
330
17
100
AcDbEntity
  8
TEXT
100
AcDbText
 10
154.88
 20
70.32156464312928
 30
0.0
 40
3.4999999999999996
  1
33,3 +0,2
 72
1
 11
154.88
 21
70.32156464312928
 31
0.0
100
AcDbText
  0
LINE
  5
17C
330
17
100
AcDbEntity
  8
DUENN
370
25
100
AcDbLine
 10
138.23
 20
67.32156464312928
 30
0.0
 11
138.23
 21
52.41220049106764
 31
0.0
  0
LINE
  5
17D
330
17
100
AcDbEntity
  8
DUENN
370
25
100
AcDbLine
 10
138.23
 20
53.91220049106764
 30
0.0
 11
164.99195665057997
 21
53.91220049106764
 31
0.0
  0
LWPOLYLINE
  5
17E
330
17
100
AcDbEntity
  8
DUENN
370
25
100
AcDbPolyline
 90
3
 70
0
 10
145.1718381045641
 20
58.91220049106764
 10
148.05858945051224
 20
53.91220049106764
 10
153.8320921424085
 20
63.91220049106764
  0
LINE
  5
17F
330
17
100
AcDbEntity
  8
DUENN
370
25
100
AcDbLine
 10
145.1718381045641
 20
58.91220049106764
 30
0.0
 11
150.94534079646039
 21
58.91220049106764
 31
0.0
  0
LINE
  5
180
330
17
100
AcDbEntity
  8
DUENN
370
25
100
AcDbLine
 10
153.8320921424085
 20
63.91220049106764
 30
0.0
 11
157.8320921424085
 21
63.91220049106764
 31
0.0
  0
TEXT
  5
181
330
17
100
AcDbEntity
  8
TEXT
100
AcDbText
 10
154.6320921424085
 20
59.812200491067635
 30
0.0
 40
3.4999999999999996
  1
x
 11
154.6320921424085
 21
59.812200491067635
 31
0.0
100
AcDbText
  0
LINE
  5
182
330
17
100
AcDbEntity
  8
DUENN
370
25
100
AcDbLine
 10
267.78
 20
206.78
 30
0.0
 11
267.78
 21
274.01397002794005
 31
0.0
  0
LINE
  5
183
330
17
100
AcDbEntity
  8
DUENN
370
25
100
AcDbLine
 10
348.78
 20
206.78
 30
0.0
 11
348.78
 21
274.01397002794005
 31
0.0
  0
LINE
  5
184
330
17
100
AcDbEntity
  8
DUENN
370
25
100
AcDbLine
 10
267.78
 20
272.01397002794005
 30
0.0
 11
348.78
 21
272.01397002794005
 31
0.0
  0
SOLID
  5
185
330
17
100
AcDbEntity
  8
DUENN
100
AcDbTrace
 10
267.78
 20
272.01397002794005
 30
0.0
 11
270.78
 21
271.11397002794007
 31
0.0
 12
270.78
 22
272.91397002794
 32
0.0
 13
270.78
 23
272.91397002794
 33
0.0
  0
SOLID
  5
186
330
17
100
AcDbEntity
  8
DUENN
100
AcDbTrace
 10
348.78
 20
272.01397002794005
 30
0.0
 11
345.78
 21
272.91397002794
 31
0.0
 12
345.78
 22
271.11397002794007
 32
0.0
 13
345.78
 23
271.11397002794007
 33
0.0
  0
TEXT
  5
187
330
17
100
AcDbEntity
  8
TEXT
100
AcDbText
 10
308.28
 20
273.01397002794005
 30
0.0
 40
3.4999999999999996
  1
81
 72
1
 11
308.28
 21
273.01397002794005
 31
0.0
100
AcDbText
  0
LINE
  5
188
330
17
100
AcDbEntity
  8
DUENN
370
25
100
AcDbLine
 10
304.78
 20
223.78
 30
0.0
 11
304.78
 21
258.26593853187705
 31
0.0
  0
LINE
  5
189
330
17
100
AcDbEntity
  8
DUENN
370
25
100
AcDbLine
 10
324.78
 20
223.78
 30
0.0
 11
324.78
 21
258.26593853187705
 31
0.0
  0
LINE
  5
18A
330
17
100
AcDbEntity
  8
DUENN
370
25
100
AcDbLine
 10
304.78
 20
256.26593853187705
 30
0.0
 11
324.78
 21
256.26593853187705
 31
0.0
  0
SOLID
  5
18B
330
17
100
AcDbEntity
  8
DUENN
100
AcDbTrace
 10
304.78
 20
256.26593853187705
 30
0.0
 11
307.78
 21
255.36593853187705
 31
0.0
 12
307.78
 22
257.16593853187703
 32
0.0
 13
307.78
 23
257.16593853187703
 33
0.0
  0
SOLID
  5
18C
330
17
100
AcDbEntity
  8
DUENN
100
AcDbTrace
 10
324.78
 20
256.26593853187705
 30
0.0
 11
321.78
 21
257.16593853187703
 31
0.0
 12
321.78
 22
255.36593853187705
 32
0.0
 13
321.78
 23
255.36593853187705
 33
0.0
  0
TEXT
  5
18D
330
17
100
AcDbEntity
  8
TEXT
100
AcDbText
 10
314.78
 20
257.26593853187705
 30
0.0
 40
3.4999999999999996
  1
20
 72
1
 11
314.78
 21
257.26593853187705
 31
0.0
100
AcDbText
  0
LINE
  5
18E
330
17
100
AcDbEntity
  8
DUENN
370
25
100
AcDbLine
 10
324.78
 20
223.78
 30
0.0
 11
324.78
 21
258.26593853187705
 31
0.0
  0
LINE
  5
18F
330
17
100
AcDbEntity
  8
DUENN
370
25
100
AcDbLine
 10
348.78
 20
206.78
 30
0.0
 11
348.78
 21
258.26593853187705
 31
0.0
  0
LINE
  5
190
330
17
100
AcDbEntity
  8
DUENN
370
25
100
AcDbLine
 10
324.78
 20
256.26593853187705
 30
0.0
 11
348.78
 21
256.26593853187705
 31
0.0
  0
SOLID
  5
191
330
17
100
AcDbEntity
  8
DUENN
100
AcDbTrace
 10
324.78
 20
256.26593853187705
 30
0.0
 11
327.78
 21
255.36593853187705
 31
0.0
 12
327.78
 22
257.16593853187703
 32
0.0
 13
327.78
 23
257.16593853187703
 33
0.0
  0
SOLID
  5
192
330
17
100
AcDbEntity
  8
DUENN
100
AcDbTrace
 10
348.78
 20
256.26593853187705
 30
0.0
 11
345.78
 21
257.16593853187703
 31
0.0
 12
345.78
 22
255.36593853187705
 32
0.0
 13
345.78
 23
255.36593853187705
 33
0.0
  0
TEXT
  5
193
330
17
100
AcDbEntity
  8
TEXT
100
AcDbText
 10
336.78
 20
257.26593853187705
 30
0.0
 40
3.4999999999999996
  1
24
 72
1
 11
336.78
 21
257.26593853187705
 31
0.0
100
AcDbText
  0
LWPOLYLINE
  5
194
330
17
100
AcDbEntity
  8
DUENN
370
25
100
AcDbPolyline
 90
4
 70
1
 10
220.53340106680213
 20
216.98052662771994
 10
231.53340106680213
 20
216.98052662771994
 10
231.53340106680213
 20
223.98052662771994
 10
220.53340106680213
 20
223.98052662771994
  0
LWPOLYLINE
  5
195
330
17
100
AcDbEntity
  8
DUENN
370
25
100
AcDbPolyline
 90
4
 70
1
 10
231.53340106680213
 20
216.98052662771994
 10
246.73340106680212
 20
216.98052662771994
 10
246.73340106680212
 20
223.98052662771994
 10
231.53340106680213
 20
223.98052662771994
  0
LWPOLYLINE
  5
196
330
17
100
AcDbEntity
  8
DUENN
370
25
100
AcDbPolyline
 90
4
 70
1
 10
246.73340106680212
 20
216.98052662771994
 10
254.73340106680212
 20
216.98052662771994
 10
254.73340106680212
 20
223.98052662771994
 10
246.73340106680212
 20
223.98052662771994
  0
LINE
  5
197
330
17
100
AcDbEntity
  8
DUENN
370
25
100
AcDbLine
 10
223.63340106680212
 20
218.88052662771995
 30
0.0
 11
225.8334010668021
 21
222.08052662771993
 31
0.0
  0
SOLID
  5
198
330
17
100
AcDbEntity
  8
DUENN
100
AcDbTrace
 10
225.8334010668021
 20
222.08052662771993
 30
0.0
 11
224.4334010668021
 21
221.78052662771992
 31
0.0
 12
225.5334010668021
 22
220.68052662771993
 32
0.0
 13
225.5334010668021
 23
220.68052662771993
 33
0.0
  0
LINE
  5
199
330
17
100
AcDbEntity
  8
DUENN
370
25
100
AcDbLine
 10
225.83340106680214
 20
218.88052662771995
 30
0.0
 11
228.03340106680213
 21
222.08052662771993
 31
0.0
  0
SOLID
  5
19A
330
17
100
AcDbEntity
  8
DUENN
100
AcDbTrace
 10
228.03340106680213
 20
222.08052662771993
 30
0.0
 11
226.63340106680212
 21
221.78052662771992
 31
0.0
 12
227.73340106680212
 22
220.68052662771993
 32
0.0
 13
227.73340106680212
 23
220.68052662771993
 33
0.0
  0
LINE
  5
19B
330
17
100
AcDbEntity
  8
DUENN
370
25
100
AcDbLine
 10
223.63340106680212
 20
218.88052662771995
 30
0.0
 11
226.43340106680213
 21
218.88052662771995
 31
0.0
  0
TEXT
  5
19C
330
17
100
AcDbEntity
  8
TEXT
100
AcDbText
 10
232.93340106680213
 20
218.98052662771994
 30
0.0
 40
3.4999999999999996
  1
0,05
 11
232.93340106680213
 21
218.98052662771994
 31
0.0
100
AcDbText
  0
TEXT
  5
19D
330
17
100
AcDbEntity
  8
TEXT
100
AcDbText
 10
250.73340106680212
 20
218.98052662771994
 30
0.0
 40
3.4999999999999996
  1
A
 72
1
 11
250.73340106680212
 21
218.98052662771994
 31
0.0
100
AcDbText
  0
LWPOLYLINE
  5
19E
330
17
100
AcDbEntity
  8
DUENN
370
25
100
AcDbPolyline
 90
3
 70
0
 10
254.73340106680212
 20
220.48052662771994
 10
272.8575057150114
 20
220.48052662771994
 10
272.8575057150114
 20
205.78
  0
SOLID
  5
19F
330
17
100
AcDbEntity
  8
DUENN
100
AcDbTrace
 10
272.8575057150114
 20
205.78
 30
0.0
 11
273.7575057150114
 21
208.78
 31
0.0
 12
271.95750571501145
 22
208.78
 32
0.0
 13
271.95750571501145
 23
208.78
 33
0.0
  0
LWPOLYLINE
  5
1A0
330
17
100
AcDbEntity
  8
DUENN
370
25
100
AcDbPolyline
 90
3
 70
0
 10
276.405433905089
 20
210.78
 10
279.29218525103715
 20
205.78
 10
285.06568794293344
 20
215.78
  0
LINE
  5
1A1
330
17
100
AcDbEntity
  8
DUENN
370
25
100
AcDbLine
 10
276.405433905089
 20
210.78
 30
0.0
 11
282.1789365969853
 21
210.78
 31
0.0
  0
LINE
  5
1A2
330
17
100
AcDbEntity
  8
DUENN
370
25
100
AcDbLine
 10
285.06568794293344
 20
215.78
 30
0.0
 11
289.06568794293344
 21
215.78
 31
0.0
  0
TEXT
  5
1A3
330
17
100
AcDbEntity
  8
TEXT
100
AcDbText
 10
285.8656879429334
 20
211.68
 30
0.0
 40
3.4999999999999996
  1
z
 11
285.8656879429334
 21
211.68
 31
0.0
100
AcDbText
  0
LINE
  5
1A4
330
17
100
AcDbEntity
  8
DUENN
370
25
100
AcDbLine
 10
295.78
 20
208.78
 30
0.0
 11
246.30412327491322
 21
208.78
 31
0.0
  0
LINE
  5
1A5
330
17
100
AcDbEntity
  8
DUENN
370
25
100
AcDbLine
 10
295.78
 20
157.78
 30
0.0
 11
246.30412327491322
 21
157.78
 31
0.0
  0
LINE
  5
1A6
330
17
100
AcDbEntity
  8
DUENN
370
25
100
AcDbLine
 10
248.30412327491322
 20
208.78
 30
0.0
 11
248.30412327491322
 21
157.78
 31
0.0
  0
SOLID
  5
1A7
330
17
100
AcDbEntity
  8
DUENN
100
AcDbTrace
 10
248.30412327491322
 20
208.78
 30
0.0
 11
247.40412327491322
 21
205.78
 31
0.0
 12
249.20412327491323
 22
205.78
 32
0.0
 13
249.20412327491323
 23
205.78
 33
0.0
  0
SOLID
  5
1A8
330
17
100
AcDbEntity
  8
DUENN
100
AcDbTrace
 10
248.30412327491322
 20
157.78
 30
0.0
 11
249.20412327491323
 21
160.78
 31
0.0
 12
247.40412327491322
 22
160.78
 32
0.0
 13
247.40412327491322
 23
160.78
 33
0.0
  0
TEXT
  5
1A9
330
17
100
AcDbEntity
  8
TEXT
100
AcDbText
 10
247.30412327491322
 20
183.28
 30
0.0
 40
3.4999999999999996
  1
Ø51
 50
90.0
 72
1
 11
247.30412327491322
 21
183.28
 31
0.0
100
AcDbText
  0
LINE
  5
1AA
330
17
100
AcDbEntity
  8
DUENN
370
25
100
AcDbLine
 10
266.78
 20
205.78
 30
0.0
 11
258.6654813309626
 21
205.78
 31
0.0
  0
LINE
  5
1AB
330
17
100
AcDbEntity
  8
DUENN
370
25
100
AcDbLine
 10
266.78
 20
160.78
 30
0.0
 11
258.6654813309626
 21
160.78
 31
0.0
  0
LINE
  5
1AC
330
17
100
AcDbEntity
  8
DUENN
370
25
100
AcDbLine
 10
260.6654813309626
 20
205.78
 30
0.0
 11
260.6654813309626
 21
160.78
 31
0.0
  0
SOLID
  5
1AD
330
17
100
AcDbEntity
  8
DUENN
100
AcDbTrace
 10
260.6654813309626
 20
205.78
 30
0.0
 11
259.76548133096264
 21
202.78
 31
0.0
 12
261.5654813309626
 22
202.78
 32
0.0
 13
261.5654813309626
 23
202.78
 33
0.0
  0
SOLID
  5
1AE
330
17
100
AcDbEntity
  8
DUENN
100
AcDbTrace
 10
260.6654813309626
 20
160.78
 30
0.0
 11
261.5654813309626
 21
163.78
 31
0.0
 12
259.76548133096264
 22
163.78
 32
0.0
 13
259.76548133096264
 23
163.78
 33
0.0
  0
TEXT
  5
1AF
330
17
100
AcDbEntity
  8
TEXT
100
AcDbText
 10
259.6654813309626
 20
183.28
 30
0.0
 40
3.4999999999999996
  1
Ø45k6
 50
90.0
 72
1
 11
259.6654813309626
 21
183.28
 31
0.0
100
AcDbText
  0
SOLID
  5
1B0
330
17
100
AcDbEntity
  8
DUENN
100
AcDbTrace
 10
262.46548133096263
 20
160.78
 30
0.0
 11
258.8654813309626
 21
160.78
 31
0.0
 12
260.6654813309626
 22
157.68
 32
0.0
 13
260.6654813309626
 23
157.68
 33
0.0
  0
LINE
  5
1B1
330
17
100
AcDbEntity
  8
DUENN
370
25
100
AcDbLine
 10
260.6654813309626
 20
157.68
 30
0.0
 11
260.6654813309626
 21
149.5297180594361
 31
0.0
  0
LWPOLYLINE
  5
1B2
330
17
100
AcDbEntity
  8
DUENN
370
25
100
AcDbPolyline
 90
4
 70
1
 10
257.1654813309626
 20
142.5297180594361
 10
264.1654813309626
 20
142.5297180594361
 10
264.1654813309626
 20
149.5297180594361
 10
257.1654813309626
 20
149.5297180594361
  0
TEXT
  5
1B3
330
17
100
AcDbEntity
  8
TEXT
100
AcDbText
 10
260.6654813309626
 20
144.2797180594361
 30
0.0
 40
3.4999999999999996
  1
B
 72
1
 11
260.6654813309626
 21
144.2797180594361
 31
0.0
100
AcDbText
  0
LINE
  5
1B4
330
17
100
AcDbEntity
  8
DUENN
370
25
100
AcDbLine
 10
349.78
 20
205.78
 30
0.0
 11
364.94301921937176
 21
205.78
 31
0.0
  0
LINE
  5
1B5
330
17
100
AcDbEntity
  8
DUENN
370
25
100
AcDbLine
 10
349.78
 20
160.78
 30
0.0
 11
364.94301921937176
 21
160.78
 31
0.0
  0
LINE
  5
1B6
330
17
100
AcDbEntity
  8
DUENN
370
25
100
AcDbLine
 10
362.94301921937176
 20
205.78
 30
0.0
 11
362.94301921937176
 21
160.78
 31
0.0
  0
SOLID
  5
1B7
330
17
100
AcDbEntity
  8
DUENN
100
AcDbTrace
 10
362.94301921937176
 20
205.78
 30
0.0
 11
362.0430192193718
 21
202.78
 31
0.0
 12
363.84301921937174
 22
202.78
 32
0.0
 13
363.84301921937174
 23
202.78
 33
0.0
  0
SOLID
  5
1B8
330
17
100
AcDbEntity
  8
DUENN
100
AcDbTrace
 10
362.94301921937176
 20
160.78
 30
0.0
 11
363.84301921937174
 21
163.78
 31
0.0
 12
362.0430192193718
 22
163.78
 32
0.0
 13
362.0430192193718
 23
163.78
 33
0.0
  0
TEXT
  5
1B9
330
17
100
AcDbEntity
  8
TEXT
100
AcDbText
 10
361.94301921937176
 20
183.28
 30
0.0
 40
3.4999999999999996
  1
Ø45k6
 50
90.0
 72
1
 11
361.94301921937176
 21
183.28
 31
0.0
100
AcDbText
  0
LWPOLYLINE
  5
1BA
330
17
100
AcDbEntity
  8
DUENN
370
25
100
AcDbPolyline
 90
4
 70
1
 10
369.03903141139614
 20
223.245872491745
 10
380.03903141139614
 20
223.245872491745
 10
380.03903141139614
 20
230.245872491745
 10
369.03903141139614
 20
230.245872491745
  0
LWPOLYLINE
  5
1BB
330
17
100
AcDbEntity
  8
DUENN
370
25
100
AcDbPolyline
 90
4
 70
1
 10
380.03903141139614
 20
223.245872491745
 10
398.03903141139614
 20
223.245872491745
 10
398.03903141139614
 20
230.245872491745
 10
380.03903141139614
 20
230.245872491745
  0
LWPOLYLINE
  5
1BC
330
17
100
AcDbEntity
  8
DUENN
370
25
100
AcDbPolyline
 90
4
 70
1
 10
398.03903141139614
 20
223.245872491745
 10
406.03903141139614
 20
223.245872491745
 10
406.03903141139614
 20
230.245872491745
 10
398.03903141139614
 20
230.245872491745
  0
CIRCLE
  5
1BD
330
17
100
AcDbEntity
  8
DUENN
370
25
100
AcDbCircle
 10
374.53903141139614
 20
226.745872491745
 30
0.0
 40
2.0
  0
CIRCLE
  5
1BE
330
17
100
AcDbEntity
  8
DUENN
370
25
100
AcDbCircle
 10
374.53903141139614
 20
226.745872491745
 30
0.0
 40
1.1
  0
TEXT
  5
1BF
330
17
100
AcDbEntity
  8
TEXT
100
AcDbText
 10
381.4390314113961
 20
225.245872491745
 30
0.0
 40
3.4999999999999996
  1
Ø0,05
 11
381.4390314113961
 21
225.245872491745
 31
0.0
100
AcDbText
  0
TEXT
  5
1C0
330
17
100
AcDbEntity
  8
TEXT
100
AcDbText
 10
402.03903141139614
 20
225.245872491745
 30
0.0
 40
3.4999999999999996
  1
B
 72
1
 11
402.03903141139614
 21
225.245872491745
 31
0.0
100
AcDbText
  0
LWPOLYLINE
  5
1C1
330
17
100
AcDbEntity
  8
DUENN
370
25
100
AcDbPolyline
 90
3
 70
0
 10
369.03903141139614
 20
226.745872491745
 10
362.94301921937176
 20
226.745872491745
 10
362.94301921937176
 20
205.78
  0
SOLID
  5
1C2
330
17
100
AcDbEntity
  8
DUENN
100
AcDbTrace
 10
362.94301921937176
 20
205.78
 30
0.0
 11
363.84301921937174
 21
208.78
 31
0.0
 12
362.0430192193718
 22
208.78
 32
0.0
 13
362.0430192193718
 23
208.78
 33
0.0
  0
LWPOLYLINE
  5
1C3
330
17
100
AcDbEntity
  8
DUENN
370
25
100
AcDbPolyline
 90
3
 70
0
 10
348.78
 20
234.252561171789
 10
357.18567437134874
 20
242.38057742782152
 10
374.6270425874185
 20
242.38057742782152
  0
SOLID
  5
1C4
330
17
100
AcDbEntity
  8
DUENN
100
AcDbTrace
 10
348.78
 20
234.252561171789
 30
0.0
 11
351.5622611842027
 21
235.69097095445832
 31
0.0
 12
350.3110200073604
 22
236.98495531192728
 32
0.0
 13
350.3110200073604
 23
236.98495531192728
 33
0.0
  0
LWPOLYLINE
  5
1C5
330
17
100
AcDbEntity
  8
DUENN
370
25
100
AcDbPolyline
 90
3
 70
0
 10
361.0722699054277
 20
247.38057742782152
 10
363.9590212513758
 20
242.38057742782152
 10
369.7325239432721
 20
252.38057742782152
  0
LINE
  5
1C6
330
17
100
AcDbEntity
  8
DUENN
370
25
100
AcDbLine
 10
361.0722699054277
 20
247.38057742782152
 30
0.0
 11
366.84577259732396
 21
247.38057742782152
 31
0.0
  0
LINE
  5
1C7
330
17
100
AcDbEntity
  8
DUENN
370
25
100
AcDbLine
 10
369.7325239432721
 20
252.38057742782152
 30
0.0
 11
373.7325239432721
 21
252.38057742782152
 31
0.0
  0
TEXT
  5
1C8
330
17
100
AcDbEntity
  8
TEXT
100
AcDbText
 10
370.53252394327205
 20
248.28057742782153
 30
0.0
 40
3.4999999999999996
  1
z
 11
370.53252394327205
 21
248.28057742782153
 31
0.0
100
AcDbText
  0
LWPOLYLINE
  5
1C9
330
17
100
AcDbEntity
  8
DUENN
370
25
100
AcDbPolyline
 90
4
 70
1
 10
228.15881805096944
 20
121.19367538735077
 10
239.15881805096944
 20
121.19367538735077
 10
239.15881805096944
 20
128.19367538735077
 10
228.15881805096944
 20
128.19367538735077
  0
LWPOLYLINE
  5
1CA
330
17
100
AcDbEntity
  8
DUENN
370
25
100
AcDbPolyline
 90
4
 70
1
 10
239.15881805096944
 20
121.19367538735077
 10
254.35881805096943
 20
121.19367538735077
 10
254.35881805096943
 20
128.19367538735077
 10
239.15881805096944
 20
128.19367538735077
  0
LWPOLYLINE
  5
1CB
330
17
100
AcDbEntity
  8
DUENN
370
25
100
AcDbPolyline
 90
4
 70
1
 10
254.35881805096943
 20
121.19367538735077
 10
262.35881805096943
 20
121.19367538735077
 10
262.35881805096943
 20
128.19367538735077
 10
254.35881805096943
 20
128.19367538735077
  0
LINE
  5
1CC
330
17
100
AcDbEntity
  8
DUENN
370
25
100
AcDbLine
 10
231.25881805096944
 20
123.09367538735077
 30
0.0
 11
233.45881805096943
 21
126.29367538735076
 31
0.0
  0
SOLID
  5
1CD
330
17
100
AcDbEntity
  8
DUENN
100
AcDbTrace
 10
233.45881805096943
 20
126.29367538735076
 30
0.0
 11
232.05881805096942
 21
125.99367538735076
 31
0.0
 12
233.15881805096942
 22
124.89367538735075
 32
0.0
 13
233.15881805096942
 23
124.89367538735075
 33
0.0
  0
LINE
  5
1CE
330
17
100
AcDbEntity
  8
DUENN
370
25
100
AcDbLine
 10
233.45881805096946
 20
123.09367538735077
 30
0.0
 11
235.65881805096944
 21
126.29367538735076
 31
0.0
  0
SOLID
  5
1CF
330
17
100
AcDbEntity
  8
DUENN
100
AcDbTrace
 10
235.65881805096944
 20
126.29367538735076
 30
0.0
 11
234.25881805096944
 21
125.99367538735076
 31
0.0
 12
235.35881805096943
 22
124.89367538735075
 32
0.0
 13
235.35881805096943
 23
124.89367538735075
 33
0.0
  0
LINE
  5
1D0
330
17
100
AcDbEntity
  8
DUENN
370
25
100
AcDbLine
 10
231.25881805096944
 20
123.09367538735077
 30
0.0
 11
234.05881805096945
 21
123.09367538735077
 31
0.0
  0
TEXT
  5
1D1
330
17
100
AcDbEntity
  8
TEXT
100
AcDbText
 10
240.55881805096945
 20
123.19367538735077
 30
0.0
 40
3.4999999999999996
  1
0,05
 11
240.55881805096945
 21
123.19367538735077
 31
0.0
100
AcDbText
  0
TEXT
  5
1D2
330
17
100
AcDbEntity
  8
TEXT
100
AcDbText
 10
258.35881805096943
 20
123.19367538735077
 30
0.0
 40
3.4999999999999996
  1
A
 72
1
 11
258.35881805096943
 21
123.19367538735077
 31
0.0
100
AcDbText
  0
LINE
  5
1D3
330
17
100
AcDbEntity
  8
DUENN
370
25
100
AcDbLine
 10
262.35881805096943
 20
124.69367538735077
 30
0.0
 11
306.28
 21
124.69367538735077
 31
0.0
  0
SOLID
  5
1D4
330
17
100
AcDbEntity
  8
DUENN
100
AcDbTrace
 10
306.28
 20
124.69367538735077
 30
0.0
 11
303.28
 21
125.59367538735077
 31
0.0
 12
303.28
 22
123.79367538735076
 32
0.0
 13
303.28
 23
123.79367538735076
 33
0.0
  0
LWPOLYLINE
  5
1D5
330
17
100
AcDbEntity
  8
DUENN
370
25
100
AcDbPolyline
 90
4
 70
1
 10
355.15367030734063
 20
121.19367538735077
 10
366.15367030734063
 20
121.19367538735077
 10
366.15367030734063
 20
128.19367538735077
 10
355.15367030734063
 20
128.19367538735077
  0
LWPOLYLINE
  5
1D6
330
17
100
AcDbEntity
  8
DUENN
370
25
100
AcDbPolyline
 90
4
 70
1
 10
366.15367030734063
 20
121.19367538735077
 10
381.3536703073406
 20
121.19367538735077
 10
381.3536703073406
 20
128.19367538735077
 10
366.15367030734063
 20
128.19367538735077
  0
LWPOLYLINE
  5
1D7
330
17
100
AcDbEntity
  8
DUENN
370
25
100
AcDbPolyline
 90
4
 70
1
 10
381.3536703073406
 20
121.19367538735077
 10
389.3536703073406
 20
121.19367538735077
 10
389.3536703073406
 20
128.19367538735077
 10
381.3536703073406
 20
128.19367538735077
  0
LINE
  5
1D8
330
17
100
AcDbEntity
  8
DUENN
370
25
100
AcDbLine
 10
358.2536703073406
 20
123.09367538735077
 30
0.0
 11
360.45367030734064
 21
126.29367538735076
 31
0.0
  0
SOLID
  5
1D9
330
17
100
AcDbEntity
  8
DUENN
100
AcDbTrace
 10
360.45367030734064
 20
126.29367538735076
 30
0.0
 11
359.05367030734067
 21
125.99367538735076
 31
0.0
 12
360.15367030734063
 22
124.89367538735075
 32
0.0
 13
360.15367030734063
 23
124.89367538735075
 33
0.0
  0
LINE
  5
1DA
330
17
100
AcDbEntity
  8
DUENN
370
25
100
AcDbLine
 10
360.4536703073406
 20
123.09367538735077
 30
0.0
 11
362.65367030734063
 21
126.29367538735076
 31
0.0
  0
SOLID
  5
1DB
330
17
100
AcDbEntity
  8
DUENN
100
AcDbTrace
 10
362.65367030734063
 20
126.29367538735076
 30
0.0
 11
361.25367030734066
 21
125.99367538735076
 31
0.0
 12
362.3536703073406
 22
124.89367538735075
 32
0.0
 13
362.3536703073406
 23
124.89367538735075
 33
0.0
  0
LINE
  5
1DC
330
17
100
AcDbEntity
  8
DUENN
370
25
100
AcDbLine
 10
358.25367030734066
 20
123.09367538735077
 30
0.0
 11
361.05367030734067
 21
123.09367538735077
 31
0.0
  0
TEXT
  5
1DD
330
17
100
AcDbEntity
  8
TEXT
100
AcDbText
 10
367.5536703073406
 20
123.19367538735077
 30
0.0
 40
3.4999999999999996
  1
0,05
 11
367.5536703073406
 21
123.19367538735077
 31
0.0
100
AcDbText
  0
TEXT
  5
1DE
330
17
100
AcDbEntity
  8
TEXT
100
AcDbText
 10
385.3536703073406
 20
123.19367538735077
 30
0.0
 40
3.4999999999999996
  1
A
 72
1
 11
385.3536703073406
 21
123.19367538735077
 31
0.0
100
AcDbText
  0
LINE
  5
1DF
330
17
100
AcDbEntity
  8
DUENN
370
25
100
AcDbLine
 10
355.15367030734063
 20
124.69367538735077
 30
0.0
 11
323.28
 21
124.69367538735077
 31
0.0
  0
SOLID
  5
1E0
330
17
100
AcDbEntity
  8
DUENN
100
AcDbTrace
 10
323.28
 20
124.69367538735077
 30
0.0
 11
326.28
 21
123.79367538735076
 31
0.0
 12
326.28
 22
125.59367538735077
 32
0.0
 13
326.28
 23
125.59367538735077
 33
0.0
  0
LINE
  5
1E1
330
17
100
AcDbEntity
  8
DUENN
370
25
100
AcDbLine
 10
306.28
 20
121.28
 30
0.0
 11
306.28
 21
89.6736093472187
 31
0.0
  0
LINE
  5
1E2
330
17
100
AcDbEntity
  8
DUENN
370
25
100
AcDbLine
 10
323.28
 20
121.28
 30
0.0
 11
323.28
 21
89.6736093472187
 31
0.0
  0
LINE
  5
1E3
330
17
100
AcDbEntity
  8
DUENN
370
25
100
AcDbLine
 10
306.28
 20
91.6736093472187
 30
0.0
 11
323.28
 21
91.6736093472187
 31
0.0
  0
SOLID
  5
1E4
330
17
100
AcDbEntity
  8
DUENN
100
AcDbTrace
 10
306.28
 20
91.6736093472187
 30
0.0
 11
309.28
 21
90.7736093472187
 31
0.0
 12
309.28
 22
92.5736093472187
 32
0.0
 13
309.28
 23
92.5736093472187
 33
0.0
  0
SOLID
  5
1E5
330
17
100
AcDbEntity
  8
DUENN
100
AcDbTrace
 10
323.28
 20
91.6736093472187
 30
0.0
 11
320.28
 21
92.5736093472187
 31
0.0
 12
320.28
 22
90.7736093472187
 32
0.0
 13
320.28
 23
90.7736093472187
 33
0.0
  0
TEXT
  5
1E6
330
17
100
AcDbEntity
  8
TEXT
100
AcDbText
 10
308.50199999999995
 20
92.6736093472187
 30
0.0
 40
3.4999999999999996
  1
17
 11
308.50199999999995
 21
92.6736093472187
 31
0.0
100
AcDbText
  0
TEXT
  5
1E7
330
17
100
AcDbEntity
  8
TEXT
100
AcDbText
 10
315.602
 20
95.1736093472187
 30
0.0
 40
2.2
  1
-0,1
 11
315.602
 21
95.1736093472187
 31
0.0
100
AcDbText
  0
TEXT
  5
1E8
330
17
100
AcDbEntity
  8
TEXT
100
AcDbText
 10
315.602
 20
92.1736093472187
 30
0.0
 40
2.2
  1
-0,2
 11
315.602
 21
92.1736093472187
 31
0.0
100
AcDbText
  0
LINE
  5
1E9
330
17
100
AcDbEntity
  8
DUENN
370
25
100
AcDbLine
 10
323.28
 20
121.28
 30
0.0
 11
323.28
 21
89.6736093472187
 31
0.0
  0
LINE
  5
1EA
330
17
100
AcDbEntity
  8
DUENN
370
25
100
AcDbLine
 10
348.78
 20
159.78
 30
0.0
 11
348.78
 21
89.6736093472187
 31
0.0
  0
LINE
  5
1EB
330
17
100
AcDbEntity
  8
DUENN
370
25
100
AcDbLine
 10
323.28
 20
91.6736093472187
 30
0.0
 11
348.78
 21
91.6736093472187
 31
0.0
  0
SOLID
  5
1EC
330
17
100
AcDbEntity
  8
DUENN
100
AcDbTrace
 10
323.28
 20
91.6736093472187
 30
0.0
 11
326.28
 21
90.7736093472187
 31
0.0
 12
326.28
 22
92.5736093472187
 32
0.0
 13
326.28
 23
92.5736093472187
 33
0.0
  0
SOLID
  5
1ED
330
17
100
AcDbEntity
  8
DUENN
100
AcDbTrace
 10
348.78
 20
91.6736093472187
 30
0.0
 11
345.78
 21
92.5736093472187
 31
0.0
 12
345.78
 22
90.7736093472187
 32
0.0
 13
345.78
 23
90.7736093472187
 33
0.0
  0
TEXT
  5
1EE
330
17
100
AcDbEntity
  8
TEXT
100
AcDbText
 10
336.03
 20
92.6736093472187
 30
0.0
 40
3.4999999999999996
  1
25,5
 72
1
 11
336.03
 21
92.6736093472187
 31
0.0
100
AcDbText
  0
LINE
  5
1EF
330
17
100
AcDbEntity
  8
DUENN
370
25
100
AcDbLine
 10
256.43213953094573
 20
91.6736093472187
 30
0.0
 11
306.28
 21
91.6736093472187
 31
0.0
  0
LWPOLYLINE
  5
1F0
330
17
100
AcDbEntity
  8
DUENN
370
25
100
AcDbPolyline
 90
3
 70
0
 10
257.27072896901245
 20
96.6736093472187
 10
260.1574803149606
 20
91.6736093472187
 10
265.9309830068569
 20
101.6736093472187
  0
LINE
  5
1F1
330
17
100
AcDbEntity
  8
DUENN
370
25
100
AcDbLine
 10
257.27072896901245
 20
96.6736093472187
 30
0.0
 11
263.04423166090874
 21
96.6736093472187
 31
0.0
  0
LINE
  5
1F2
330
17
100
AcDbEntity
  8
DUENN
370
25
100
AcDbLine
 10
265.9309830068569
 20
101.6736093472187
 30
0.0
 11
269.9309830068569
 21
101.6736093472187
 31
0.0
  0
TEXT
  5
1F3
330
17
100
AcDbEntity
  8
TEXT
100
AcDbText
 10
266.73098300685683
 20
97.5736093472187
 30
0.0
 40
3.4999999999999996
  1
y
 11
266.73098300685683
 21
97.5736093472187
 31
0.0
100
AcDbText
  0
LINE
  5
1F4
330
17
100
AcDbEntity
  8
DUENN
370
25
100
AcDbLine
 10
296.78
 20
156.78
 30
0.0
 11
296.78
 21
70.87757175514352
 31
0.0
  0
LINE
  5
1F5
330
17
100
AcDbEntity
  8
DUENN
370
25
100
AcDbLine
 10
332.78
 20
156.78
 30
0.0
 11
332.78
 21
70.87757175514352
 31
0.0
  0
LINE
  5
1F6
330
17
100
AcDbEntity
  8
DUENN
370
25
100
AcDbLine
 10
296.78
 20
72.87757175514352
 30
0.0
 11
332.78
 21
72.87757175514352
 31
0.0
  0
SOLID
  5
1F7
330
17
100
AcDbEntity
  8
DUENN
100
AcDbTrace
 10
296.78
 20
72.87757175514352
 30
0.0
 11
299.78
 21
71.97757175514352
 31
0.0
 12
299.78
 22
73.77757175514353
 32
0.0
 13
299.78
 23
73.77757175514353
 33
0.0
  0
SOLID
  5
1F8
330
17
100
AcDbEntity
  8
DUENN
100
AcDbTrace
 10
332.78
 20
72.87757175514352
 30
0.0
 11
329.78
 21
73.77757175514353
 31
0.0
 12
329.78
 22
71.97757175514352
 32
0.0
 13
329.78
 23
71.97757175514352
 33
0.0
  0
TEXT
  5
1F9
330
17
100
AcDbEntity
  8
TEXT
100
AcDbText
 10
314.78
 20
73.87757175514352
 30
0.0
 40
3.4999999999999996
  1
36 -0,1
 72
1
 11
314.78
 21
73.87757175514352
 31
0.0
100
AcDbText
  0
LINE
  5
1FA
330
17
100
AcDbEntity
  8
DUENN
370
25
100
AcDbLine
 10
332.78
 20
156.78
 30
0.0
 11
332.78
 21
70.87757175514352
 31
0.0
  0
LINE
  5
1FB
330
17
100
AcDbEntity
  8
DUENN
370
25
100
AcDbLine
 10
348.78
 20
159.78
 30
0.0
 11
348.78
 21
70.87757175514352
 31
0.0
  0
LINE
  5
1FC
330
17
100
AcDbEntity
  8
DUENN
370
25
100
AcDbLine
 10
332.78
 20
72.87757175514352
 30
0.0
 11
348.78
 21
72.87757175514352
 31
0.0
  0
SOLID
  5
1FD
330
17
100
AcDbEntity
  8
DUENN
100
AcDbTrace
 10
332.78
 20
72.87757175514352
 30
0.0
 11
335.78
 21
71.97757175514352
 31
0.0
 12
335.78
 22
73.77757175514353
 32
0.0
 13
335.78
 23
73.77757175514353
 33
0.0
  0
SOLID
  5
1FE
330
17
100
AcDbEntity
  8
DUENN
100
AcDbTrace
 10
348.78
 20
72.87757175514352
 30
0.0
 11
345.78
 21
73.77757175514353
 31
0.0
 12
345.78
 22
71.97757175514352
 32
0.0
 13
345.78
 23
71.97757175514352
 33
0.0
  0
TEXT
  5
1FF
330
17
100
AcDbEntity
  8
TEXT
100
AcDbText
 10
340.78
 20
73.87757175514352
 30
0.0
 40
3.4999999999999996
  1
16
 72
1
 11
340.78
 21
73.87757175514352
 31
0.0
100
AcDbText
  0
LINE
  5
200
330
17
100
AcDbEntity
  8
DUENN
370
25
100
AcDbLine
 10
270.82550165100326
 20
72.87757175514352
 30
0.0
 11
296.78
 21
72.87757175514352
 31
0.0
  0
LWPOLYLINE
  5
201
330
17
100
AcDbEntity
  8
DUENN
370
25
100
AcDbPolyline
 90
3
 70
0
 10
271.8334247610708
 20
77.87757175514352
 10
274.7201761070189
 20
72.87757175514352
 10
280.4936787989152
 20
82.87757175514352
  0
LINE
  5
202
330
17
100
AcDbEntity
  8
DUENN
370
25
100
AcDbLine
 10
271.8334247610708
 20
77.87757175514352
 30
0.0
 11
277.60692745296706
 21
77.87757175514352
 31
0.0
  0
LINE
  5
203
330
17
100
AcDbEntity
  8
DUENN
370
25
100
AcDbLine
 10
280.4936787989152
 20
82.87757175514352
 30
0.0
 11
284.4936787989152
 21
82.87757175514352
 31
0.0
  0
TEXT
  5
204
330
17
100
AcDbEntity
  8
TEXT
100
AcDbText
 10
281.29367879891515
 20
78.77757175514353
 30
0.0
 40
3.4999999999999996
  1
y
 11
281.29367879891515
 21
78.77757175514353
 31
0.0
100
AcDbText
  0
LWPOLYLINE
  5
205
330
17
100
AcDbEntity
  8
DUENN
370
25
100
AcDbPolyline
 90
3
 70
0
 10
25.937970979078614
 20
61.6
 10
29.2
 20
55.95
 10
35.72405804184277
 20
67.25
  0
CIRCLE
  5
206
330
17
100
AcDbEntity
  8
DUENN
370
25
100
AcDbCircle
 10
29.2
 20
59.453
 30
0.0
 40
1.6949999999999998
  0
TEXT
  5
207
330
17
100
AcDbEntity
  8
TEXT
100
AcDbText
 10
38.4
 20
57.2
 30
0.0
 40
7.9
  1
(
 11
38.4
 21
57.2
 31
0.0
100
AcDbText
  0
LWPOLYLINE
  5
208
330
17
100
AcDbEntity
  8
DUENN
370
25
100
AcDbPolyline
 90
3
 70
0
 10
40.53797097907861
 20
61.6
 10
43.8
 20
55.95
 10
50.32405804184277
 20
67.25
  0
LINE
  5
209
330
17
100
AcDbEntity
  8
DUENN
370
25
100
AcDbLine
 10
40.53797097907861
 20
61.6
 30
0.0
 11
47.062029020921386
 21
61.6
 31
0.0
  0
TEXT
  5
20A
330
17
100
AcDbEntity
  8
TEXT
100
AcDbText
 10
49.7
 20
57.2
 30
0.0
 40
7.9
  1
)
 11
49.7
 21
57.2
 31
0.0
100
AcDbText
  0
LWPOLYLINE
  5
20B
330
17
100
AcDbEntity
  8
DUENN
370
25
100
AcDbPolyline
 90
3
 70
0
 10
25.937970979078614
 20
43.65
 10
29.2
 20
38.0
 10
35.72405804184277
 20
49.3
  0
LINE
  5
20C
330
17
100
AcDbEntity
  8
DUENN
370
25
100
AcDbLine
 10
25.937970979078614
 20
43.65
 30
0.0
 11
32.462029020921385
 21
43.65
 31
0.0
  0
LINE
  5
20D
330
17
100
AcDbEntity
  8
DUENN
370
25
100
AcDbLine
 10
35.72405804184277
 20
49.3
 30
0.0
 11
45.9
 21
49.3
 31
0.0
  0
TEXT
  5
20E
330
17
100
AcDbEntity
  8
TEXT
100
AcDbText
 10
37.7
 20
44.5
 30
0.0
 40
3.4999999999999996
  1
x
 11
37.7
 21
44.5
 31
0.0
100
AcDbText
  0
TEXT
  5
20F
330
17
100
AcDbEntity
  8
TEXT
100
AcDbText
 10
50.2
 20
42.5
 30
0.0
 40
3.4999999999999996
  1
=
 11
50.2
 21
42.5
 31
0.0
100
AcDbText
  0
LWPOLYLINE
  5
210
330
17
100
AcDbEntity
  8
DUENN
370
25
100
AcDbPolyline
 90
3
 70
0
 10
55.937970979078614
 20
43.65
 10
59.2
 20
38.0
 10
65.72405804184277
 20
49.3
  0
LINE
  5
211
330
17
100
AcDbEntity
  8
DUENN
370
25
100
AcDbLine
 10
55.937970979078614
 20
43.65
 30
0.0
 11
62.46202902092139
 21
43.65
 31
0.0
  0
LINE
  5
212
330
17
100
AcDbEntity
  8
DUENN
370
25
100
AcDbLine
 10
65.72405804184277
 20
49.3
 30
0.0
 11
81.0
 21
49.3
 31
0.0
  0
TEXT
  5
213
330
17
100
AcDbEntity
  8
TEXT
100
AcDbText
 10
68.10000000000001
 20
44.5
 30
0.0
 40
3.4999999999999996
  1
Rz 63
 11
68.10000000000001
 21
44.5
 31
0.0
100
AcDbText
  0
LWPOLYLINE
  5
214
330
17
100
AcDbEntity
  8
DUENN
370
25
100
AcDbPolyline
 90
3
 70
0
 10
25.937970979078614
 20
31.709999999999997
 10
29.2
 20
26.06
 10
35.72405804184277
 20
37.36
  0
LINE
  5
215
330
17
100
AcDbEntity
  8
DUENN
370
25
100
AcDbLine
 10
25.937970979078614
 20
31.709999999999997
 30
0.0
 11
32.462029020921385
 21
31.709999999999997
 31
0.0
  0
LINE
  5
216
330
17
100
AcDbEntity
  8
DUENN
370
25
100
AcDbLine
 10
35.72405804184277
 20
37.36
 30
0.0
 11
45.9
 21
37.36
 31
0.0
  0
TEXT
  5
217
330
17
100
AcDbEntity
  8
TEXT
100
AcDbText
 10
37.7
 20
32.56
 30
0.0
 40
3.4999999999999996
  1
y
 11
37.7
 21
32.56
 31
0.0
100
AcDbText
  0
TEXT
  5
218
330
17
100
AcDbEntity
  8
TEXT
100
AcDbText
 10
50.2
 20
30.56
 30
0.0
 40
3.4999999999999996
  1
=
 11
50.2
 21
30.56
 31
0.0
100
AcDbText
  0
LWPOLYLINE
  5
219
330
17
100
AcDbEntity
  8
DUENN
370
25
100
AcDbPolyline
 90
3
 70
0
 10
55.937970979078614
 20
31.709999999999997
 10
59.2
 20
26.06
 10
65.72405804184277
 20
37.36
  0
LINE
  5
21A
330
17
100
AcDbEntity
  8
DUENN
370
25
100
AcDbLine
 10
55.937970979078614
 20
31.709999999999997
 30
0.0
 11
62.46202902092139
 21
31.709999999999997
 31
0.0
  0
LINE
  5
21B
330
17
100
AcDbEntity
  8
DUENN
370
25
100
AcDbLine
 10
65.72405804184277
 20
37.36
 30
0.0
 11
81.0
 21
37.36
 31
0.0
  0
TEXT
  5
21C
330
17
100
AcDbEntity
  8
TEXT
100
AcDbText
 10
68.10000000000001
 20
32.56
 30
0.0
 40
3.4999999999999996
  1
Rz 16
 11
68.10000000000001
 21
32.56
 31
0.0
100
AcDbText
  0
LWPOLYLINE
  5
21D
330
17
100
AcDbEntity
  8
DUENN
370
25
100
AcDbPolyline
 90
3
 70
0
 10
25.937970979078614
 20
19.689999999999998
 10
29.2
 20
14.04
 10
35.72405804184277
 20
25.339999999999996
  0
LINE
  5
21E
330
17
100
AcDbEntity
  8
DUENN
370
25
100
AcDbLine
 10
25.937970979078614
 20
19.689999999999998
 30
0.0
 11
32.462029020921385
 21
19.689999999999998
 31
0.0
  0
LINE
  5
21F
330
17
100
AcDbEntity
  8
DUENN
370
25
100
AcDbLine
 10
35.72405804184277
 20
25.339999999999996
 30
0.0
 11
45.9
 21
25.339999999999996
 31
0.0
  0
TEXT
  5
220
330
17
100
AcDbEntity
  8
TEXT
100
AcDbText
 10
37.7
 20
20.54
 30
0.0
 40
3.4999999999999996
  1
z
 11
37.7
 21
20.54
 31
0.0
100
AcDbText
  0
TEXT
  5
221
330
17
100
AcDbEntity
  8
TEXT
100
AcDbText
 10
50.2
 20
18.54
 30
0.0
 40
3.4999999999999996
  1
=
 11
50.2
 21
18.54
 31
0.0
100
AcDbText
  0
LWPOLYLINE
  5
222
330
17
100
AcDbEntity
  8
DUENN
370
25
100
AcDbPolyline
 90
3
 70
0
 10
55.937970979078614
 20
19.689999999999998
 10
59.2
 20
14.04
 10
65.72405804184277
 20
25.339999999999996
  0
LINE
  5
223
330
17
100
AcDbEntity
  8
DUENN
370
25
100
AcDbLine
 10
55.937970979078614
 20
19.689999999999998
 30
0.0
 11
62.46202902092139
 21
19.689999999999998
 31
0.0
  0
LINE
  5
224
330
17
100
AcDbEntity
  8
DUENN
370
25
100
AcDbLine
 10
65.72405804184277
 20
25.339999999999996
 30
0.0
 11
81.0
 21
25.339999999999996
 31
0.0
  0
TEXT
  5
225
330
17
100
AcDbEntity
  8
TEXT
100
AcDbText
 10
68.10000000000001
 20
20.54
 30
0.0
 40
3.4999999999999996
  1
Rz 4
 11
68.10000000000001
 21
20.54
 31
0.0
100
AcDbText
  0
LINE
  5
226
330
17
100
AcDbEntity
  8
DUENN
370
25
100
AcDbLine
 10
235.26543053086107
 20
62.378884091101526
 30
0.0
 11
235.26543053086107
 21
68.37888409110153
 31
0.0
  0
LINE
  5
227
330
17
100
AcDbEntity
  8
DUENN
370
25
100
AcDbLine
 10
231.26543053086107
 20
68.37888409110153
 30
0.0
 11
235.26543053086107
 21
68.37888409110153
 31
0.0
  0
LINE
  5
228
330
17
100
AcDbEntity
  8
DUENN
370
25
100
AcDbLine
 10
235.26543053086107
 20
68.37888409110153
 30
0.0
 11
239.26543053086107
 21
72.37888409110153
 31
0.0
  0
LINE
  5
229
330
17
100
AcDbEntity
  8
DUENN
370
25
100
AcDbLine
 10
239.26543053086107
 20
72.37888409110153
 30
0.0
 11
244.26543053086107
 21
72.37888409110153
 31
0.0
  0
LINE
  5
22A
330
17
100
AcDbEntity
  8
DUENN
370
25
100
AcDbLine
 10
239.26543053086107
 20
72.37888409110153
 30
0.0
 11
239.26543053086107
 21
75.37888409110153
 31
0.0
  0
TEXT
  5
22B
330
17
100
AcDbEntity
  8
TEXT
100
AcDbText
 10
239.86543053086106
 20
73.17888409110152
 30
0.0
 40
2.5000000000000004
  1
-0,3
 11
239.86543053086106
 21
73.17888409110152
 31
0.0
100
AcDbText
  0
LINE
  5
22C
330
17
100
AcDbEntity
  8
DUENN
370
25
100
AcDbLine
 10
253.26543053086107
 20
68.37888409110153
 30
0.0
 11
253.26543053086107
 21
63.378884091101526
 31
0.0
  0
LINE
  5
22D
330
17
100
AcDbEntity
  8
DUENN
370
25
100
AcDbLine
 10
253.26543053086107
 20
63.378884091101526
 30
0.0
 11
258.26543053086107
 21
63.378884091101526
 31
0.0
  0
LINE
  5
22E
330
17
100
AcDbEntity
  8
DUENN
370
25
100
AcDbLine
 10
253.26543053086107
 20
63.378884091101526
 30
0.0
 11
258.26543053086107
 21
68.37888409110153
 31
0.0
  0
LINE
  5
22F
330
17
100
AcDbEntity
  8
DUENN
370
25
100
AcDbLine
 10
258.26543053086107
 20
68.37888409110153
 30
0.0
 11
263.26543053086107
 21
68.37888409110153
 31
0.0
  0
LINE
  5
230
330
17
100
AcDbEntity
  8
DUENN
370
25
100
AcDbLine
 10
258.26543053086107
 20
68.37888409110153
 30
0.0
 11
258.26543053086107
 21
71.37888409110153
 31
0.0
  0
TEXT
  5
231
330
17
100
AcDbEntity
  8
TEXT
100
AcDbText
 10
258.8654305308611
 20
69.17888409110152
 30
0.0
 40
2.5000000000000004
  1
+0,3
 11
258.8654305308611
 21
69.17888409110152
 31
0.0
100
AcDbText
  0
TEXT
  5
232
330
17
100
AcDbEntity
  8
TEXT
100
AcDbText
 10
130.0
 20
41.0
 30
0.0
 40
3.4999999999999996
  1
Nicht bemaßte Freistiche DIN 509 - E0,6×0,3
 11
130.0
 21
41.0
 31
0.0
100
AcDbText
  0
TEXT
  5
233
330
17
100
AcDbEntity
  8
TEXT
100
AcDbText
 10
130.0
 20
35.5
 30
0.0
 40
3.4999999999999996
  1
Nicht bemaßte Radien R2
 11
130.0
 21
35.5
 31
0.0
100
AcDbText
  0
TEXT
  5
234
330
17
100
AcDbEntity
  8
TEXT
100
AcDbText
 10
130.0
 20
30.25
 30
0.0
 40
3.4999999999999996
  1
Oberflächen nach DIN EN ISO 1302
 11
130.0
 21
30.25
 31
0.0
100
AcDbText
  0
TEXT
  5
235
330
17
100
AcDbEntity
  8
TEXT
100
AcDbText
 10
130.0
 20
24.66
 30
0.0
 40
3.4999999999999996
  1
Werkstückkanten nach DIN ISO 13715
 11
130.0
 21
24.66
 31
0.0
100
AcDbText
  0
TEXT
  5
236
330
17
100
AcDbEntity
  8
TEXT
100
AcDbText
 10
130.0
 20
18.82
 30
0.0
 40
3.4999999999999996
  1
Allgemeintoleranzen ISO 2768-mK
 11
130.0
 21
18.82
 31
0.0
100
AcDbText
  0
TEXT
  5
237
330
17
100
AcDbEntity
  8
TEXT
100
AcDbText
 10
130.0
 20
12.81
 30
0.0
 40
3.4999999999999996
  1
Gusstoleranzen DIN 1686 - GTB 18
 11
130.0
 21
12.81
 31
0.0
100
AcDbText
  0
LINE
  5
238
330
17
100
AcDbEntity
  8
KANTEN
370
50
100
AcDbLine
 10
229.97
 20
45.95
 30
0.0
 11
410.0
 21
45.95
 31
0.0
  0
LINE
  5
239
330
17
100
AcDbEntity
  8
KANTEN
370
50
100
AcDbLine
 10
229.97
 20
37.0
 30
0.0
 11
410.0
 21
37.0
 31
0.0
  0
LINE
  5
23A
330
17
100
AcDbEntity
  8
KANTEN
370
50
100
AcDbLine
 10
229.97
 20
10.0
 30
0.0
 11
229.97
 21
45.95
 31
0.0
  0
LINE
  5
23B
330
17
100
AcDbEntity
  8
KANTEN
370
50
100
AcDbLine
 10
254.99
 20
37.0
 30
0.0
 11
254.99
 21
45.95
 31
0.0
  0
LINE
  5
23C
330
17
100
AcDbEntity
  8
KANTEN
370
50
100
AcDbLine
 10
342.0
 20
37.0
 30
0.0
 11
342.0
 21
45.95
 31
0.0
  0
LINE
  5
23D
330
17
100
AcDbEntity
  8
KANTEN
370
50
100
AcDbLine
 10
385.0
 20
37.0
 30
0.0
 11
385.0
 21
45.95
 31
0.0
  0
LINE
  5
23E
330
17
100
AcDbEntity
  8
KANTEN
370
50
100
AcDbLine
 10
299.0
 20
10.0
 30
0.0
 11
299.0
 21
45.95
 31
0.0
  0
LINE
  5
23F
330
17
100
AcDbEntity
  8
KANTEN
370
50
100
AcDbLine
 10
359.0
 20
10.0
 30
0.0
 11
359.0
 21
37.0
 31
0.0
  0
LINE
  5
240
330
17
100
AcDbEntity
  8
KANTEN
370
50
100
AcDbLine
 10
299.0
 20
27.96
 30
0.0
 11
410.0
 21
27.96
 31
0.0
  0
LINE
  5
241
330
17
100
AcDbEntity
  8
KANTEN
370
50
100
AcDbLine
 10
359.0
 20
19.0
 30
0.0
 11
410.0
 21
19.0
 31
0.0
  0
LINE
  5
242
330
17
100
AcDbEntity
  8
KANTEN
370
50
100
AcDbLine
 10
366.0
 20
10.0
 30
0.0
 11
366.0
 21
19.0
 31
0.0
  0
LINE
  5
243
330
17
100
AcDbEntity
  8
KANTEN
370
50
100
AcDbLine
 10
391.0
 20
10.0
 30
0.0
 11
391.0
 21
19.0
 31
0.0
  0
LINE
  5
244
330
17
100
AcDbEntity
  8
KANTEN
370
50
100
AcDbLine
 10
401.0
 20
10.0
 30
0.0
 11
401.0
 21
19.0
 31
0.0
  0
TEXT
  5
245
330
17
100
AcDbEntity
  8
TEXT
100
AcDbText
 10
231.17
 20
42.37
 30
0.0
 40
2.5000000000000004
  1
Verantw. Abt.
 11
231.17
 21
42.37
 31
0.0
100
AcDbText
  0
TEXT
  5
246
330
17
100
AcDbEntity
  8
TEXT
100
AcDbText
 10
256.25
 20
42.37
 30
0.0
 40
2.5000000000000004
  1
Technische Referenz
 11
256.25
 21
42.37
 31
0.0
100
AcDbText
  0
TEXT
  5
247
330
17
100
AcDbEntity
  8
TEXT
100
AcDbText
 10
256.42
 20
38.34
 30
0.0
 40
2.5000000000000004
  1
Projekt Fliehkraftkupplung
 11
256.42
 21
38.34
 31
0.0
100
AcDbText
  0
TEXT
  5
248
330
17
100
AcDbEntity
  8
TEXT
100
AcDbText
 10
300.34
 20
42.37
 30
0.0
 40
2.5000000000000004
  1
Erstellt durch
 11
300.34
 21
42.37
 31
0.0
100
AcDbText
  0
TEXT
  5
249
330
17
100
AcDbEntity
  8
TEXT
100
AcDbText
 10
343.25
 20
42.37
 30
0.0
 40
2.5000000000000004
  1
Genehmigt von
 11
343.25
 21
42.37
 31
0.0
100
AcDbText
  0
TEXT
  5
24A
330
17
100
AcDbEntity
  8
TEXT
100
AcDbText
 10
300.42
 20
33.37
 30
0.0
 40
2.5000000000000004
  1
Dokumentenart
 11
300.42
 21
33.37
 31
0.0
100
AcDbText
  0
TEXT
  5
24B
330
17
100
AcDbEntity
  8
TEXT
100
AcDbText
 10
300.34
 20
29.44
 30
0.0
 40
2.5000000000000004
  1
Einzelteilzeichnung
 11
300.34
 21
29.44
 31
0.0
100
AcDbText
  0
TEXT
  5
24C
330
17
100
AcDbEntity
  8
TEXT
100
AcDbText
 10
300.17
 20
24.37
 30
0.0
 40
2.5000000000000004
  1
Titel, Zusätzlicher Titel
 11
300.17
 21
24.37
 31
0.0
100
AcDbText
  0
TEXT
  5
24D
330
17
100
AcDbEntity
  8
TEXT
100
AcDbText
 10
329.0
 20
16.3
 30
0.0
 40
3.4999999999999996
  1
Antriebsnabe (Pos.1)
 72
1
 11
329.0
 21
16.3
 31
0.0
100
AcDbText
  0
TEXT
  5
24E
330
17
100
AcDbEntity
  8
TEXT
100
AcDbText
 10
360.34
 20
33.37
 30
0.0
 40
2.5000000000000004
  1
Dokumentenstatus
 11
360.34
 21
33.37
 31
0.0
100
AcDbText
  0
TEXT
  5
24F
330
17
100
AcDbEntity
  8
TEXT
100
AcDbText
 10
360.25
 20
24.28
 30
0.0
 40
2.5000000000000004
  1
Sachnummer
 11
360.25
 21
24.28
 31
0.0
100
AcDbText
  0
TEXT
  5
250
330
17
100
AcDbEntity
  8
TEXT
100
AcDbText
 10
360.4
 20
20.5
 30
0.0
 40
2.5000000000000004
  1
14.2.5.2
 11
360.4
 21
20.5
 31
0.0
100
AcDbText
  0
TEXT
  5
251
330
17
100
AcDbEntity
  8
TEXT
100
AcDbText
 10
359.64
 20
15.3
 30
0.0
 40
2.5000000000000004
  1
Änd.
 11
359.64
 21
15.3
 31
0.0
100
AcDbText
  0
TEXT
  5
252
330
17
100
AcDbEntity
  8
TEXT
100
AcDbText
 10
367.15
 20
15.38
 30
0.0
 40
2.5000000000000004
  1
Ausgabedatum
 11
367.15
 21
15.38
 31
0.0
100
AcDbText
  0
TEXT
  5
253
330
17
100
AcDbEntity
  8
TEXT
100
AcDbText
 10
392.23
 20
15.3
 30
0.0
 40
2.5000000000000004
  1
Spr.
 11
392.23
 21
15.3
 31
0.0
100
AcDbText
  0
TEXT
  5
254
330
17
100
AcDbEntity
  8
TEXT
100
AcDbText
 10
402.32
 20
15.38
 30
0.0
 40
2.5000000000000004
  1
Blatt
 11
402.32
 21
15.38
 31
0.0
100
AcDbText
  0
TEXT
  5
255
330
17
100
AcDbEntity
  8
TEXT
100
AcDbText
 10
230.43
 20
54.27
 30
0.0
 40
3.4999999999999996
  1
Werkstoff:
 11
230.43
 21
54.27
 31
0.0
100
AcDbText
  0
TEXT
  5
256
330
17
100
AcDbEntity
  8
TEXT
100
AcDbText
 10
255.42
 20
54.27
 30
0.0
 40
3.4999999999999996
  1
EN-GJS-700-2
 11
255.42
 21
54.27
 31
0.0
100
AcDbText
  0
TEXT
  5
257
330
17
100
AcDbEntity
  8
TEXT
100
AcDbText
 10
230.43
 20
48.3
 30
0.0
 40
3.4999999999999996
  1
Maßstab:
 11
230.43
 21
48.3
 31
0.0
100
AcDbText
  0
TEXT
  5
258
330
17
100
AcDbEntity
  8
TEXT
100
AcDbText
 10
255.42
 20
48.3
 30
0.0
 40
3.4999999999999996
  1
1:1
 11
255.42
 21
48.3
 31
0.0
100
AcDbText
  0
LWPOLYLINE
  5
259
330
17
100
AcDbEntity
  8
KANTEN
370
50
100
AcDbPolyline
 90
4
 70
1
 10
392.3
 20
49.9
 10
392.3
 20
53.8
 10
399.6
 20
55.5
 10
399.6
 20
48.5
  0
CIRCLE
  5
25A
330
17
100
AcDbEntity
  8
DUENN
370
50
100
AcDbCircle
 10
403.9
 20
51.8
 30
0.0
 40
3.6
  0
CIRCLE
  5
25B
330
17
100
AcDbEntity
  8
DUENN
370
50
100
AcDbCircle
 10
403.9
 20
51.8
 30
0.0
 40
1.75
  0
LINE
  5
25C
330
17
100
AcDbEntity
  8
MITTELLINIEN
370
25
100
AcDbLine
 10
390.8
 20
51.8
 30
0.0
 11
408.2
 21
51.8
 31
0.0
  0
LINE
  5
25D
330
17
100
AcDbEntity
  8
DUENN
370
25
100
AcDbLine
 10
403.9
 20
47.4
 30
0.0
 11
403.9
 21
56.2
 31
0.0
  0
ENDSEC
  0
SECTION
  2
OBJECTS
  0
DICTIONARY
  5
A
330
0
100
AcDbDictionary
281
1
  3
ACAD_COLOR
350
B
  3
ACAD_GROUP
350
C
  3
ACAD_LAYOUT
350
D
  3
ACAD_MATERIAL
350
E
  3
ACAD_MLEADERSTYLE
350
F
  3
ACAD_MLINESTYLE
350
10
  3
ACAD_PLOTSETTINGS
350
11
  3
ACAD_PLOTSTYLENAME
350
12
  3
ACAD_SCALELIST
350
14
  3
ACAD_TABLESTYLE
350
15
  3
ACAD_VISUALSTYLE
350
16
  3
EZDXF_META
350
2D
  0
DICTIONARY
  5
B
330
A
100
AcDbDictionary
281
1
  0
DICTIONARY
  5
C
330
A
100
AcDbDictionary
281
1
  0
DICTIONARY
  5
D
330
A
100
AcDbDictionary
281
1
  3
Model
350
1A
  3
Layout1
350
1E
  0
DICTIONARY
  5
E
330
A
100
AcDbDictionary
281
1
  3
ByBlock
350
1F
  3
ByLayer
350
20
  3
Global
350
21
  0
DICTIONARY
  5
F
330
A
100
AcDbDictionary
281
1
  3
Standard
350
2C
  0
DICTIONARY
  5
10
330
A
100
AcDbDictionary
281
1
  3
Standard
350
22
  0
DICTIONARY
  5
11
330
A
100
AcDbDictionary
281
1
  0
ACDBDICTIONARYWDFLT
  5
12
330
A
100
AcDbDictionary
281
1
  3
Normal
350
13
100
AcDbDictionaryWithDefault
340
13
  0
ACDBPLACEHOLDER
  5
13
330
12
  0
DICTIONARY
  5
14
330
A
100
AcDbDictionary
281
1
  0
DICTIONARY
  5
15
330
A
100
AcDbDictionary
281
1
  0
DICTIONARY
  5
16
330
A
100
AcDbDictionary
281
1
  3
2dWireframe
350
5A
  3
Basic
350
5B
  3
Brighten
350
5C
  3
ColorChange
350
5D
  3
Conceptual
350
5E
  3
Dim
350
5F
  3
EdgeColorOff
350
60
  3
Facepattern
350
61
  3
Flat
350
62
  3
FlatWithEdges
350
63
  3
Gouraud
350
64
  3
GouraudWithEdges
350
65
  3
Hidden
350
66
  3
JitterOff
350
67
  3
Linepattern
350
68
  3
Modeling
350
69
  3
OverhangOff
350
6A
  3
Realistic
350
6B
  3
Shaded
350
6C
  3
Shaded with edges
350
6D
  3
Shades of Gray
350
6E
  3
Sketchy
350
6F
  3
Thicken
350
70
  3
Wireframe
350
71
  3
X-Ray
350
72
  0
LAYOUT
  5
1A
330
D
100
AcDbPlotSettings
  1

  4
A3
  6

 40
7.5
 41
20.0
 42
7.5
 43
20.0
 44
420.0
 45
297.0
 46
0.0
 47
0.0
 48
0.0
 49
0.0
140
0.0
141
0.0
142
1.0
143
1.0
 70
1024
 72
1
 73
0
 74
5
  7

 75
16
 76
0
 77
2
 78
300
147
1.0
148
0.0
149
0.0
100
AcDbLayout
  1
Model
 70
1
 71
0
 10
0.0
 20
0.0
 11
420.0
 21
297.0
 12
0.0
 22
0.0
 32
0.0
 14
1e+20
 24
1e+20
 34
1e+20
 15
-1e+20
 25
-1e+20
 35
-1e+20
146
0.0
 13
0.0
 23
0.0
 33
0.0
 16
1.0
 26
0.0
 36
0.0
 17
0.0
 27
1.0
 37
0.0
 76
1
330
17
  0
LAYOUT
  5
1E
330
D
100
AcDbPlotSettings
  1

  4
A3
  6

 40
7.5
 41
20.0
 42
7.5
 43
20.0
 44
420.0
 45
297.0
 46
0.0
 47
0.0
 48
0.0
 49
0.0
140
0.0
141
0.0
142
1.0
143
1.0
 70
0
 72
1
 73
0
 74
5
  7

 75
16
 76
0
 77
2
 78
300
147
1.0
148
0.0
149
0.0
100
AcDbLayout
  1
Layout1
 70
1
 71
1
 10
0.0
 20
0.0
 11
420.0
 21
297.0
 12
0.0
 22
0.0
 32
0.0
 14
1e+20
 24
1e+20
 34
1e+20
 15
-1e+20
 25
-1e+20
 35
-1e+20
146
0.0
 13
0.0
 23
0.0
 33
0.0
 16
1.0
 26
0.0
 36
0.0
 17
0.0
 27
1.0
 37
0.0
 76
1
330
1B
  0
MATERIAL
  5
1F
102
{ACAD_REACTORS
330
E
102
}
330
E
100
AcDbMaterial
  1
ByBlock
  2

 70
0
 40
1.0
 71
1
 41
1.0
 91
-1023410177
 42
1.0
 72
1
  3

 73
1
 74
1
 75
1
 44
0.5
 73
0
 45
1.0
 46
1.0
 77
1
  4

 78
1
 79
1
170
1
 48
1.0
171
1
  6

172
1
173
1
174
1
140
1.0
141
1.0
175
1
  7

176
1
177
1
178
1
143
1.0
179
1
  8

270
1
271
1
272
1
145
1.0
146
1.0
273
1
  9

274
1
275
1
276
1
 42
1.0
 72
1
  3

 73
1
 74
1
 75
1
 94
63
  0
MATERIAL
  5
20
102
{ACAD_REACTORS
330
E
102
}
330
E
100
AcDbMaterial
  1
ByLayer
  2

 70
0
 40
1.0
 71
1
 41
1.0
 91
-1023410177
 42
1.0
 72
1
  3

 73
1
 74
1
 75
1
 44
0.5
 73
0
 45
1.0
 46
1.0
 77
1
  4

 78
1
 79
1
170
1
 48
1.0
171
1
  6

172
1
173
1
174
1
140
1.0
141
1.0
175
1
  7

176
1
177
1
178
1
143
1.0
179
1
  8

270
1
271
1
272
1
145
1.0
146
1.0
273
1
  9

274
1
275
1
276
1
 42
1.0
 72
1
  3

 73
1
 74
1
 75
1
 94
63
  0
MATERIAL
  5
21
102
{ACAD_REACTORS
330
E
102
}
330
E
100
AcDbMaterial
  1
Global
  2

 70
0
 40
1.0
 71
1
 41
1.0
 91
-1023410177
 42
1.0
 72
1
  3

 73
1
 74
1
 75
1
 44
0.5
 73
0
 45
1.0
 46
1.0
 77
1
  4

 78
1
 79
1
170
1
 48
1.0
171
1
  6

172
1
173
1
174
1
140
1.0
141
1.0
175
1
  7

176
1
177
1
178
1
143
1.0
179
1
  8

270
1
271
1
272
1
145
1.0
146
1.0
273
1
  9

274
1
275
1
276
1
 42
1.0
 72
1
  3

 73
1
 74
1
 75
1
 94
63
  0
MLINESTYLE
  5
22
102
{ACAD_REACTORS
330
10
102
}
330
10
100
AcDbMlineStyle
  2
Standard
 70
0
  3

 62
256
 51
90.0
 52
90.0
 71
2
 49
0.5
 62
256
  6
BYLAYER
 49
-0.5
 62
256
  6
BYLAYER
  0
MLEADERSTYLE
  5
2C
102
{ACAD_REACTORS
330
F
102
}
330
F
100
AcDbMLeaderStyle
179
2
170
2
171
1
172
0
 90
2
 40
0.0
 41
0.0
173
1
 91
-1056964608
 92
-2
290
1
 42
2.0
291
1
 43
8.0
  3
Standard
 44
4.0
300

342
29
174
1
175
1
176
0
178
1
 93
-1056964608
 45
4.0
292
0
297
0
 46
4.0
 94
-1056964608
 47
1.0
 49
1.0
140
1.0
294
1
141
0.0
177
0
142
1.0
295
0
296
0
143
3.75
271
0
272
9
273
9
  0
DICTIONARY
  5
2D
330
A
100
AcDbDictionary
280
1
281
1
  3
CREATED_BY_EZDXF
350
2E
  3
WRITTEN_BY_EZDXF
350
260
  0
DICTIONARYVAR
  5
2E
330
2D
100
DictionaryVariables
280
0
  1
1.4.4 @ 2026-10-09T08:08:28.960164+00:00
  0
VISUALSTYLE
  5
5A
102
{ACAD_REACTORS
330
16
102
}
330
16
100
AcDbVisualStyle
  2
2dWireframe
 70
4
 90
0
 40
0.6
 62
7
290
0
291
0
  0
VISUALSTYLE
  5
5B
102
{ACAD_REACTORS
330
16
102
}
330
16
100
AcDbVisualStyle
  2
Basic
 70
7
 90
1
 40
0.6
 62
7
290
0
291
1
  0
VISUALSTYLE
  5
5C
102
{ACAD_REACTORS
330
16
102
}
330
16
100
AcDbVisualStyle
  2
Brighten
 70
12
 90
2
 40
0.6
 62
7
290
0
291
1
  0
VISUALSTYLE
  5
5D
102
{ACAD_REACTORS
330
16
102
}
330
16
100
AcDbVisualStyle
  2
ColorChange
 70
16
 90
2
 40
0.6
 62
8
290
0
291
1
  0
VISUALSTYLE
  5
5E
102
{ACAD_REACTORS
330
16
102
}
330
16
100
AcDbVisualStyle
  2
Conceptual
 70
9
 90
3
 40
0.6
 62
7
290
0
291
0
  0
VISUALSTYLE
  5
5F
102
{ACAD_REACTORS
330
16
102
}
330
16
100
AcDbVisualStyle
  2
Dim
 70
11
 90
2
 40
0.6
 62
7
290
0
291
1
  0
VISUALSTYLE
  5
60
102
{ACAD_REACTORS
330
16
102
}
330
16
100
AcDbVisualStyle
  2
EdgeColorOff
 70
22
 90
2
 40
0.6
 62
7
290
0
291
1
  0
VISUALSTYLE
  5
61
102
{ACAD_REACTORS
330
16
102
}
330
16
100
AcDbVisualStyle
  2
Facepattern
 70
15
 90
2
 40
0.6
 62
7
290
0
291
1
  0
VISUALSTYLE
  5
62
102
{ACAD_REACTORS
330
16
102
}
330
16
100
AcDbVisualStyle
  2
Flat
 70
0
 90
2
 40
0.6
 62
7
290
0
291
1
  0
VISUALSTYLE
  5
63
102
{ACAD_REACTORS
330
16
102
}
330
16
100
AcDbVisualStyle
  2
FlatWithEdges
 70
1
 90
2
 40
0.6
 62
7
290
0
291
1
  0
VISUALSTYLE
  5
64
102
{ACAD_REACTORS
330
16
102
}
330
16
100
AcDbVisualStyle
  2
Gouraud
 70
2
 90
2
 40
0.6
 62
7
290
0
291
1
  0
VISUALSTYLE
  5
65
102
{ACAD_REACTORS
330
16
102
}
330
16
100
AcDbVisualStyle
  2
GouraudWithEdges
 70
3
 90
2
 40
0.6
 62
7
290
0
291
1
  0
VISUALSTYLE
  5
66
102
{ACAD_REACTORS
330
16
102
}
330
16
100
AcDbVisualStyle
  2
Hidden
 70
6
 90
1
 40
0.6
 62
7
290
0
291
0
  0
VISUALSTYLE
  5
67
102
{ACAD_REACTORS
330
16
102
}
330
16
100
AcDbVisualStyle
  2
JitterOff
 70
20
 90
2
 40
0.6
 62
7
290
0
291
1
  0
VISUALSTYLE
  5
68
102
{ACAD_REACTORS
330
16
102
}
330
16
100
AcDbVisualStyle
  2
Linepattern
 70
14
 90
2
 40
0.6
 62
7
290
0
291
1
  0
VISUALSTYLE
  5
69
102
{ACAD_REACTORS
330
16
102
}
330
16
100
AcDbVisualStyle
  2
Modeling
 70
10
 90
2
 40
0.6
 62
7
290
0
291
0
  0
VISUALSTYLE
  5
6A
102
{ACAD_REACTORS
330
16
102
}
330
16
100
AcDbVisualStyle
  2
OverhangOff
 70
21
 90
2
 40
0.6
 62
7
290
0
291
1
  0
VISUALSTYLE
  5
6B
102
{ACAD_REACTORS
330
16
102
}
330
16
100
AcDbVisualStyle
  2
Realistic
 70
8
 90
2
 40
0.6
 62
7
290
0
291
0
  0
VISUALSTYLE
  5
6C
102
{ACAD_REACTORS
330
16
102
}
330
16
100
AcDbVisualStyle
  2
Shaded
 70
27
 90
2
 40
0.6
 62
7
290
0
291
0
  0
VISUALSTYLE
  5
6D
102
{ACAD_REACTORS
330
16
102
}
330
16
100
AcDbVisualStyle
  2
Shaded with edges
 70
26
 90
2
 40
0.6
 62
7
290
0
291
0
  0
VISUALSTYLE
  5
6E
102
{ACAD_REACTORS
330
16
102
}
330
16
100
AcDbVisualStyle
  2
Shades of Gray
 70
23
 90
2
 40
0.6
 62
7
290
0
291
0
  0
VISUALSTYLE
  5
6F
102
{ACAD_REACTORS
330
16
102
}
330
16
100
AcDbVisualStyle
  2
Sketchy
 70
24
 90
1
 40
0.6
 62
7
290
0
291
0
  0
VISUALSTYLE
  5
70
102
{ACAD_REACTORS
330
16
102
}
330
16
100
AcDbVisualStyle
  2
Thicken
 70
13
 90
2
 40
0.6
 62
7
290
0
291
1
  0
VISUALSTYLE
  5
71
102
{ACAD_REACTORS
330
16
102
}
330
16
100
AcDbVisualStyle
  2
Wireframe
 70
5
 90
0
 40
0.6
 62
7
290
0
291
0
  0
VISUALSTYLE
  5
72
102
{ACAD_REACTORS
330
16
102
}
330
16
100
AcDbVisualStyle
  2
X-Ray
 70
25
 90
2
 40
0.5
 62
7
290
0
291
0
  0
DICTIONARYVAR
  5
260
330
2D
100
DictionaryVariables
280
0
  1
1.4.4 @ 2026-10-09T08:08:29.012738+00:00
  0
ENDSEC
  0
EOF
